<?xml version="1.0" encoding="utf-8"?>
<!-- Generator: Adobe Illustrator 16.0.0, SVG Export Plug-In . SVG Version: 6.00 Build 0)  -->
<!DOCTYPE svg PUBLIC "-//W3C//DTD SVG 1.1//EN" "http://www.w3.org/Graphics/SVG/1.1/DTD/svg11.dtd">
<svg version="1.1" id="Layer_1" xmlns="http://www.w3.org/2000/svg" xmlns:xlink="http://www.w3.org/1999/xlink" x="0px" y="0px"
	 width="823.898px" height="1100px" viewBox="0 0 823.898 1100" enable-background="new 0 0 823.898 1100" xml:space="preserve">
<g id="body">
	<g>
		<g>
			<path fill="#6A71FF" d="M534.086,522.41c-2.359-1.809-6.7-3.585-9.646-3.955l-106.361-8.872
				c-2.947-0.374-5.358,0.914-5.358,2.854c0,1.941-0.173,3.542-0.385,3.557c-0.209,0.014-0.557,0.015-0.767,0
				c-0.207-0.016-0.383-1.616-0.383-3.557c0-1.939-2.41-3.226-5.356-2.854l-106.363,8.872c-2.947,0.37-7.287,2.146-9.646,3.955
				L119.118,660.051c-2.359,1.808-2.899,5.277-1.2,7.713l21.906,31.409c1.699,2.436,5.054,2.994,7.453,1.246l113.817-85.841
				c2.401-1.749,4.763-0.786,5.249,2.146l20.438,98.954c0.487,2.932,0.567,7.734,0.181,10.683l-18.799,127.558
				c-0.388,2.946-0.561,7.777-0.384,10.742l15.683,229.947c0.176,2.966,2.75,5.392,5.72,5.392h103.84c2.971,0,5.4-2.431,5.4-5.4
				V864.672c0-2.97,2.43-5.4,5.4-5.4h1.96c2.971,0,5.746,0,6.167,0s3.196,0,6.167,0h1.958c2.971,0,5.399,2.432,5.399,5.4V1094.6
				c0,2.972,2.431,5.4,5.4,5.4h103.84c2.97,0,5.545-2.426,5.721-5.391l15.681-229.948c0.176-2.965,0.01-7.801-0.369-10.743
				l-18.432-127.555c-0.383-2.948-0.299-7.754,0.178-10.688l20.077-98.944c0.475-2.934,2.829-3.899,5.229-2.15l113.817,85.841
				c2.4,1.748,5.752,1.188,7.45-1.246l21.908-31.409c1.697-2.435,1.157-5.905-1.198-7.712L534.086,522.41z"/>
			<path fill="none" stroke="#000000" stroke-width="5" stroke-miterlimit="10" d="M534.086,522.41
				c-2.359-1.809-6.7-3.585-9.646-3.955l-106.361-8.872c-2.947-0.374-5.358,0.914-5.358,2.854c0,1.941-0.173,3.542-0.385,3.557
				c-0.209,0.014-0.557,0.015-0.767,0c-0.207-0.016-0.383-1.616-0.383-3.557c0-1.939-2.41-3.226-5.356-2.854l-106.363,8.872
				c-2.947,0.37-7.287,2.146-9.646,3.955L119.118,660.051c-2.359,1.808-2.899,5.277-1.2,7.713l21.906,31.409
				c1.699,2.436,5.054,2.994,7.453,1.246l113.817-85.841c2.401-1.749,4.763-0.786,5.249,2.146l20.438,98.954
				c0.487,2.932,0.567,7.734,0.181,10.683l-18.799,127.558c-0.388,2.946-0.561,7.777-0.384,10.742l15.683,229.947
				c0.176,2.966,2.75,5.392,5.72,5.392h103.84c2.971,0,5.4-2.431,5.4-5.4V864.672c0-2.97,2.43-5.4,5.4-5.4h1.96
				c2.971,0,5.746,0,6.167,0s3.196,0,6.167,0h1.958c2.971,0,5.399,2.432,5.399,5.4V1094.6c0,2.972,2.431,5.4,5.4,5.4h103.84
				c2.97,0,5.545-2.426,5.721-5.391l15.681-229.948c0.176-2.965,0.01-7.801-0.369-10.743l-18.432-127.555
				c-0.383-2.948-0.299-7.754,0.178-10.688l20.077-98.944c0.475-2.934,2.829-3.899,5.229-2.15l113.817,85.841
				c2.4,1.748,5.752,1.188,7.45-1.246l21.908-31.409c1.697-2.435,1.157-5.905-1.198-7.712L534.086,522.41z"/>
		</g>
		<path fill="#6A71FF" stroke="#000000" stroke-width="5" stroke-miterlimit="10" d="M403.026,1100
			c0.526-3.293,0.878-6.629,0.878-10.058c0-35.817-29.032-64.848-64.844-64.848s-64.842,29.029-64.842,64.848
			c0,3.429,0.34,6.765,0.874,10.058H403.026z"/>
		<path fill="#6A71FF" stroke="#000000" stroke-width="5" stroke-miterlimit="10" d="M185.057,702.548
			c0,38.854-31.501,70.356-70.357,70.356c-38.856,0-70.36-31.506-70.36-70.356c0-38.858,31.501-70.358,70.36-70.358
			C153.556,632.19,185.057,663.689,185.057,702.548z"/>
		<path fill="#6A71FF" stroke="#000000" stroke-width="5" stroke-miterlimit="10" d="M610.207,247.03
			c0-135.403-88.012-224.529-197.488-226.971V20c-0.258,0.003-0.512,0.023-0.769,0.03c-0.256-0.007-0.507-0.027-0.767-0.03v0.06
			c-109.479,2.44-197.488,91.567-197.488,226.97c0,135.396,88.009,266.27,197.488,269.868v0.091c0.26-0.007,0.511-0.039,0.767-0.046
			c0.257,0.006,0.511,0.039,0.769,0.046v-0.091C522.195,513.3,610.207,382.427,610.207,247.03z"/>
		<path fill="#6A71FF" stroke="#000000" stroke-width="5" stroke-miterlimit="10" d="M547.458,1100
			c0.529-3.293,0.875-6.629,0.875-10.058c0-35.817-29.033-64.848-64.839-64.848c-35.812,0-64.845,29.029-64.845,64.848
			c0,3.429,0.34,6.765,0.874,10.058H547.458z"/>
		<path fill="#6A71FF" stroke="#000000" stroke-width="5" stroke-miterlimit="10" d="M638.849,702.548
			c0,38.854,31.497,70.356,70.353,70.356c38.857,0,70.357-31.506,70.357-70.356c0-38.858-31.504-70.358-70.357-70.358
			C670.347,632.189,638.849,663.689,638.849,702.548z"/>
	</g>
</g>
<text transform="matrix(1 0 0 1 378.6499 579.3506)" font-family="'MyriadPro-Regular'" font-size="100">D</text>
</svg>
