<?xml version="1.0" encoding="utf-8"?>
<!-- Generator: Adobe Illustrator 16.0.0, SVG Export Plug-In . SVG Version: 6.00 Build 0)  -->
<!DOCTYPE svg PUBLIC "-//W3C//DTD SVG 1.1//EN" "http://www.w3.org/Graphics/SVG/1.1/DTD/svg11.dtd">
<svg version="1.1" id="Layer_1" xmlns="http://www.w3.org/2000/svg" xmlns:xlink="http://www.w3.org/1999/xlink" x="0px" y="0px"
	 width="823.898px" height="1100px" viewBox="0 0 823.898 1100" enable-background="new 0 0 823.898 1100" xml:space="preserve">
<g>
	<path fill="#6A71FF" d="M532.771,607.526c-2.225-1.576-6.404-2.985-9.284-3.139l-105.563-5.514c-2.88-0.15-5.234-0.293-5.234-0.318
		c0-0.024-0.169-0.034-0.374-0.02c-0.202,0.012-0.538,0.012-0.74,0c-0.201-0.017-0.371-0.004-0.371,0.02
		c0,0.024-2.355,0.168-5.236,0.318l-105.563,5.514c-2.879,0.15-7.056,1.563-9.281,3.139L129.257,722.186
		c-2.225,1.576-2.669,4.513-0.989,6.523l27.904,33.407c1.68,2.009,4.842,2.335,7.025,0.718l107.27-79.44
		c2.184-1.618,4.232-0.927,4.551,1.53l8.662,101.476c0.32,2.456,0.582,6.497,0.582,8.973l4,300.129c0,2.475,2.361,4.5,5.246,4.5
		H393.65c2.884,0,5.247-2.025,5.247-4.5V897.795c0-2.475,2.359-4.5,5.244-4.5h1.823c2.886,0,5.58,0,5.987,0c0.404,0,3.101,0,5.986,0
		h1.824c2.887,0,5.245,2.025,5.245,4.5V1095.5c0,2.475,2.36,4.5,5.247,4.5H530.39c2.884,0,5.246-2.025,5.246-4.5l4-300.129
		c0-2.475,0.263-6.512,0.584-8.973l8.662-101.476c0.321-2.457,2.369-3.148,4.553-1.532l107.265,79.442
		c2.186,1.617,5.346,1.293,7.025-0.718l27.905-33.407c1.683-2.012,1.234-4.947-0.986-6.523L532.771,607.526z"/>
	<path fill="none" stroke="#000000" stroke-width="5" stroke-miterlimit="10" d="M532.771,607.526
		c-2.225-1.576-6.404-2.985-9.284-3.139l-105.563-5.514c-2.88-0.15-5.234-0.293-5.234-0.318c0-0.024-0.169-0.034-0.374-0.02
		c-0.202,0.012-0.538,0.012-0.74,0c-0.201-0.017-0.371-0.004-0.371,0.02c0,0.024-2.355,0.168-5.236,0.318l-105.563,5.514
		c-2.879,0.15-7.056,1.563-9.281,3.139L129.257,722.186c-2.225,1.576-2.669,4.513-0.989,6.523l27.904,33.407
		c1.68,2.009,4.842,2.335,7.025,0.718l107.27-79.44c2.184-1.618,4.232-0.927,4.551,1.53l8.662,101.476
		c0.32,2.456,0.582,6.497,0.582,8.973l4,300.129c0,2.475,2.361,4.5,5.246,4.5H393.65c2.884,0,5.247-2.025,5.247-4.5V897.795
		c0-2.475,2.359-4.5,5.244-4.5h1.823c2.886,0,5.58,0,5.987,0c0.404,0,3.101,0,5.986,0h1.824c2.887,0,5.245,2.025,5.245,4.5V1095.5
		c0,2.475,2.36,4.5,5.247,4.5H530.39c2.884,0,5.246-2.025,5.246-4.5l4-300.129c0-2.475,0.263-6.512,0.584-8.973l8.662-101.476
		c0.321-2.457,2.369-3.148,4.553-1.532l107.265,79.442c2.186,1.617,5.346,1.293,7.025-0.718l27.905-33.407
		c1.683-2.012,1.234-4.947-0.986-6.523L532.771,607.526z"/>
</g>
<path fill="#6A71FF" stroke="#000000" stroke-width="5" stroke-miterlimit="10" d="M402.477,1100c0.486-3.047,0.81-6.133,0.81-9.305
	c0-33.133-26.858-59.99-59.985-59.99c-33.131,0-59.989,26.857-59.989,59.99c0,3.172,0.317,6.258,0.809,9.305H402.477z"/>
<path fill="#6A71FF" stroke="#000000" stroke-width="5" stroke-miterlimit="10" d="M200.308,751.176
	c0,32.164-26.078,58.246-58.244,58.246c-32.168,0-58.246-26.08-58.246-58.246c0-32.168,26.078-58.246,58.246-58.246
	C174.23,692.93,200.308,719.008,200.308,751.176z"/>
<path fill="#6A71FF" stroke="#000000" stroke-width="5" stroke-miterlimit="10" d="M576.074,387.946
	c0-112.092-72.859-185.876-163.484-187.896V200c-0.215,0.003-0.422,0.021-0.638,0.026c-0.211-0.005-0.419-0.023-0.635-0.026v0.05
	c-90.632,2.02-163.489,75.804-163.489,187.896c0,112.086,72.858,220.429,163.489,223.404v0.075c0.215-0.005,0.423-0.03,0.635-0.038
	c0.212,0.008,0.423,0.031,0.638,0.038v-0.075C503.215,608.375,576.074,500.032,576.074,387.946z"/>
<path fill="#6A71FF" stroke="#000000" stroke-width="5" stroke-miterlimit="10" d="M629.548,751.175
	c0,32.164,26.076,58.246,58.242,58.246c32.168,0,58.244-26.08,58.244-58.246c0-32.168-26.076-58.246-58.244-58.246
	C655.624,692.929,629.548,719.007,629.548,751.175z"/>
<path fill="#6A71FF" stroke="#000000" stroke-width="5" stroke-miterlimit="10" d="M539.464,1100c0.486-3.047,0.81-6.133,0.81-9.305
	c0-33.133-26.857-59.99-59.985-59.99c-33.131,0-59.988,26.857-59.988,59.99c0,3.172,0.316,6.258,0.81,9.305H539.464z"/>
<text transform="matrix(1 0 0 1 378.6499 579.3506)" font-family="'MyriadPro-Regular'" font-size="100">D</text>
</svg>
