<?xml version="1.0" encoding="utf-8"?>
<!-- Generator: Adobe Illustrator 16.0.0, SVG Export Plug-In . SVG Version: 6.00 Build 0)  -->
<!DOCTYPE svg PUBLIC "-//W3C//DTD SVG 1.1//EN" "http://www.w3.org/Graphics/SVG/1.1/DTD/svg11.dtd">
<svg version="1.1" id="Layer_1" xmlns="http://www.w3.org/2000/svg" xmlns:xlink="http://www.w3.org/1999/xlink" x="0px" y="0px"
	 width="823.898px" height="1100px" viewBox="0 0 823.898 1100" enable-background="new 0 0 823.898 1100" xml:space="preserve">
<g>
	<path fill="#6A71FF" d="M519.165,618.009c-2.063-1.507-5.854-2.987-8.429-3.296l-93.434-6.727
		c-2.574-0.313-4.681,0.762-4.681,2.379s-0.151,2.951-0.336,2.963c-0.183,0.012-0.486,0.012-0.669,0
		c-0.182-0.013-0.334-1.347-0.334-2.963c0-1.617-2.106-2.689-4.682-2.379l-93.433,6.727c-2.575,0.309-6.368,1.789-8.428,3.296
		L156.108,733.376c-2.061,1.505-2.533,4.397-1.048,6.427l19.139,26.174c1.485,2.029,4.416,2.496,6.512,1.039l98.936-67.532
		c2.098-1.458,4.161-0.655,4.585,1.788l14.363,78.462c0.425,2.44,0.495,6.444,0.158,8.9l-10.677,106.298
		c-0.338,2.455-0.49,6.481-0.336,8.952l11.954,191.624c0.154,2.471,2.403,4.492,4.998,4.492h90.723c2.595,0,4.718-2.025,4.718-4.5
		V903.894c0-2.476,2.124-4.5,4.718-4.5h1.714c2.595,0,5.02,0,5.388,0s2.792,0,5.388,0h1.711c2.594,0,4.718,2.024,4.718,4.5V1095.5
		c0,2.475,2.123,4.5,4.719,4.5h90.723c2.596,0,4.846-2.021,4.999-4.492l11.951-191.623c0.154-2.471,0.009-6.5-0.322-8.953
		l-10.354-106.295c-0.334-2.457-0.264-6.463,0.152-8.905l14.048-78.455c0.414-2.443,2.472-3.249,4.568-1.792l98.937,67.533
		c2.1,1.457,5.024,0.99,6.51-1.038l19.143-26.175c1.482-2.028,1.012-4.922-1.049-6.426L519.165,618.009z"/>
	<path fill="none" stroke="#000000" stroke-width="5" stroke-miterlimit="10" d="M519.165,618.009
		c-2.063-1.507-5.854-2.987-8.429-3.296l-93.434-6.727c-2.574-0.313-4.681,0.762-4.681,2.379s-0.151,2.951-0.336,2.963
		c-0.183,0.012-0.486,0.012-0.669,0c-0.182-0.013-0.334-1.347-0.334-2.963c0-1.617-2.106-2.689-4.682-2.379l-93.433,6.727
		c-2.575,0.309-6.368,1.789-8.428,3.296L156.108,733.376c-2.061,1.505-2.533,4.397-1.048,6.427l19.139,26.174
		c1.485,2.029,4.416,2.496,6.512,1.039l98.936-67.532c2.098-1.458,4.161-0.655,4.585,1.788l14.363,78.462
		c0.425,2.44,0.495,6.444,0.158,8.9l-10.677,106.298c-0.338,2.455-0.49,6.481-0.336,8.952l11.954,191.624
		c0.154,2.471,2.403,4.492,4.998,4.492h90.723c2.595,0,4.718-2.025,4.718-4.5V903.894c0-2.476,2.124-4.5,4.718-4.5h1.714
		c2.595,0,5.02,0,5.388,0s2.792,0,5.388,0h1.711c2.594,0,4.718,2.024,4.718,4.5V1095.5c0,2.475,2.123,4.5,4.719,4.5h90.723
		c2.596,0,4.846-2.021,4.999-4.492l11.951-191.623c0.154-2.471,0.009-6.5-0.322-8.953l-10.354-106.295
		c-0.334-2.457-0.264-6.463,0.152-8.905l14.048-78.455c0.414-2.443,2.472-3.249,4.568-1.792l98.937,67.533
		c2.1,1.457,5.024,0.99,6.51-1.038l19.143-26.175c1.482-2.028,1.012-4.922-1.049-6.426L519.165,618.009z"/>
</g>
<path fill="#6A71FF" stroke="#000000" stroke-width="5" stroke-miterlimit="10" d="M402.513,1100
	c0.439-2.744,0.731-5.523,0.731-8.381c0-29.848-24.194-54.039-54.036-54.039c-29.843,0-54.035,24.191-54.035,54.039
	c0,2.857,0.284,5.637,0.729,8.381H402.513L402.513,1100z"/>
<path fill="#6A71FF" stroke="#000000" stroke-width="5" stroke-miterlimit="10" d="M222.872,768.789
	c0,32.379-26.25,58.631-58.631,58.631c-32.381,0-58.634-26.254-58.634-58.631c0-32.381,26.251-58.631,58.634-58.631
	C196.621,710.158,222.872,736.408,222.872,768.789z"/>
<path fill="#6A71FF" stroke="#000000" stroke-width="5" stroke-miterlimit="10" d="M577.164,389.192
	c0-112.836-73.344-187.107-164.574-189.143V200c-0.215,0.003-0.426,0.02-0.64,0.025c-0.213-0.005-0.423-0.022-0.638-0.025v0.05
	c-91.233,2.034-164.573,76.306-164.573,189.143c0,112.831,73.34,221.891,164.573,224.89v0.076c0.215-0.006,0.425-0.033,0.638-0.039
	c0.214,0.005,0.425,0.033,0.64,0.039v-0.076C503.82,611.083,577.164,502.022,577.164,389.192z"/>
<path fill="#6A71FF" stroke="#000000" stroke-width="5" stroke-miterlimit="10" d="M527.873,1100
	c0.441-2.744,0.729-5.523,0.729-8.381c0-29.848-24.192-54.039-54.031-54.039c-29.844,0-54.036,24.191-54.036,54.039
	c0,2.857,0.282,5.637,0.727,8.381H527.873L527.873,1100z"/>
<path fill="#6A71FF" stroke="#000000" stroke-width="5" stroke-miterlimit="10" d="M601.031,768.789
	c0,32.379,26.248,58.631,58.627,58.631c32.381,0,58.632-26.254,58.632-58.631c0-32.381-26.253-58.631-58.632-58.631
	C627.28,710.158,601.031,736.408,601.031,768.789z"/>
<text transform="matrix(1 0 0 1 387.3501 579.3506)" font-family="'MyriadPro-Regular'" font-size="100">E</text>
</svg>
