<?xml version="1.0" encoding="utf-8"?>
<!-- Generator: Adobe Illustrator 16.0.0, SVG Export Plug-In . SVG Version: 6.00 Build 0)  -->
<!DOCTYPE svg PUBLIC "-//W3C//DTD SVG 1.1//EN" "http://www.w3.org/Graphics/SVG/1.1/DTD/svg11.dtd">
<svg version="1.1" id="Layer_3" xmlns="http://www.w3.org/2000/svg" xmlns:xlink="http://www.w3.org/1999/xlink" x="0px" y="0px"
	 width="8.759px" height="31.14px" viewBox="0 0 8.759 31.14" enable-background="new 0 0 8.759 31.14" xml:space="preserve">
<g>
	<polygon fill="#737144" points="5.825,16.48 4.855,16.48 3.895,16.48 2.924,16.48 1.955,16.48 1.955,17.45 0.985,17.45 
		0.985,18.419 1.955,18.419 1.955,19.4 1.955,20.37 1.955,21.33 1.955,22.299 1.955,23.27 1.955,24.24 1.955,25.209 1.955,26.18 
		1.955,27.15 1.955,28.12 1.955,29.089 1.955,30.06 2.924,30.06 2.924,29.089 2.924,28.12 2.924,27.15 2.924,26.18 2.924,25.209 
		2.924,24.24 2.924,23.27 2.924,22.299 3.895,22.299 3.895,21.33 4.855,21.33 4.855,22.299 5.825,22.299 5.825,23.27 5.825,24.24 
		5.825,25.209 5.825,26.18 5.825,27.15 5.825,28.12 5.825,29.089 5.825,30.06 6.804,30.06 6.804,29.089 6.804,28.12 6.804,27.15 
		6.804,26.18 6.804,25.209 6.804,24.24 6.804,23.27 6.804,22.299 6.804,21.33 6.804,20.37 6.804,19.4 6.804,18.419 6.804,17.45 
		6.804,16.48 	"/>
	<g>
		<polygon fill="#6D5217" points="1.955,2.91 1.955,3.88 1.955,4.85 1.955,5.82 0.985,5.82 0.985,6.79 0.985,7.76 0.985,8.73 
			1.955,8.73 1.955,7.76 2.924,7.76 2.924,8.73 2.924,9.69 2.924,10.66 3.895,10.66 3.895,9.69 3.895,8.73 3.895,7.76 3.895,6.79 
			3.895,5.82 3.895,4.85 3.895,3.88 3.895,2.91 2.924,2.91 		"/>
		<rect x="6.804" y="7.76" fill="#6D5217" width="0.971" height="0.97"/>
		<rect x="0.014" y="8.73" fill="#6D5217" width="0.971" height="0.96"/>
		<polygon fill="#6D5217" points="7.775,0.97 7.775,0 6.804,0 5.825,0 4.855,0 3.895,0 3.895,0.97 2.924,0.97 2.924,1.94 
			3.895,1.94 3.895,2.91 4.855,2.91 4.855,1.94 5.825,1.94 6.804,1.94 6.804,2.91 7.775,2.91 7.775,1.94 8.745,1.94 8.745,0.97 		
			"/>
		<polygon fill="#6D5217" points="6.804,5.82 5.825,5.82 5.825,6.79 5.825,7.76 6.804,7.76 6.804,6.79 		"/>
	</g>
	<g>
		<polygon fill="#C7B570" points="7.775,14.549 7.775,15.51 7.775,16.48 8.745,16.48 8.745,15.51 8.745,14.549 		"/>
		<polygon fill="#C7B570" points="6.804,17.45 6.804,18.419 6.804,19.4 6.804,20.37 6.804,21.33 6.804,22.299 7.775,22.299 
			7.775,21.33 7.775,20.37 7.775,19.4 7.775,18.419 7.775,17.45 7.775,16.48 6.804,16.48 		"/>
		<rect x="5.825" y="30.06" fill="#C7B570" width="0.979" height="0.97"/>
		<polygon fill="#C7B570" points="5.825,5.82 6.804,5.82 6.804,4.85 6.804,3.88 6.804,2.91 6.804,1.94 5.825,1.94 4.855,1.94 
			4.855,2.91 3.895,2.91 3.895,3.88 3.895,4.85 3.895,5.82 3.895,6.79 4.855,6.79 5.825,6.79 		"/>
		<rect x="2.924" y="1.94" fill="#C7B570" width="0.971" height="0.97"/>
		<rect x="1.955" y="30.06" fill="#C7B570" width="0.97" height="0.97"/>
		<polygon fill="#C7B570" points="0.985,20.37 0.985,21.33 0.985,22.299 1.955,22.299 1.955,21.33 1.955,20.37 1.955,19.4 
			1.955,18.419 0.985,18.419 0.985,19.4 		"/>
		<polygon fill="#C7B570" points="0.985,16.48 0.985,15.51 0.985,14.549 0.014,14.549 0.014,15.51 0.014,16.48 0.014,17.45 
			0.014,18.419 0.985,18.419 0.985,17.45 		"/>
	</g>
	<g>
		<polygon fill="#9C8F57" points="7.775,11.64 7.775,12.61 7.775,13.58 7.775,14.549 8.745,14.549 8.745,13.58 8.745,12.61 
			8.745,11.64 		"/>
		<polygon fill="#9C8F57" points="7.775,9.69 7.775,8.73 6.804,8.73 6.804,7.76 5.825,7.76 5.825,6.79 4.855,6.79 3.895,6.79 
			3.895,7.76 3.895,8.73 3.895,9.69 3.895,10.66 2.924,10.66 2.924,9.69 2.924,8.73 2.924,7.76 1.955,7.76 1.955,8.73 0.985,8.73 
			0.985,9.69 0.985,10.66 0.985,11.64 1.955,11.64 1.955,12.61 1.955,13.58 1.955,14.549 1.955,15.51 2.924,15.51 2.924,16.48 
			3.895,16.48 4.855,16.48 5.825,16.48 5.825,15.51 6.804,15.51 6.804,14.549 6.804,13.58 6.804,12.61 6.804,11.64 7.775,11.64 
			7.775,10.66 		"/>
		<polygon fill="#9C8F57" points="0.014,12.61 0.014,13.58 0.014,14.549 0.985,14.549 0.985,13.58 0.985,12.61 0.985,11.64 
			0.014,11.64 		"/>
	</g>
</g>
<g>
	<polygon fill="#B3B3B3" points="7.79,9.74 7.79,8.76 7.79,7.79 6.82,7.79 5.849,7.79 5.849,8.76 4.87,8.76 4.87,9.74 4.87,10.71 
		4.87,11.68 4.87,12.66 4.87,13.62 4.87,14.6 4.87,15.57 5.849,15.57 6.82,15.57 6.82,14.6 6.82,13.62 6.82,12.66 6.82,11.68 
		7.79,11.68 7.79,10.71 	"/>
	<polygon fill="#B3B3B3" points="7.79,11.68 7.79,12.66 7.79,13.62 7.79,14.6 7.79,15.57 8.759,15.57 8.759,14.6 8.759,13.62 
		8.759,12.66 8.759,11.68 	"/>
	<polygon fill="#B3B3B3" points="1.949,28.22 1.949,29.2 2.929,29.2 2.929,28.22 2.929,27.25 1.949,27.25 	"/>
	<polygon fill="#B3B3B3" points="6.82,16.54 5.849,16.54 4.87,16.54 3.899,16.54 2.929,16.54 1.949,16.54 1.949,17.52 0.989,17.52 
		0.009,17.52 0.009,18.49 0.989,18.49 0.989,19.47 0.989,20.43 1.949,20.43 1.949,21.41 1.949,22.39 1.949,23.35 1.949,24.33 
		1.949,25.299 2.929,25.299 2.929,24.33 2.929,23.35 2.929,22.39 3.899,22.39 3.899,21.41 4.87,21.41 4.87,22.39 5.849,22.39 
		5.849,23.35 5.849,24.33 5.849,25.299 6.82,25.299 6.82,24.33 6.82,23.35 6.82,22.39 6.82,21.41 6.82,20.43 7.79,20.43 7.79,19.47 
		7.79,18.49 7.79,17.52 6.82,17.52 	"/>
	<polygon fill="#B3B3B3" points="5.849,28.22 5.849,29.2 6.82,29.2 6.82,28.22 6.82,27.25 5.849,27.25 	"/>
	<polygon fill="#B3B3B3" points="1.949,12.66 1.949,13.62 1.949,14.6 1.949,15.57 2.929,15.57 3.899,15.57 3.899,14.6 3.899,13.62 
		3.899,12.66 3.899,11.68 3.899,10.71 3.899,9.74 3.899,8.76 2.929,8.76 2.929,7.79 1.949,7.79 1.949,8.76 0.989,8.76 0.989,9.74 
		0.989,10.71 0.989,11.68 1.949,11.68 	"/>
	<polygon fill="#B3B3B3" points="0.989,14.6 0.989,13.62 0.989,12.66 0.989,11.68 0.009,11.68 0.009,12.66 0.009,13.62 0.009,14.6 
		0.009,15.57 0.989,15.57 	"/>
</g>
<g>
	<polygon fill="#8C8C8C" points="1.949,21.41 1.949,20.43 0.989,20.43 0.989,21.41 0.989,22.39 1.949,22.39 	"/>
	<rect x="7.79" y="15.57" fill="#8C8C8C" width="0.97" height="0.97"/>
	<rect x="6.82" y="16.54" fill="#8C8C8C" width="0.97" height="0.98"/>
	<polygon fill="#8C8C8C" points="6.82,21.41 6.82,22.39 7.79,22.39 7.79,21.41 7.79,20.43 6.82,20.43 	"/>
	<polygon fill="#8C8C8C" points="1.949,26.27 1.949,27.25 2.929,27.25 2.929,26.27 2.929,25.299 1.949,25.299 	"/>
	<polygon fill="#8C8C8C" points="1.949,30.16 1.949,31.14 2.929,31.14 2.929,30.16 2.929,29.2 1.949,29.2 	"/>
	<polygon fill="#8C8C8C" points="5.849,30.16 5.849,31.14 6.82,31.14 6.82,30.16 6.82,29.2 5.849,29.2 	"/>
	<polygon fill="#8C8C8C" points="5.849,26.27 5.849,27.25 6.82,27.25 6.82,26.27 6.82,25.299 5.849,25.299 	"/>
	<polygon fill="#8C8C8C" points="5.849,15.57 4.87,15.57 4.87,14.6 4.87,13.62 4.87,12.66 4.87,11.68 4.87,10.71 4.87,9.74 
		4.87,8.76 5.849,8.76 5.849,7.79 6.82,7.79 6.82,6.81 6.82,5.84 6.82,4.87 5.849,4.87 4.87,4.87 3.899,4.87 3.899,3.89 3.899,2.93 
		4.87,2.93 4.87,1.95 5.849,1.95 6.82,1.95 7.79,1.95 7.79,0.98 7.79,0.01 6.82,0.01 5.849,0.01 4.87,0.01 3.899,0.01 3.899,0.98 
		2.929,0.98 2.929,1.95 2.929,2.93 1.949,2.93 1.949,3.89 1.949,4.87 1.949,5.84 1.949,6.81 1.949,7.79 2.929,7.79 2.929,8.76 
		3.899,8.76 3.899,9.74 3.899,10.71 3.899,11.68 3.899,12.66 3.899,13.62 3.899,14.6 3.899,15.57 2.929,15.57 2.929,16.54 
		3.899,16.54 4.87,16.54 5.849,16.54 	"/>
	<polygon fill="#8C8C8C" points="0.989,16.54 0.989,15.57 0.009,15.57 0.009,16.54 0.009,17.52 0.989,17.52 	"/>
</g>
<g>
	<polygon fill="#4D4D4D" points="5.84,21.4 4.869,21.4 3.9,21.4 2.92,21.4 2.92,20.43 1.96,20.43 1.96,21.4 1.96,22.38 1.96,23.34 
		2.92,23.34 2.92,22.38 3.9,22.38 4.869,22.38 5.84,22.38 6.821,22.38 6.821,21.4 	"/>
	<rect y="21.4" fill="#4D4D4D" width="0.98" height="0.98"/>
</g>
</svg>
