<?xml version="1.0" encoding="utf-8"?>
<!-- Generator: Adobe Illustrator 16.0.0, SVG Export Plug-In . SVG Version: 6.00 Build 0)  -->
<!DOCTYPE svg PUBLIC "-//W3C//DTD SVG 1.1//EN" "http://www.w3.org/Graphics/SVG/1.1/DTD/svg11.dtd">
<svg version="1.1" id="Layer_2" xmlns="http://www.w3.org/2000/svg" xmlns:xlink="http://www.w3.org/1999/xlink" x="0px" y="0px"
	 width="11.68px" height="35.02px" viewBox="0 0 11.68 35.02" enable-background="new 0 0 11.68 35.02" xml:space="preserve">
<g>
	<polygon fill="#737144" points="7.795,16.54 6.815,16.54 5.845,16.54 4.865,16.54 3.905,16.54 2.925,16.54 2.925,17.5 2.925,18.48 
		2.925,19.45 2.925,20.42 2.925,21.4 2.925,22.37 2.925,23.35 2.925,24.31 2.925,25.29 2.925,26.27 2.925,27.23 2.925,28.21 
		2.925,29.18 2.925,30.15 2.925,31.13 2.925,32.1 2.925,33.08 2.925,34.04 3.905,34.04 3.905,33.08 3.905,32.1 3.905,31.13 
		3.905,30.15 3.905,29.18 3.905,28.21 3.905,27.23 3.905,26.27 3.905,25.29 3.905,24.31 3.905,23.35 3.905,22.37 3.905,21.4 
		4.865,21.4 5.845,21.4 6.815,21.4 7.795,21.4 7.795,22.37 7.795,23.35 7.795,24.31 7.795,25.29 7.795,26.27 7.795,27.23 
		7.795,28.21 7.795,29.18 7.795,30.15 7.795,31.13 7.795,32.1 7.795,33.08 7.795,34.04 8.765,34.04 8.765,33.08 8.765,32.1 
		8.765,31.13 8.765,30.15 8.765,29.18 8.765,28.21 8.765,27.23 8.765,26.27 8.765,25.29 8.765,24.31 8.765,23.35 8.765,22.37 
		8.765,21.4 8.765,20.42 8.765,19.45 8.765,18.48 8.765,17.5 8.765,16.54 	"/>
	<g>
		<polygon fill="#6D5217" points="7.795,6.81 7.795,7.77 7.795,8.75 8.765,8.75 8.765,7.77 8.765,6.81 8.765,5.83 7.795,5.83 		"/>
		<polygon fill="#6D5217" points="7.795,0.96 7.795,0 6.815,0 5.845,0 4.865,0 4.865,0.96 3.905,0.96 3.905,1.94 3.905,2.91 
			3.905,3.89 3.905,4.86 3.905,5.83 2.925,5.83 2.925,6.81 2.925,7.77 3.905,7.77 3.905,6.81 4.865,6.81 4.865,5.83 4.865,4.86 
			5.845,4.86 5.845,3.89 5.845,2.91 5.845,1.94 6.815,1.94 7.795,1.94 8.765,1.94 8.765,0.96 		"/>
	</g>
	<g>
		<polygon fill="#C7B570" points="10.715,11.67 9.734,11.67 9.734,12.64 9.734,13.62 9.734,14.59 9.734,15.56 9.734,16.54 
			9.734,17.5 9.734,18.48 9.734,19.45 9.734,20.42 9.734,21.4 9.734,22.37 9.734,23.35 10.715,23.35 10.715,22.37 10.715,21.4 
			10.715,20.42 10.715,19.45 10.715,18.48 10.715,17.5 10.715,16.54 10.715,15.56 10.715,14.59 10.715,13.62 10.715,12.64 
			11.675,12.64 11.675,11.67 		"/>
		<rect x="7.795" y="34.04" fill="#C7B570" width="0.97" height="0.98"/>
		<polygon fill="#C7B570" points="6.815,1.94 5.845,1.94 5.845,2.91 5.845,3.89 5.845,4.86 4.865,4.86 4.865,5.83 4.865,6.81 
			5.845,6.81 6.815,6.81 7.795,6.81 7.795,5.83 8.765,5.83 8.765,4.86 8.765,3.89 8.765,2.91 8.765,1.94 7.795,1.94 		"/>
		<rect x="2.925" y="34.04" fill="#C7B570" width="0.98" height="0.98"/>
		<polygon fill="#C7B570" points="0.005,11.67 0.005,12.64 0.005,13.62 0.005,14.59 0.005,15.56 0.005,16.54 0.005,17.5 
			0.005,18.48 0.985,18.48 0.985,19.45 0.985,20.42 0.985,21.4 0.985,22.37 0.985,23.35 1.945,23.35 1.945,22.37 1.945,21.4 
			1.945,20.42 1.945,19.45 1.945,18.48 1.945,17.5 0.985,17.5 0.985,16.54 0.985,15.56 0.985,14.59 0.985,13.62 0.985,12.64 
			1.945,12.64 1.945,11.67 0.985,11.67 		"/>
	</g>
	<polygon fill="#9C8F57" points="10.715,9.73 10.715,8.75 10.715,7.77 9.734,7.77 9.734,6.81 8.765,6.81 8.765,7.77 8.765,8.75 
		7.795,8.75 7.795,7.77 7.795,6.81 6.815,6.81 5.845,6.81 4.865,6.81 3.905,6.81 3.905,7.77 2.925,7.77 2.925,6.81 1.945,6.81 
		1.945,7.77 0.985,7.77 0.985,8.75 0.985,9.73 0.005,9.73 0.005,10.69 0.005,11.67 0.985,11.67 1.945,11.67 1.945,12.64 
		1.945,13.62 2.925,13.62 2.925,14.59 2.925,15.56 2.925,16.54 3.905,16.54 4.865,16.54 5.845,16.54 6.815,16.54 7.795,16.54 
		8.765,16.54 8.765,15.56 8.765,14.59 8.765,13.62 9.734,13.62 9.734,12.64 9.734,11.67 10.715,11.67 11.675,11.67 11.675,10.69 
		11.675,9.73 	"/>
</g>
<g>
	<rect x="7.79" y="34.04" fill="#4D4D4D" width="0.97" height="0.98"/>
	<polygon fill="#4D4D4D" points="7.79,16.54 6.82,16.54 5.84,16.54 4.87,16.54 3.9,16.54 2.92,16.54 2.92,17.5 3.9,17.5 4.87,17.5 
		5.84,17.5 5.84,18.48 5.84,19.45 6.82,19.45 6.82,18.48 6.82,17.5 7.79,17.5 8.76,17.5 8.76,16.54 	"/>
	<rect x="2.92" y="34.04" fill="#4D4D4D" width="0.98" height="0.98"/>
</g>
<g>
	<polygon fill="#B3B3B3" points="9.729,16.54 9.729,17.5 10.71,17.5 10.71,16.54 10.71,15.56 9.729,15.56 	"/>
	<polygon fill="#B3B3B3" points="9.729,0 9.729,0.96 8.76,0.96 7.79,0.96 7.79,0 6.82,0 5.84,0 4.87,0 4.87,0.96 3.9,0.96 3.9,1.94 
		4.87,1.94 5.84,1.94 6.82,1.94 7.79,1.94 8.76,1.94 9.729,1.94 10.71,1.94 10.71,0.96 10.71,0 	"/>
	<polygon fill="#B3B3B3" points="9.729,9.73 8.76,9.73 7.79,9.73 7.79,10.69 8.76,10.69 9.729,10.69 	"/>
	<rect x="7.79" y="14.59" fill="#B3B3B3" width="0.97" height="0.97"/>
	<polygon fill="#B3B3B3" points="5.84,7.77 5.84,8.75 5.84,9.73 5.84,10.69 5.84,11.67 5.84,12.64 5.84,13.62 5.84,14.59 
		5.84,15.56 5.84,16.54 6.82,16.54 6.82,15.56 6.82,14.59 6.82,13.62 6.82,12.64 6.82,11.67 6.82,10.69 6.82,9.73 6.82,8.75 
		6.82,7.77 6.82,6.81 5.84,6.81 	"/>
	<rect x="3.9" y="14.59" fill="#B3B3B3" width="0.97" height="0.97"/>
	<polygon fill="#B3B3B3" points="2.92,0.96 1.96,0.96 1.96,1.94 1.96,2.91 2.92,2.91 3.9,2.91 3.9,1.94 2.92,1.94 	"/>
	<polygon fill="#B3B3B3" points="0,16.54 0,17.5 0.98,17.5 0.98,16.54 0.98,15.56 0,15.56 	"/>
</g>
<g>
	<path fill="#8C8C8C" d="M10.71,9.73V8.75V7.77h-0.98V6.81H8.76v0.96v0.98H7.79V7.77V6.81H6.82v0.96v0.98v0.98v0.96v0.98v0.97v0.98
		v0.97v0.97v0.98h0.97h0.97v-0.98H7.79v-0.97h0.97v-0.97h0.97v0.97v0.97h0.98v-0.97v-0.97v-0.98h0.97v-0.97v-0.98V9.73H10.71z
		 M7.79,9.73h0.97h0.97v0.96H8.76H7.79V9.73z"/>
	<polygon fill="#8C8C8C" points="9.729,18.48 9.729,19.45 9.729,20.42 9.729,21.4 10.71,21.4 10.71,20.42 10.71,19.45 10.71,18.48 
		10.71,17.5 9.729,17.5 	"/>
	<polygon fill="#8C8C8C" points="6.82,17.5 6.82,18.48 6.82,19.45 5.84,19.45 5.84,18.48 5.84,17.5 4.87,17.5 3.9,17.5 2.92,17.5 
		2.92,18.48 2.92,19.45 2.92,20.42 2.92,21.4 2.92,22.37 2.92,23.35 2.92,24.31 2.92,25.29 2.92,26.27 2.92,27.23 2.92,28.21 
		2.92,29.18 2.92,30.15 2.92,31.13 2.92,32.1 2.92,33.08 2.92,34.04 3.9,34.04 3.9,33.08 3.9,32.1 3.9,31.13 3.9,30.15 3.9,29.18 
		3.9,28.21 3.9,27.23 3.9,26.27 3.9,25.29 3.9,24.31 3.9,23.35 3.9,22.37 3.9,21.4 4.87,21.4 5.84,21.4 6.82,21.4 7.79,21.4 
		7.79,22.37 7.79,23.35 7.79,24.31 7.79,25.29 7.79,26.27 7.79,27.23 7.79,28.21 7.79,29.18 7.79,30.15 7.79,31.13 7.79,32.1 
		7.79,33.08 7.79,34.04 8.76,34.04 8.76,33.08 8.76,32.1 8.76,31.13 8.76,30.15 8.76,29.18 8.76,28.21 8.76,27.23 8.76,26.27 
		8.76,25.29 8.76,24.31 8.76,23.35 8.76,22.37 8.76,21.4 8.76,20.42 8.76,19.45 8.76,18.48 8.76,17.5 7.79,17.5 	"/>
	<path fill="#8C8C8C" d="M2.92,13.62v0.97v0.97v0.98H3.9h0.97h0.97v-0.98v-0.97v-0.97v-0.98v-0.97v-0.98V9.73V8.75V7.77V6.81H4.87
		H3.9v0.96H2.92V6.81H1.96v0.96H0.98v0.98v0.98H0v0.96v0.98v0.97v0.98v0.97v0.97h0.98v-0.97v-0.97v-0.98h0.98v0.98H2.92z
		 M4.87,15.56H3.9v-0.97h0.97V15.56z"/>
	<polygon fill="#8C8C8C" points="0,17.5 0,18.48 0.98,18.48 0.98,19.45 0.98,20.42 0.98,21.4 1.96,21.4 1.96,20.42 1.96,19.45 
		1.96,18.48 1.96,17.5 0.98,17.5 	"/>
</g>
</svg>
