<?xml version="1.0" encoding="utf-8"?>
<!-- Generator: Adobe Illustrator 16.0.0, SVG Export Plug-In . SVG Version: 6.00 Build 0)  -->
<!DOCTYPE svg PUBLIC "-//W3C//DTD SVG 1.1//EN" "http://www.w3.org/Graphics/SVG/1.1/DTD/svg11.dtd">
<svg version="1.1" id="Layer_2" xmlns="http://www.w3.org/2000/svg" xmlns:xlink="http://www.w3.org/1999/xlink" x="0px" y="0px"
	 width="9.729px" height="31.13px" viewBox="0 0 9.729 31.13" enable-background="new 0 0 9.729 31.13" xml:space="preserve">
<g>
	<polygon fill="#C7B570" points="7.774,10.76 7.774,11.74 7.774,12.71 7.774,13.68 7.774,14.649 7.774,15.61 7.774,16.58 
		7.774,17.55 7.774,18.52 7.774,19.5 7.774,20.47 8.745,20.47 8.745,19.5 8.745,18.52 8.745,17.55 8.745,16.58 8.745,15.61 
		8.745,14.649 8.745,13.68 8.745,12.71 8.745,11.74 8.745,10.76 	"/>
	<rect x="6.795" y="30.16" fill="#C7B570" width="0.979" height="0.97"/>
	<polygon fill="#C7B570" points="5.825,1.07 5.825,2.04 4.865,2.04 4.865,3.01 4.87,3.01 4.87,3.98 4.865,3.98 4.865,3.01 
		3.895,3.01 3.895,3.98 3.895,4.95 3.899,4.95 3.899,5.92 4.87,5.92 4.87,4.95 5.825,4.95 6.795,4.95 6.795,3.98 6.795,3.01 
		6.795,2.04 6.795,1.07 	"/>
	<rect x="1.955" y="30.16" fill="#C7B570" width="0.97" height="0.97"/>
	<polygon fill="#737144" points="6.795,14.649 5.825,14.649 4.865,14.649 3.895,14.649 2.925,14.649 1.955,14.649 0.984,14.649 
		0.984,15.61 0.984,16.58 1.955,16.58 1.955,17.55 1.955,18.52 1.955,19.5 1.955,20.47 1.955,21.43 1.955,22.399 1.955,23.37 
		1.955,24.34 1.955,25.31 1.955,26.28 1.955,27.25 1.955,28.22 1.955,29.189 1.955,30.16 2.925,30.16 2.925,29.189 2.925,28.22 
		2.925,27.25 2.925,26.28 2.925,25.31 2.925,24.34 2.925,23.37 2.925,22.399 2.925,21.43 2.925,20.47 2.925,19.5 3.895,19.5 
		3.895,18.52 4.865,18.52 5.825,18.52 5.825,19.5 6.795,19.5 6.795,20.47 6.795,21.43 6.795,22.399 6.795,23.37 6.795,24.34 
		6.795,25.31 6.795,26.28 6.795,27.25 6.795,28.22 6.795,29.189 6.795,30.16 7.774,30.16 7.774,29.189 7.774,28.22 7.774,27.25 
		7.774,26.28 7.774,25.31 7.774,24.34 7.774,23.37 7.774,22.399 7.774,21.43 7.774,20.47 7.774,19.5 7.774,18.52 7.774,17.55 
		7.774,16.58 7.774,15.61 7.774,14.649 	"/>
	<g>
		<polygon fill="#6D5217" points="6.795,0.1 5.825,0.1 4.865,0.1 3.895,0.1 3.895,1.07 3.895,2.04 2.925,2.04 2.925,3.01 
			2.925,3.98 1.955,3.98 1.955,4.95 1.955,5.92 2.925,5.92 2.925,6.89 2.925,7.86 3.895,7.86 3.895,6.89 3.895,5.92 3.895,4.95 
			3.895,3.98 3.895,3.01 4.865,3.01 4.865,2.04 5.825,2.04 5.825,1.07 6.795,1.07 6.795,2.04 7.774,2.04 7.774,1.07 7.774,0.1 		"/>
		<polygon fill="#6D5217" points="4.865,4.95 4.865,5.92 4.865,6.89 4.865,7.86 5.825,7.86 5.825,6.89 6.795,6.89 6.795,5.92 
			6.795,4.95 5.825,4.95 		"/>
		<rect x="0.984" y="5.92" fill="#6D5217" width="0.971" height="0.97"/>
	</g>
	<g>
		<polygon fill="#C7B570" points="0.984,16.58 0.984,17.55 0.984,18.52 0.984,19.5 0.984,20.47 1.955,20.47 1.955,19.5 1.955,18.52 
			1.955,17.55 1.955,16.58 		"/>
		<polygon fill="#C7B570" points="0.984,14.649 0.984,13.68 0.984,12.71 0.984,11.74 0.984,10.76 0.015,10.76 0.015,11.74 
			0.015,12.71 0.015,13.68 0.015,14.649 0.015,15.61 0.015,16.58 0.984,16.58 0.984,15.61 		"/>
	</g>
	<polygon fill="#9C8F57" points="7.774,7.86 7.774,6.89 7.774,5.92 6.795,5.92 6.795,6.89 5.825,6.89 5.825,7.86 4.865,7.86 
		4.865,6.89 4.865,5.92 3.895,5.92 3.895,6.89 3.895,7.86 2.925,7.86 2.925,6.89 2.925,5.92 1.955,5.92 1.955,6.89 0.984,6.89 
		0.984,7.86 0.984,8.83 0.015,8.83 0.015,9.79 0.015,10.76 0.984,10.76 1.955,10.76 1.955,11.74 2.925,11.74 2.925,12.71 
		1.955,12.71 1.955,13.68 0.984,13.68 0.984,14.649 1.955,14.649 2.925,14.649 3.895,14.649 4.865,14.649 5.825,14.649 
		6.795,14.649 7.774,14.649 7.774,13.68 7.774,12.71 6.795,12.71 6.795,11.74 7.774,11.74 7.774,10.76 8.745,10.76 8.745,9.79 
		8.745,8.83 8.745,7.86 	"/>
</g>
<rect x="7.78" y="18.479" fill="#C7B570" width="0.979" height="0.98"/>
<g>
	<polygon fill="#B3B3B3" points="1.95,0.97 0.98,0.97 0.98,1.94 0.98,2.92 1.95,2.92 2.92,2.92 2.92,1.94 1.95,1.94 	"/>
	<polygon fill="#B3B3B3" points="8.76,0 8.76,0.97 7.78,0.97 7.78,0 6.81,0 5.84,0 4.86,0 3.9,0 3.9,0.97 2.92,0.97 2.92,1.94 
		3.9,1.94 4.86,1.94 5.84,1.94 6.81,1.94 7.78,1.94 8.76,1.94 9.729,1.94 9.729,0.97 9.729,0 	"/>
	<rect x="6.81" y="12.65" fill="#B3B3B3" width="0.971" height="0.96"/>
	<rect x="6.81" y="8.75" fill="#B3B3B3" width="0.971" height="0.98"/>
	<polygon fill="#B3B3B3" points="4.86,8.75 4.86,9.73 4.86,10.7 4.86,11.67 4.86,12.65 4.86,13.61 4.86,14.59 5.84,14.59 
		5.84,13.61 5.84,12.65 5.84,11.67 5.84,10.7 5.84,9.73 5.84,8.75 5.84,7.78 4.86,7.78 	"/>
	<rect x="2.92" y="12.65" fill="#B3B3B3" width="0.98" height="0.96"/>
</g>
<g>
	<rect x="6.81" y="30.16" fill="#4D4D4D" width="0.971" height="0.97"/>
	<polygon fill="#4D4D4D" points="6.81,14.59 5.84,14.59 4.86,14.59 3.9,14.59 2.92,14.59 1.95,14.59 0.98,14.59 0.98,15.57 
		1.95,15.57 2.92,15.57 3.9,15.57 4.86,15.57 5.84,15.57 5.84,16.53 5.84,17.51 6.81,17.51 6.81,16.53 6.81,15.57 7.78,15.57 
		7.78,14.59 	"/>
	<rect x="1.95" y="30.16" fill="#4D4D4D" width="0.97" height="0.97"/>
</g>
<path fill="#8C8C8C" d="M7.78,7.78V6.8V5.84H6.81V6.8H5.84v0.98v0.97v0.98v0.97v0.97v0.98v0.96v0.98h0.97H7.78v0.98H6.81v0.96v0.979
	H5.84V16.53v-0.96H4.86H3.9H2.92H1.95H0.98v-0.98h0.97h0.97H3.9h0.96v-0.98v-0.96v-0.98V10.7V9.73V8.75V7.78V6.8V5.84H3.9V6.8v0.98
	H2.92V6.8V5.84H1.95V6.8H0.98v0.98v0.97H0v0.98v0.97v0.97v0.98v0.96v0.98v0.98v0.96h0.98v0.979v0.97h0.97v0.98v0.96v0.979v0.98v0.96
	v0.98v0.97v0.97v0.98v0.97v0.979v0.971h0.97v-0.971V28.21v-0.97v-0.98v-0.97v-0.97v-0.98v-0.96v-0.98V20.42v-0.96H3.9v-0.98h0.96
	h0.98v0.98h0.97v0.96v0.979v0.98v0.96v0.98v0.97v0.97v0.98v0.97v0.979v0.971H7.78v-0.971V28.21v-0.97v-0.98v-0.97v-0.97v-0.98v-0.96
	v-0.98V20.42v-0.96v-0.98H8.76v-0.97V16.53v-0.96v-0.98v-0.98v-0.96v-0.98V10.7V9.73V8.75V7.78H7.78z M0.98,12.65v-0.98V10.7h0.97
	v0.97h0.97v0.98H3.9v0.96H2.92v-0.96H1.95v0.96H0.98V12.65z M7.78,12.65v0.96H6.81v-0.96v-0.98H7.78V12.65z M7.78,9.73H6.81V8.75
	H7.78V9.73z"/>
</svg>
