<?xml version="1.0" encoding="utf-8"?>
<!-- Generator: Adobe Illustrator 16.0.0, SVG Export Plug-In . SVG Version: 6.00 Build 0)  -->
<!DOCTYPE svg PUBLIC "-//W3C//DTD SVG 1.1//EN" "http://www.w3.org/Graphics/SVG/1.1/DTD/svg11.dtd">
<svg version="1.1" id="Layer_2" xmlns="http://www.w3.org/2000/svg" xmlns:xlink="http://www.w3.org/1999/xlink" x="0px" y="0px"
	 width="9.73px" height="31.13px" viewBox="0 0 9.73 31.13" enable-background="new 0 0 9.73 31.13" xml:space="preserve">
<g>
	<g>
		<path fill="#6D5217" d="M6.732,0.731C6.607,0.537,6.505,0.328,6.451,0.1H3.896v0.97H2.925v0.97h0.971v0.97h0.96V2.04h1.949V1.07
			h0.073C6.819,0.961,6.771,0.849,6.732,0.731z"/>
		<polygon fill="#6D5217" points="2.925,3.98 2.925,4.95 2.925,5.92 3.896,5.92 3.896,4.95 3.896,3.98 3.896,3.01 2.925,3.01 		"/>
	</g>
	<g>
		<rect x="1.955" y="30.16" fill="#C7B570" width="0.97" height="0.97"/>
		<rect x="5.825" y="30.16" fill="#C7B570" width="0.979" height="0.97"/>
		<rect x="2.925" y="2.04" fill="#C7B570" width="0.971" height="0.97"/>
		<polygon fill="#C7B570" points="0.985,20.47 0.985,21.43 0.985,22.399 0.985,23.37 1.955,23.37 1.955,22.399 1.955,21.43 
			1.955,20.47 1.955,19.5 1.955,18.52 0.985,18.52 0.985,19.5 		"/>
		<polygon fill="#C7B570" points="0.985,16.58 0.985,15.61 0.985,14.649 0.985,13.68 0.015,13.68 0.015,14.649 0.015,15.61 
			0.015,16.58 0.015,17.55 0.015,18.52 0.985,18.52 0.985,17.55 		"/>
		<polygon fill="#C7B570" points="6.805,17.55 6.805,18.52 6.805,19.5 6.805,20.47 6.805,21.43 6.805,22.399 6.805,23.37 
			7.775,23.37 7.775,22.399 7.775,21.43 7.775,20.47 7.775,19.5 7.775,18.52 7.775,17.55 7.775,16.58 6.805,16.58 		"/>
		<polygon fill="#C7B570" points="7.775,12.71 7.775,13.68 7.775,14.649 7.775,15.61 7.775,16.58 8.745,16.58 8.745,15.61 
			8.745,14.649 8.745,13.68 8.745,12.71 		"/>
		<polygon fill="#C7B570" points="5.825,5.92 6.805,5.92 6.805,4.95 6.805,3.98 6.805,3.01 6.805,2.04 5.825,2.04 4.855,2.04 
			4.855,3.01 3.896,3.01 3.896,3.98 3.896,4.95 3.896,5.92 3.896,6.89 4.855,6.89 5.825,6.89 		"/>
	</g>
	<g>
		<polygon fill="#9C8F57" points="0.015,12.71 0.015,13.68 0.985,13.68 0.985,12.71 0.985,11.74 0.015,11.74 		"/>
		<rect x="7.775" y="11.74" fill="#9C8F57" width="0.97" height="0.97"/>
		<polygon fill="#9C8F57" points="7.775,9.79 7.775,8.83 6.805,8.83 6.805,7.86 6.805,6.89 5.825,6.89 4.855,6.89 3.896,6.89 
			2.925,6.89 1.955,6.89 1.955,7.86 0.985,7.86 0.985,8.83 0.985,9.79 0.985,10.76 0.985,11.74 1.955,11.74 1.955,12.71 
			1.955,13.68 1.955,14.649 1.955,15.61 1.955,16.58 2.925,16.58 3.896,16.58 4.855,16.58 5.825,16.58 6.805,16.58 6.805,15.61 
			6.805,14.649 6.805,13.68 6.805,12.71 6.805,11.74 7.775,11.74 7.775,10.76 		"/>
	</g>
	<polygon fill="#737144" points="5.825,16.58 4.855,16.58 3.896,16.58 2.925,16.58 1.955,16.58 1.955,17.55 1.955,18.52 1.955,19.5 
		1.955,20.47 1.955,21.43 1.955,22.399 1.955,23.37 1.955,24.34 1.955,25.31 1.955,26.28 1.955,27.25 1.955,28.22 1.955,29.189 
		1.955,30.16 2.925,30.16 2.925,29.189 2.925,28.22 2.925,27.25 2.925,26.28 2.925,25.31 2.925,24.34 2.925,23.37 2.925,22.399 
		2.925,21.43 3.896,21.43 4.855,21.43 5.825,21.43 5.825,22.399 5.825,23.37 5.825,24.34 5.825,25.31 5.825,26.28 5.825,27.25 
		5.825,28.22 5.825,29.189 5.825,30.16 6.805,30.16 6.805,29.189 6.805,28.22 6.805,27.25 6.805,26.28 6.805,25.31 6.805,24.34 
		6.805,23.37 6.805,22.399 6.805,21.43 6.805,20.47 6.805,19.5 6.805,18.52 6.805,17.55 6.805,16.58 	"/>
</g>
<g>
	<polygon fill="#B3B3B3" points="8.76,0 8.76,0.97 7.78,0.97 6.81,0.97 6.81,0 5.84,0 4.86,0 3.9,0 2.92,0 2.92,0.97 2.92,1.94 
		3.9,1.94 4.86,1.94 5.84,1.94 6.81,1.94 7.78,1.94 8.76,1.94 9.729,1.94 9.729,0.97 9.729,0 	"/>
	<polygon fill="#B3B3B3" points="1.95,0.97 0.98,0.97 0.98,1.94 0.98,2.92 1.95,2.92 2.92,2.92 2.92,1.94 1.95,1.94 	"/>
	<rect x="5.84" y="14.59" fill="#B3B3B3" width="0.97" height="0.97"/>
	<rect x="5.84" y="9.73" fill="#B3B3B3" width="0.97" height="0.97"/>
	<polygon fill="#B3B3B3" points="3.9,7.78 3.9,8.75 3.9,9.73 3.9,10.7 3.9,11.67 3.9,12.65 3.9,13.61 3.9,14.59 3.9,15.56 
		3.9,16.53 4.86,16.53 4.86,15.56 4.86,14.59 4.86,13.61 4.86,12.65 4.86,11.67 4.86,10.7 4.86,9.73 4.86,8.75 4.86,7.78 4.86,6.8 
		3.9,6.8 	"/>
	<rect x="1.95" y="14.59" fill="#B3B3B3" width="0.97" height="0.97"/>
</g>
<g>
	<polygon fill="#8C8C8C" points="7.78,11.67 7.78,12.65 7.78,13.61 7.78,14.59 7.78,15.56 7.78,16.53 8.76,16.53 8.76,15.56 
		8.76,14.59 8.76,13.61 8.76,12.65 8.76,11.67 	"/>
	<polygon fill="#8C8C8C" points="6.81,17.51 5.84,17.51 5.84,18.479 5.84,19.46 4.86,19.46 4.86,18.479 4.86,17.51 3.9,17.51 
		2.92,17.51 1.95,17.51 1.95,18.479 0.98,18.479 0.98,19.46 0.98,20.42 0.98,21.399 1.95,21.399 1.95,22.38 1.95,23.34 1.95,24.32 
		1.95,25.29 1.95,26.26 1.95,27.24 1.95,28.21 1.95,29.189 1.95,30.149 2.92,30.149 2.92,29.189 2.92,28.21 2.92,27.24 2.92,26.26 
		2.92,25.29 2.92,24.32 2.92,23.34 2.92,22.38 2.92,21.399 3.9,21.399 4.86,21.399 5.84,21.399 5.84,22.38 5.84,23.34 5.84,24.32 
		5.84,25.29 5.84,26.26 5.84,27.24 5.84,28.21 5.84,29.189 5.84,30.149 6.81,30.149 6.81,29.189 6.81,28.21 6.81,27.24 6.81,26.26 
		6.81,25.29 6.81,24.32 6.81,23.34 6.81,22.38 6.81,21.399 7.78,21.399 7.78,20.42 7.78,19.46 7.78,18.479 7.78,17.51 7.78,16.53 
		6.81,16.53 	"/>
	<path fill="#8C8C8C" d="M5.84,15.56v-0.97h0.97v-0.98v-0.96v-0.98H7.78V10.7V9.73V8.75H6.81V7.78V6.8H5.84H4.86v0.98v0.97v0.98
		v0.97v0.97v0.98v0.96v0.98v0.97v0.971h0.98h0.97V15.56H5.84z M5.84,9.73h0.97v0.97H5.84V9.73z"/>
	<polygon fill="#8C8C8C" points="1.95,12.65 1.95,13.61 1.95,14.59 2.92,14.59 2.92,15.56 1.95,15.56 1.95,16.53 2.92,16.53 
		3.9,16.53 3.9,15.56 3.9,14.59 3.9,13.61 3.9,12.65 3.9,11.67 3.9,10.7 3.9,9.73 3.9,8.75 3.9,7.78 3.9,6.8 2.92,6.8 1.95,6.8 
		1.95,7.78 0.98,7.78 0.98,8.75 0.98,9.73 0.98,10.7 0.98,11.67 1.95,11.67 	"/>
	<polygon fill="#8C8C8C" points="0.98,16.53 0.98,15.56 0.98,14.59 0.98,13.61 0.98,12.65 0.98,11.67 0,11.67 0,12.65 0,13.61 
		0,14.59 0,15.56 0,16.53 0,17.51 0,18.479 0.98,18.479 0.98,17.51 	"/>
</g>
<g>
	<rect x="5.84" y="30.149" fill="#4D4D4D" width="0.97" height="0.98"/>
	<polygon fill="#4D4D4D" points="4.86,16.53 3.9,16.53 2.92,16.53 1.95,16.53 1.95,17.51 2.92,17.51 3.9,17.51 4.86,17.51 
		4.86,18.479 4.86,19.46 5.84,19.46 5.84,18.479 5.84,17.51 6.81,17.51 6.81,16.53 5.84,16.53 	"/>
	<rect x="1.95" y="30.149" fill="#4D4D4D" width="0.97" height="0.98"/>
	<rect x="0.005" y="22.364" fill="#4D4D4D" width="0.98" height="0.98"/>
	<polygon fill="#4D4D4D" points="2.925,21.395 1.965,21.395 1.965,22.364 1.965,23.345 1.965,24.305 1.965,25.284 1.965,26.265 
		2.925,26.265 2.925,25.284 2.925,24.305 2.925,23.345 3.905,23.345 3.905,22.364 3.905,21.395 3.905,20.415 2.925,20.415 	"/>
	<rect x="5.83" y="22.364" fill="#4D4D4D" width="0.979" height="0.98"/>
	<polygon fill="#4D4D4D" points="8.75,20.415 8.75,21.395 7.79,21.395 7.79,22.364 7.79,23.345 7.79,24.305 7.79,25.284 
		7.79,26.265 8.75,26.265 8.75,25.284 8.75,24.305 8.75,23.345 9.73,23.345 9.73,22.364 9.73,21.395 9.73,20.415 	"/>
</g>
</svg>
