<?xml version="1.0" encoding="utf-8"?>
<!-- Generator: Adobe Illustrator 16.0.0, SVG Export Plug-In . SVG Version: 6.00 Build 0)  -->
<!DOCTYPE svg PUBLIC "-//W3C//DTD SVG 1.1//EN" "http://www.w3.org/Graphics/SVG/1.1/DTD/svg11.dtd">
<svg version="1.1" id="Layer_2" xmlns="http://www.w3.org/2000/svg" xmlns:xlink="http://www.w3.org/1999/xlink" x="0px" y="0px"
	 width="13.596px" height="23.35px" viewBox="0 0 13.596 23.35" enable-background="new 0 0 13.596 23.35" xml:space="preserve">
<g>
	<polygon fill="#6D5217" points="8.745,5.9 8.745,4.93 8.745,3.96 7.775,3.96 6.805,3.96 6.805,2.98 5.825,2.98 5.825,2.01 
		6.805,2.01 7.775,2.01 8.745,2.01 8.745,1.05 7.775,1.05 7.775,0.08 6.805,0.08 5.825,0.08 4.855,0.08 3.896,0.08 3.896,1.05 
		2.925,1.05 2.925,2.01 2.925,2.98 2.925,3.96 2.925,4.93 2.925,5.9 3.896,5.9 3.896,4.93 4.855,4.93 4.855,3.96 5.825,3.96 
		5.825,4.93 6.805,4.93 6.805,5.9 7.775,5.9 7.775,6.87 8.745,6.87 8.745,7.831 8.745,8.8 9.715,8.8 9.715,7.831 9.715,6.87 
		9.715,5.9 	"/>
	<polygon fill="#737144" points="8.745,13.65 7.775,13.65 6.805,13.65 5.825,13.65 4.855,13.65 3.896,13.65 2.925,13.65 
		1.955,13.65 1.955,14.62 1.955,15.59 1.955,16.56 1.955,17.53 1.955,18.5 1.955,19.47 1.955,20.44 1.955,21.41 1.955,22.38 
		2.925,22.38 2.925,21.41 2.925,20.44 2.925,19.47 2.925,18.5 2.925,17.53 2.925,16.56 2.925,15.59 3.896,15.59 4.855,15.59 
		5.825,15.59 6.805,15.59 7.775,15.59 8.745,15.59 8.745,16.56 8.745,17.53 8.745,18.5 8.745,19.47 8.745,20.44 8.745,21.41 
		8.745,22.38 9.715,22.38 9.715,21.41 9.715,20.44 9.715,19.47 9.715,18.5 9.715,17.53 9.715,16.56 9.715,15.59 9.715,14.62 
		9.715,13.65 	"/>
	<g>
		<polygon fill="#C7B570" points="10.675,16.56 10.675,17.53 10.675,18.5 11.646,18.5 11.646,17.53 11.646,16.56 		"/>
		<polygon fill="#C7B570" points="10.675,14.62 10.675,13.65 9.715,13.65 9.715,14.62 9.715,15.59 9.715,16.56 10.675,16.56 
			10.675,15.59 		"/>
		<polygon fill="#C7B570" points="0.985,17.53 0.985,18.5 1.955,18.5 1.955,17.53 1.955,16.56 1.955,15.59 1.955,14.62 0.985,14.62 
			0.985,13.65 0.015,13.65 0.015,14.62 0.015,15.59 0.985,15.59 0.985,16.56 		"/>
		<rect x="8.745" y="22.38" fill="#C7B570" width="0.97" height="0.97"/>
		<polygon fill="#C7B570" points="8.745,2.98 8.745,2.01 7.775,2.01 6.805,2.01 5.825,2.01 5.825,2.98 6.805,2.98 6.805,3.96 
			7.775,3.96 8.745,3.96 		"/>
		<polygon fill="#C7B570" points="5.825,3.96 4.855,3.96 4.855,4.93 3.896,4.93 3.896,5.9 4.855,5.9 5.825,5.9 6.805,5.9 
			6.805,4.93 5.825,4.93 		"/>
		<rect x="1.955" y="22.38" fill="#C7B570" width="0.97" height="0.97"/>
	</g>
	<polygon fill="#9C8F57" points="9.715,6.87 9.715,7.831 9.715,8.8 8.745,8.8 8.745,7.831 8.745,6.87 7.775,6.87 7.775,5.9 
		6.805,5.9 5.825,5.9 4.855,5.9 3.896,5.9 2.925,5.9 1.955,5.9 1.955,6.87 0.985,6.87 0.985,7.831 0.015,7.831 0.015,8.8 
		0.015,9.77 0.015,10.74 0.015,11.72 0.015,12.69 0.015,13.65 0.985,13.65 0.985,12.69 0.985,11.72 0.985,10.74 1.955,10.74 
		1.955,11.72 1.955,12.69 1.955,13.65 2.925,13.65 3.896,13.65 4.855,13.65 5.825,13.65 6.805,13.65 7.775,13.65 8.745,13.65 
		9.715,13.65 10.675,13.65 10.675,12.69 10.675,11.72 10.675,10.74 10.675,9.77 10.675,8.8 10.675,7.831 10.675,6.87 	"/>
</g>
<rect x="8.75" y="10.7" fill="#B3B3B3" width="0.98" height="0.98"/>
<rect x="8.75" y="8.75" fill="#B3B3B3" width="0.98" height="0.979"/>
<rect x="7.78" y="8.75" fill="#B3B3B3" width="0.97" height="0.979"/>
<rect x="5.83" y="11.68" fill="#B3B3B3" width="0.98" height="0.96"/>
<rect x="5.83" y="10.7" fill="#B3B3B3" width="0.98" height="0.98"/>
<rect x="5.83" y="9.73" fill="#B3B3B3" width="0.98" height="0.97"/>
<rect x="5.83" y="8.75" fill="#B3B3B3" width="0.98" height="0.979"/>
<rect x="5.83" y="7.78" fill="#B3B3B3" width="0.98" height="0.971"/>
<rect x="5.83" y="6.81" fill="#B3B3B3" width="0.98" height="0.97"/>
<rect x="5.83" y="5.83" fill="#B3B3B3" width="0.98" height="0.98"/>
<rect x="2.91" y="10.7" fill="#B3B3B3" width="0.98" height="0.98"/>
<g>
	<rect x="8.75" y="22.37" fill="#4D4D4D" width="0.98" height="0.98"/>
	<polygon fill="#4D4D4D" points="8.75,12.64 7.78,12.64 6.81,12.64 5.83,12.64 4.87,12.64 3.89,12.64 2.91,12.64 1.95,12.64 
		1.95,13.62 2.91,13.62 3.89,13.62 4.87,13.62 5.83,13.62 6.81,13.62 6.81,14.6 7.78,14.6 7.78,13.62 8.75,13.62 9.73,13.62 
		9.73,12.64 	"/>
	<rect x="1.95" y="22.37" fill="#4D4D4D" width="0.96" height="0.98"/>
</g>
<g>
	<polygon fill="#BFBFBF" points="9.73,0 9.73,0.97 8.75,0.97 7.78,0.97 7.78,0 6.81,0 5.83,0 4.87,0 3.89,0 3.89,0.97 2.91,0.97 
		2.91,1.95 3.89,1.95 4.87,1.95 5.83,1.95 6.81,1.95 7.78,1.95 8.75,1.95 9.73,1.95 10.7,1.95 10.7,0.97 10.7,0 	"/>
	<polygon fill="#BFBFBF" points="1.95,0.97 0.97,0.97 0.97,1.95 0.97,2.91 1.95,2.91 2.91,2.91 2.91,1.95 1.95,1.95 	"/>
</g>
<path fill="#8C8C8C" d="M9.73,6.81v0.97V8.75V9.73H8.75H7.78V8.75h0.97V7.78V6.81H7.78V5.83H6.81v0.98v0.97V8.75V9.73v0.97v0.98
	v0.96h0.97h0.97h0.98v0.979H8.75H7.78v0.98H6.81v-0.98H5.83H4.87H3.89H2.91H1.95v0.98H0.97v-0.98V12.64v-0.96V10.7h0.98v0.98v0.96
	h0.96h0.98h0.98h0.96v-0.96V10.7V9.73V8.75V7.78V6.81V5.83H4.87H3.89H2.91H1.95v0.98H0.97v0.97H0V8.75V9.73v0.97v0.98v0.96v0.979
	v0.98v0.96h0.97v0.98h0.98v0.97v0.97v0.98v0.97v0.979v0.96h0.96v-0.96V20.43v-0.97v-0.98v-0.97v-0.97v-0.98h0.98h0.98h0.96h0.98
	h0.97h0.97v0.98v0.97v0.97v0.98v0.97v0.979v0.96h0.98v-0.96V20.43v-0.97v-0.98v-0.97v-0.97h0.97v-0.98V14.6v-0.98V12.64v-0.96V10.7
	V9.73V8.75V7.78V6.81H9.73z M2.91,11.68V10.7h0.98v0.98H2.91z M9.73,11.68H8.75V10.7h0.98V11.68z"/>
<g>
	<rect x="0.015" y="17.525" fill="#4D4D4D" width="0.98" height="0.98"/>
	<polygon fill="#4D4D4D" points="2.935,16.555 1.975,16.555 1.975,17.525 1.975,18.505 1.975,19.465 1.975,20.445 1.975,21.425 
		2.935,21.425 2.935,20.445 2.935,19.465 2.935,18.505 3.915,18.505 3.915,17.525 3.915,16.555 3.915,15.576 2.935,15.576 	"/>
</g>
<g>
	<rect x="9.695" y="17.525" fill="#4D4D4D" width="0.98" height="0.98"/>
	<polygon fill="#4D4D4D" points="12.615,16.555 11.655,16.555 11.655,17.525 11.655,18.505 11.655,19.465 11.655,20.445 
		11.655,21.425 12.615,21.425 12.615,20.445 12.615,19.465 12.615,18.505 13.596,18.505 13.596,17.525 13.596,16.555 13.596,15.576 
		12.615,15.576 	"/>
</g>
</svg>
