<?xml version="1.0" encoding="utf-8"?>
<!-- Generator: Adobe Illustrator 16.0.0, SVG Export Plug-In . SVG Version: 6.00 Build 0)  -->
<!DOCTYPE svg PUBLIC "-//W3C//DTD SVG 1.1//EN" "http://www.w3.org/Graphics/SVG/1.1/DTD/svg11.dtd">
<svg version="1.1" id="Layer_1" xmlns="http://www.w3.org/2000/svg" xmlns:xlink="http://www.w3.org/1999/xlink" x="0px" y="0px"
	 width="13.621px" height="33.08px" viewBox="0 0 13.621 33.08" enable-background="new 0 0 13.621 33.08" xml:space="preserve">
<polygon fill="#6D5217" points="6.804,1.081 5.834,1.081 4.865,1.081 3.894,1.081 3.894,2.051 3.894,3.021 3.894,3.991 3.894,4.96 
	4.865,4.96 4.865,3.991 4.865,3.021 5.834,3.021 5.834,2.051 6.804,2.051 7.765,2.051 7.765,1.081 "/>
<g>
	<polygon fill="#C7B570" points="7.765,16.601 7.765,17.561 7.765,18.531 7.765,19.5 7.765,20.471 7.765,21.451 7.765,22.42 
		7.765,23.381 8.735,23.381 8.735,22.42 8.735,21.451 8.735,20.471 8.735,19.5 8.735,18.531 8.735,17.561 8.735,16.601 8.735,15.63 
		7.765,15.63 	"/>
	<polygon fill="#C7B570" points="8.735,12.71 8.735,13.69 8.735,14.661 8.735,15.63 9.706,15.63 9.706,14.661 9.706,13.69 
		9.706,12.71 	"/>
</g>
<g>
	<polygon fill="#C7B570" points="0.985,18.531 0.985,19.5 0.985,20.471 0.985,21.451 0.985,22.42 0.985,23.381 1.945,23.381 
		1.945,22.42 1.945,21.451 1.945,20.471 1.945,19.5 1.945,18.531 	"/>
	<polygon fill="#C7B570" points="0.985,16.601 0.985,15.63 0.985,14.661 0.985,13.69 0.985,12.71 0.015,12.71 0.015,13.69 
		0.015,14.661 0.015,15.63 0.015,16.601 0.015,17.561 0.015,18.531 0.985,18.531 0.985,17.561 	"/>
</g>
<rect x="6.804" y="32.111" fill="#C7B570" width="0.961" height="0.969"/>
<polygon fill="#737144" points="6.804,16.601 5.834,16.601 4.865,16.601 3.894,16.601 2.915,16.601 1.945,16.601 1.945,17.561 
	1.945,18.531 1.945,19.5 1.945,20.471 1.945,21.451 1.945,22.42 1.945,23.381 1.945,24.35 1.945,25.32 1.945,26.291 1.945,27.26 
	1.945,28.23 1.945,29.201 1.945,30.17 1.945,31.141 1.945,32.111 2.915,32.111 2.915,31.141 2.915,30.17 2.915,29.201 2.915,28.23 
	2.915,27.26 2.915,26.291 2.915,25.32 2.915,24.35 2.915,23.381 2.915,22.42 2.915,21.451 2.915,20.471 3.894,20.471 4.865,20.471 
	5.834,20.471 6.804,20.471 6.804,21.451 6.804,22.42 6.804,23.381 6.804,24.35 6.804,25.32 6.804,26.291 6.804,27.26 6.804,28.23 
	6.804,29.201 6.804,30.17 6.804,31.141 6.804,32.111 7.765,32.111 7.765,31.141 7.765,30.17 7.765,29.201 7.765,28.23 7.765,27.26 
	7.765,26.291 7.765,25.32 7.765,24.35 7.765,23.381 7.765,22.42 7.765,21.451 7.765,20.471 7.765,19.5 7.765,18.531 7.765,17.561 
	7.765,16.601 "/>
<g>
	<rect x="8.735" y="11.741" fill="#9C8F57" width="0.971" height="0.97"/>
	<polygon fill="#9C8F57" points="8.735,9.811 8.735,8.84 7.765,8.84 7.765,7.871 7.765,6.9 6.804,6.9 5.834,6.9 4.865,6.9 
		3.894,6.9 2.915,6.9 1.945,6.9 1.945,7.871 0.985,7.871 0.985,8.84 0.985,9.811 0.985,10.781 0.985,11.741 1.945,11.741 
		1.945,12.71 1.945,13.69 1.945,14.661 1.945,15.63 1.945,16.601 2.915,16.601 3.894,16.601 4.865,16.601 5.834,16.601 
		6.804,16.601 7.765,16.601 7.765,15.63 7.765,14.661 7.765,13.69 7.765,12.71 7.765,11.741 8.735,11.741 8.735,10.781 	"/>
	<rect x="0.015" y="11.741" fill="#9C8F57" width="0.97" height="0.97"/>
</g>
<rect x="1.945" y="32.111" fill="#C7B570" width="0.97" height="0.969"/>
<polygon fill="#C7B570" points="6.804,2.051 5.834,2.051 5.834,3.021 4.865,3.021 4.865,3.991 4.865,4.96 3.894,4.96 3.894,5.931 
	3.894,6.9 4.86,6.9 4.86,7.79 5.84,7.79 5.84,6.9 6.804,6.9 6.804,5.931 7.765,5.931 7.765,4.96 7.765,3.991 7.765,3.021 
	7.765,2.051 "/>
<g>
	<polygon fill="#B3B3B3" points="9.73,0 8.75,0 8.75,0.97 9.73,0.97 10.7,0.97 10.7,0 	"/>
	<rect x="8.75" y="14.6" fill="#B3B3B3" width="0.98" height="0.96"/>
	<polygon fill="#B3B3B3" points="7.78,16.54 7.78,17.51 8.75,17.51 8.75,16.54 8.75,15.56 7.78,15.56 	"/>
	<polygon fill="#B3B3B3" points="6.81,0.97 6.81,0 5.84,0 4.86,0 4.86,0.97 3.89,0.97 2.92,0.97 2.92,1.95 3.89,1.95 4.86,1.95 
		5.84,1.95 6.81,1.95 7.78,1.95 8.75,1.95 8.75,0.97 7.78,0.97 	"/>
	<polygon fill="#B3B3B3" points="6.81,17.51 6.81,16.54 5.84,16.54 5.84,15.56 5.84,14.6 5.84,13.62 5.84,12.65 5.84,11.68 
		4.86,11.68 4.86,12.65 4.86,13.62 4.86,14.6 4.86,15.56 4.86,16.54 3.89,16.54 3.89,17.51 2.92,17.51 2.92,18.48 2.92,19.46 
		1.94,19.46 1.94,20.43 1.94,21.41 1.94,22.37 1.94,23.35 1.94,24.33 1.94,25.29 1.94,26.271 1.94,27.24 1.94,28.21 1.94,29.19 
		2.92,29.19 2.92,28.21 2.92,27.24 2.92,26.271 2.92,25.29 2.92,24.33 2.92,23.35 2.92,22.37 2.92,21.41 2.92,20.43 3.89,20.43 
		4.86,20.43 5.84,20.43 6.81,20.43 6.81,21.41 6.81,22.37 6.81,23.35 6.81,24.33 6.81,25.29 6.81,26.271 6.81,27.24 6.81,28.21 
		6.81,29.19 7.78,29.19 7.78,28.21 7.78,27.24 7.78,26.271 7.78,25.29 7.78,24.33 7.78,23.35 7.78,22.37 7.78,21.41 7.78,20.43 
		7.78,19.46 7.78,18.48 6.81,18.48 	"/>
	<polygon fill="#B3B3B3" points="5.84,9.73 5.84,8.75 5.84,7.79 4.86,7.79 4.86,8.75 4.86,9.73 4.86,10.7 5.84,10.7 	"/>
	<polygon fill="#B3B3B3" points="0.98,1.95 0.98,2.92 1.94,2.92 2.92,2.92 2.92,1.95 1.94,1.95 	"/>
	<polygon fill="#B3B3B3" points="0,15.56 0,16.54 0,17.51 0.98,17.51 0.98,16.54 0.98,15.56 0.98,14.6 0,14.6 	"/>
</g>
<g>
	<polygon fill="#8C8C8C" points="8.75,11.68 8.75,12.65 8.75,13.62 8.75,14.6 9.73,14.6 9.73,13.62 9.73,12.65 9.73,11.68 	"/>
	<polygon fill="#8C8C8C" points="8.75,9.73 8.75,8.75 7.78,8.75 7.78,7.79 7.78,6.81 6.81,6.81 5.84,6.81 5.84,7.79 5.84,8.75 
		5.84,9.73 5.84,10.7 4.86,10.7 4.86,9.73 4.86,8.75 4.86,7.79 4.86,6.81 3.89,6.81 2.92,6.81 1.94,6.81 1.94,7.79 0.98,7.79 
		0.98,8.75 0.98,9.73 0.98,10.7 0.98,11.68 1.94,11.68 1.94,12.65 1.94,13.62 1.94,14.6 1.94,15.56 1.94,16.54 1.94,17.51 
		1.94,18.48 1.94,19.46 2.92,19.46 2.92,18.48 2.92,17.51 3.89,17.51 3.89,16.54 4.86,16.54 4.86,15.56 4.86,14.6 4.86,13.62 
		4.86,12.65 4.86,11.68 5.84,11.68 5.84,12.65 5.84,13.62 5.84,14.6 5.84,15.56 5.84,16.54 6.81,16.54 6.81,17.51 6.81,18.48 
		7.78,18.48 7.78,17.51 7.78,16.54 7.78,15.56 7.78,14.6 7.78,13.62 7.78,12.65 7.78,11.68 8.75,11.68 8.75,10.7 	"/>
	<polygon fill="#8C8C8C" points="6.81,30.16 6.81,31.14 6.81,32.1 6.81,33.08 7.78,33.08 7.78,32.1 7.78,31.14 7.78,30.16 
		7.78,29.19 6.81,29.19 	"/>
	<polygon fill="#8C8C8C" points="6.81,20.43 5.84,20.43 4.86,20.43 3.89,20.43 2.92,20.43 2.92,21.41 2.92,22.37 2.92,23.35 
		3.89,23.35 4.86,23.35 4.86,22.37 5.84,22.37 5.84,21.41 6.81,21.41 	"/>
	<polygon fill="#8C8C8C" points="1.94,30.16 1.94,31.14 1.94,32.1 1.94,33.08 2.92,33.08 2.92,32.1 2.92,31.14 2.92,30.16 
		2.92,29.19 1.94,29.19 	"/>
	<polygon fill="#8C8C8C" points="0,12.65 0,13.62 0,14.6 0.98,14.6 0.98,13.62 0.98,12.65 0.98,11.68 0,11.68 	"/>
</g>
<g>
	<polygon fill="#4D4D4D" points="13.621,23.387 13.621,22.406 12.65,22.406 11.68,22.406 10.701,22.406 9.73,22.406 8.76,22.406 
		8.76,23.387 9.73,23.387 10.701,23.387 10.701,24.346 9.73,24.346 9.73,25.326 10.701,25.326 10.701,26.307 11.68,26.307 
		12.65,26.307 12.65,25.326 13.621,25.326 13.621,24.346 12.65,24.346 12.65,23.387 	"/>
	<rect x="6.81" y="22.406" fill="#4D4D4D" width="0.971" height="0.98"/>
</g>
</svg>
