<?xml version="1.0" encoding="utf-8"?>
<!-- Generator: Adobe Illustrator 16.0.0, SVG Export Plug-In . SVG Version: 6.00 Build 0)  -->
<!DOCTYPE svg PUBLIC "-//W3C//DTD SVG 1.1//EN" "http://www.w3.org/Graphics/SVG/1.1/DTD/svg11.dtd">
<svg version="1.1" id="Layer_2" xmlns="http://www.w3.org/2000/svg" xmlns:xlink="http://www.w3.org/1999/xlink" x="0px" y="0px"
	 width="14.554px" height="32.11px" viewBox="0 0 14.554 32.11" enable-background="new 0 0 14.554 32.11" xml:space="preserve">
<polygon fill="#C7B570" points="8.745,11.74 8.745,12.72 8.745,13.69 8.745,14.66 8.745,15.629 8.745,16.59 8.745,17.56 
	8.745,18.53 8.745,19.5 8.745,20.48 8.745,21.45 9.715,21.45 9.715,20.48 9.715,19.5 9.715,18.53 9.715,17.56 9.715,16.59 
	9.715,15.629 9.715,14.66 9.715,13.69 9.715,12.72 9.715,11.74 "/>
<rect x="7.765" y="31.14" fill="#C7B570" width="0.979" height="0.97"/>
<rect x="2.925" y="31.14" fill="#C7B570" width="0.97" height="0.97"/>
<polygon fill="#737144" points="7.765,15.629 6.795,15.629 5.835,15.629 4.865,15.629 3.895,15.629 2.925,15.629 1.955,15.629 
	1.955,16.59 1.955,17.56 2.925,17.56 2.925,18.53 2.925,19.5 2.925,20.48 2.925,21.45 2.925,22.41 2.925,23.379 2.925,24.35 
	2.925,25.32 2.925,26.29 2.925,27.26 2.925,28.23 2.925,29.2 2.925,30.169 2.925,31.14 3.895,31.14 3.895,30.169 3.895,29.2 
	3.895,28.23 3.895,27.26 3.895,26.29 3.895,25.32 3.895,24.35 3.895,23.379 3.895,22.41 3.895,21.45 3.895,20.48 4.865,20.48 
	4.865,19.5 5.835,19.5 6.795,19.5 6.795,20.48 7.765,20.48 7.765,21.45 7.765,22.41 7.765,23.379 7.765,24.35 7.765,25.32 
	7.765,26.29 7.765,27.26 7.765,28.23 7.765,29.2 7.765,30.169 7.765,31.14 8.745,31.14 8.745,30.169 8.745,29.2 8.745,28.23 
	8.745,27.26 8.745,26.29 8.745,25.32 8.745,24.35 8.745,23.379 8.745,22.41 8.745,21.45 8.745,20.48 8.745,19.5 8.745,18.53 
	8.745,17.56 8.745,16.59 8.745,15.629 "/>
<g>
	<polygon fill="#6D5217" points="7.765,1.08 6.795,1.08 5.835,1.08 4.865,1.08 4.865,2.05 4.865,3.02 3.895,3.02 3.895,3.99 
		3.895,4.96 2.925,4.96 2.925,5.93 2.925,6.9 3.895,6.9 3.895,7.87 3.895,8.84 4.865,8.84 4.865,7.87 4.865,6.9 4.865,5.93 
		4.865,4.96 4.865,3.99 5.835,3.99 5.835,3.02 6.795,3.02 6.795,2.05 7.765,2.05 7.765,3.02 8.745,3.02 8.745,2.05 8.745,1.08 	"/>
	<polygon fill="#6D5217" points="5.835,5.93 5.835,6.9 5.835,7.87 5.835,8.84 6.795,8.84 6.795,7.87 7.765,7.87 7.765,6.9 
		7.765,5.93 6.795,5.93 	"/>
	<rect x="1.955" y="6.9" fill="#6D5217" width="0.971" height="0.97"/>
</g>
<g>
	<polygon fill="#C7B570" points="1.955,17.56 1.955,18.53 1.955,19.5 1.955,20.48 1.955,21.45 2.925,21.45 2.925,20.48 2.925,19.5 
		2.925,18.53 2.925,17.56 	"/>
	<polygon fill="#C7B570" points="1.955,15.629 1.955,14.66 1.955,13.69 1.955,12.72 1.955,11.74 0.985,11.74 0.985,12.72 
		0.985,13.69 0.985,14.66 0.985,15.629 0.985,16.59 0.985,17.56 1.955,17.56 1.955,16.59 	"/>
</g>
<polygon fill="#9C8F57" points="8.745,8.84 8.745,7.87 8.745,6.9 7.765,6.9 7.765,7.87 6.795,7.87 6.795,8.84 5.835,8.84 
	5.835,7.87 5.835,6.9 4.865,6.9 4.865,7.87 4.865,8.84 3.895,8.84 3.895,7.87 3.895,6.9 2.925,6.9 2.925,7.87 1.955,7.87 
	1.955,8.84 1.955,9.81 0.985,9.81 0.985,10.77 0.985,11.74 1.955,11.74 2.925,11.74 2.925,12.72 3.895,12.72 3.895,13.69 
	2.925,13.69 2.925,14.66 1.955,14.66 1.955,15.629 2.925,15.629 3.895,15.629 4.865,15.629 5.835,15.629 6.795,15.629 7.765,15.629 
	8.745,15.629 8.745,14.66 8.745,13.69 7.765,13.69 7.765,12.72 8.745,12.72 8.745,11.74 9.715,11.74 9.715,10.77 9.715,9.81 
	9.715,8.84 "/>
<polygon fill="#C7B570" points="6.795,2.05 6.795,3.02 5.835,3.02 5.835,3.99 5.84,3.99 5.84,4.96 5.835,4.96 5.835,3.99 
	4.865,3.99 4.865,4.96 4.865,5.93 4.87,5.93 4.87,6.9 4.87,6.9 4.87,7.78 5.83,7.78 5.83,6.9 5.84,6.9 5.84,5.93 6.795,5.93 
	7.765,5.93 7.765,4.96 7.765,3.99 7.765,3.02 7.765,2.05 "/>
<g>
	<polygon fill="#B3B3B3" points="5.83,8.76 5.83,7.78 4.87,7.78 4.87,8.76 4.87,9.73 5.83,9.73 	"/>
	<polygon fill="#B3B3B3" points="1.95,1.95 1.95,2.92 2.92,2.92 3.89,2.92 3.89,1.95 2.92,1.95 	"/>
	<polygon fill="#B3B3B3" points="10.7,0 9.73,0 9.73,0.98 10.7,0.98 11.68,0.98 11.68,0 	"/>
	<polygon fill="#B3B3B3" points="7.78,0.98 7.78,0 6.81,0 5.83,0 5.83,0.98 4.87,0.98 3.89,0.98 3.89,1.95 4.87,1.95 5.83,1.95 
		6.81,1.95 7.78,1.95 8.75,1.95 9.73,1.95 9.73,0.98 8.75,0.98 	"/>
	<polygon fill="#B3B3B3" points="8.75,13.63 8.75,14.59 8.75,15.57 9.73,15.57 9.73,14.59 9.73,13.63 9.73,12.65 8.75,12.65 	"/>
	<polygon fill="#B3B3B3" points="0.97,13.63 0.97,14.59 0.97,15.57 1.95,15.57 1.95,14.59 1.95,13.63 1.95,12.65 0.97,12.65 	"/>
	<polygon fill="#B3B3B3" points="7.78,16.55 6.81,16.55 6.81,15.57 5.83,15.57 5.83,14.59 5.83,13.63 5.83,12.65 5.83,11.68 
		5.83,10.71 4.87,10.71 4.87,11.68 4.87,12.65 4.87,13.63 4.87,14.59 4.87,15.57 3.89,15.57 3.89,16.55 2.92,16.55 2.92,17.51 
		2.92,18.49 2.92,19.459 2.92,20.44 2.92,21.4 2.92,22.379 2.92,23.36 2.92,24.32 2.92,25.3 2.92,26.27 2.92,27.24 2.92,28.22 
		3.89,28.22 3.89,27.24 3.89,26.27 3.89,25.3 3.89,24.32 3.89,23.36 3.89,22.379 3.89,21.4 3.89,20.44 4.87,20.44 4.87,19.459 
		5.83,19.459 6.81,19.459 6.81,20.44 7.78,20.44 7.78,21.4 7.78,22.379 7.78,23.36 7.78,24.32 7.78,25.3 7.78,26.27 7.78,27.24 
		7.78,28.22 8.75,28.22 8.75,27.24 8.75,26.27 8.75,25.3 8.75,24.32 8.75,23.36 8.75,22.379 8.75,21.4 8.75,20.44 8.75,19.459 
		8.75,18.49 8.75,17.51 7.78,17.51 	"/>
</g>
<g>
	<polygon fill="#8C8C8C" points="2.92,21.4 1.95,21.4 1.95,20.44 0.97,20.44 0.97,21.4 0.97,22.379 0,22.379 0,23.36 0.97,23.36 
		1.95,23.36 1.95,22.379 2.92,22.379 	"/>
	<polygon fill="#8C8C8C" points="4.87,19.459 4.87,20.44 3.89,20.44 3.89,21.4 4.87,21.4 5.83,21.4 5.83,20.44 6.81,20.44 
		6.81,19.459 5.83,19.459 	"/>
	<polygon fill="#8C8C8C" points="8.75,8.76 8.75,7.78 8.75,6.82 7.78,6.82 7.78,7.78 6.81,7.78 6.81,8.76 5.83,8.76 5.83,9.73 
		4.87,9.73 4.87,8.76 3.89,8.76 3.89,7.78 3.89,6.82 2.92,6.82 2.92,7.78 1.95,7.78 1.95,8.76 1.95,9.73 0.97,9.73 0.97,10.71 
		0.97,11.68 0.97,12.65 1.95,12.65 1.95,11.68 2.92,11.68 2.92,12.65 3.89,12.65 3.89,13.63 2.92,13.63 2.92,14.59 1.95,14.59 
		1.95,15.57 1.95,16.55 1.95,17.51 2.92,17.51 2.92,16.55 3.89,16.55 3.89,15.57 4.87,15.57 4.87,14.59 4.87,13.63 4.87,12.65 
		4.87,11.68 4.87,10.71 5.83,10.71 5.83,11.68 5.83,12.65 5.83,13.63 5.83,14.59 5.83,15.57 6.81,15.57 6.81,16.55 7.78,16.55 
		7.78,17.51 8.75,17.51 8.75,16.55 8.75,15.57 8.75,14.59 8.75,13.63 7.78,13.63 7.78,12.65 8.75,12.65 9.73,12.65 9.73,11.68 
		9.73,10.71 9.73,9.73 9.73,8.76 	"/>
	<polygon fill="#8C8C8C" points="2.92,29.19 2.92,30.169 2.92,31.14 2.92,32.11 3.89,32.11 3.89,31.14 3.89,30.169 3.89,29.19 
		3.89,28.22 2.92,28.22 	"/>
	<polygon fill="#8C8C8C" points="7.78,29.19 7.78,30.169 7.78,31.14 7.78,32.11 8.75,32.11 8.75,31.14 8.75,30.169 8.75,29.19 
		8.75,28.22 7.78,28.22 	"/>
</g>
<g>
	<polygon fill="#4D4D4D" points="14.554,21.458 14.554,20.477 13.583,20.477 12.614,20.477 11.634,20.477 10.664,20.477 
		9.694,20.477 9.694,21.458 10.664,21.458 11.634,21.458 11.634,22.417 10.664,22.417 10.664,23.397 11.634,23.397 11.634,24.377 
		12.614,24.377 13.583,24.377 13.583,23.397 14.554,23.397 14.554,22.417 13.583,22.417 13.583,21.458 	"/>
	<rect x="7.744" y="20.477" fill="#4D4D4D" width="0.971" height="0.98"/>
</g>
</svg>
