<?xml version="1.0" encoding="utf-8"?>
<!-- Generator: Adobe Illustrator 16.0.0, SVG Export Plug-In . SVG Version: 6.00 Build 0)  -->
<!DOCTYPE svg PUBLIC "-//W3C//DTD SVG 1.1//EN" "http://www.w3.org/Graphics/SVG/1.1/DTD/svg11.dtd">
<svg version="1.1" id="Layer_3" xmlns="http://www.w3.org/2000/svg" xmlns:xlink="http://www.w3.org/1999/xlink" x="0px" y="0px"
	 width="12.645px" height="23.35px" viewBox="0 0 12.645 23.35" enable-background="new 0 0 12.645 23.35" xml:space="preserve">
<g>
	<polygon fill="#737144" points="9.715,14.62 9.715,13.65 8.745,13.65 7.775,13.65 6.795,13.65 5.825,13.65 4.865,13.65 
		3.895,13.65 3.895,14.62 2.925,14.62 2.925,15.59 2.925,16.56 2.925,17.53 3.895,17.53 3.895,18.5 3.895,19.47 3.895,20.44 
		3.895,21.41 3.895,22.38 4.865,22.38 4.865,21.41 4.865,20.44 4.865,19.47 4.865,18.5 4.865,17.53 4.865,16.56 5.825,16.56 
		5.825,15.59 6.795,15.59 7.775,15.59 7.775,16.56 8.745,16.56 8.745,17.53 8.745,18.5 8.745,19.47 8.745,20.44 8.745,21.41 
		8.745,22.38 9.715,22.38 9.715,21.41 9.715,20.44 9.715,19.47 9.715,18.5 9.715,17.53 10.685,17.53 10.685,16.56 10.685,15.59 
		10.685,14.62 	"/>
	<g>
		<polygon fill="#9C8F57" points="10.685,7.831 10.685,8.8 10.685,9.77 9.715,9.77 9.715,8.8 9.715,7.831 9.715,6.87 8.745,6.87 
			7.775,6.87 7.775,5.9 6.795,5.9 5.825,5.9 4.865,5.9 4.865,6.87 4.865,7.831 3.895,7.831 3.895,6.87 2.925,6.87 1.955,6.87 
			1.955,7.831 1.955,8.8 1.955,9.77 1.955,10.74 2.925,10.74 3.895,10.74 3.895,11.72 3.895,12.69 3.895,13.65 4.865,13.65 
			5.825,13.65 6.795,13.65 7.775,13.65 8.745,13.65 9.715,13.65 9.715,12.69 9.715,11.72 9.715,10.74 10.685,10.74 10.685,11.72 
			10.685,12.69 10.685,13.65 11.645,13.65 11.645,12.69 11.645,11.72 11.645,10.74 11.645,9.77 11.645,8.8 11.645,7.831 		"/>
		<polygon fill="#9C8F57" points="0.985,11.72 0.985,12.69 0.985,13.65 1.955,13.65 1.955,12.69 1.955,11.72 1.955,10.74 
			0.985,10.74 		"/>
	</g>
</g>
<g>
	<polygon fill="#6D5217" points="7.775,4.93 7.775,5.9 7.775,6.87 8.745,6.87 9.715,6.87 9.715,7.831 9.715,8.8 9.715,9.77 
		10.685,9.77 10.685,8.8 10.685,7.831 10.685,6.87 10.685,5.9 9.715,5.9 9.715,4.93 9.715,3.96 8.745,3.96 7.775,3.96 6.795,3.96 
		6.795,4.93 	"/>
	<polygon fill="#6D5217" points="9.715,1.95 9.715,1.05 8.745,1.05 8.745,0.08 4.865,0.08 4.865,1.05 3.895,1.05 3.895,1.975 
		3.885,1.973 3.885,1.95 2.915,1.95 2.915,3.89 2.925,3.89 2.925,6.87 3.895,6.87 3.895,7.831 4.865,7.831 4.865,4.93 5.825,4.93 
		5.825,3.96 6.795,3.96 6.795,2.01 9.715,2.01 9.715,2.98 10.685,2.98 10.685,2.92 10.695,2.92 10.695,1.95 	"/>
</g>
<g>
	<polygon fill="#C7B570" points="1.955,14.62 1.955,15.59 1.955,16.56 1.955,17.53 1.955,18.5 2.925,18.5 2.925,17.53 2.925,16.56 
		2.925,15.59 2.925,14.62 2.925,13.65 1.955,13.65 	"/>
	<polygon fill="#C7B570" points="10.685,13.65 10.685,14.62 10.685,15.59 10.685,16.56 10.685,17.53 10.685,18.5 11.645,18.5 
		11.645,17.53 11.645,16.56 11.645,15.59 11.645,14.62 11.645,13.65 	"/>
	<rect x="8.745" y="22.38" fill="#C7B570" width="0.971" height="0.97"/>
	<polygon fill="#C7B570" points="7.775,2.01 6.795,2.01 6.795,2.98 6.795,3.96 7.775,3.96 8.745,3.96 9.715,3.96 9.715,2.98 
		9.715,2.01 8.745,2.01 	"/>
	<polygon fill="#C7B570" points="5.825,4.93 4.865,4.93 4.865,5.9 5.825,5.9 5.835,5.9 5.835,6.81 6.795,6.81 7.775,6.81 7.775,5.9 
		7.775,5.83 7.775,4.93 6.795,4.93 6.795,3.96 5.825,3.96 	"/>
	<rect x="3.895" y="22.38" fill="#C7B570" width="0.97" height="0.97"/>
</g>
<g>
	<polygon fill="#B3B3B3" points="0.965,1.95 0.965,2.92 1.935,2.92 2.915,2.92 2.915,1.95 1.935,1.95 	"/>
	<polygon fill="#B3B3B3" points="11.665,0 10.695,0 10.695,0.97 11.665,0.97 12.645,0.97 12.645,0 	"/>
	<polygon fill="#B3B3B3" points="8.755,0.97 8.755,0 7.775,0 6.795,0 5.835,0 4.855,0 4.855,0.97 3.885,0.97 2.915,0.97 2.915,1.95 
		3.885,1.95 4.855,1.95 5.835,1.95 6.795,1.95 7.775,1.95 8.755,1.95 9.715,1.95 10.695,1.95 10.695,0.97 9.715,0.97 	"/>
	<polygon fill="#B3B3B3" points="10.695,13.62 10.695,14.6 9.715,14.6 9.715,13.62 8.755,13.62 7.775,13.62 7.775,12.64 
		7.775,11.68 7.775,10.7 7.775,9.73 7.775,8.75 6.795,8.75 6.795,9.73 6.795,10.7 6.795,11.68 6.795,12.64 6.795,13.62 5.835,13.62 
		4.855,13.62 3.885,13.62 3.885,14.6 2.915,14.6 2.915,13.62 1.935,13.62 1.935,14.6 1.935,15.56 2.915,15.56 2.915,16.541 
		2.915,17.51 3.885,17.51 3.885,18.48 3.885,19.46 4.855,19.46 4.855,18.48 4.855,17.51 4.855,16.541 5.835,16.541 5.835,15.56 
		6.795,15.56 7.775,15.56 7.775,16.541 8.755,16.541 8.755,17.51 8.755,18.48 8.755,19.46 9.715,19.46 9.715,18.48 9.715,17.51 
		10.695,17.51 10.695,16.541 10.695,15.56 11.665,15.56 11.665,14.6 11.665,13.62 11.665,12.64 10.695,12.64 	"/>
	<rect x="6.795" y="6.81" fill="#B3B3B3" width="0.98" height="0.97"/>
	<rect x="0.965" y="12.64" fill="#B3B3B3" width="0.97" height="0.979"/>
</g>
<g>
	<polygon fill="#4D4D4D" points="8.75,17.535 7.78,17.535 6.81,17.535 5.839,17.535 4.86,17.535 3.89,17.535 3.89,16.565 
		3.89,15.585 2.92,15.585 2.92,16.565 2.92,17.535 2.92,18.515 2.92,19.475 2.92,20.455 3.89,20.455 3.89,19.475 3.89,18.515 
		4.86,18.515 5.839,18.515 6.81,18.515 7.78,18.515 8.75,18.515 9.73,18.515 9.73,17.535 	"/>
	<polygon fill="#4D4D4D" points="0,17.535 0,18.515 0.97,18.515 1.94,18.515 1.94,17.535 0.97,17.535 	"/>
</g>
<g>
	<polygon fill="#8C8C8C" points="10.695,7.78 10.695,8.75 10.695,9.73 9.715,9.73 9.715,8.75 9.715,7.78 9.715,6.81 8.755,6.81 
		7.775,6.81 7.775,7.78 6.795,7.78 6.795,6.81 5.835,6.81 5.835,5.83 4.855,5.83 4.855,6.81 4.855,7.78 3.885,7.78 3.885,6.81 
		2.915,6.81 1.935,6.81 1.935,7.78 1.935,8.75 1.935,9.73 1.935,10.7 2.915,10.7 3.885,10.7 3.885,11.68 3.885,12.64 3.885,13.62 
		4.855,13.62 5.835,13.62 6.795,13.62 6.795,12.64 6.795,11.68 6.795,10.7 6.795,9.73 6.795,8.75 7.775,8.75 7.775,9.73 7.775,10.7 
		7.775,11.68 7.775,12.64 7.775,13.62 8.755,13.62 9.715,13.62 9.715,12.64 9.715,11.68 9.715,10.7 10.695,10.7 10.695,11.68 
		10.695,12.64 11.665,12.64 11.665,11.68 11.665,10.7 11.665,9.73 11.665,8.75 11.665,7.78 	"/>
	<polygon fill="#8C8C8C" points="8.755,20.43 8.755,21.41 8.755,22.37 8.755,23.35 9.715,23.35 9.715,22.37 9.715,21.41 
		9.715,20.43 9.715,19.46 8.755,19.46 	"/>
	<polygon fill="#8C8C8C" points="3.885,20.43 3.885,21.41 3.885,22.37 3.885,23.35 4.855,23.35 4.855,22.37 4.855,21.41 
		4.855,20.43 4.855,19.46 3.885,19.46 	"/>
	<polygon fill="#8C8C8C" points="0.965,11.68 0.965,12.64 1.935,12.64 1.935,11.68 1.935,10.7 0.965,10.7 	"/>
	<polygon fill="#8C8C8C" points="1.935,19.46 0.965,19.46 0.965,20.43 1.935,20.43 2.915,20.43 2.915,19.46 2.915,18.48 
		1.935,18.48 	"/>
	<polygon fill="#8C8C8C" points="6.795,18.48 5.835,18.48 4.855,18.48 4.855,19.46 5.835,19.46 6.795,19.46 7.775,19.46 
		8.745,19.46 8.745,18.48 7.775,18.48 	"/>
	<polygon fill="#8C8C8C" points="7.775,15.56 6.795,15.56 5.835,15.56 5.835,16.541 4.855,16.541 4.855,17.51 5.835,17.51 
		6.795,17.51 7.775,17.51 8.745,17.51 8.745,16.541 7.775,16.541 	"/>
</g>
</svg>
