<?xml version="1.0" encoding="utf-8"?>
<!-- Generator: Adobe Illustrator 16.0.0, SVG Export Plug-In . SVG Version: 6.00 Build 0)  -->
<!DOCTYPE svg PUBLIC "-//W3C//DTD SVG 1.1//EN" "http://www.w3.org/Graphics/SVG/1.1/DTD/svg11.dtd">
<svg version="1.1" id="Layer_3" xmlns="http://www.w3.org/2000/svg" xmlns:xlink="http://www.w3.org/1999/xlink" x="0px" y="0px"
	 width="11.68px" height="31.13px" viewBox="0 0 11.68 31.13" enable-background="new 0 0 11.68 31.13" xml:space="preserve">
<g>
	<polygon fill="#737144" points="6.795,16.58 5.826,16.58 4.866,16.58 3.895,16.58 2.925,16.58 2.925,17.55 1.956,17.55 
		1.956,18.52 2.925,18.52 2.925,19.5 2.925,20.47 2.925,21.43 2.925,22.399 2.925,23.37 2.925,24.34 2.925,25.31 2.925,26.28 
		2.925,27.25 2.925,28.22 2.925,29.189 2.925,30.16 3.895,30.16 3.895,29.189 3.895,28.22 3.895,27.25 3.895,26.28 3.895,25.31 
		3.895,24.34 3.895,23.37 3.895,22.399 4.866,22.399 4.866,21.43 5.826,21.43 5.826,22.399 6.795,22.399 6.795,23.37 6.795,24.34 
		6.795,25.31 6.795,26.28 6.795,27.25 6.795,28.22 6.795,29.189 6.795,30.16 7.775,30.16 7.775,29.189 7.775,28.22 7.775,27.25 
		7.775,26.28 7.775,25.31 7.775,24.34 7.775,23.37 7.775,22.399 7.775,21.43 7.775,20.47 7.775,19.5 7.775,18.52 7.775,17.55 
		7.775,16.58 	"/>
	<g>
		<polygon fill="#6D5217" points="2.925,3.01 2.925,3.98 2.925,4.95 2.925,5.92 1.956,5.92 1.956,6.89 1.956,7.86 1.956,8.83 
			2.925,8.83 2.925,7.86 3.895,7.86 3.895,8.83 3.895,9.79 3.895,10.76 4.866,10.76 4.866,9.79 4.866,8.83 4.866,7.86 4.866,6.89 
			4.866,5.92 4.866,4.95 4.866,3.98 4.866,3.01 3.895,3.01 		"/>
		<rect x="7.775" y="7.86" fill="#6D5217" width="0.971" height="0.97"/>
		<rect x="0.985" y="8.83" fill="#6D5217" width="0.971" height="0.96"/>
		<polygon fill="#6D5217" points="8.746,1.07 8.746,0.1 7.775,0.1 6.795,0.1 5.826,0.1 4.866,0.1 4.866,1.07 3.895,1.07 3.895,2.04 
			4.866,2.04 4.866,3.01 5.826,3.01 5.826,2.04 6.795,2.04 7.775,2.04 7.775,3.01 8.746,3.01 8.746,2.04 9.715,2.04 9.715,1.07 		
			"/>
		<polygon fill="#6D5217" points="7.775,5.92 6.795,5.92 6.795,6.89 6.795,7.86 7.775,7.86 7.775,6.89 		"/>
	</g>
	<g>
		<polygon fill="#C7B570" points="8.746,14.649 8.746,15.61 8.746,16.58 9.715,16.58 9.715,15.61 9.715,14.649 		"/>
		<polygon fill="#C7B570" points="7.775,17.55 7.775,18.52 7.775,19.5 7.775,20.47 7.775,21.43 7.775,22.399 8.746,22.399 
			8.746,21.43 8.746,20.47 8.746,19.5 8.746,18.52 8.746,17.55 8.746,16.58 7.775,16.58 		"/>
		<rect x="6.795" y="30.16" fill="#C7B570" width="0.979" height="0.97"/>
		<polygon fill="#C7B570" points="6.795,5.92 7.775,5.92 7.775,4.95 7.775,3.98 7.775,3.01 7.775,2.04 6.795,2.04 5.826,2.04 
			5.826,3.01 4.866,3.01 4.866,3.98 4.866,4.95 4.866,5.92 4.866,6.89 5.826,6.89 6.795,6.89 		"/>
		<rect x="3.895" y="2.04" fill="#C7B570" width="0.971" height="0.97"/>
		<rect x="2.925" y="30.16" fill="#C7B570" width="0.97" height="0.97"/>
		<polygon fill="#C7B570" points="1.956,20.47 1.956,21.43 1.956,22.399 2.925,22.399 2.925,21.43 2.925,20.47 2.925,19.5 
			2.925,18.52 1.956,18.52 1.956,19.5 		"/>
		<polygon fill="#C7B570" points="1.956,16.58 1.956,15.61 1.956,14.649 0.985,14.649 0.985,15.61 0.985,16.58 0.985,17.55 
			0.985,18.52 1.956,18.52 1.956,17.55 		"/>
	</g>
	<g>
		<polygon fill="#9C8F57" points="8.746,11.74 8.746,12.71 8.746,13.68 8.746,14.649 9.715,14.649 9.715,13.68 9.715,12.71 
			9.715,11.74 		"/>
		<polygon fill="#9C8F57" points="8.746,9.79 8.746,8.83 7.775,8.83 7.775,7.86 6.795,7.86 6.795,6.89 5.826,6.89 4.866,6.89 
			4.866,7.86 4.866,8.83 4.866,9.79 4.866,10.76 3.895,10.76 3.895,9.79 3.895,8.83 3.895,7.86 2.925,7.86 2.925,8.83 1.956,8.83 
			1.956,9.79 1.956,10.76 1.956,11.74 2.925,11.74 2.925,12.71 2.925,13.68 2.925,14.649 2.925,15.61 3.895,15.61 3.895,16.58 
			4.866,16.58 5.826,16.58 6.795,16.58 6.795,15.61 7.775,15.61 7.775,14.649 7.775,13.68 7.775,12.71 7.775,11.74 8.746,11.74 
			8.746,10.76 		"/>
		<polygon fill="#9C8F57" points="0.985,12.71 0.985,13.68 0.985,14.649 1.956,14.649 1.956,13.68 1.956,12.71 1.956,11.74 
			0.985,11.74 		"/>
	</g>
</g>
<rect x="3.89" y="2.92" fill="#6D5217" width="0.98" height="0.96"/>
<rect x="2.92" y="2.92" fill="#6D5217" width="0.97" height="0.96"/>
<g>
	<polygon fill="#C7B570" points="4.87,6.8 4.87,7.78 5.83,7.78 5.83,6.8 5.83,5.84 4.87,5.84 	"/>
	<polygon fill="#C7B570" points="6.81,1.94 5.83,1.94 5.83,2.92 6.81,2.92 7.78,2.92 7.78,1.94 	"/>
	<rect x="3.89" y="1.94" fill="#C7B570" width="0.98" height="0.98"/>
</g>
<g>
	<polygon fill="#B3B3B3" points="10.7,0 9.73,0 9.73,0.97 10.7,0.97 11.68,0.97 11.68,0 	"/>
	<rect x="8.75" y="15.56" fill="#B3B3B3" width="0.979" height="0.971"/>
	<polygon fill="#B3B3B3" points="7.78,17.51 7.78,18.479 8.75,18.479 8.75,17.51 8.75,16.53 7.78,16.53 	"/>
	<polygon fill="#B3B3B3" points="8.75,0 7.78,0 6.81,0 5.83,0 4.87,0 4.87,0.97 3.89,0.97 2.92,0.97 2.92,1.94 1.95,1.94 0.97,1.94 
		0.97,2.92 1.95,2.92 2.92,2.92 3.89,2.92 3.89,1.94 4.87,1.94 5.83,1.94 6.81,1.94 7.78,1.94 8.75,1.94 9.73,1.94 9.73,0.97 
		8.75,0.97 	"/>
	<polygon fill="#B3B3B3" points="6.81,17.51 5.83,17.51 5.83,16.53 5.83,15.56 5.83,14.59 5.83,13.61 5.83,12.65 5.83,11.67 
		5.83,10.7 4.87,10.7 4.87,11.67 4.87,12.65 4.87,13.61 4.87,14.59 4.87,15.56 4.87,16.53 4.87,17.51 3.89,17.51 3.89,18.479 
		2.92,18.479 2.92,19.46 2.92,20.42 2.92,21.399 2.92,22.38 2.92,23.34 2.92,24.32 2.92,25.29 2.92,26.26 2.92,27.24 3.89,27.24 
		3.89,26.26 3.89,25.29 3.89,24.32 3.89,23.34 3.89,22.38 4.87,22.38 4.87,21.399 5.83,21.399 5.83,22.38 6.81,22.38 6.81,23.34 
		6.81,24.32 6.81,25.29 6.81,26.26 6.81,27.24 7.78,27.24 7.78,26.26 7.78,25.29 7.78,24.32 7.78,23.34 7.78,22.38 7.78,21.399 
		7.78,20.42 7.78,19.46 7.78,18.479 6.81,18.479 	"/>
	<polygon fill="#B3B3B3" points="5.83,8.75 5.83,7.78 4.87,7.78 4.87,8.75 4.87,9.73 5.83,9.73 	"/>
	<polygon fill="#B3B3B3" points="1.95,17.51 1.95,16.53 1.95,15.56 0.97,15.56 0.97,16.53 0.97,17.51 0.97,18.479 1.95,18.479 
		2.92,18.479 2.92,17.51 	"/>
</g>
<g>
	<polygon fill="#8C8C8C" points="8.75,11.67 8.75,12.65 8.75,13.61 8.75,14.59 8.75,15.56 9.73,15.56 9.73,14.59 9.73,13.61 
		9.73,12.65 9.73,11.67 	"/>
	<polygon fill="#8C8C8C" points="8.75,9.73 8.75,8.75 7.78,8.75 7.78,7.78 6.81,7.78 6.81,6.8 5.83,6.8 5.83,7.78 5.83,8.75 
		5.83,9.73 4.87,9.73 4.87,10.7 5.83,10.7 5.83,11.67 5.83,12.65 5.83,13.61 5.83,14.59 5.83,15.56 5.83,16.53 5.83,17.51 
		6.81,17.51 6.81,18.479 7.78,18.479 7.78,17.51 7.78,16.53 6.81,16.53 6.81,15.56 7.78,15.56 7.78,14.59 7.78,13.61 7.78,12.65 
		7.78,11.67 8.75,11.67 8.75,10.7 	"/>
	<polygon fill="#8C8C8C" points="6.81,28.21 6.81,29.189 6.81,30.149 6.81,31.13 7.78,31.13 7.78,30.149 7.78,29.189 7.78,28.21 
		7.78,27.24 6.81,27.24 	"/>
	<polygon fill="#8C8C8C" points="4.87,22.38 3.89,22.38 3.89,23.34 4.87,23.34 5.83,23.34 5.83,22.38 5.83,21.399 4.87,21.399 	"/>
	<polygon fill="#8C8C8C" points="2.92,28.21 2.92,29.189 2.92,30.149 2.92,31.13 3.89,31.13 3.89,30.149 3.89,29.189 3.89,28.21 
		3.89,27.24 2.92,27.24 	"/>
	<polygon fill="#8C8C8C" points="3.89,9.73 3.89,8.75 3.89,7.78 2.92,7.78 2.92,8.75 1.95,8.75 1.95,9.73 1.95,10.7 1.95,11.67 
		2.92,11.67 2.92,12.65 2.92,13.61 2.92,14.59 2.92,15.56 3.89,15.56 3.89,16.53 2.92,16.53 2.92,17.51 2.92,18.479 3.89,18.479 
		3.89,17.51 4.87,17.51 4.87,16.53 4.87,15.56 4.87,14.59 4.87,13.61 4.87,12.65 4.87,11.67 4.87,10.7 3.89,10.7 	"/>
	<polygon fill="#8C8C8C" points="2.92,22.38 1.95,22.38 1.95,21.399 0.97,21.399 0.97,22.38 0.97,23.34 0,23.34 0,24.32 0.97,24.32 
		1.95,24.32 1.95,23.34 2.92,23.34 	"/>
	<polygon fill="#8C8C8C" points="0.97,12.65 0.97,13.61 0.97,14.59 0.97,15.56 1.95,15.56 1.95,14.59 1.95,13.61 1.95,12.65 
		1.95,11.67 0.97,11.67 	"/>
</g>
<g>
	<polygon fill="#4D4D4D" points="8.754,21.4 7.785,21.4 6.815,21.4 5.844,21.4 4.865,21.4 3.895,21.4 3.895,20.431 3.895,19.451 
		2.925,19.451 2.925,20.431 2.925,21.4 2.925,22.381 2.925,23.341 2.925,24.32 3.895,24.32 3.895,23.341 3.895,22.381 4.865,22.381 
		5.844,22.381 6.815,22.381 7.785,22.381 8.754,22.381 9.735,22.381 9.735,21.4 	"/>
	<polygon fill="#4D4D4D" points="0.005,21.4 0.005,22.381 0.975,22.381 1.945,22.381 1.945,21.4 0.975,21.4 	"/>
</g>
</svg>
