<?xml version="1.0" encoding="utf-8"?>
<!-- Generator: Adobe Illustrator 16.0.0, SVG Export Plug-In . SVG Version: 6.00 Build 0)  -->
<!DOCTYPE svg PUBLIC "-//W3C//DTD SVG 1.1//EN" "http://www.w3.org/Graphics/SVG/1.1/DTD/svg11.dtd">
<svg version="1.1" id="Layer_2" xmlns="http://www.w3.org/2000/svg" xmlns:xlink="http://www.w3.org/1999/xlink" x="0px" y="0px"
	 width="15.615px" height="35.02px" viewBox="0 0 15.615 35.02" enable-background="new 0 0 15.615 35.02" xml:space="preserve">
<polygon fill="#737144" points="7.79,16.54 6.81,16.54 5.84,16.54 4.86,16.54 3.9,16.54 2.92,16.54 2.92,17.5 2.92,18.48 
	2.92,19.45 2.92,20.42 2.92,21.4 2.92,22.37 2.92,23.35 2.92,24.31 2.92,25.29 2.92,26.27 2.92,27.23 2.92,28.21 2.92,29.18 
	2.92,30.15 2.92,31.13 2.92,32.1 2.92,33.08 2.92,34.04 3.9,34.04 3.9,33.08 3.9,32.1 3.9,31.13 3.9,30.15 3.9,29.18 3.9,28.21 
	3.9,27.23 3.9,26.27 3.9,25.29 3.9,24.31 3.9,23.35 3.9,22.37 3.9,21.4 4.86,21.4 5.84,21.4 6.81,21.4 7.79,21.4 7.79,22.37 
	7.79,23.35 7.79,24.31 7.79,25.29 7.79,26.27 7.79,27.23 7.79,28.21 7.79,29.18 7.79,30.15 7.79,31.13 7.79,32.1 7.79,33.08 
	7.79,34.04 8.76,34.04 8.76,33.08 8.76,32.1 8.76,31.13 8.76,30.15 8.76,29.18 8.76,28.21 8.76,27.23 8.76,26.27 8.76,25.29 
	8.76,24.31 8.76,23.35 8.76,22.37 8.76,21.4 8.76,20.42 8.76,19.45 8.76,18.48 8.76,17.5 8.76,16.54 "/>
<g>
	<polygon fill="#6D5217" points="7.79,6.81 7.79,7.77 7.79,8.75 8.76,8.75 8.76,7.77 8.76,6.81 8.76,5.83 7.79,5.83 	"/>
	<polygon fill="#6D5217" points="7.79,0.96 7.79,0 6.81,0 5.84,0 4.86,0 4.86,0.96 3.9,0.96 3.9,1.94 3.9,2.91 3.9,3.89 3.9,4.86 
		3.9,5.83 2.92,5.83 2.92,6.81 2.92,7.77 3.9,7.77 3.9,6.81 4.86,6.81 4.86,5.83 4.86,4.86 5.84,4.86 5.84,3.89 5.84,2.91 
		5.84,1.94 6.81,1.94 7.79,1.94 8.76,1.94 8.76,0.96 	"/>
</g>
<polygon fill="#9C8F57" points="10.71,9.73 10.71,8.75 10.71,7.77 9.729,7.77 9.729,6.81 8.76,6.81 8.76,7.77 8.76,8.75 7.79,8.75 
	7.79,7.77 7.79,6.81 6.81,6.81 5.84,6.81 4.86,6.81 3.9,6.81 3.9,7.77 2.92,7.77 2.92,6.81 1.94,6.81 1.94,7.77 0.98,7.77 
	0.98,8.75 0.98,9.73 0,9.73 0,10.69 0,11.67 0.98,11.67 1.94,11.67 1.94,12.64 1.94,13.62 2.92,13.62 2.92,14.59 2.92,15.56 
	2.92,16.54 3.9,16.54 4.86,16.54 5.84,16.54 6.81,16.54 7.79,16.54 8.76,16.54 8.76,15.56 8.76,14.59 8.76,13.62 9.729,13.62 
	9.729,12.64 9.729,11.67 10.71,11.67 11.67,11.67 11.67,10.69 11.67,9.73 "/>
<g>
	<polygon fill="#4D4D4D" points="15.615,23.35 15.615,22.37 14.645,22.37 13.675,22.37 12.695,22.37 11.725,22.37 10.755,22.37 
		10.755,23.35 11.725,23.35 12.695,23.35 12.695,24.31 11.725,24.31 11.725,25.29 12.695,25.29 12.695,26.27 13.675,26.27 
		14.645,26.27 14.645,25.29 15.615,25.29 15.615,24.31 14.645,24.31 14.645,23.35 	"/>
	<rect x="8.805" y="22.37" fill="#4D4D4D" width="0.971" height="0.98"/>
</g>
<g>
	<polygon fill="#C7B570" points="10.71,11.67 9.729,11.67 9.729,12.64 9.729,13.62 9.729,14.59 9.729,15.56 9.729,16.54 9.729,17.5 
		9.729,18.48 9.729,19.45 9.729,20.42 9.729,21.4 9.729,22.37 9.729,23.35 10.71,23.35 10.71,22.37 10.71,21.4 10.71,20.42 
		10.71,19.45 10.71,18.48 10.71,17.5 10.71,16.54 10.71,15.56 10.71,14.59 10.71,13.62 10.71,12.64 11.67,12.64 11.67,11.67 	"/>
	<rect x="7.79" y="34.04" fill="#C7B570" width="0.97" height="0.98"/>
	<polygon fill="#C7B570" points="6.81,1.94 5.84,1.94 5.84,2.91 5.84,3.89 5.84,4.86 4.86,4.86 4.86,5.83 4.86,6.81 4.915,6.81 
		4.915,7.77 5.885,7.77 5.885,8.75 6.854,8.75 6.854,7.77 7.835,7.77 7.835,6.81 7.79,6.81 7.79,5.83 8.76,5.83 8.76,4.86 
		8.76,3.89 8.76,2.91 8.76,1.94 7.79,1.94 	"/>
	<rect x="2.92" y="34.04" fill="#C7B570" width="0.98" height="0.98"/>
	<polygon fill="#C7B570" points="0.045,19.45 0.045,20.42 0.045,21.4 0.045,22.37 0.045,23.35 1.025,23.35 1.025,22.37 1.025,21.4 
		1.025,20.42 1.025,19.45 1.025,18.48 0.045,18.48 	"/>
</g>
<g>
	<polygon fill="#B3B3B3" points="10.755,0 9.775,0 9.775,0.96 10.755,0.96 11.725,0.96 11.725,0 	"/>
	<polygon fill="#B3B3B3" points="9.775,17.5 9.775,18.48 10.755,18.48 10.755,17.5 10.755,16.54 9.775,16.54 	"/>
	<polygon fill="#B3B3B3" points="7.835,0.96 7.835,0 6.854,0 5.885,0 4.915,0 4.915,0.96 3.945,0.96 2.965,0.96 2.965,1.94 
		3.945,1.94 4.915,1.94 5.885,1.94 6.854,1.94 7.835,1.94 8.805,1.94 9.775,1.94 9.775,0.96 8.805,0.96 	"/>
	<polygon fill="#B3B3B3" points="7.835,18.48 7.835,17.5 7.835,16.54 6.854,16.54 6.854,15.56 6.854,14.59 6.854,13.62 6.854,12.64 
		6.854,11.67 5.885,11.67 5.885,12.64 5.885,13.62 5.885,14.59 5.885,15.56 5.885,16.54 4.915,16.54 4.915,17.5 3.945,17.5 
		3.945,18.48 3.945,19.45 2.965,19.45 2.965,20.42 2.965,21.4 2.965,22.37 2.965,23.35 2.965,24.31 2.965,25.29 2.965,26.27 
		2.965,27.23 2.965,28.21 2.965,29.18 2.965,30.15 2.965,31.13 3.945,31.13 3.945,30.15 3.945,29.18 3.945,28.21 3.945,27.23 
		3.945,26.27 3.945,25.29 3.945,24.31 3.945,23.35 3.945,22.37 3.945,21.4 4.915,21.4 5.885,21.4 6.854,21.4 7.835,21.4 
		7.835,22.37 7.835,23.35 7.835,24.31 7.835,25.29 7.835,26.27 7.835,27.23 7.835,28.21 7.835,29.18 7.835,30.15 7.835,31.13 
		8.805,31.13 8.805,30.15 8.805,29.18 8.805,28.21 8.805,27.23 8.805,26.27 8.805,25.29 8.805,24.31 8.805,23.35 8.805,22.37 
		8.805,21.4 8.805,20.42 8.805,19.45 7.835,19.45 	"/>
	<polygon fill="#B3B3B3" points="6.854,9.73 6.854,8.75 5.885,8.75 5.885,9.73 5.885,10.69 6.854,10.69 	"/>
	<polygon fill="#B3B3B3" points="1.025,1.94 1.025,2.91 1.995,2.91 2.965,2.91 2.965,1.94 1.995,1.94 	"/>
	<polygon fill="#B3B3B3" points="0.045,17.5 0.045,18.48 1.025,18.48 1.025,17.5 1.025,16.54 0.045,16.54 	"/>
</g>
<g>
	<polygon fill="#8C8C8C" points="10.755,9.73 10.755,8.75 10.755,7.77 9.775,7.77 9.775,6.81 8.805,6.81 8.805,7.77 8.805,8.75 
		7.835,8.75 7.835,7.77 6.854,7.77 6.854,8.75 6.854,9.73 6.854,10.69 5.885,10.69 5.885,9.73 5.885,8.75 5.885,7.77 4.915,7.77 
		4.915,6.81 3.945,6.81 3.945,7.77 2.965,7.77 2.965,6.81 1.995,6.81 1.995,7.77 1.025,7.77 1.025,8.75 1.025,9.73 0.045,9.73 
		0.045,10.69 0.045,11.67 0.045,12.64 0.045,13.62 0.045,14.59 0.045,15.56 0.045,16.54 1.025,16.54 1.025,15.56 1.025,14.59 
		1.025,13.62 1.025,12.64 1.995,12.64 1.995,13.62 2.965,13.62 2.965,14.59 2.965,15.56 2.965,16.54 2.965,17.5 2.965,18.48 
		2.965,19.45 3.945,19.45 3.945,18.48 3.945,17.5 4.915,17.5 4.915,16.54 5.885,16.54 5.885,15.56 5.885,14.59 5.885,13.62 
		5.885,12.64 5.885,11.67 6.854,11.67 6.854,12.64 6.854,13.62 6.854,14.59 6.854,15.56 6.854,16.54 7.835,16.54 7.835,17.5 
		7.835,18.48 7.835,19.45 8.805,19.45 8.805,18.48 8.805,17.5 8.805,16.54 8.805,15.56 8.805,14.59 8.805,13.62 9.775,13.62 
		9.775,14.59 9.775,15.56 9.775,16.54 10.755,16.54 10.755,15.56 10.755,14.59 10.755,13.62 10.755,12.64 11.725,12.64 
		11.725,11.67 11.725,10.69 11.725,9.73 	"/>
	<polygon fill="#8C8C8C" points="7.835,32.1 7.835,33.08 7.835,34.04 7.835,35.02 8.805,35.02 8.805,34.04 8.805,33.08 8.805,32.1 
		8.805,31.13 7.835,31.13 	"/>
	<polygon fill="#8C8C8C" points="7.835,23.35 7.835,22.37 7.835,21.4 6.854,21.4 5.885,21.4 4.915,21.4 3.945,21.4 3.945,22.37 
		3.945,23.35 3.945,24.31 4.915,24.31 5.885,24.31 6.854,24.31 7.835,24.31 	"/>
	<polygon fill="#8C8C8C" points="2.965,32.1 2.965,33.08 2.965,34.04 2.965,35.02 3.945,35.02 3.945,34.04 3.945,33.08 3.945,32.1 
		3.945,31.13 2.965,31.13 	"/>
	<polygon fill="#8C8C8C" points="1.995,20.42 1.995,21.4 1.025,21.4 1.025,22.37 1.025,23.35 1.025,24.31 1.995,24.31 2.965,24.31 
		2.965,23.35 2.965,22.37 2.965,21.4 2.965,20.42 2.965,19.45 1.995,19.45 	"/>
</g>
</svg>
