<?xml version="1.0" encoding="utf-8"?>
<!-- Generator: Adobe Illustrator 16.0.0, SVG Export Plug-In . SVG Version: 6.00 Build 0)  -->
<!DOCTYPE svg PUBLIC "-//W3C//DTD SVG 1.1//EN" "http://www.w3.org/Graphics/SVG/1.1/DTD/svg11.dtd">
<svg version="1.1" id="Layer_2" xmlns="http://www.w3.org/2000/svg" xmlns:xlink="http://www.w3.org/1999/xlink" x="0px" y="0px"
	 width="12.645px" height="23.35px" viewBox="0 0 12.645 23.35" enable-background="new 0 0 12.645 23.35" xml:space="preserve">
<polygon fill="#6D5217" points="9.72,5.9 9.72,4.93 9.72,3.96 8.75,3.96 7.78,3.96 7.78,2.98 6.8,2.98 6.8,2.01 7.78,2.01 
	8.75,2.01 9.72,2.01 9.72,1.05 8.75,1.05 8.75,0.081 7.78,0.081 6.8,0.081 5.831,0.081 4.871,0.081 4.871,1.05 3.9,1.05 3.9,2.01 
	3.9,2.98 3.9,3.96 3.9,4.93 3.9,5.9 4.871,5.9 4.871,4.93 5.831,4.93 5.831,3.96 6.8,3.96 6.8,4.93 7.78,4.93 7.78,5.9 8.75,5.9 
	8.75,6.87 9.72,6.87 9.72,7.831 9.72,8.8 10.69,8.8 10.69,7.831 10.69,6.87 10.69,5.9 "/>
<polygon fill="#737144" points="9.72,13.65 8.75,13.65 7.78,13.65 6.8,13.65 5.831,13.65 4.871,13.65 3.9,13.65 2.93,13.65 
	2.93,14.62 2.93,15.59 2.93,16.56 2.93,17.53 2.93,18.5 2.93,19.47 2.93,20.44 2.93,21.41 2.93,22.38 3.9,22.38 3.9,21.41 
	3.9,20.44 3.9,19.47 3.9,18.5 3.9,17.53 3.9,16.56 3.9,15.59 4.871,15.59 5.831,15.59 6.8,15.59 7.78,15.59 8.75,15.59 9.72,15.59 
	9.72,16.56 9.72,17.53 9.72,18.5 9.72,19.47 9.72,20.44 9.72,21.41 9.72,22.38 10.69,22.38 10.69,21.41 10.69,20.44 10.69,19.47 
	10.69,18.5 10.69,17.53 10.69,16.56 10.69,15.59 10.69,14.62 10.69,13.65 "/>
<polygon fill="#C7B570" points="11.65,16.56 11.65,17.53 11.65,18.5 12.621,18.5 12.621,17.53 12.621,16.56 "/>
<polygon fill="#C7B570" points="11.65,14.62 11.65,13.65 10.69,13.65 10.69,14.62 10.69,15.59 10.69,16.56 11.65,16.56 11.65,15.59 
	"/>
<polygon fill="#C7B570" points="1.96,17.53 1.96,18.5 2.93,18.5 2.93,17.53 2.93,16.56 2.93,15.59 2.93,14.62 1.96,14.62 
	1.96,13.65 0.99,13.65 0.99,14.62 0.99,15.59 1.96,15.59 1.96,16.56 "/>
<rect x="9.72" y="22.38" fill="#C7B570" width="0.97" height="0.97"/>
<polygon fill="#C7B570" points="9.72,2.98 9.72,2.01 8.75,2.01 7.78,2.01 6.8,2.01 6.8,2.98 7.78,2.98 7.78,3.96 8.75,3.96 
	9.72,3.96 "/>
<rect x="2.93" y="22.38" fill="#C7B570" width="0.97" height="0.97"/>
<polygon fill="#9C8F57" points="10.69,6.87 10.69,7.831 10.69,8.8 9.72,8.8 9.72,7.831 9.72,6.87 8.75,6.87 8.75,5.9 7.78,5.9 
	6.8,5.9 5.831,5.9 4.871,5.9 3.9,5.9 2.93,5.9 2.93,6.87 1.96,6.87 1.96,7.831 0.99,7.831 0.99,8.8 0.99,9.77 0.99,10.74 
	0.99,11.72 0.99,12.69 0.99,13.65 1.96,13.65 1.96,12.69 1.96,11.72 1.96,10.74 2.93,10.74 2.93,11.72 2.93,12.69 2.93,13.65 
	3.9,13.65 4.871,13.65 5.831,13.65 6.8,13.65 7.78,13.65 8.75,13.65 9.72,13.65 10.69,13.65 11.65,13.65 11.65,12.69 11.65,11.72 
	11.65,10.74 11.65,9.77 11.65,8.8 11.65,7.831 11.65,6.87 "/>
<polygon fill="#C7B570" points="7.78,5.83 7.78,4.93 6.8,4.93 6.8,3.96 5.831,3.96 5.831,4.93 4.871,4.93 4.871,5.9 5.831,5.9 
	5.835,5.9 5.835,6.81 6.805,6.81 6.805,7.78 7.775,7.78 7.775,6.81 8.755,6.81 8.755,5.83 "/>
<g>
	<polygon fill="#B3B3B3" points="11.675,0 10.695,0 9.725,0 9.725,0.97 8.755,0.97 8.755,0 7.775,0 6.805,0 5.835,0 4.865,0 
		4.865,0.97 3.885,0.97 2.915,0.97 2.915,1.95 1.945,1.95 0.965,1.95 0.965,2.92 1.945,2.92 2.915,2.92 3.885,2.92 3.885,1.95 
		4.865,1.95 5.835,1.95 6.805,1.95 7.775,1.95 8.755,1.95 9.725,1.95 10.695,1.95 10.695,0.97 11.675,0.97 12.645,0.97 12.645,0 	
		"/>
	<polygon fill="#B3B3B3" points="10.695,12.64 10.695,13.62 10.695,14.6 11.675,14.6 11.675,13.62 11.675,12.64 11.675,11.68 
		10.695,11.68 	"/>
	<polygon fill="#B3B3B3" points="9.725,16.541 9.725,17.51 9.725,18.48 9.725,19.46 10.695,19.46 10.695,18.48 10.695,17.51 
		10.695,16.541 10.695,15.56 9.725,15.56 	"/>
	<polygon fill="#B3B3B3" points="7.775,13.62 7.775,12.64 7.775,11.68 7.775,10.7 7.775,9.73 7.775,8.75 7.775,7.78 6.805,7.78 
		6.805,8.75 6.805,9.73 6.805,10.7 6.805,11.68 6.805,12.64 6.805,13.62 5.835,13.62 5.835,14.6 4.865,14.6 4.865,15.56 
		5.835,15.56 6.805,15.56 7.775,15.56 8.755,15.56 8.755,14.6 7.775,14.6 	"/>
	<polygon fill="#B3B3B3" points="2.915,16.541 2.915,17.51 2.915,18.48 2.915,19.46 3.885,19.46 3.885,18.48 3.885,17.51 
		3.885,16.541 3.885,15.56 2.915,15.56 	"/>
	<polygon fill="#B3B3B3" points="0.965,12.64 0.965,13.62 0.965,14.6 1.945,14.6 1.945,13.62 1.945,12.64 1.945,11.68 0.965,11.68 	
		"/>
</g>
<g>
	<polygon fill="#8C8C8C" points="10.695,6.81 10.695,7.78 10.695,8.75 9.725,8.75 9.725,7.78 9.725,6.81 8.755,6.81 7.775,6.81 
		7.775,7.78 7.775,8.75 7.775,9.73 7.775,10.7 7.775,11.68 7.775,12.64 7.775,13.62 7.775,14.6 8.755,14.6 8.755,15.56 7.775,15.56 
		6.805,15.56 5.835,15.56 4.865,15.56 4.865,14.6 5.835,14.6 5.835,13.62 6.805,13.62 6.805,12.64 6.805,11.68 6.805,10.7 
		6.805,9.73 6.805,8.75 6.805,7.78 6.805,6.81 5.835,6.81 5.835,5.83 4.865,5.83 3.885,5.83 2.915,5.83 2.915,6.81 1.945,6.81 
		1.945,7.78 0.965,7.78 0.965,8.75 0.965,9.73 0.965,10.7 0.965,11.68 1.945,11.68 1.945,10.7 2.915,10.7 2.915,11.68 2.915,12.64 
		2.915,13.62 2.915,14.6 2.915,15.56 3.885,15.56 3.885,16.541 3.885,17.51 3.885,18.48 4.865,18.48 5.835,18.48 6.805,18.48 
		6.805,17.51 7.775,17.51 8.755,17.51 9.725,17.51 9.725,16.541 9.725,15.56 10.695,15.56 10.695,14.6 10.695,13.62 10.695,12.64 
		10.695,11.68 11.675,11.68 11.675,10.7 11.675,9.73 11.675,8.75 11.675,7.78 11.675,6.81 	"/>
	<polygon fill="#8C8C8C" points="9.725,20.43 9.725,21.41 9.725,22.37 9.725,23.35 10.695,23.35 10.695,22.37 10.695,21.41 
		10.695,20.43 10.695,19.46 9.725,19.46 	"/>
	<polygon fill="#8C8C8C" points="2.915,20.43 2.915,21.41 2.915,22.37 2.915,23.35 3.885,23.35 3.885,22.37 3.885,21.41 
		3.885,20.43 3.885,19.46 2.915,19.46 	"/>
</g>
<g>
	<polygon fill="#4D4D4D" points="8.75,17.53 7.78,17.53 6.81,17.53 5.839,17.53 4.86,17.53 3.89,17.53 3.89,16.56 3.89,15.581 
		2.92,15.581 2.92,16.56 2.92,17.53 2.92,18.51 2.92,19.47 2.92,20.45 3.89,20.45 3.89,19.47 3.89,18.51 4.86,18.51 5.839,18.51 
		6.81,18.51 7.78,18.51 8.75,18.51 9.73,18.51 9.73,17.53 	"/>
	<polygon fill="#4D4D4D" points="0,17.53 0,18.51 0.97,18.51 1.94,18.51 1.94,17.53 0.97,17.53 	"/>
</g>
</svg>
