<?xml version="1.0" encoding="utf-8"?>
<!-- Generator: Adobe Illustrator 16.0.0, SVG Export Plug-In . SVG Version: 6.00 Build 0)  -->
<!DOCTYPE svg PUBLIC "-//W3C//DTD SVG 1.1//EN" "http://www.w3.org/Graphics/SVG/1.1/DTD/svg11.dtd">
<svg version="1.1" id="Layer_2" xmlns="http://www.w3.org/2000/svg" xmlns:xlink="http://www.w3.org/1999/xlink" x="0px" y="0px"
	 width="12.636px" height="32.11px" viewBox="0 0 12.636 32.11" enable-background="new 0 0 12.636 32.11" xml:space="preserve">
<g>
	<g>
		<polygon fill="#6D5217" points="6.805,1.08 5.825,1.08 4.855,1.08 3.896,1.08 3.896,2.05 2.925,2.05 2.925,3.02 3.896,3.02 
			3.896,3.99 4.855,3.99 4.855,3.02 5.825,3.02 6.805,3.02 6.805,2.05 7.775,2.05 7.775,1.08 		"/>
		<polygon fill="#6D5217" points="2.925,4.96 2.925,5.93 2.925,6.9 3.896,6.9 3.896,5.93 3.896,4.96 3.896,3.99 2.925,3.99 		"/>
	</g>
	<g>
		<rect x="1.955" y="31.14" fill="#C7B570" width="0.97" height="0.97"/>
		<rect x="5.825" y="31.14" fill="#C7B570" width="0.979" height="0.97"/>
		<rect x="2.925" y="3.02" fill="#C7B570" width="0.971" height="0.97"/>
		<polygon fill="#C7B570" points="0.985,21.45 0.985,22.41 0.985,23.379 0.985,24.35 1.955,24.35 1.955,23.379 1.955,22.41 
			1.955,21.45 1.955,20.48 1.955,19.5 0.985,19.5 0.985,20.48 		"/>
		<polygon fill="#C7B570" points="0.985,17.56 0.985,16.59 0.985,15.629 0.985,14.66 0.015,14.66 0.015,15.629 0.015,16.59 
			0.015,17.56 0.015,18.53 0.015,19.5 0.985,19.5 0.985,18.53 		"/>
		<polygon fill="#C7B570" points="6.805,18.53 6.805,19.5 6.805,20.48 6.805,21.45 6.805,22.41 6.805,23.379 6.805,24.35 
			7.775,24.35 7.775,23.379 7.775,22.41 7.775,21.45 7.775,20.48 7.775,19.5 7.775,18.53 7.775,17.56 6.805,17.56 		"/>
		<polygon fill="#C7B570" points="7.775,13.69 7.775,14.66 7.775,15.629 7.775,16.59 7.775,17.56 8.745,17.56 8.745,16.59 
			8.745,15.629 8.745,14.66 8.745,13.69 		"/>
		<polygon fill="#C7B570" points="5.825,6.9 6.805,6.9 6.805,5.93 6.805,4.96 6.805,3.99 6.805,3.02 5.825,3.02 4.855,3.02 
			4.855,3.99 3.896,3.99 3.896,4.96 3.896,5.93 3.896,6.9 3.896,7.87 4.855,7.87 5.825,7.87 		"/>
	</g>
	<g>
		<polygon fill="#9C8F57" points="0.015,13.69 0.015,14.66 0.985,14.66 0.985,13.69 0.985,12.72 0.015,12.72 		"/>
		<rect x="7.775" y="12.72" fill="#9C8F57" width="0.97" height="0.97"/>
		<polygon fill="#9C8F57" points="7.775,10.77 7.775,9.81 6.805,9.81 6.805,8.84 6.805,7.87 5.825,7.87 4.855,7.87 3.896,7.87 
			2.925,7.87 1.955,7.87 1.955,8.84 0.985,8.84 0.985,9.81 0.985,10.77 0.985,11.74 0.985,12.72 1.955,12.72 1.955,13.69 
			1.955,14.66 1.955,15.629 1.955,16.59 1.955,17.56 2.925,17.56 3.896,17.56 4.855,17.56 5.825,17.56 6.805,17.56 6.805,16.59 
			6.805,15.629 6.805,14.66 6.805,13.69 6.805,12.72 7.775,12.72 7.775,11.74 		"/>
	</g>
	<polygon fill="#737144" points="5.825,17.56 4.855,17.56 3.896,17.56 2.925,17.56 1.955,17.56 1.955,18.53 1.955,19.5 1.955,20.48 
		1.955,21.45 1.955,22.41 1.955,23.379 1.955,24.35 1.955,25.32 1.955,26.29 1.955,27.26 1.955,28.23 1.955,29.2 1.955,30.169 
		1.955,31.14 2.925,31.14 2.925,30.169 2.925,29.2 2.925,28.23 2.925,27.26 2.925,26.29 2.925,25.32 2.925,24.35 2.925,23.379 
		2.925,22.41 3.896,22.41 4.855,22.41 5.825,22.41 5.825,23.379 5.825,24.35 5.825,25.32 5.825,26.29 5.825,27.26 5.825,28.23 
		5.825,29.2 5.825,30.169 5.825,31.14 6.805,31.14 6.805,30.169 6.805,29.2 6.805,28.23 6.805,27.26 6.805,26.29 6.805,25.32 
		6.805,24.35 6.805,23.379 6.805,22.41 6.805,21.45 6.805,20.48 6.805,19.5 6.805,18.53 6.805,17.56 	"/>
</g>
<rect x="2.92" y="1.95" fill="#6D5217" width="0.98" height="0.97"/>
<rect x="3.9" y="8.76" fill="#C7B570" width="0.96" height="0.97"/>
<rect x="3.9" y="7.78" fill="#C7B570" width="0.96" height="0.98"/>
<g>
	<polygon fill="#B3B3B3" points="0,1.95 0,2.92 0.98,2.92 1.95,2.92 1.95,1.95 0.98,1.95 	"/>
	<polygon fill="#B3B3B3" points="6.81,0 5.84,0 4.86,0 3.9,0 3.9,0.98 2.92,0.98 1.95,0.98 1.95,1.95 2.92,1.95 3.9,1.95 4.86,1.95 
		5.84,1.95 6.81,1.95 7.78,1.95 7.78,0.98 6.81,0.98 	"/>
	<polygon fill="#B3B3B3" points="8.76,0 7.78,0 7.78,0.98 8.76,0.98 9.729,0.98 9.729,0 	"/>
	<polygon fill="#B3B3B3" points="7.78,14.59 7.78,15.57 7.78,16.55 8.76,16.55 8.76,15.57 8.76,14.59 8.76,13.63 7.78,13.63 	"/>
	<polygon fill="#B3B3B3" points="5.84,18.49 4.86,18.49 4.86,17.51 4.86,16.55 4.86,15.57 4.86,14.59 4.86,13.63 4.86,12.65 
		3.9,12.65 3.9,13.63 3.9,14.59 3.9,15.57 3.9,16.55 3.9,17.51 3.9,18.49 2.92,18.49 2.92,19.459 1.95,19.459 1.95,20.44 1.95,21.4 
		1.95,22.379 1.95,23.36 1.95,24.32 1.95,25.3 1.95,26.27 1.95,27.24 1.95,28.22 2.92,28.22 2.92,27.24 2.92,26.27 2.92,25.3 
		2.92,24.32 2.92,23.36 2.92,22.379 3.9,22.379 4.86,22.379 5.84,22.379 5.84,23.36 5.84,24.32 5.84,25.3 5.84,26.27 5.84,27.24 
		5.84,28.22 6.81,28.22 6.81,27.24 6.81,26.27 6.81,25.3 6.81,24.32 6.81,23.36 6.81,22.379 6.81,21.4 6.81,20.44 6.81,19.459 
		5.84,19.459 	"/>
	<polygon fill="#B3B3B3" points="4.86,10.71 4.86,9.73 3.9,9.73 3.9,10.71 3.9,11.68 4.86,11.68 	"/>
	<polygon fill="#B3B3B3" points="0,14.59 0,15.57 0,16.55 0.98,16.55 0.98,15.57 0.98,14.59 0.98,13.63 0,13.63 	"/>
</g>
<g>
	<rect x="7.78" y="12.65" fill="#8C8C8C" width="0.979" height="0.98"/>
	<polygon fill="#8C8C8C" points="7.78,10.71 7.78,9.73 6.81,9.73 6.81,8.76 6.81,7.78 5.84,7.78 4.86,7.78 4.86,8.76 4.86,9.73 
		4.86,10.71 4.86,11.68 3.9,11.68 3.9,10.71 3.9,9.73 3.9,8.76 3.9,7.78 2.92,7.78 1.95,7.78 1.95,8.76 0.98,8.76 0.98,9.73 
		0.98,10.71 0.98,11.68 0.98,12.65 1.95,12.65 1.95,13.63 1.95,14.59 1.95,15.57 1.95,16.55 1.95,17.51 1.95,18.49 1.95,19.459 
		2.92,19.459 2.92,18.49 3.9,18.49 3.9,17.51 3.9,16.55 3.9,15.57 3.9,14.59 3.9,13.63 3.9,12.65 4.86,12.65 4.86,13.63 4.86,14.59 
		4.86,15.57 4.86,16.55 4.86,17.51 4.86,18.49 5.84,18.49 5.84,19.459 6.81,19.459 6.81,18.49 6.81,17.51 6.81,16.55 6.81,15.57 
		6.81,14.59 6.81,13.63 6.81,12.65 7.78,12.65 7.78,11.68 	"/>
	<polygon fill="#8C8C8C" points="5.84,29.19 5.84,30.169 5.84,31.14 5.84,32.11 6.81,32.11 6.81,31.14 6.81,30.169 6.81,29.19 
		6.81,28.22 5.84,28.22 	"/>
	<polygon fill="#8C8C8C" points="2.92,22.379 2.92,23.36 3.9,23.36 4.86,23.36 4.86,22.379 3.9,22.379 	"/>
	<polygon fill="#8C8C8C" points="1.95,29.19 1.95,30.169 1.95,31.14 1.95,32.11 2.92,32.11 2.92,31.14 2.92,30.169 2.92,29.19 
		2.92,28.22 1.95,28.22 	"/>
	<rect y="12.65" fill="#8C8C8C" width="0.98" height="0.98"/>
</g>
<polygon fill="#4D4D4D" points="12.636,24.34 12.636,23.36 11.665,23.36 10.695,23.36 9.716,23.36 8.745,23.36 7.775,23.36 
	7.775,24.34 8.745,24.34 9.716,24.34 9.716,25.299 8.745,25.299 8.745,26.28 9.716,26.28 9.716,27.26 10.695,27.26 11.665,27.26 
	11.665,26.28 12.636,26.28 12.636,25.299 11.665,25.299 11.665,24.34 "/>
</svg>
