<?xml version="1.0" encoding="utf-8"?>
<!-- Generator: Adobe Illustrator 16.0.0, SVG Export Plug-In . SVG Version: 6.00 Build 0)  -->
<!DOCTYPE svg PUBLIC "-//W3C//DTD SVG 1.1//EN" "http://www.w3.org/Graphics/SVG/1.1/DTD/svg11.dtd">
<svg version="1.1" id="Layer_3" xmlns="http://www.w3.org/2000/svg" xmlns:xlink="http://www.w3.org/1999/xlink" x="0px" y="0px"
	 width="10.691px" height="31.13px" viewBox="0 0 10.691 31.13" enable-background="new 0 0 10.691 31.13" xml:space="preserve">
<g>
	<polygon fill="#737144" points="5.82,16.531 4.851,16.531 3.891,16.531 2.92,16.531 1.95,16.531 1.95,17.5 0.98,17.5 0.98,18.47 
		1.95,18.47 1.95,19.451 1.95,20.42 1.95,21.38 1.95,22.35 1.95,23.321 1.95,24.291 1.95,25.26 1.95,26.231 1.95,27.201 1.95,28.17 
		1.95,29.14 1.95,30.111 2.92,30.111 2.92,29.14 2.92,28.17 2.92,27.201 2.92,26.231 2.92,25.26 2.92,24.291 2.92,23.321 
		2.92,22.35 3.891,22.35 3.891,21.38 4.851,21.38 4.851,22.35 5.82,22.35 5.82,23.321 5.82,24.291 5.82,25.26 5.82,26.231 
		5.82,27.201 5.82,28.17 5.82,29.14 5.82,30.111 6.8,30.111 6.8,29.14 6.8,28.17 6.8,27.201 6.8,26.231 6.8,25.26 6.8,24.291 
		6.8,23.321 6.8,22.35 6.8,21.38 6.8,20.42 6.8,19.451 6.8,18.47 6.8,17.5 6.8,16.531 	"/>
	<g>
		<polygon fill="#6D5217" points="1.95,2.96 1.95,3.931 1.95,4.9 1.95,5.871 0.98,5.871 0.98,6.84 0.98,7.811 0.98,8.781 
			1.95,8.781 1.95,7.811 2.92,7.811 2.92,8.781 2.92,9.741 2.92,10.71 3.891,10.71 3.891,9.741 3.891,8.781 3.891,7.811 3.891,6.84 
			3.891,5.871 3.891,4.9 3.891,3.931 3.891,2.96 2.92,2.96 		"/>
		<rect x="6.8" y="7.811" fill="#6D5217" width="0.971" height="0.97"/>
		<rect x="0.01" y="8.781" fill="#6D5217" width="0.971" height="0.96"/>
		<polygon fill="#6D5217" points="7.771,1.021 7.771,0.051 6.8,0.051 5.82,0.051 4.851,0.051 3.891,0.051 3.891,1.021 2.92,1.021 
			2.92,1.991 3.891,1.991 3.891,2.96 4.851,2.96 4.851,1.991 5.82,1.991 6.8,1.991 6.8,2.96 7.771,2.96 7.771,1.991 8.74,1.991 
			8.74,1.021 		"/>
		<polygon fill="#6D5217" points="6.8,5.871 5.82,5.871 5.82,6.84 5.82,7.811 6.8,7.811 6.8,6.84 		"/>
	</g>
	<g>
		<polygon fill="#C7B570" points="7.771,14.6 7.771,15.561 7.771,16.531 8.74,16.531 8.74,15.561 8.74,14.6 		"/>
		<polygon fill="#C7B570" points="6.8,17.5 6.8,18.47 6.8,19.451 6.8,20.42 6.8,21.38 6.8,22.35 7.771,22.35 7.771,21.38 
			7.771,20.42 7.771,19.451 7.771,18.47 7.771,17.5 7.771,16.531 6.8,16.531 		"/>
		<rect x="5.82" y="30.111" fill="#C7B570" width="0.979" height="0.97"/>
		<polygon fill="#C7B570" points="5.82,5.871 6.8,5.871 6.8,4.9 6.8,3.931 6.8,2.96 6.8,1.991 5.82,1.991 4.851,1.991 4.851,2.96 
			3.891,2.96 3.891,3.931 3.891,4.9 3.891,5.871 3.891,6.84 4.851,6.84 5.82,6.84 		"/>
		<rect x="2.92" y="1.991" fill="#C7B570" width="0.971" height="0.97"/>
		<rect x="1.95" y="30.111" fill="#C7B570" width="0.97" height="0.97"/>
		<polygon fill="#C7B570" points="0.98,20.42 0.98,21.38 0.98,22.35 1.95,22.35 1.95,21.38 1.95,20.42 1.95,19.451 1.95,18.47 
			0.98,18.47 0.98,19.451 		"/>
		<polygon fill="#C7B570" points="0.98,16.531 0.98,15.561 0.98,14.6 0.01,14.6 0.01,15.561 0.01,16.531 0.01,17.5 0.01,18.47 
			0.98,18.47 0.98,17.5 		"/>
	</g>
	<g>
		<polygon fill="#9C8F57" points="7.771,11.69 7.771,12.661 7.771,13.63 7.771,14.6 8.74,14.6 8.74,13.63 8.74,12.661 8.74,11.69 		
			"/>
		<polygon fill="#9C8F57" points="7.771,9.741 7.771,8.781 6.8,8.781 6.8,7.811 5.82,7.811 5.82,6.84 4.851,6.84 3.891,6.84 
			3.891,7.811 3.891,8.781 3.891,9.741 3.891,10.71 2.92,10.71 2.92,9.741 2.92,8.781 2.92,7.811 1.95,7.811 1.95,8.781 0.98,8.781 
			0.98,9.741 0.98,10.71 0.98,11.69 1.95,11.69 1.95,12.661 1.95,13.63 1.95,14.6 1.95,15.561 2.92,15.561 2.92,16.531 
			3.891,16.531 4.851,16.531 5.82,16.531 5.82,15.561 6.8,15.561 6.8,14.6 6.8,13.63 6.8,12.661 6.8,11.69 7.771,11.69 7.771,10.71 
					"/>
		<polygon fill="#9C8F57" points="0.01,12.661 0.01,13.63 0.01,14.6 0.98,14.6 0.98,13.63 0.98,12.661 0.98,11.69 0.01,11.69 		"/>
	</g>
</g>
<g>
	<polygon fill="#B3B3B3" points="7.785,9.73 7.785,8.75 7.785,7.78 6.815,7.78 5.845,7.78 5.845,8.75 4.865,8.75 4.865,9.73 
		4.865,10.7 4.865,11.67 4.865,12.65 4.865,13.61 4.865,14.59 4.865,15.56 5.845,15.56 6.815,15.56 6.815,14.59 6.815,13.61 
		6.815,12.65 6.815,11.67 7.785,11.67 7.785,10.7 	"/>
	<polygon fill="#B3B3B3" points="7.785,11.67 7.785,12.65 7.785,13.61 7.785,14.59 7.785,15.56 8.755,15.56 8.755,14.59 
		8.755,13.61 8.755,12.65 8.755,11.67 	"/>
	<polygon fill="#B3B3B3" points="1.945,28.21 1.945,29.19 2.925,29.19 2.925,28.21 2.925,27.24 1.945,27.24 	"/>
	<polygon fill="#B3B3B3" points="6.815,16.53 5.845,16.53 4.865,16.53 3.895,16.53 2.925,16.53 1.945,16.53 1.945,17.51 
		0.985,17.51 0.005,17.51 0.005,18.48 0.985,18.48 0.985,19.46 0.985,20.42 1.945,20.42 1.945,21.4 1.945,22.38 1.945,23.34 
		1.945,24.32 1.945,25.29 2.925,25.29 2.925,24.32 2.925,23.34 2.925,22.38 3.895,22.38 3.895,21.4 4.865,21.4 4.865,22.38 
		5.845,22.38 5.845,23.34 5.845,24.32 5.845,25.29 6.815,25.29 6.815,24.32 6.815,23.34 6.815,22.38 6.815,21.4 6.815,20.42 
		7.785,20.42 7.785,19.46 7.785,18.48 7.785,17.51 6.815,17.51 	"/>
	<polygon fill="#B3B3B3" points="5.845,28.21 5.845,29.19 6.815,29.19 6.815,28.21 6.815,27.24 5.845,27.24 	"/>
	<polygon fill="#B3B3B3" points="1.945,12.65 1.945,13.61 1.945,14.59 1.945,15.56 2.925,15.56 3.895,15.56 3.895,14.59 
		3.895,13.61 3.895,12.65 3.895,11.67 3.895,10.7 3.895,9.73 3.895,8.75 2.925,8.75 2.925,7.78 1.945,7.78 1.945,8.75 0.985,8.75 
		0.985,9.73 0.985,10.7 0.985,11.67 1.945,11.67 	"/>
	<polygon fill="#B3B3B3" points="0.985,14.59 0.985,13.61 0.985,12.65 0.985,11.67 0.005,11.67 0.005,12.65 0.005,13.61 
		0.005,14.59 0.005,15.56 0.985,15.56 	"/>
</g>
<g>
	<polygon fill="#8C8C8C" points="1.945,21.4 1.945,20.42 0.985,20.42 0.985,21.4 0.985,22.38 1.945,22.38 	"/>
	<rect x="7.785" y="15.56" fill="#8C8C8C" width="0.97" height="0.97"/>
	<rect x="6.815" y="16.53" fill="#8C8C8C" width="0.97" height="0.98"/>
	<polygon fill="#8C8C8C" points="6.815,21.4 6.815,22.38 7.785,22.38 7.785,21.4 7.785,20.42 6.815,20.42 	"/>
	<polygon fill="#8C8C8C" points="1.945,26.26 1.945,27.24 2.925,27.24 2.925,26.26 2.925,25.29 1.945,25.29 	"/>
	<polygon fill="#8C8C8C" points="1.945,30.15 1.945,31.13 2.925,31.13 2.925,30.15 2.925,29.19 1.945,29.19 	"/>
	<polygon fill="#8C8C8C" points="5.845,30.15 5.845,31.13 6.815,31.13 6.815,30.15 6.815,29.19 5.845,29.19 	"/>
	<polygon fill="#8C8C8C" points="5.845,26.26 5.845,27.24 6.815,27.24 6.815,26.26 6.815,25.29 5.845,25.29 	"/>
	<polygon fill="#8C8C8C" points="5.845,15.56 4.865,15.56 4.865,14.59 4.865,13.61 4.865,12.65 4.865,11.67 4.865,10.7 4.865,9.73 
		4.865,8.75 5.845,8.75 5.845,7.78 6.815,7.78 6.815,6.8 6.815,5.83 6.815,4.86 5.845,4.86 4.865,4.86 3.895,4.86 3.895,3.88 
		3.895,2.92 4.865,2.92 4.865,1.94 5.845,1.94 6.815,1.94 7.785,1.94 7.785,0.97 7.785,0 6.815,0 5.845,0 4.865,0 3.895,0 
		3.895,0.97 2.925,0.97 2.925,1.94 2.925,2.92 1.945,2.92 1.945,3.88 1.945,4.86 1.945,5.83 1.945,6.8 1.945,7.78 2.925,7.78 
		2.925,8.75 3.895,8.75 3.895,9.73 3.895,10.7 3.895,11.67 3.895,12.65 3.895,13.61 3.895,14.59 3.895,15.56 2.925,15.56 
		2.925,16.53 3.895,16.53 4.865,16.53 5.845,16.53 	"/>
	<polygon fill="#8C8C8C" points="0.985,16.53 0.985,15.56 0.005,15.56 0.005,16.53 0.005,17.51 0.985,17.51 	"/>
</g>
<g>
	<polygon fill="#4D4D4D" points="9.711,21.39 8.74,21.39 8.74,20.42 7.771,20.42 7.771,21.39 7.771,22.37 7.771,23.331 8.74,23.331 
		8.74,22.37 9.711,22.37 10.691,22.37 10.691,21.39 	"/>
	<rect x="5.82" y="21.39" fill="#4D4D4D" width="0.971" height="0.979"/>
</g>
<g>
	<polygon fill="#4D4D4D" points="2.92,21.39 2.92,20.42 1.96,20.42 1.96,21.39 1.96,22.37 1.96,23.331 2.92,23.331 2.92,22.37 
		3.9,22.37 4.87,22.37 4.87,21.39 3.9,21.39 	"/>
	<rect y="21.39" fill="#4D4D4D" width="0.98" height="0.979"/>
</g>
</svg>
