<?xml version="1.0" encoding="utf-8"?>
<!-- Generator: Adobe Illustrator 16.0.0, SVG Export Plug-In . SVG Version: 6.00 Build 0)  -->
<!DOCTYPE svg PUBLIC "-//W3C//DTD SVG 1.1//EN" "http://www.w3.org/Graphics/SVG/1.1/DTD/svg11.dtd">
<svg version="1.1" id="Layer_2" xmlns="http://www.w3.org/2000/svg" xmlns:xlink="http://www.w3.org/1999/xlink" x="0px" y="0px"
	 width="11.665px" height="31.13px" viewBox="0 0 11.665 31.13" enable-background="new 0 0 11.665 31.13" xml:space="preserve">
<g>
	<polygon fill="#C7B570" points="7.774,10.76 7.774,11.74 7.774,12.71 7.774,13.68 7.774,14.649 7.774,15.61 7.774,16.58 
		7.774,17.55 7.774,18.52 7.774,19.5 7.774,20.47 8.745,20.47 8.745,19.5 8.745,18.52 8.745,17.55 8.745,16.58 8.745,15.61 
		8.745,14.649 8.745,13.68 8.745,12.71 8.745,11.74 8.745,10.76 	"/>
	<rect x="6.795" y="30.16" fill="#C7B570" width="0.979" height="0.97"/>
	<polygon fill="#C7B570" points="5.825,1.07 5.825,2.04 4.865,2.04 4.865,3.01 4.87,3.01 4.87,3.98 4.865,3.98 4.865,3.01 
		3.895,3.01 3.895,3.98 3.895,4.95 3.899,4.95 3.899,5.92 4.87,5.92 4.87,4.95 5.825,4.95 6.795,4.95 6.795,3.98 6.795,3.01 
		6.795,2.04 6.795,1.07 	"/>
	<rect x="1.955" y="30.16" fill="#C7B570" width="0.97" height="0.97"/>
	<polygon fill="#737144" points="6.795,14.649 5.825,14.649 4.865,14.649 3.895,14.649 2.925,14.649 1.955,14.649 0.984,14.649 
		0.984,15.61 0.984,16.58 1.955,16.58 1.955,17.55 1.955,18.52 1.955,19.5 1.955,20.47 1.955,21.43 1.955,22.399 1.955,23.37 
		1.955,24.34 1.955,25.31 1.955,26.28 1.955,27.25 1.955,28.22 1.955,29.189 1.955,30.16 2.925,30.16 2.925,29.189 2.925,28.22 
		2.925,27.25 2.925,26.28 2.925,25.31 2.925,24.34 2.925,23.37 2.925,22.399 2.925,21.43 2.925,20.47 2.925,19.5 3.895,19.5 
		3.895,18.52 4.865,18.52 5.825,18.52 5.825,19.5 6.795,19.5 6.795,20.47 6.795,21.43 6.795,22.399 6.795,23.37 6.795,24.34 
		6.795,25.31 6.795,26.28 6.795,27.25 6.795,28.22 6.795,29.189 6.795,30.16 7.774,30.16 7.774,29.189 7.774,28.22 7.774,27.25 
		7.774,26.28 7.774,25.31 7.774,24.34 7.774,23.37 7.774,22.399 7.774,21.43 7.774,20.47 7.774,19.5 7.774,18.52 7.774,17.55 
		7.774,16.58 7.774,15.61 7.774,14.649 	"/>
	<g>
		<polygon fill="#6D5217" points="6.795,0.1 5.825,0.1 4.865,0.1 3.895,0.1 3.895,1.07 3.895,2.04 2.925,2.04 2.925,3.01 
			2.925,3.98 1.955,3.98 1.955,4.95 1.955,5.92 2.925,5.92 2.925,6.89 2.925,7.86 3.895,7.86 3.895,6.89 3.895,5.92 3.895,4.95 
			3.895,3.98 3.895,3.01 4.865,3.01 4.865,2.04 5.825,2.04 5.825,1.07 6.795,1.07 6.795,2.04 7.774,2.04 7.774,1.07 7.774,0.1 		"/>
		<polygon fill="#6D5217" points="4.865,4.95 4.865,5.92 4.865,6.89 4.865,7.86 5.825,7.86 5.825,6.89 6.795,6.89 6.795,5.92 
			6.795,4.95 5.825,4.95 		"/>
		<rect x="0.984" y="5.92" fill="#6D5217" width="0.971" height="0.97"/>
	</g>
	<g>
		<polygon fill="#C7B570" points="0.984,16.58 0.984,17.55 0.984,18.52 0.984,19.5 0.984,20.47 1.955,20.47 1.955,19.5 1.955,18.52 
			1.955,17.55 1.955,16.58 		"/>
		<polygon fill="#C7B570" points="0.984,14.649 0.984,13.68 0.984,12.71 0.984,11.74 0.984,10.76 0.015,10.76 0.015,11.74 
			0.015,12.71 0.015,13.68 0.015,14.649 0.015,15.61 0.015,16.58 0.984,16.58 0.984,15.61 		"/>
	</g>
	<polygon fill="#9C8F57" points="7.774,7.86 7.774,6.89 7.774,5.92 6.795,5.92 6.795,6.89 5.825,6.89 5.825,7.86 4.865,7.86 
		4.865,6.89 4.865,5.92 3.895,5.92 3.895,6.89 3.895,7.86 2.925,7.86 2.925,6.89 2.925,5.92 1.955,5.92 1.955,6.89 0.984,6.89 
		0.984,7.86 0.984,8.83 0.015,8.83 0.015,9.79 0.015,10.76 0.984,10.76 1.955,10.76 1.955,11.74 2.925,11.74 2.925,12.71 
		1.955,12.71 1.955,13.68 0.984,13.68 0.984,14.649 1.955,14.649 2.925,14.649 3.895,14.649 4.865,14.649 5.825,14.649 
		6.795,14.649 7.774,14.649 7.774,13.68 7.774,12.71 6.795,12.71 6.795,11.74 7.774,11.74 7.774,10.76 8.745,10.76 8.745,9.79 
		8.745,8.83 8.745,7.86 	"/>
</g>
<g>
	<polygon fill="#8C8C8C" points="1.95,19.46 1.95,18.479 0.98,18.479 0.98,19.46 0.98,20.42 1.95,20.42 	"/>
	<polygon fill="#8C8C8C" points="1.95,30.16 1.95,31.13 2.92,31.13 2.92,30.16 2.92,29.189 1.95,29.189 	"/>
	<polygon fill="#8C8C8C" points="6.81,30.16 6.81,31.13 7.78,31.13 7.78,30.16 7.78,29.189 6.81,29.189 	"/>
	<polygon fill="#8C8C8C" points="7.78,18.479 7.78,19.46 7.78,20.42 8.76,20.42 8.76,19.46 8.76,18.479 	"/>
	<polygon fill="#8C8C8C" points="7.78,14.59 7.78,13.61 6.81,13.61 5.84,13.61 5.84,12.65 5.84,11.67 5.84,10.7 5.84,9.73 
		5.84,8.75 5.84,7.78 5.84,6.8 6.81,6.8 7.78,6.8 7.78,5.84 6.81,5.84 6.81,4.86 5.84,4.86 4.86,4.86 3.9,4.86 3.9,3.88 3.9,2.92 
		4.86,2.92 4.86,1.94 5.84,1.94 5.84,0.97 6.81,0.97 7.78,0.97 7.78,0 6.81,0 5.84,0 4.86,0 3.9,0 3.9,0.97 3.9,1.94 2.92,1.94 
		2.92,2.92 2.92,3.88 1.95,3.88 1.95,4.86 1.95,5.84 0.98,5.84 0.98,6.8 1.95,6.8 2.92,6.8 3.9,6.8 3.9,7.78 4.86,7.78 4.86,8.75 
		4.86,9.73 4.86,10.7 4.86,11.67 4.86,12.65 4.86,13.61 3.9,13.61 2.92,13.61 1.95,13.61 1.95,14.59 2.92,14.59 3.9,14.59 
		4.86,14.59 5.84,14.59 6.81,14.59 	"/>
</g>
<path fill="#B3B3B3" d="M7.78,7.78V6.8H6.81H5.84v0.98v0.97v0.98v0.97v0.97v0.98v0.96h0.97H7.78v0.98H6.81H5.84H4.86H3.9H2.92H1.95
	v-0.98H0.98v-0.96v-0.98V10.7h0.97v0.97h0.97v0.98H1.95v0.96h0.97H3.9h0.96v-0.96v-0.98V10.7V9.73V8.75V7.78H3.9V6.8H2.92H1.95H0.98
	v0.98v0.97H0v0.98v0.97v0.97v0.98v0.96v0.98v0.98v0.96h0.98v0.979v0.97h0.97v0.98v0.96v0.979v0.98v0.96v0.98v0.97v0.97v0.98v0.97
	v0.979h0.97V28.21v-0.97v-0.98v-0.97v-0.97v-0.98v-0.96v-0.98V20.42v-0.96H3.9v-0.98h0.96h0.98v0.98h0.97v0.96v0.979v0.98v0.96v0.98
	v0.97v0.97v0.98v0.97v0.979H7.78V28.21v-0.97v-0.98v-0.97v-0.97v-0.98v-0.96v-0.98V20.42v-0.96v-0.98H8.76v-0.97V16.53v-0.96v-0.98
	v-0.98v-0.96v-0.98V10.7V9.73V8.75V7.78H7.78z M7.78,12.65H6.81v-0.98H7.78V12.65z"/>
<g>
	<polygon fill="#4D4D4D" points="2.92,19.448 2.92,18.479 1.96,18.479 1.96,19.448 1.96,20.429 1.96,21.39 2.92,21.39 2.92,20.429 
		3.9,20.429 4.87,20.429 4.87,19.448 3.9,19.448 	"/>
	<rect y="19.448" fill="#4D4D4D" width="0.98" height="0.98"/>
</g>
<g>
	<polygon fill="#4D4D4D" points="9.715,19.497 9.715,18.528 8.756,18.528 8.756,19.497 8.756,20.478 8.756,21.438 9.715,21.438 
		9.715,20.478 10.695,20.478 11.665,20.478 11.665,19.497 10.695,19.497 	"/>
	<rect x="6.795" y="19.497" fill="#4D4D4D" width="0.98" height="0.98"/>
</g>
</svg>
