<?xml version="1.0" encoding="utf-8"?>
<!-- Generator: Adobe Illustrator 16.0.0, SVG Export Plug-In . SVG Version: 6.00 Build 0)  -->
<!DOCTYPE svg PUBLIC "-//W3C//DTD SVG 1.1//EN" "http://www.w3.org/Graphics/SVG/1.1/DTD/svg11.dtd">
<svg version="1.1" id="Layer_2" xmlns="http://www.w3.org/2000/svg" xmlns:xlink="http://www.w3.org/1999/xlink" x="0px" y="0px"
	 width="10.695px" height="31.129px" viewBox="0 0 10.695 31.129" enable-background="new 0 0 10.695 31.129" xml:space="preserve">
<g>
	<g>
		<polygon fill="#6D5217" points="6.805,0 5.825,0 4.855,0 3.896,0 3.896,0.97 2.925,0.97 2.925,1.94 3.896,1.94 3.896,2.91 
			4.855,2.91 4.855,1.94 5.825,1.94 6.805,1.94 6.805,0.97 7.775,0.97 7.775,0 		"/>
		<polygon fill="#6D5217" points="2.925,3.88 2.925,4.85 2.925,5.82 3.896,5.82 3.896,4.85 3.896,3.88 3.896,2.91 2.925,2.91 		"/>
	</g>
	<g>
		<polygon fill="#9C8F57" points="0.015,12.61 0.015,13.58 0.985,13.58 0.985,12.61 0.985,11.64 0.015,11.64 		"/>
		<rect x="7.775" y="11.64" fill="#9C8F57" width="0.97" height="0.97"/>
		<polygon fill="#9C8F57" points="7.775,9.69 7.775,8.73 6.805,8.73 6.805,7.76 6.805,6.79 5.825,6.79 4.855,6.79 3.896,6.79 
			2.925,6.79 1.955,6.79 1.955,7.76 0.985,7.76 0.985,8.73 0.985,9.69 0.985,10.66 0.985,11.64 1.955,11.64 1.955,12.61 
			1.955,13.58 1.955,14.549 1.955,15.51 1.955,16.48 2.925,16.48 3.896,16.48 4.855,16.48 5.825,16.48 6.805,16.48 6.805,15.51 
			6.805,14.549 6.805,13.58 6.805,12.61 6.805,11.64 7.775,11.64 7.775,10.66 		"/>
	</g>
	<polygon fill="#737144" points="5.825,16.48 4.855,16.48 3.896,16.48 2.925,16.48 1.955,16.48 1.955,17.45 1.955,18.419 
		1.955,19.4 1.955,20.37 1.955,21.33 1.955,22.299 1.955,23.27 1.955,24.24 1.955,25.209 1.955,26.18 1.955,27.15 1.955,28.12 
		1.955,29.089 1.955,30.06 2.925,30.06 2.925,29.089 2.925,28.12 2.925,27.15 2.925,26.18 2.925,25.209 2.925,24.24 2.925,23.27 
		2.925,22.299 2.925,21.33 3.896,21.33 4.855,21.33 5.825,21.33 5.825,22.299 5.825,23.27 5.825,24.24 5.825,25.209 5.825,26.18 
		5.825,27.15 5.825,28.12 5.825,29.089 5.825,30.06 6.805,30.06 6.805,29.089 6.805,28.12 6.805,27.15 6.805,26.18 6.805,25.209 
		6.805,24.24 6.805,23.27 6.805,22.299 6.805,21.33 6.805,20.37 6.805,19.4 6.805,18.419 6.805,17.45 6.805,16.48 	"/>
</g>
<g>
	<rect x="1.955" y="30.06" fill="#C7B570" width="0.97" height="0.97"/>
	<rect x="5.825" y="30.06" fill="#C7B570" width="0.979" height="0.97"/>
	<rect x="2.925" y="1.94" fill="#C7B570" width="0.971" height="0.97"/>
	<polygon fill="#C7B570" points="0.985,20.37 0.985,21.33 0.985,22.299 0.985,23.27 1.955,23.27 1.955,22.299 1.955,21.33 
		1.955,20.37 1.955,19.4 1.955,18.419 0.985,18.419 0.985,19.4 	"/>
	<polygon fill="#C7B570" points="0.985,16.48 0.985,15.51 0.985,14.549 0.985,13.58 0.015,13.58 0.015,14.549 0.015,15.51 
		0.015,16.48 0.015,17.45 0.015,18.419 0.985,18.419 0.985,17.45 	"/>
	<polygon fill="#C7B570" points="6.805,17.45 6.805,18.419 6.805,19.4 6.805,20.37 6.805,21.33 6.805,22.299 6.805,23.27 
		7.775,23.27 7.775,22.299 7.775,21.33 7.775,20.37 7.775,19.4 7.775,18.419 7.775,17.45 7.775,16.48 6.805,16.48 	"/>
	<polygon fill="#C7B570" points="7.775,12.61 7.775,13.58 7.775,14.549 7.775,15.51 7.775,16.48 8.745,16.48 8.745,15.51 
		8.745,14.549 8.745,13.58 8.745,12.61 	"/>
	<polygon fill="#C7B570" points="5.825,5.82 6.805,5.82 6.805,4.85 6.805,3.88 6.805,2.91 6.805,1.94 5.825,1.94 4.86,1.94 
		4.855,1.94 3.9,1.94 3.9,2.91 3.896,2.91 3.896,3.88 3.896,4.85 3.896,5.82 3.896,6.79 4.855,6.79 5.825,6.79 	"/>
</g>
<g>
	<rect x="7.78" y="15.56" fill="#8C8C8C" width="0.979" height="0.97"/>
	<polygon fill="#8C8C8C" points="6.82,22.37 6.82,23.339 7.78,23.339 7.78,22.37 7.78,21.4 6.82,21.4 	"/>
	<polygon fill="#8C8C8C" points="5.84,30.15 5.84,31.129 6.82,31.129 6.82,30.15 6.82,29.19 5.84,29.19 	"/>
	<polygon fill="#8C8C8C" points="5.84,25.29 5.84,26.26 6.82,26.26 6.82,25.29 6.82,24.32 5.84,24.32 	"/>
	<polygon fill="#8C8C8C" points="5.84,16.53 4.86,16.53 4.86,15.56 4.86,14.589 4.86,13.61 4.86,12.65 4.86,11.67 4.86,10.7 
		4.86,9.73 4.86,8.75 5.84,8.75 5.84,7.78 6.82,7.78 6.82,6.8 5.84,6.8 5.84,5.83 6.82,5.83 6.82,4.86 5.84,4.86 4.86,4.86 
		4.86,3.88 3.9,3.88 3.9,2.92 3.9,1.94 4.86,1.94 5.84,1.94 6.82,1.94 6.82,0.96 6.82,0 5.84,0 4.86,0 3.9,0 3.9,0.96 2.92,0.96 
		2.92,1.94 2.92,2.92 2.92,3.88 2.92,4.86 2.92,5.83 3.9,5.83 3.9,6.8 2.92,6.8 1.95,6.8 1.95,7.78 2.92,7.78 2.92,8.75 3.9,8.75 
		3.9,9.73 3.9,10.7 3.9,11.67 3.9,12.65 3.9,13.61 3.9,14.589 3.9,15.56 3.9,16.53 2.92,16.53 1.95,16.53 1.95,17.51 2.92,17.51 
		3.9,17.51 4.86,17.51 5.84,17.51 6.82,17.51 7.78,17.51 7.78,16.53 6.82,16.53 	"/>
	<polygon fill="#8C8C8C" points="1.95,30.15 1.95,31.129 2.92,31.129 2.92,30.15 2.92,29.19 1.95,29.19 	"/>
	<polygon fill="#8C8C8C" points="1.95,25.29 1.95,26.26 2.92,26.26 2.92,25.29 2.92,24.32 1.95,24.32 	"/>
	<polygon fill="#8C8C8C" points="1.95,22.37 1.95,21.4 0.98,21.4 0.98,22.37 0.98,23.339 1.95,23.339 	"/>
	<polygon fill="#8C8C8C" points="0.98,16.53 0.98,15.56 0,15.56 0,16.53 0,17.51 0.98,17.51 	"/>
</g>
<g>
	<polygon fill="#B3B3B3" points="7.78,11.67 7.78,12.65 7.78,13.61 7.78,14.589 7.78,15.56 8.76,15.56 8.76,14.589 8.76,13.61 
		8.76,12.65 8.76,11.67 	"/>
	<polygon fill="#B3B3B3" points="7.78,9.73 7.78,8.75 6.82,8.75 6.82,7.78 5.84,7.78 5.84,8.75 4.86,8.75 4.86,9.73 4.86,10.7 
		4.86,11.67 4.86,12.65 4.86,13.61 4.86,14.589 4.86,15.56 4.86,16.53 5.84,16.53 6.82,16.53 6.82,15.56 6.82,14.589 6.82,13.61 
		6.82,12.65 6.82,11.67 7.78,11.67 7.78,10.7 	"/>
	<polygon fill="#B3B3B3" points="5.84,27.24 5.84,28.209 5.84,29.19 6.82,29.19 6.82,28.209 6.82,27.24 6.82,26.26 5.84,26.26 	"/>
	<polygon fill="#B3B3B3" points="5.84,17.51 4.86,17.51 3.9,17.51 2.92,17.51 1.95,17.51 1.95,18.48 0.98,18.48 0.98,19.459 
		0.98,20.419 0.98,21.4 1.95,21.4 1.95,22.37 1.95,23.339 1.95,24.32 2.92,24.32 2.92,23.339 2.92,22.37 2.92,21.4 3.9,21.4 
		4.86,21.4 5.84,21.4 5.84,22.37 5.84,23.339 5.84,24.32 6.82,24.32 6.82,23.339 6.82,22.37 6.82,21.4 7.78,21.4 7.78,20.419 
		7.78,19.459 7.78,18.48 7.78,17.51 6.82,17.51 	"/>
	<polygon fill="#B3B3B3" points="1.95,27.24 1.95,28.209 1.95,29.19 2.92,29.19 2.92,28.209 2.92,27.24 2.92,26.26 1.95,26.26 	"/>
	<polygon fill="#B3B3B3" points="1.95,12.65 1.95,13.61 1.95,14.589 1.95,15.56 1.95,16.53 2.92,16.53 3.9,16.53 3.9,15.56 
		3.9,14.589 3.9,13.61 3.9,12.65 3.9,11.67 3.9,10.7 3.9,9.73 3.9,8.75 2.92,8.75 2.92,7.78 1.95,7.78 0.98,7.78 0.98,8.75 
		0.98,9.73 0.98,10.7 0.98,11.67 1.95,11.67 	"/>
	<rect y="17.51" fill="#B3B3B3" width="0.98" height="0.97"/>
	<polygon fill="#B3B3B3" points="0.98,14.589 0.98,13.61 0.98,12.65 0.98,11.67 0,11.67 0,12.65 0,13.61 0,14.589 0,15.56 
		0.98,15.56 	"/>
</g>
<g>
	<polygon fill="#4D4D4D" points="2.92,22.37 2.92,21.399 1.96,21.399 1.96,22.37 1.96,23.349 1.96,24.31 2.92,24.31 2.92,23.349 
		3.9,23.349 4.87,23.349 4.87,22.37 3.9,22.37 	"/>
	<rect y="22.37" fill="#4D4D4D" width="0.98" height="0.979"/>
</g>
<g>
	<polygon fill="#4D4D4D" points="8.745,22.368 8.745,21.399 7.786,21.399 7.786,22.368 7.786,23.348 7.786,24.309 8.745,24.309 
		8.745,23.348 9.726,23.348 10.695,23.348 10.695,22.368 9.726,22.368 	"/>
	<rect x="5.825" y="22.368" fill="#4D4D4D" width="0.98" height="0.98"/>
</g>
</svg>
