<?xml version="1.0" encoding="utf-8"?>
<!-- Generator: Adobe Illustrator 16.0.0, SVG Export Plug-In . SVG Version: 6.00 Build 0)  -->
<!DOCTYPE svg PUBLIC "-//W3C//DTD SVG 1.1//EN" "http://www.w3.org/Graphics/SVG/1.1/DTD/svg11.dtd">
<svg version="1.1" id="Layer_3" xmlns="http://www.w3.org/2000/svg" xmlns:xlink="http://www.w3.org/1999/xlink" x="0px" y="0px"
	 width="16.54px" height="32.11px" viewBox="0 0 16.54 32.11" enable-background="new 0 0 16.54 32.11" xml:space="preserve">
<g>
	<polygon fill="#CCCCCC" points="6.81,1.95 5.84,1.95 5.84,2.92 4.87,2.92 4.87,3.9 4.87,4.86 4.87,5.84 4.87,6.82 5.84,6.82 
		6.81,6.82 7.78,6.82 7.78,5.84 7.78,4.86 7.78,3.9 7.78,2.92 7.78,1.95 	"/>
	<g>
		<polygon fill="#4D4D4D" points="15.57,21.4 14.6,21.4 13.62,21.4 12.649,21.4 11.68,21.4 10.7,21.4 9.729,21.4 8.76,21.4 
			7.78,21.4 6.81,21.4 5.84,21.4 4.87,21.4 3.89,21.4 3.89,20.44 3.89,19.459 2.92,19.459 2.92,20.44 2.92,21.4 2.92,22.379 
			2.92,23.36 2.92,24.32 3.89,24.32 3.89,23.36 3.89,22.379 4.87,22.379 5.84,22.379 6.81,22.379 7.78,22.379 8.76,22.379 
			9.729,22.379 10.7,22.379 11.68,22.379 12.649,22.379 13.62,22.379 14.6,22.379 15.57,22.379 16.54,22.379 16.54,21.4 		"/>
		<polygon fill="#4D4D4D" points="0,21.4 0,22.379 0.97,22.379 1.95,22.379 1.95,21.4 0.97,21.4 		"/>
	</g>
	<g>
		<rect x="1.95" y="21.4" fill="#BFBFBF" width="0.97" height="0.979"/>
		<polygon fill="#B3B3B3" points="7.78,0 6.81,0 5.84,0 5.84,0.98 5.84,1.95 6.81,1.95 7.78,1.95 7.78,2.92 7.78,3.9 8.76,3.9 
			8.76,2.92 8.76,1.95 8.76,0.98 8.76,0 		"/>
	</g>
	<g>
		<polygon fill="#BFBFBF" points="5.84,9.73 6.81,9.73 7.78,9.73 7.78,8.76 7.78,7.78 6.81,7.78 5.84,7.78 4.87,7.78 3.89,7.78 
			3.89,8.76 3.89,9.73 4.87,9.73 		"/>
		<polygon fill="#BFBFBF" points="4.87,12.65 4.87,13.63 5.84,13.63 6.81,13.63 6.81,12.65 6.81,11.68 7.78,11.68 7.78,10.71 
			6.81,10.71 5.84,10.71 4.87,10.71 3.89,10.71 3.89,11.68 4.87,11.68 		"/>
		<polygon fill="#BFBFBF" points="8.76,14.59 8.76,13.63 8.76,12.65 8.76,11.68 7.78,11.68 7.78,12.65 7.78,13.63 6.81,13.63 
			6.81,14.59 6.81,15.57 5.84,15.57 4.87,15.57 4.87,14.59 4.87,13.63 3.89,13.63 3.89,12.65 3.89,11.68 2.92,11.68 2.92,12.65 
			2.92,13.63 2.92,14.59 2.92,15.57 2.92,16.55 3.89,16.55 4.87,16.55 5.84,16.55 6.81,16.55 7.78,16.55 8.76,16.55 8.76,17.51 
			7.78,17.51 6.81,17.51 5.84,17.51 4.87,17.51 3.89,17.51 2.92,17.51 2.92,18.49 3.89,18.49 3.89,19.459 4.87,19.459 5.84,19.459 
			6.81,19.459 7.78,19.459 7.78,18.49 8.76,18.49 8.76,19.459 8.76,20.44 7.78,20.44 7.78,21.4 8.76,21.4 9.729,21.4 9.729,20.44 
			9.729,19.459 9.729,18.49 9.729,17.51 9.729,16.55 9.729,15.57 8.76,15.57 		"/>
		<polygon fill="#BFBFBF" points="7.78,23.36 7.78,24.32 7.78,25.3 7.78,26.27 7.78,27.24 7.78,28.22 7.78,29.19 7.78,30.169 
			7.78,31.14 8.76,31.14 8.76,30.169 8.76,29.19 8.76,28.22 8.76,27.24 8.76,26.27 8.76,25.3 8.76,24.32 8.76,23.36 8.76,22.379 
			7.78,22.379 		"/>
		<polygon fill="#BFBFBF" points="2.92,25.3 2.92,26.27 2.92,27.24 2.92,28.22 2.92,29.19 2.92,30.169 2.92,31.14 3.89,31.14 
			3.89,30.169 3.89,29.19 3.89,28.22 3.89,27.24 3.89,26.27 3.89,25.3 3.89,24.32 2.92,24.32 		"/>
		<polygon fill="#BFBFBF" points="1.95,19.459 1.95,20.44 1.95,21.4 2.92,21.4 2.92,20.44 2.92,19.459 2.92,18.49 1.95,18.49 		"/>
		<polygon fill="#BFBFBF" points="1.95,16.55 1.95,15.57 1.95,14.59 1.95,13.63 1.95,12.65 1.95,11.68 0.97,11.68 0.97,12.65 
			0.97,13.63 0.97,14.59 0.97,15.57 0.97,16.55 0.97,17.51 0.97,18.49 1.95,18.49 1.95,17.51 		"/>
		<polygon fill="#BFBFBF" points="9.729,11.68 9.729,12.65 9.729,13.63 9.729,14.59 9.729,15.57 10.7,15.57 10.7,14.59 10.7,13.63 
			10.7,12.65 10.7,11.68 		"/>
		<polygon fill="#BFBFBF" points="4.87,3.9 4.87,2.92 5.84,2.92 5.84,1.95 5.84,0.98 5.84,0 4.87,0 4.87,0.98 3.89,0.98 3.89,1.95 
			3.89,2.92 3.89,3.9 3.89,4.86 4.87,4.86 		"/>
	</g>
	<g>
		<polygon fill="#8C8C8C" points="9.729,8.76 9.729,7.78 8.76,7.78 8.76,6.82 7.78,6.82 7.78,7.78 7.78,8.76 7.78,9.73 6.81,9.73 
			5.84,9.73 4.87,9.73 3.89,9.73 3.89,8.76 3.89,7.78 3.89,6.82 2.92,6.82 2.92,7.78 1.95,7.78 1.95,8.76 0.97,8.76 0.97,9.73 
			1.95,9.73 1.95,10.71 1.95,11.68 2.92,11.68 3.89,11.68 3.89,10.71 4.87,10.71 5.84,10.71 6.81,10.71 7.78,10.71 7.78,11.68 
			8.76,11.68 9.729,11.68 9.729,10.71 9.729,9.73 10.7,9.73 10.7,8.76 		"/>
		<rect x="2.92" y="31.14" fill="#8C8C8C" width="0.97" height="0.97"/>
		<rect x="7.78" y="31.14" fill="#8C8C8C" width="0.979" height="0.97"/>
		<polygon fill="#8C8C8C" points="7.78,19.459 7.78,20.44 8.76,20.44 8.76,19.459 8.76,18.49 7.78,18.49 		"/>
		<rect x="2.92" y="18.49" fill="#8C8C8C" width="0.97" height="0.97"/>
		<polygon fill="#8C8C8C" points="7.78,16.55 6.81,16.55 5.84,16.55 4.87,16.55 3.89,16.55 3.89,17.51 4.87,17.51 5.84,17.51 
			6.81,17.51 7.78,17.51 		"/>
		<polygon fill="#8C8C8C" points="6.81,7.78 6.81,6.82 5.84,6.82 4.87,6.82 4.87,7.78 5.84,7.78 		"/>
		<polygon fill="#8C8C8C" points="6.81,12.65 6.81,13.63 7.78,13.63 7.78,12.65 7.78,11.68 6.81,11.68 		"/>
		<polygon fill="#8C8C8C" points="4.87,13.63 4.87,14.59 4.87,15.57 5.84,15.57 6.81,15.57 6.81,14.59 6.81,13.63 5.84,13.63 		"/>
		<polygon fill="#8C8C8C" points="4.87,11.68 3.89,11.68 3.89,12.65 3.89,13.63 4.87,13.63 4.87,12.65 		"/>
	</g>
</g>
</svg>
