<?xml version="1.0" encoding="utf-8"?>
<!-- Generator: Adobe Illustrator 16.0.0, SVG Export Plug-In . SVG Version: 6.00 Build 0)  -->
<!DOCTYPE svg PUBLIC "-//W3C//DTD SVG 1.1//EN" "http://www.w3.org/Graphics/SVG/1.1/DTD/svg11.dtd">
<svg version="1.1" id="Layer_3" xmlns="http://www.w3.org/2000/svg" xmlns:xlink="http://www.w3.org/1999/xlink" x="0px" y="0px"
	 width="18.49px" height="35.02px" viewBox="0 0 18.49 35.02" enable-background="new 0 0 18.49 35.02" xml:space="preserve">
<g>
	<g>
		<polygon fill="#6D5217" points="5.84,5.83 4.86,5.83 4.86,6.81 4.86,7.77 5.84,7.77 5.84,6.81 6.8,6.81 6.8,5.83 6.8,4.86 
			5.84,4.86 		"/>
		<polygon fill="#6D5217" points="9.729,5.83 9.729,6.81 9.729,7.77 9.729,8.75 10.7,8.75 10.7,7.77 10.7,6.81 10.7,5.83 		"/>
	</g>
	<g>
		<polygon fill="#C7B570" points="1.94,17.5 1.94,18.48 1.94,19.45 1.94,20.42 1.94,21.4 1.94,22.37 1.94,23.35 2.92,23.35 
			2.92,22.37 2.92,21.4 2.92,20.42 2.92,19.45 2.92,18.48 2.92,17.5 2.92,16.54 1.94,16.54 		"/>
		<polygon fill="#C7B570" points="11.67,16.54 11.67,17.5 11.67,18.48 11.67,19.45 11.67,20.42 11.67,21.4 11.67,22.37 12.65,22.37 
			12.65,21.4 12.65,20.42 12.65,19.45 12.65,18.48 12.65,17.5 12.65,16.54 		"/>
		<polygon fill="#C7B570" points="8.76,1.94 7.78,1.94 7.78,2.91 7.78,3.89 7.78,4.86 6.8,4.86 6.8,5.83 6.8,6.81 7.78,6.81 
			8.76,6.81 9.729,6.81 9.729,5.83 10.7,5.83 10.7,4.86 10.7,3.89 10.7,2.91 10.7,1.94 9.729,1.94 		"/>
	</g>
	<polygon fill="#9C8F57" points="7.78,6.81 6.8,6.81 6.8,7.77 6.8,8.75 6.8,9.73 7.78,9.73 8.76,9.73 8.76,8.75 8.76,7.77 
		8.76,6.81 	"/>
	<g>
		<polygon fill="#8C8C8C" points="13.62,8.75 13.62,7.77 12.65,7.77 12.65,6.81 11.67,6.81 11.67,5.83 10.7,5.83 10.7,6.81 
			10.7,7.77 10.7,8.75 10.7,9.73 10.7,10.69 9.729,10.69 8.76,10.69 7.78,10.69 6.8,10.69 5.84,10.69 4.86,10.69 4.86,9.73 
			4.86,8.75 4.86,7.77 4.86,6.81 4.86,5.83 3.89,5.83 3.89,6.81 2.92,6.81 2.92,7.77 1.94,7.77 1.94,8.75 0.97,8.75 0.97,9.73 
			1.94,9.73 2.92,9.73 3.89,9.73 3.89,10.69 3.89,11.67 4.86,11.67 4.86,12.64 4.86,13.62 5.84,13.62 5.84,12.64 5.84,11.67 
			6.8,11.67 7.78,11.67 8.76,11.67 9.729,11.67 9.729,12.64 9.729,13.62 10.7,13.62 10.7,12.64 10.7,11.67 11.67,11.67 11.67,10.69 
			11.67,9.73 12.65,9.73 13.62,9.73 14.59,9.73 14.59,8.75 		"/>
		<rect x="8.76" y="13.62" fill="#8C8C8C" width="0.97" height="0.96"/>
		<polygon fill="#8C8C8C" points="6.8,14.58 6.8,15.56 6.8,16.54 6.8,17.5 7.78,17.5 8.76,17.5 8.76,16.54 8.76,15.56 8.76,14.58 
			7.78,14.58 		"/>
		<rect x="5.84" y="13.62" fill="#8C8C8C" width="0.96" height="0.96"/>
	</g>
	<g>
		<polygon fill="#B3B3B3" points="10.7,3.89 11.67,3.89 11.67,2.91 11.67,1.94 11.67,0.96 10.7,0.96 9.729,0.96 8.76,0.96 
			7.78,0.96 7.78,1.94 8.76,1.94 9.729,1.94 10.7,1.94 10.7,2.91 		"/>
		<rect x="4.86" y="34.04" fill="#B3B3B3" width="0.98" height="0.98"/>
		<rect x="9.729" y="34.04" fill="#B3B3B3" width="0.971" height="0.98"/>
		<polygon fill="#B3B3B3" points="1.94,15.56 1.94,16.54 2.92,16.54 2.92,15.56 2.92,14.58 1.94,14.58 		"/>
		<polygon fill="#B3B3B3" points="11.67,14.58 11.67,15.56 11.67,16.54 12.65,16.54 12.65,15.56 12.65,14.58 		"/>
		<polygon fill="#B3B3B3" points="8.76,16.54 8.76,17.5 9.729,17.5 10.7,17.5 10.7,16.54 9.729,16.54 		"/>
		<polygon fill="#B3B3B3" points="4.86,16.54 4.86,17.5 5.84,17.5 6.8,17.5 6.8,16.54 5.84,16.54 		"/>
		<polygon fill="#B3B3B3" points="9.729,27.23 9.729,28.21 10.7,28.21 10.7,27.23 10.7,26.27 9.729,26.27 		"/>
		<polygon fill="#B3B3B3" points="4.86,27.23 4.86,28.21 5.84,28.21 5.84,27.23 5.84,26.27 4.86,26.27 		"/>
	</g>
	<g>
		<polygon fill="#4D4D4D" points="17.51,22.37 16.53,22.37 15.57,22.37 14.59,22.37 13.62,22.37 12.65,22.37 11.67,22.37 
			10.7,22.37 9.729,22.37 8.76,22.37 7.78,22.37 6.8,22.37 5.84,22.37 4.86,22.37 3.89,22.37 3.89,21.4 3.89,20.42 2.92,20.42 
			2.92,21.4 2.92,22.37 2.92,23.35 2.92,24.31 2.92,25.29 3.89,25.29 3.89,24.31 3.89,23.35 4.86,23.35 5.84,23.35 6.8,23.35 
			7.78,23.35 8.76,23.35 9.729,23.35 10.7,23.35 11.67,23.35 12.65,23.35 13.62,23.35 14.59,23.35 15.57,23.35 16.53,23.35 
			17.51,23.35 18.49,23.35 18.49,22.37 		"/>
		<polygon fill="#4D4D4D" points="0,22.37 0,23.35 0.97,23.35 1.94,23.35 1.94,22.37 0.97,22.37 		"/>
	</g>
	<g>
		<polygon fill="#BFBFBF" points="7.78,4.86 7.78,3.89 7.78,2.91 7.78,1.94 7.78,0.96 8.76,0.96 9.729,0.96 9.729,0 8.76,0 7.78,0 
			6.8,0 6.8,0.96 5.84,0.96 5.84,1.94 5.84,2.91 5.84,3.89 5.84,4.86 6.8,4.86 		"/>
		<polygon fill="#BFBFBF" points="9.729,13.62 9.729,12.64 9.729,11.67 8.76,11.67 7.78,11.67 6.8,11.67 5.84,11.67 5.84,12.64 
			5.84,13.62 6.8,13.62 6.8,14.58 7.78,14.58 8.76,14.58 8.76,13.62 		"/>
		<polygon fill="#BFBFBF" points="6.8,10.69 7.78,10.69 8.76,10.69 9.729,10.69 10.7,10.69 10.7,9.73 10.7,8.75 9.729,8.75 
			9.729,7.77 9.729,6.81 8.76,6.81 8.76,7.77 8.76,8.75 8.76,9.73 7.78,9.73 6.8,9.73 6.8,8.75 6.8,7.77 6.8,6.81 5.84,6.81 
			5.84,7.77 4.86,7.77 4.86,8.75 4.86,9.73 4.86,10.69 5.84,10.69 		"/>
		<polygon fill="#BFBFBF" points="12.65,9.73 11.67,9.73 11.67,10.69 11.67,11.67 10.7,11.67 10.7,12.64 10.7,13.62 11.67,13.62 
			11.67,14.58 12.65,14.58 12.65,13.62 12.65,12.64 13.62,12.64 13.62,11.67 13.62,10.69 13.62,9.73 		"/>
		<polygon fill="#BFBFBF" points="9.729,14.58 8.76,14.58 8.76,15.56 8.76,16.54 9.729,16.54 10.7,16.54 10.7,15.56 10.7,14.58 
			10.7,13.62 9.729,13.62 		"/>
		<polygon fill="#BFBFBF" points="5.84,13.62 4.86,13.62 4.86,14.58 4.86,15.56 4.86,16.54 5.84,16.54 6.8,16.54 6.8,15.56 
			6.8,14.58 5.84,14.58 		"/>
		<polygon fill="#BFBFBF" points="4.86,11.67 3.89,11.67 3.89,10.69 3.89,9.73 2.92,9.73 1.94,9.73 1.94,10.69 1.94,11.67 
			1.94,12.64 1.94,13.62 1.94,14.58 2.92,14.58 2.92,13.62 2.92,12.64 3.89,12.64 3.89,13.62 4.86,13.62 4.86,12.64 		"/>
		<polygon fill="#BFBFBF" points="8.76,17.5 7.78,17.5 6.8,17.5 5.84,17.5 4.86,17.5 4.86,18.48 4.86,19.45 4.86,20.42 4.86,21.4 
			4.86,22.37 5.84,22.37 5.84,21.4 6.8,21.4 7.78,21.4 8.76,21.4 9.729,21.4 9.729,22.37 10.7,22.37 10.7,21.4 10.7,20.42 
			10.7,19.45 10.7,18.48 10.7,17.5 9.729,17.5 		"/>
		<polygon fill="#BFBFBF" points="9.729,24.31 9.729,25.29 9.729,26.27 10.7,26.27 10.7,25.29 10.7,24.31 10.7,23.35 9.729,23.35 		
			"/>
		<polygon fill="#BFBFBF" points="9.729,29.18 9.729,30.15 9.729,31.13 9.729,32.1 9.729,33.08 9.729,34.04 10.7,34.04 10.7,33.08 
			10.7,32.1 10.7,31.13 10.7,30.15 10.7,29.18 10.7,28.21 9.729,28.21 		"/>
		<polygon fill="#BFBFBF" points="4.86,24.31 4.86,25.29 4.86,26.27 5.84,26.27 5.84,25.29 5.84,24.31 5.84,23.35 4.86,23.35 		"/>
		<polygon fill="#BFBFBF" points="4.86,29.18 4.86,30.15 4.86,31.13 4.86,32.1 4.86,33.08 4.86,34.04 5.84,34.04 5.84,33.08 
			5.84,32.1 5.84,31.13 5.84,30.15 5.84,29.18 5.84,28.21 4.86,28.21 		"/>
	</g>
</g>
</svg>
