<?xml version="1.0" encoding="utf-8"?>
<!-- Generator: Adobe Illustrator 16.0.0, SVG Export Plug-In . SVG Version: 6.00 Build 0)  -->
<!DOCTYPE svg PUBLIC "-//W3C//DTD SVG 1.1//EN" "http://www.w3.org/Graphics/SVG/1.1/DTD/svg11.dtd">
<svg version="1.1" id="Layer_2" xmlns="http://www.w3.org/2000/svg" xmlns:xlink="http://www.w3.org/1999/xlink" x="0px" y="0px"
	 width="19.46px" height="35.02px" viewBox="0 0 19.46 35.02" enable-background="new 0 0 19.46 35.02" xml:space="preserve">
<polygon fill="#737144" points="8.795,16.54 7.815,16.54 6.845,16.54 5.865,16.54 4.905,16.54 3.925,16.54 3.925,17.5 3.925,18.48 
	3.925,19.45 3.925,20.42 3.925,21.4 3.925,22.37 3.925,23.35 3.925,24.31 3.925,25.29 3.925,26.27 3.925,27.23 3.925,28.21 
	3.925,29.18 3.925,30.15 3.925,31.13 3.925,32.1 3.925,33.08 3.925,34.04 4.905,34.04 4.905,33.08 4.905,32.1 4.905,31.13 
	4.905,30.15 4.905,29.18 4.905,28.21 4.905,27.23 4.905,26.27 4.905,25.29 4.905,24.31 4.905,23.35 4.905,22.37 4.905,21.4 
	5.865,21.4 6.845,21.4 7.815,21.4 8.795,21.4 8.795,22.37 8.795,23.35 8.795,24.31 8.795,25.29 8.795,26.27 8.795,27.23 
	8.795,28.21 8.795,29.18 8.795,30.15 8.795,31.13 8.795,32.1 8.795,33.08 8.795,34.04 9.765,34.04 9.765,33.08 9.765,32.1 
	9.765,31.13 9.765,30.15 9.765,29.18 9.765,28.21 9.765,27.23 9.765,26.27 9.765,25.29 9.765,24.31 9.765,23.35 9.765,22.37 
	9.765,21.4 9.765,20.42 9.765,19.45 9.765,18.48 9.765,17.5 9.765,16.54 "/>
<g>
	<polygon fill="#6D5217" points="8.795,6.81 8.795,7.77 8.795,8.75 9.765,8.75 9.765,7.77 9.765,6.81 9.765,5.83 8.795,5.83 	"/>
	<polygon fill="#6D5217" points="8.795,0.96 8.795,0 7.815,0 6.845,0 5.865,0 5.865,0.96 4.905,0.96 4.905,1.94 4.905,2.91 
		4.905,3.89 4.905,4.86 4.905,5.83 3.925,5.83 3.925,6.81 3.925,7.77 4.905,7.77 4.905,6.81 5.865,6.81 5.865,5.83 5.865,4.86 
		6.845,4.86 6.845,3.89 6.845,2.91 6.845,1.94 7.815,1.94 8.795,1.94 9.765,1.94 9.765,0.96 	"/>
</g>
<polygon fill="#9C8F57" points="11.715,9.73 11.715,8.75 11.715,7.77 10.734,7.77 10.734,6.81 9.765,6.81 9.765,7.77 9.765,8.75 
	8.795,8.75 8.795,7.77 8.795,6.81 7.815,6.81 6.845,6.81 5.865,6.81 4.905,6.81 4.905,7.77 3.925,7.77 3.925,6.81 2.945,6.81 
	2.945,7.77 1.985,7.77 1.985,8.75 1.985,9.73 1.005,9.73 1.005,10.69 1.005,11.67 1.985,11.67 2.945,11.67 2.945,12.64 2.945,13.62 
	3.925,13.62 3.925,14.59 3.925,15.56 3.925,16.54 4.905,16.54 5.865,16.54 6.845,16.54 7.815,16.54 8.795,16.54 9.765,16.54 
	9.765,15.56 9.765,14.59 9.765,13.62 10.734,13.62 10.734,12.64 10.734,11.67 11.715,11.67 12.675,11.67 12.675,10.69 12.675,9.73 
	"/>
<g>
	<rect x="8.795" y="34.04" fill="#C7B570" width="0.97" height="0.98"/>
	<polygon fill="#C7B570" points="7.815,1.94 6.845,1.94 6.845,2.91 6.845,3.89 6.845,4.86 5.865,4.86 5.865,5.83 5.865,6.81 
		6.845,6.81 7.815,6.81 8.795,6.81 8.795,5.83 9.765,5.83 9.765,4.86 9.765,3.89 9.765,2.91 9.765,1.94 8.795,1.94 	"/>
	<rect x="3.925" y="34.04" fill="#C7B570" width="0.98" height="0.98"/>
	<polygon fill="#C7B570" points="1.005,11.67 1.005,12.64 1.005,13.62 1.005,14.59 1.005,15.56 1.005,16.54 1.005,17.5 1.005,18.48 
		1.985,18.48 1.985,19.45 1.985,20.42 1.985,21.4 1.985,22.37 1.985,23.35 2.945,23.35 2.945,22.37 2.945,21.4 2.945,20.42 
		2.945,19.45 2.945,18.48 2.945,17.5 1.985,17.5 1.985,16.54 1.985,15.56 1.985,14.59 1.985,13.62 1.985,12.64 2.945,12.64 
		2.945,11.67 1.985,11.67 	"/>
	<polygon fill="#C7B570" points="16.54,14.58 15.57,14.58 15.57,15.56 16.54,15.56 17.51,15.56 17.51,14.58 	"/>
</g>
<g>
	<rect x="10.7" y="14.58" fill="#8C8C8C" width="0.979" height="0.98"/>
	<rect x="9.72" y="9.72" fill="#8C8C8C" width="0.98" height="0.97"/>
	<rect x="8.76" y="25.29" fill="#8C8C8C" width="0.96" height="0.98"/>
	<rect x="7.78" y="31.13" fill="#8C8C8C" width="0.98" height="0.97"/>
	<polygon fill="#8C8C8C" points="7.78,27.23 7.78,26.27 7.78,25.29 7.78,24.31 7.78,23.35 7.78,22.37 7.78,21.4 7.78,20.42 
		7.78,19.45 7.78,18.48 7.78,17.5 7.78,16.53 7.78,15.56 8.76,15.56 8.76,14.58 7.78,14.58 7.78,13.62 7.78,12.64 7.78,11.67 
		7.78,10.69 7.78,9.72 7.78,8.75 7.78,7.77 7.78,6.81 6.81,6.81 6.81,7.77 6.81,8.75 6.81,9.72 6.81,10.69 6.81,11.67 6.81,12.64 
		6.81,13.62 6.81,14.58 6.81,15.56 6.81,16.53 6.81,17.5 6.81,18.48 6.81,19.45 6.81,20.42 6.81,21.4 6.81,22.37 5.84,22.37 
		5.84,23.35 6.81,23.35 6.81,24.31 6.81,25.29 6.81,26.27 6.81,27.23 6.81,28.21 7.78,28.21 	"/>
	<polygon fill="#8C8C8C" points="5.84,29.18 5.84,30.15 5.84,31.13 5.84,32.1 5.84,33.08 5.84,34.04 5.84,35.02 6.81,35.02 
		6.81,34.04 6.81,33.08 6.81,32.1 6.81,31.13 6.81,30.15 6.81,29.18 6.81,28.21 5.84,28.21 	"/>
	<rect x="4.86" y="11.67" fill="#8C8C8C" width="0.98" height="0.97"/>
	<rect x="3.89" y="32.1" fill="#8C8C8C" width="0.97" height="0.979"/>
	<rect x="3.89" y="18.48" fill="#8C8C8C" width="0.97" height="0.97"/>
	<rect x="2.92" y="28.21" fill="#8C8C8C" width="0.97" height="0.97"/>
	<rect x="2.92" y="8.75" fill="#8C8C8C" width="0.97" height="0.97"/>
	<rect x="1.95" y="18.48" fill="#8C8C8C" width="0.97" height="0.97"/>
	<rect x="0.97" y="34.04" fill="#8C8C8C" width="0.98" height="0.98"/>
	<rect x="0.97" y="12.64" fill="#8C8C8C" width="0.98" height="0.98"/>
</g>
<g>
	<polygon fill="#B3B3B3" points="15.57,15.56 15.57,16.53 15.57,17.5 16.54,17.5 16.54,16.53 16.54,15.56 	"/>
	<polygon fill="#B3B3B3" points="13.62,17.5 13.62,18.48 14.59,18.48 15.57,18.48 15.57,17.5 14.59,17.5 	"/>
	<polygon fill="#B3B3B3" points="12.649,16.53 12.649,15.56 11.68,15.56 11.68,16.53 11.68,17.5 12.649,17.5 13.62,17.5 
		13.62,16.53 	"/>
	<path fill="#B3B3B3" d="M11.68,14.58v-0.96v-0.98h0.97v-0.97v-0.98V9.72h-0.97V8.75V7.77H10.7V6.81H9.72v0.96v0.98H8.76V7.77V6.81
		H7.78v0.96v0.98v0.97v0.97v0.98v0.97v0.98v0.96h0.98v0.98H7.78v0.97v0.97v0.98v0.97v0.971V21.4v0.97v0.98v0.96v0.979v0.98v0.96
		v0.98H6.81v0.97v0.97v0.98v0.97v0.979v0.96v0.98h0.97h0.98v-0.98h0.96v-0.96V32.1v-0.97v-0.98v-0.97v-0.97v-0.98v-0.96H8.76v-0.98
		h0.96V24.31v-0.96v-0.98V21.4V20.42V19.45v-0.97V17.5v-0.97v-0.97v-0.98v-0.96h0.98v0.96H11.68z M8.76,32.1H7.78v-0.97h0.98V32.1z
		 M10.7,9.72v0.97H9.72V9.72H10.7z"/>
	<path fill="#B3B3B3" d="M6.81,26.27v-0.98V24.31v-0.96H5.84v-0.98h0.97V21.4V20.42V19.45v-0.97V17.5v-0.97v-0.97v-0.98v-0.96v-0.98
		v-0.97v-0.98V9.72V8.75V7.77V6.81H5.84H4.86v0.96H3.89V6.81H2.92v0.96H1.95v0.98v0.97H0.97v0.97v0.98v0.97h0.98h0.97v0.98h0.97
		v0.96v0.98v0.97v0.97v0.98h0.97v0.97H3.89v0.971V21.4v0.97v0.98v0.96v0.979v0.98H2.92v0.96v0.98h0.97v0.97H2.92v0.97v0.98v0.97
		H1.95v0.979H0.97v0.96h0.98v0.98h0.97h0.97v-0.98h0.97v0.98h0.98v-0.98v-0.96V32.1v-0.97v-0.98v-0.97v-0.97h0.97v-0.98V26.27z
		 M5.84,12.64H4.86v-0.97h0.98V12.64z M2.92,8.75h0.97v0.97H2.92V8.75z M4.86,33.08H3.89V32.1h0.97V33.08z"/>
	<polygon fill="#B3B3B3" points="1.95,20.42 1.95,21.4 1.95,22.37 2.92,22.37 2.92,21.4 2.92,20.42 2.92,19.45 1.95,19.45 	"/>
	<polygon fill="#B3B3B3" points="2.92,18.48 2.92,17.5 1.95,17.5 1.95,16.53 1.95,15.56 1.95,14.58 1.95,13.62 0.97,13.62 
		0.97,14.58 0.97,15.56 0.97,16.53 0.97,17.5 0.97,18.48 1.95,18.48 	"/>
	<rect y="34.04" fill="#B3B3B3" width="0.97" height="0.98"/>
</g>
<g>
	<polygon fill="#ED1C24" points="18.49,10.7 17.521,10.7 17.521,9.72 17.521,8.74 16.54,8.74 16.54,7.78 16.54,6.8 15.58,6.8 
		15.58,7.78 15.58,8.74 15.58,9.72 16.54,9.72 16.54,10.7 15.58,10.7 15.58,9.72 14.6,9.72 14.6,10.7 14.6,11.66 13.62,11.66 
		13.62,12.641 14.6,12.641 15.58,12.641 15.58,13.61 16.54,13.61 17.521,13.61 18.49,13.61 18.49,12.641 17.521,12.641 
		17.521,11.66 18.49,11.66 18.49,12.641 19.46,12.641 19.46,11.66 19.46,10.7 	"/>
	<g>
		<rect x="15.58" y="5.83" fill="#F7931E" width="0.96" height="0.97"/>
		<rect x="17.521" y="11.66" fill="#F7931E" width="0.97" height="0.98"/>
		<rect x="17.521" y="9.72" fill="#F7931E" width="0.97" height="0.98"/>
		<rect x="16.54" y="7.78" fill="#F7931E" width="0.98" height="0.96"/>
		<rect x="15.58" y="9.72" fill="#F7931E" width="0.96" height="0.98"/>
		<rect x="14.6" y="12.641" fill="#F7931E" width="0.98" height="0.97"/>
		<rect x="13.62" y="10.7" fill="#F7931E" width="0.979" height="0.96"/>
	</g>
</g>
</svg>
