<?xml version="1.0" encoding="utf-8"?>
<!-- Generator: Adobe Illustrator 16.0.0, SVG Export Plug-In . SVG Version: 6.00 Build 0)  -->
<!DOCTYPE svg PUBLIC "-//W3C//DTD SVG 1.1//EN" "http://www.w3.org/Graphics/SVG/1.1/DTD/svg11.dtd">
<svg version="1.1" id="Layer_3" xmlns="http://www.w3.org/2000/svg" xmlns:xlink="http://www.w3.org/1999/xlink" x="0px" y="0px"
	 width="10.7px" height="23.35px" viewBox="0 0 10.7 23.35" enable-background="new 0 0 10.7 23.35" xml:space="preserve">
<g>
	<polygon fill="#737144" points="8.75,14.62 8.75,13.65 7.78,13.65 6.81,13.65 5.83,13.65 4.86,13.65 3.9,13.65 2.93,13.65 
		2.93,14.62 1.96,14.62 1.96,15.59 1.96,16.56 1.96,17.53 2.93,17.53 2.93,18.5 2.93,19.47 2.93,20.44 2.93,21.41 2.93,22.38 
		3.9,22.38 3.9,21.41 3.9,20.44 3.9,19.47 3.9,18.5 3.9,17.53 3.9,16.56 4.86,16.56 4.86,15.59 5.83,15.59 6.81,15.59 6.81,16.56 
		7.78,16.56 7.78,17.53 7.78,18.5 7.78,19.47 7.78,20.44 7.78,21.41 7.78,22.38 8.75,22.38 8.75,21.41 8.75,20.44 8.75,19.47 
		8.75,18.5 8.75,17.53 9.72,17.53 9.72,16.56 9.72,15.59 9.72,14.62 	"/>
	<g>
		<rect x="8.75" y="2.01" fill="#6D5217" width="0.97" height="0.97"/>
		<polygon fill="#6D5217" points="7.78,1.05 7.78,0.08 6.81,0.08 5.83,0.08 4.86,0.08 3.9,0.08 3.9,1.05 2.93,1.05 2.93,2.01 
			2.93,2.98 1.96,2.98 1.96,3.96 1.96,4.93 1.96,5.9 1.96,6.87 2.93,6.87 2.93,7.831 3.9,7.831 3.9,6.87 3.9,5.9 3.9,4.93 
			4.86,4.93 4.86,3.96 5.83,3.96 5.83,2.98 5.83,2.01 6.81,2.01 7.78,2.01 8.75,2.01 8.75,1.05 		"/>
		<polygon fill="#6D5217" points="6.81,4.93 6.81,5.9 6.81,6.87 7.78,6.87 8.75,6.87 8.75,7.831 8.75,8.8 8.75,9.77 9.72,9.77 
			9.72,8.8 9.72,7.831 9.72,6.87 9.72,5.9 8.75,5.9 8.75,4.93 8.75,3.96 7.78,3.96 6.81,3.96 5.83,3.96 5.83,4.93 		"/>
	</g>
	<g>
		<polygon fill="#C7B570" points="0.99,14.62 0.99,15.59 0.99,16.56 0.99,17.53 0.99,18.5 1.96,18.5 1.96,17.53 1.96,16.56 
			1.96,15.59 1.96,14.62 1.96,13.65 0.99,13.65 		"/>
		<polygon fill="#C7B570" points="9.72,13.65 9.72,14.62 9.72,15.59 9.72,16.56 9.72,17.53 9.72,18.5 10.68,18.5 10.68,17.53 
			10.68,16.56 10.68,15.59 10.68,14.62 10.68,13.65 		"/>
		<rect x="7.78" y="22.38" fill="#C7B570" width="0.971" height="0.97"/>
		<polygon fill="#C7B570" points="6.81,2.01 5.83,2.01 5.83,2.98 5.83,3.96 6.81,3.96 7.78,3.96 8.75,3.96 8.75,2.98 8.75,2.01 
			7.78,2.01 		"/>
		<polygon fill="#C7B570" points="4.86,4.93 3.9,4.93 3.9,5.9 4.86,5.9 5.83,5.9 6.81,5.9 6.81,4.93 5.83,4.93 5.83,3.96 4.86,3.96 
					"/>
		<rect x="2.93" y="22.38" fill="#C7B570" width="0.97" height="0.97"/>
	</g>
	<g>
		<polygon fill="#9C8F57" points="9.72,7.831 9.72,8.8 9.72,9.77 8.75,9.77 8.75,8.8 8.75,7.831 8.75,6.87 7.78,6.87 6.81,6.87 
			6.81,5.9 5.83,5.9 4.86,5.9 3.9,5.9 3.9,6.87 3.9,7.831 2.93,7.831 2.93,6.87 1.96,6.87 0.99,6.87 0.99,7.831 0.99,8.8 0.99,9.77 
			0.99,10.74 1.96,10.74 2.93,10.74 2.93,11.72 2.93,12.69 2.93,13.65 3.9,13.65 4.86,13.65 5.83,13.65 6.81,13.65 7.78,13.65 
			8.75,13.65 8.75,12.69 8.75,11.72 8.75,10.74 9.72,10.74 9.72,11.72 9.72,12.69 9.72,13.65 10.68,13.65 10.68,12.69 10.68,11.72 
			10.68,10.74 10.68,9.77 10.68,8.8 10.68,7.831 		"/>
		<polygon fill="#9C8F57" points="0.02,11.72 0.02,12.69 0.02,13.65 0.99,13.65 0.99,12.69 0.99,11.72 0.99,10.74 0.02,10.74 		"/>
	</g>
</g>
<g>
	<polygon fill="#8C8C8C" points="7.78,0 6.81,0 5.83,0 4.87,0 3.89,0 3.89,0.97 2.92,0.97 2.92,1.95 2.92,2.91 1.95,2.91 1.95,3.89 
		1.95,4.87 1.95,5.83 2.92,5.83 3.89,5.83 3.89,6.81 4.87,6.81 4.87,7.78 5.83,7.78 5.83,8.75 5.83,9.73 5.83,10.7 5.83,11.68 
		5.83,12.64 4.87,12.64 3.89,12.64 2.92,12.64 2.92,13.62 3.89,13.62 4.87,13.62 5.83,13.62 6.81,13.62 7.78,13.62 8.75,13.62 
		8.75,12.64 7.78,12.64 6.81,12.64 6.81,11.68 6.81,10.7 6.81,9.73 6.81,8.75 6.81,7.78 6.81,6.81 7.78,6.81 7.78,5.83 8.75,5.83 
		8.75,4.87 8.75,3.89 7.78,3.89 6.81,3.89 5.83,3.89 5.83,2.91 5.83,1.95 6.81,1.95 7.78,1.95 8.75,1.95 8.75,0.97 7.78,0.97 	"/>
	<polygon fill="#8C8C8C" points="9.73,17.51 9.73,18.48 10.7,18.48 10.7,17.51 10.7,16.541 9.73,16.541 	"/>
	<polygon fill="#8C8C8C" points="9.73,11.68 9.73,12.64 9.73,13.62 10.7,13.62 10.7,12.64 10.7,11.68 	"/>
	<polygon fill="#8C8C8C" points="7.78,22.37 7.78,23.35 8.75,23.35 8.75,22.37 8.75,21.41 7.78,21.41 	"/>
	<polygon fill="#8C8C8C" points="7.78,19.46 7.78,20.43 8.75,20.43 8.75,19.46 8.75,18.48 7.78,18.48 	"/>
	<polygon fill="#8C8C8C" points="2.92,22.37 2.92,23.35 3.89,23.35 3.89,22.37 3.89,21.41 2.92,21.41 	"/>
	<polygon fill="#8C8C8C" points="2.92,19.46 2.92,20.43 3.89,20.43 3.89,19.46 3.89,18.48 2.92,18.48 	"/>
	<polygon fill="#8C8C8C" points="0.97,17.51 0.97,18.48 1.95,18.48 1.95,17.51 1.95,16.541 0.97,16.541 	"/>
	<polygon fill="#8C8C8C" points="0.97,12.64 0.97,11.68 0,11.68 0,12.64 0,13.62 0.97,13.62 	"/>
</g>
<g>
	<polygon fill="#B3B3B3" points="9.73,14.6 8.75,14.6 8.75,13.62 7.78,13.62 6.81,13.62 5.83,13.62 4.87,13.62 3.89,13.62 
		2.92,13.62 2.92,14.6 1.95,14.6 1.95,13.62 0.97,13.62 0.97,14.6 0.97,15.56 0.97,16.541 1.95,16.541 1.95,17.51 2.92,17.51 
		2.92,18.48 3.89,18.48 3.89,17.51 3.89,16.541 4.87,16.541 4.87,15.56 5.83,15.56 6.81,15.56 6.81,16.541 7.78,16.541 7.78,17.51 
		7.78,18.48 8.75,18.48 8.75,17.51 9.73,17.51 9.73,16.541 10.7,16.541 10.7,15.56 10.7,14.6 10.7,13.62 9.73,13.62 	"/>
	<polygon fill="#B3B3B3" points="9.73,7.78 9.73,6.81 9.73,5.83 8.75,5.83 7.78,5.83 7.78,6.81 6.81,6.81 6.81,7.78 6.81,8.75 
		6.81,9.73 6.81,10.7 6.81,11.68 6.81,12.64 7.78,12.64 8.75,12.64 8.75,11.68 8.75,10.7 9.73,10.7 9.73,11.68 10.7,11.68 
		10.7,10.7 10.7,9.73 10.7,8.75 10.7,7.78 	"/>
	<rect x="7.78" y="20.43" fill="#B3B3B3" width="0.971" height="0.979"/>
	<rect x="2.92" y="20.43" fill="#B3B3B3" width="0.97" height="0.979"/>
	<polygon fill="#B3B3B3" points="2.92,10.7 2.92,11.68 2.92,12.64 3.89,12.64 4.87,12.64 5.83,12.64 5.83,11.68 5.83,10.7 
		5.83,9.73 5.83,8.75 5.83,7.78 4.87,7.78 4.87,6.81 3.89,6.81 3.89,5.83 2.92,5.83 1.95,5.83 1.95,6.81 0.97,6.81 0.97,7.78 
		0.97,8.75 0.97,9.73 0.97,10.7 1.95,10.7 	"/>
	<rect y="10.7" fill="#B3B3B3" width="0.97" height="0.98"/>
</g>
<g>
	<polygon fill="#4D4D4D" points="5.845,17.51 4.875,17.51 3.906,17.51 2.925,17.51 2.925,16.541 1.965,16.541 1.965,17.51 
		1.965,18.491 1.965,19.451 2.925,19.451 2.925,18.491 3.906,18.491 4.875,18.491 5.845,18.491 6.826,18.491 6.826,17.51 	"/>
	<rect x="0.005" y="17.51" fill="#4D4D4D" width="0.98" height="0.98"/>
</g>
</svg>
