<?xml version="1.0" encoding="utf-8"?>
<!-- Generator: Adobe Illustrator 16.0.0, SVG Export Plug-In . SVG Version: 6.00 Build 0)  -->
<!DOCTYPE svg PUBLIC "-//W3C//DTD SVG 1.1//EN" "http://www.w3.org/Graphics/SVG/1.1/DTD/svg11.dtd">
<svg version="1.1" id="Layer_3" xmlns="http://www.w3.org/2000/svg" xmlns:xlink="http://www.w3.org/1999/xlink" x="0px" y="0px"
	 width="16.541px" height="23.35px" viewBox="0 0 16.541 23.35" enable-background="new 0 0 16.541 23.35" xml:space="preserve">
<g>
	<g>
		<polygon fill="#0A3542" points="15.57,9.73 14.6,9.73 13.62,9.73 12.65,9.73 11.68,9.73 11.68,10.71 11.68,11.68 10.7,11.68 
			10.7,12.66 11.68,12.66 11.68,13.62 11.68,14.6 10.7,14.6 10.7,15.58 11.68,15.58 11.68,16.54 12.65,16.54 12.65,17.521 
			13.62,17.521 14.6,17.521 15.57,17.521 16.541,17.521 16.541,16.54 16.541,15.58 16.541,14.6 16.541,13.62 16.541,12.66 
			16.541,11.68 16.541,10.71 16.541,9.73 		"/>
		<rect x="10.7" y="16.54" fill="#0A3542" width="0.98" height="0.98"/>
		<polygon fill="#0A3542" points="7.78,15.58 7.78,16.54 7.78,17.521 8.76,17.521 9.73,17.521 9.73,16.54 9.73,15.58 8.76,15.58 		
			"/>
	</g>
	<polygon fill="#9C8F57" points="7.78,5.85 6.81,5.85 5.84,5.85 4.87,5.85 4.87,6.811 5.84,6.811 5.84,7.79 6.81,7.79 7.78,7.79 
		7.78,6.811 8.76,6.811 8.76,5.85 	"/>
	<g>
		<polygon fill="#6D5217" points="9.73,5.85 9.73,4.87 9.73,3.89 8.76,3.89 7.78,3.89 7.78,2.93 6.81,2.93 6.81,1.95 5.84,1.95 
			5.84,2.93 5.84,3.89 6.81,3.89 6.81,4.87 7.78,4.87 7.78,5.85 8.76,5.85 8.76,6.811 9.73,6.811 9.73,7.79 9.73,8.76 10.7,8.76 
			10.7,7.79 10.7,6.811 10.7,5.85 		"/>
		<polygon fill="#6D5217" points="3.89,3.89 3.89,4.87 3.89,5.85 4.87,5.85 4.87,4.87 5.84,4.87 5.84,3.89 4.87,3.89 		"/>
	</g>
	<g>
		<polygon fill="#C7B570" points="11.68,16.54 11.68,17.521 11.68,18.49 12.65,18.49 12.65,17.521 12.65,16.54 		"/>
		<rect x="10.7" y="15.58" fill="#C7B570" width="0.98" height="0.96"/>
		<rect x="10.7" y="13.62" fill="#C7B570" width="0.98" height="0.979"/>
		<polygon fill="#C7B570" points="7.78,1.95 6.81,1.95 6.81,2.93 7.78,2.93 7.78,3.89 8.76,3.89 9.73,3.89 9.73,2.93 9.73,1.95 
			8.76,1.95 		"/>
		<polygon fill="#C7B570" points="6.81,3.89 5.84,3.89 5.84,4.87 4.87,4.87 4.87,5.85 5.84,5.85 6.81,5.85 7.78,5.85 7.78,4.87 
			6.81,4.87 		"/>
		<polygon fill="#C7B570" points="1.95,13.62 0.97,13.62 0.97,14.6 0.97,15.58 1.95,15.58 1.95,16.54 1.95,17.521 1.95,18.49 
			2.92,18.49 2.92,17.521 2.92,16.54 2.92,15.58 2.92,14.6 1.95,14.6 		"/>
	</g>
	<g>
		<polygon fill="#B3B3B3" points="10.7,12.66 9.73,12.66 8.76,12.66 7.78,12.66 7.78,13.62 8.76,13.62 9.73,13.62 10.7,13.62 
			11.68,13.62 11.68,12.66 		"/>
		<rect x="9.73" y="22.39" fill="#B3B3B3" width="0.97" height="0.96"/>
		<polygon fill="#B3B3B3" points="9.73,19.46 9.73,20.44 10.7,20.44 10.7,19.46 10.7,18.49 9.73,18.49 		"/>
		<polygon fill="#B3B3B3" points="8.76,1.95 9.73,1.95 9.73,2.93 10.7,2.93 10.7,1.95 10.7,0.98 9.73,0.98 9.73,0 8.76,0 8.76,0.98 
			7.78,0.98 6.81,0.98 6.81,1.95 7.78,1.95 		"/>
		<polygon fill="#B3B3B3" points="3.89,12.66 2.92,12.66 2.92,13.62 3.89,13.62 4.87,13.62 5.84,13.62 5.84,12.66 4.87,12.66 		"/>
		<rect x="2.92" y="22.39" fill="#B3B3B3" width="0.97" height="0.96"/>
		<rect x="2.92" y="19.46" fill="#B3B3B3" width="0.97" height="0.98"/>
		<polygon fill="#B3B3B3" points="0.97,12.66 0.97,13.62 1.95,13.62 1.95,12.66 1.95,11.68 0.97,11.68 		"/>
	</g>
	<g>
		<polygon fill="#BFBFBF" points="10.7,7.79 10.7,8.76 9.73,8.76 8.76,8.76 8.76,9.73 8.76,10.71 7.78,10.71 7.78,11.68 7.78,12.66 
			8.76,12.66 9.73,12.66 10.7,12.66 10.7,11.68 11.68,11.68 11.68,10.71 11.68,9.73 11.68,8.76 11.68,7.79 		"/>
		<polygon fill="#BFBFBF" points="9.73,21.41 9.73,22.39 10.7,22.39 10.7,21.41 10.7,20.44 9.73,20.44 		"/>
		<polygon fill="#BFBFBF" points="8.76,13.62 7.78,13.62 6.81,13.62 5.84,13.62 4.87,13.62 3.89,13.62 2.92,13.62 2.92,14.6 
			2.92,15.58 2.92,16.54 3.89,16.54 3.89,15.58 4.87,15.58 5.84,15.58 6.81,15.58 7.78,15.58 8.76,15.58 9.73,15.58 9.73,16.54 
			9.73,17.521 9.73,18.49 10.7,18.49 10.7,17.521 10.7,16.54 10.7,15.58 10.7,14.6 10.7,13.62 9.73,13.62 		"/>
		<polygon fill="#BFBFBF" points="7.78,6.811 7.78,7.79 8.76,7.79 9.73,7.79 9.73,6.811 8.76,6.811 		"/>
		<polygon fill="#BFBFBF" points="7.78,8.76 6.81,8.76 5.84,8.76 5.84,9.73 5.84,10.71 6.81,10.71 7.78,10.71 7.78,9.73 		"/>
		<polygon fill="#BFBFBF" points="5.84,7.79 5.84,6.811 4.87,6.811 4.87,5.85 3.89,5.85 3.89,6.811 3.89,7.79 4.87,7.79 		"/>
		<polygon fill="#BFBFBF" points="5.84,3.89 5.84,2.93 5.84,1.95 6.81,1.95 6.81,0.98 7.78,0.98 8.76,0.98 8.76,0 7.78,0 6.81,0 
			5.84,0 4.87,0 4.87,0.98 3.89,0.98 3.89,1.95 3.89,2.93 3.89,3.89 4.87,3.89 		"/>
		<polygon fill="#BFBFBF" points="4.87,9.73 4.87,8.76 3.89,8.76 3.89,7.79 2.92,7.79 1.95,7.79 0.97,7.79 0.97,8.76 0.97,9.73 
			0.97,10.71 0.97,11.68 1.95,11.68 1.95,10.71 2.92,10.71 2.92,11.68 2.92,12.66 3.89,12.66 4.87,12.66 5.84,12.66 5.84,11.68 
			5.84,10.71 4.87,10.71 		"/>
		<polygon fill="#BFBFBF" points="2.92,21.41 2.92,22.39 3.89,22.39 3.89,21.41 3.89,20.44 2.92,20.44 		"/>
	</g>
	<g>
		<polygon fill="#4D4D4D" points="8.76,17.521 7.78,17.521 6.81,17.521 5.84,17.521 4.87,17.521 3.89,17.521 3.89,16.54 2.92,16.54 
			2.92,17.521 2.92,18.49 2.92,19.46 3.89,19.46 3.89,18.49 4.87,18.49 5.84,18.49 6.81,18.49 7.78,18.49 8.76,18.49 9.73,18.49 
			9.73,17.521 		"/>
		<polygon fill="#4D4D4D" points="0,17.521 0,18.49 0.97,18.49 1.95,18.49 1.95,17.521 0.97,17.521 		"/>
	</g>
	<g>
		<polygon fill="#8C8C8C" points="12.65,6.811 12.65,5.85 11.68,5.85 11.68,4.87 10.7,4.87 10.7,3.89 9.73,3.89 9.73,4.87 
			9.73,5.85 10.7,5.85 10.7,6.811 10.7,7.79 11.68,7.79 12.65,7.79 13.62,7.79 13.62,6.811 		"/>
		<polygon fill="#8C8C8C" points="7.78,7.79 6.81,7.79 5.84,7.79 4.87,7.79 3.89,7.79 3.89,8.76 4.87,8.76 4.87,9.73 4.87,10.71 
			5.84,10.71 5.84,9.73 5.84,8.76 6.81,8.76 7.78,8.76 7.78,9.73 7.78,10.71 8.76,10.71 8.76,9.73 8.76,8.76 9.73,8.76 9.73,7.79 
			8.76,7.79 		"/>
		<polygon fill="#8C8C8C" points="5.84,10.71 5.84,11.68 5.84,12.66 5.84,13.62 6.81,13.62 7.78,13.62 7.78,12.66 7.78,11.68 
			7.78,10.71 6.81,10.71 		"/>
		<polygon fill="#8C8C8C" points="3.89,5.85 3.89,4.87 3.89,3.89 2.92,3.89 2.92,4.87 1.95,4.87 1.95,5.85 0.97,5.85 0.97,6.811 
			0,6.811 0,7.79 0.97,7.79 1.95,7.79 2.92,7.79 3.89,7.79 3.89,6.811 		"/>
	</g>
</g>
</svg>
