<?xml version="1.0" encoding="utf-8"?>
<!-- Generator: Adobe Illustrator 16.0.0, SVG Export Plug-In . SVG Version: 6.00 Build 0)  -->
<!DOCTYPE svg PUBLIC "-//W3C//DTD SVG 1.1//EN" "http://www.w3.org/Graphics/SVG/1.1/DTD/svg11.dtd">
<svg version="1.1" id="Layer_1" xmlns="http://www.w3.org/2000/svg" xmlns:xlink="http://www.w3.org/1999/xlink" x="0px" y="0px"
	 width="9.73px" height="33.08px" viewBox="0 0 9.73 33.08" enable-background="new 0 0 9.73 33.08" xml:space="preserve">
<g>
	<polygon fill="#6D5217" points="6.804,1.081 5.834,1.081 4.865,1.081 3.894,1.081 3.894,2.051 3.894,3.021 3.894,3.991 3.894,4.96 
		4.865,4.96 4.865,3.991 4.865,3.021 5.834,3.021 5.834,2.051 6.804,2.051 7.765,2.051 7.765,1.081 	"/>
	<polygon fill="#C7B570" points="6.804,2.051 5.834,2.051 5.834,3.021 4.865,3.021 4.865,3.991 4.865,4.96 3.894,4.96 3.894,5.931 
		3.894,6.9 4.865,6.9 5.834,6.9 6.804,6.9 6.804,5.931 7.765,5.931 7.765,4.96 7.765,3.991 7.765,3.021 7.765,2.051 	"/>
	<g>
		<polygon fill="#C7B570" points="7.765,16.601 7.765,17.561 7.765,18.531 7.765,19.5 7.765,20.471 7.765,21.451 7.765,22.42 
			7.765,23.381 8.735,23.381 8.735,22.42 8.735,21.451 8.735,20.471 8.735,19.5 8.735,18.531 8.735,17.561 8.735,16.601 
			8.735,15.63 7.765,15.63 		"/>
		<polygon fill="#C7B570" points="8.735,12.71 8.735,13.69 8.735,14.661 8.735,15.63 9.706,15.63 9.706,14.661 9.706,13.69 
			9.706,12.71 		"/>
	</g>
	<g>
		<polygon fill="#C7B570" points="0.985,18.531 0.985,19.5 0.985,20.471 0.985,21.451 0.985,22.42 0.985,23.381 1.945,23.381 
			1.945,22.42 1.945,21.451 1.945,20.471 1.945,19.5 1.945,18.531 		"/>
		<polygon fill="#C7B570" points="0.985,16.601 0.985,15.63 0.985,14.661 0.985,13.69 0.985,12.71 0.015,12.71 0.015,13.69 
			0.015,14.661 0.015,15.63 0.015,16.601 0.015,17.561 0.015,18.531 0.985,18.531 0.985,17.561 		"/>
	</g>
	<rect x="6.804" y="32.111" fill="#C7B570" width="0.961" height="0.969"/>
	<polygon fill="#737144" points="6.804,16.601 5.834,16.601 4.865,16.601 3.894,16.601 2.915,16.601 1.945,16.601 1.945,17.561 
		1.945,18.531 1.945,19.5 1.945,20.471 1.945,21.451 1.945,22.42 1.945,23.381 1.945,24.35 1.945,25.32 1.945,26.291 1.945,27.26 
		1.945,28.23 1.945,29.201 1.945,30.17 1.945,31.141 1.945,32.111 2.915,32.111 2.915,31.141 2.915,30.17 2.915,29.201 2.915,28.23 
		2.915,27.26 2.915,26.291 2.915,25.32 2.915,24.35 2.915,23.381 2.915,22.42 2.915,21.451 2.915,20.471 3.894,20.471 4.865,20.471 
		5.834,20.471 6.804,20.471 6.804,21.451 6.804,22.42 6.804,23.381 6.804,24.35 6.804,25.32 6.804,26.291 6.804,27.26 6.804,28.23 
		6.804,29.201 6.804,30.17 6.804,31.141 6.804,32.111 7.765,32.111 7.765,31.141 7.765,30.17 7.765,29.201 7.765,28.23 7.765,27.26 
		7.765,26.291 7.765,25.32 7.765,24.35 7.765,23.381 7.765,22.42 7.765,21.451 7.765,20.471 7.765,19.5 7.765,18.531 7.765,17.561 
		7.765,16.601 	"/>
	<g>
		<rect x="8.735" y="11.741" fill="#9C8F57" width="0.971" height="0.97"/>
		<polygon fill="#9C8F57" points="8.735,9.811 8.735,8.84 7.765,8.84 7.765,7.871 7.765,6.9 6.804,6.9 5.834,6.9 4.865,6.9 
			3.894,6.9 2.915,6.9 1.945,6.9 1.945,7.871 0.985,7.871 0.985,8.84 0.985,9.811 0.985,10.781 0.985,11.741 1.945,11.741 
			1.945,12.71 1.945,13.69 1.945,14.661 1.945,15.63 1.945,16.601 2.915,16.601 3.894,16.601 4.865,16.601 5.834,16.601 
			6.804,16.601 7.765,16.601 7.765,15.63 7.765,14.661 7.765,13.69 7.765,12.71 7.765,11.741 8.735,11.741 8.735,10.781 		"/>
		<rect x="0.015" y="11.741" fill="#9C8F57" width="0.97" height="0.97"/>
	</g>
	<rect x="1.945" y="32.111" fill="#C7B570" width="0.97" height="0.969"/>
</g>
<g>
	<polygon fill="#8C8C8C" points="8.75,11.68 8.75,12.65 8.75,13.62 8.75,14.6 8.75,15.56 9.73,15.56 9.73,14.6 9.73,13.62 
		9.73,12.65 9.73,11.68 	"/>
	<path fill="#8C8C8C" d="M6.81,15.56V14.6h0.97v-0.98v-0.97v-0.97h0.97V10.7V9.73V8.75H7.78V7.79V6.81H6.81H5.84v0.98v0.96v0.98
		v0.97v0.98v0.97v0.97v0.98v0.96v0.98h0.97h0.97v0.97H6.81v0.971H5.84V17.51H4.86H3.89H2.92H1.94v0.971H0.98v0.979v0.97v0.98h0.96
		v0.96v0.979v0.98v0.96v0.98v0.97v0.97v0.98v0.97v0.979v0.96h0.98v-0.96V30.16v-0.97v-0.98v-0.97v-0.97v-0.98v-0.96v-0.98V22.37
		v-0.96v-0.98h0.97h0.97h0.98h0.97v0.98v0.96v0.979v0.98v0.96v0.98v0.97v0.97v0.98v0.97v0.979v0.96h0.97v-0.96V30.16v-0.97v-0.98
		v-0.97v-0.97v-0.98v-0.96v-0.98V22.37v-0.96h0.97v-0.98v-0.97V18.48V17.51v-0.97v-0.98H7.78H6.81z M6.81,9.73h0.97v0.97H6.81V9.73z
		"/>
	<path fill="#8C8C8C" d="M1.94,12.65v0.97v0.98v0.96v0.98h0.98h0.97h0.97v-0.98V14.6v-0.98v-0.97v-0.97V10.7V9.73V8.75V7.79V6.81
		H3.89H2.92H1.94v0.98H0.98v0.96v0.98v0.97v0.98h0.96V12.65z M3.89,15.56H2.92V14.6h0.97V15.56z"/>
	<polygon fill="#8C8C8C" points="0.98,16.54 0.98,15.56 0.98,14.6 0.98,13.62 0.98,12.65 0.98,11.68 0,11.68 0,12.65 0,13.62 
		0,14.6 0,15.56 0,16.54 0,17.51 0,18.48 0.98,18.48 0.98,17.51 	"/>
</g>
<g>
	<rect x="1.94" y="32.1" fill="#4D4D4D" width="0.98" height="0.98"/>
	<rect x="6.81" y="32.1" fill="#4D4D4D" width="0.97" height="0.98"/>
	<polygon fill="#4D4D4D" points="6.81,16.54 5.84,16.54 4.86,16.54 3.89,16.54 2.92,16.54 1.94,16.54 1.94,17.51 2.92,17.51 
		3.89,17.51 4.86,17.51 5.84,17.51 5.84,18.48 6.81,18.48 6.81,17.51 7.78,17.51 7.78,16.54 	"/>
</g>
<g>
	<polygon fill="#B3B3B3" points="8.75,0 8.75,0.97 7.78,0.97 6.81,0.97 6.81,0 5.84,0 4.86,0 4.86,0.97 3.89,0.97 3.89,1.95 
		4.86,1.95 5.84,1.95 6.81,1.95 7.78,1.95 8.75,1.95 9.73,1.95 9.73,0.97 9.73,0 	"/>
	<polygon fill="#B3B3B3" points="2.92,0.97 1.94,0.97 1.94,1.95 1.94,2.92 2.92,2.92 3.89,2.92 3.89,1.95 2.92,1.95 	"/>
	<rect x="6.81" y="14.6" fill="#B3B3B3" width="0.97" height="0.96"/>
	<rect x="2.92" y="14.6" fill="#B3B3B3" width="0.97" height="0.96"/>
	<rect x="6.81" y="9.73" fill="#B3B3B3" width="0.97" height="0.97"/>
	<polygon fill="#B3B3B3" points="4.86,7.79 4.86,8.75 4.86,9.73 4.86,10.7 4.86,11.68 4.86,12.65 4.86,13.62 4.86,14.6 4.86,15.56 
		4.86,16.54 5.84,16.54 5.84,15.56 5.84,14.6 5.84,13.62 5.84,12.65 5.84,11.68 5.84,10.7 5.84,9.73 5.84,8.75 5.84,7.79 5.84,6.81 
		4.86,6.81 	"/>
</g>
</svg>
