<?xml version="1.0" encoding="utf-8"?>
<!-- Generator: Adobe Illustrator 16.0.0, SVG Export Plug-In . SVG Version: 6.00 Build 0)  -->
<!DOCTYPE svg PUBLIC "-//W3C//DTD SVG 1.1//EN" "http://www.w3.org/Graphics/SVG/1.1/DTD/svg11.dtd">
<svg version="1.1" id="Layer_2" xmlns="http://www.w3.org/2000/svg" xmlns:xlink="http://www.w3.org/1999/xlink" x="0px" y="0px"
	 width="9.7px" height="33.08px" viewBox="0 0 9.7 33.08" enable-background="new 0 0 9.7 33.08" xml:space="preserve">
<rect x="7.76" y="22.42" fill="#999999" width="0.97" height="0.96"/>
<polygon fill="#999999" points="7.76,10.78 7.76,11.74 7.76,12.71 8.73,12.71 8.73,11.74 8.73,10.78 "/>
<rect x="6.79" y="32.11" fill="#999999" width="0.971" height="0.97"/>
<polygon fill="#999999" points="6.79,19.5 6.79,20.47 6.79,21.45 7.76,21.45 7.76,20.47 7.76,19.5 "/>
<polygon fill="#999999" points="4.84,7.87 3.88,7.87 3.88,8.84 4.84,8.84 5.81,8.84 5.81,7.87 "/>
<polygon fill="#999999" points="4.84,1.08 3.88,1.08 3.88,2.05 3.88,3.02 4.84,3.02 4.84,2.05 5.81,2.05 5.81,1.08 "/>
<polygon fill="#999999" points="5.81,17.561 4.84,17.561 3.88,17.561 2.91,17.561 2.91,18.53 3.88,18.53 4.84,18.53 5.81,18.53 
	6.79,18.53 6.79,17.561 "/>
<rect x="1.94" y="32.11" fill="#999999" width="0.97" height="0.97"/>
<polygon fill="#999999" points="1.94,19.5 1.94,20.47 1.94,21.45 2.91,21.45 2.91,20.47 2.91,19.5 "/>
<rect x="0.97" y="22.42" fill="#999999" width="0.97" height="0.96"/>
<polygon fill="#999999" points="0.97,9.81 0.97,10.78 0.97,11.74 0.97,12.71 1.94,12.71 1.94,11.74 1.94,10.78 1.94,9.81 "/>
<g>
	<polygon fill="#CCCCCC" points="8.73,12.71 8.73,13.69 8.73,14.66 8.73,15.63 8.73,16.6 9.7,16.6 9.7,15.63 9.7,14.66 9.7,13.69 
		9.7,12.71 	"/>
	<polygon fill="#CCCCCC" points="5.81,7.87 6.79,7.87 6.79,6.9 6.79,5.93 6.79,4.96 6.79,3.99 6.79,3.02 6.79,2.05 6.79,1.08 
		5.81,1.08 5.81,2.05 4.84,2.05 4.84,3.02 3.88,3.02 3.88,3.99 3.88,4.96 3.88,5.93 3.88,6.9 3.88,7.87 4.84,7.87 	"/>
	<polygon fill="#CCCCCC" points="7.76,15.63 7.76,14.66 7.76,13.69 7.76,12.71 7.76,11.74 7.76,10.78 7.76,9.81 7.76,8.84 
		6.79,8.84 5.81,8.84 4.84,8.84 3.88,8.84 2.91,8.84 1.94,8.84 1.94,9.81 1.94,10.78 1.94,11.74 1.94,12.71 1.94,13.69 1.94,14.66 
		1.94,15.63 1.94,16.6 1.94,17.561 2.91,17.561 3.88,17.561 4.84,17.561 5.81,17.561 6.79,17.561 7.76,17.561 7.76,18.53 
		6.79,18.53 5.81,18.53 4.84,18.53 3.88,18.53 2.91,18.53 1.94,18.53 1.94,19.5 2.91,19.5 2.91,20.47 3.88,20.47 4.84,20.47 
		5.81,20.47 6.79,20.47 6.79,19.5 7.76,19.5 7.76,20.47 7.76,21.45 6.79,21.45 6.79,22.42 6.79,23.38 6.79,24.35 6.79,25.32 
		6.79,26.29 6.79,27.26 6.79,28.23 6.79,29.2 6.79,30.17 6.79,31.14 6.79,32.11 7.76,32.11 7.76,31.14 7.76,30.17 7.76,29.2 
		7.76,28.23 7.76,27.26 7.76,26.29 7.76,25.32 7.76,24.35 7.76,23.38 7.76,22.42 8.73,22.42 8.73,21.45 8.73,20.47 8.73,19.5 
		8.73,18.53 8.73,17.561 8.73,16.6 7.76,16.6 	"/>
	<polygon fill="#CCCCCC" points="0.97,20.47 0.97,21.45 0.97,22.42 1.94,22.42 1.94,23.38 1.94,24.35 1.94,25.32 1.94,26.29 
		1.94,27.26 1.94,28.23 1.94,29.2 1.94,30.17 1.94,31.14 1.94,32.11 2.91,32.11 2.91,31.14 2.91,30.17 2.91,29.2 2.91,28.23 
		2.91,27.26 2.91,26.29 2.91,25.32 2.91,24.35 2.91,23.38 2.91,22.42 2.91,21.45 1.94,21.45 1.94,20.47 1.94,19.5 0.97,19.5 	"/>
	<polygon fill="#CCCCCC" points="0.97,17.561 0.97,16.6 0.97,15.63 0.97,14.66 0.97,13.69 0.97,12.71 0,12.71 0,13.69 0,14.66 
		0,15.63 0,16.6 0,17.561 0,18.53 0,19.5 0.97,19.5 0.97,18.53 	"/>
</g>
<g>
	<rect x="1.93" y="32.1" fill="#4D4D4D" width="0.98" height="0.98"/>
	<rect x="6.8" y="32.1" fill="#4D4D4D" width="0.97" height="0.98"/>
	<polygon fill="#4D4D4D" points="6.8,19.46 6.8,18.48 6.8,17.51 5.83,17.51 4.85,17.51 3.88,17.51 2.91,17.51 2.91,18.48 
		3.88,18.48 4.85,18.48 5.83,18.48 5.83,19.46 	"/>
</g>
<g>
	<polygon fill="#B3B3B3" points="4.85,10.7 4.85,11.68 5.83,11.68 6.8,11.68 6.8,10.7 5.83,10.7 	"/>
	<rect x="2.91" y="15.56" fill="#B3B3B3" width="0.97" height="0.98"/>
	<rect x="5.83" y="15.56" fill="#B3B3B3" width="0.97" height="0.98"/>
	<polygon fill="#B3B3B3" points="7.77,0 7.77,0.97 6.8,0.97 6.8,0 5.83,0 4.85,0 3.88,0 3.88,0.97 2.91,0.97 2.91,1.95 3.88,1.95 
		4.85,1.95 5.83,1.95 6.8,1.95 7.77,1.95 8.74,1.95 8.74,0.97 8.74,0 	"/>
	<polygon fill="#B3B3B3" points="1.93,0.97 0.97,0.97 0.97,1.95 0.97,2.92 1.93,2.92 2.91,2.92 2.91,1.95 1.93,1.95 	"/>
</g>
</svg>
