<?xml version="1.0" encoding="utf-8"?>
<!-- Generator: Adobe Illustrator 16.0.0, SVG Export Plug-In . SVG Version: 6.00 Build 0)  -->
<!DOCTYPE svg PUBLIC "-//W3C//DTD SVG 1.1//EN" "http://www.w3.org/Graphics/SVG/1.1/DTD/svg11.dtd">
<svg version="1.1" id="Layer_3" xmlns="http://www.w3.org/2000/svg" xmlns:xlink="http://www.w3.org/1999/xlink" x="0px" y="0px"
	 width="15.566px" height="34.06px" viewBox="0 0 15.566 34.06" enable-background="new 0 0 15.566 34.06" xml:space="preserve">
<polygon fill="#737144" points="8.759,18.49 8.759,17.52 7.791,17.52 6.81,17.52 5.84,17.52 4.86,17.52 3.9,17.52 2.92,17.52 
	1.94,17.52 1.94,18.49 1.94,19.46 1.94,20.44 1.94,21.41 2.92,21.41 2.92,22.39 2.92,23.35 2.92,24.33 2.92,25.31 2.92,26.27 
	2.92,27.25 2.92,28.22 2.92,29.19 2.92,30.17 2.92,31.14 2.92,32.12 2.92,33.08 3.9,33.08 3.9,32.12 3.9,31.14 3.9,30.17 3.9,29.19 
	3.9,28.22 3.9,27.25 3.9,26.27 3.9,25.31 3.9,24.33 3.9,23.35 3.9,22.39 3.9,21.41 4.86,21.41 4.86,20.44 5.84,20.44 6.81,20.44 
	6.81,21.41 7.791,21.41 7.791,22.39 7.791,23.35 7.791,24.33 7.791,25.31 7.791,26.27 7.791,27.25 7.791,28.22 7.791,29.19 
	7.791,30.17 7.791,31.14 7.791,32.12 7.791,33.08 8.759,33.08 8.759,32.12 8.759,31.14 8.759,30.17 8.759,29.19 8.759,28.22 
	8.759,27.25 8.759,26.27 8.759,25.31 8.759,24.33 8.759,23.35 8.759,22.39 8.759,21.41 9.73,21.41 9.73,20.44 9.73,19.46 
	9.73,18.49 "/>
<g>
	<rect x="2.92" y="33.08" fill="#C7B570" width="0.98" height="0.98"/>
	<rect x="7.791" y="33.08" fill="#C7B570" width="0.969" height="0.98"/>
	<polygon fill="#C7B570" points="9.73,11.68 9.73,12.66 9.73,13.63 9.73,14.6 9.73,15.58 9.73,16.54 9.73,17.52 9.73,18.49 
		9.73,19.46 9.73,20.44 9.73,21.41 9.73,22.39 9.73,23.35 10.71,23.35 10.71,22.39 10.71,21.41 10.71,20.44 10.71,19.46 
		10.71,18.49 10.71,17.52 10.71,16.54 10.71,15.58 10.71,14.6 10.71,13.63 10.71,12.66 10.71,11.68 	"/>
	<polygon fill="#C7B570" points="7.791,1.95 6.81,1.95 5.84,1.95 4.86,1.95 4.86,2.93 4.86,3.9 4.86,4.87 4.86,5.85 4.86,6.81 
		5.84,6.81 6.81,6.81 7.791,6.81 7.791,5.85 8.759,5.85 8.759,4.87 8.759,3.9 8.759,2.93 7.791,2.93 	"/>
	<polygon fill="#C7B570" points="0.98,16.54 0.98,15.58 0.98,14.6 0.98,13.63 0.98,12.66 0.98,11.68 0,11.68 0,12.66 0,13.63 
		0,14.6 0,15.58 0,16.54 0,17.52 0,18.49 0.98,18.49 0.98,19.46 0.98,20.44 0.98,21.41 0.98,22.39 0.98,23.35 1.94,23.35 
		1.94,22.39 1.94,21.41 1.94,20.44 1.94,19.46 1.94,18.49 1.94,17.52 0.98,17.52 	"/>
</g>
<polygon fill="#9C8F57" points="9.73,7.79 9.73,8.77 8.759,8.77 8.759,9.73 7.791,9.73 7.791,8.77 7.791,7.79 7.791,6.81 6.81,6.81 
	5.84,6.81 4.86,6.81 4.86,7.79 4.86,8.77 4.86,9.73 4.86,10.71 3.9,10.71 3.9,9.73 3.9,8.77 2.92,8.77 2.92,7.79 1.94,7.79 
	0.98,7.79 0.98,8.77 0,8.77 0,9.73 0,10.71 0,11.68 0.98,11.68 0.98,10.71 1.94,10.71 1.94,11.68 1.94,12.66 2.92,12.66 2.92,13.63 
	2.92,14.6 2.92,15.58 2.92,16.54 1.94,16.54 1.94,17.52 2.92,17.52 3.9,17.52 4.86,17.52 5.84,17.52 6.81,17.52 7.791,17.52 
	8.759,17.52 8.759,18.49 9.73,18.49 9.73,17.52 9.73,16.54 8.759,16.54 8.759,15.58 8.759,14.6 8.759,13.63 8.759,12.66 9.73,12.66 
	9.73,11.68 10.71,11.68 10.71,10.71 10.71,9.73 10.71,8.77 10.71,7.79 "/>
<g>
	<rect x="8.759" y="2.93" fill="#6D5217" width="0.971" height="0.97"/>
	<polygon fill="#6D5217" points="8.759,5.85 7.791,5.85 7.791,6.81 7.791,7.79 7.791,8.77 7.791,9.73 8.759,9.73 8.759,8.77 
		9.73,8.77 9.73,7.79 9.73,6.81 8.759,6.81 	"/>
	<polygon fill="#6D5217" points="8.759,0.98 7.791,0.98 7.791,0 6.81,0 5.84,0 4.86,0 4.86,0.98 3.9,0.98 3.9,1.95 3.9,2.93 
		3.895,2.93 3.895,1.95 2.925,1.95 2.925,2.93 2.92,2.93 2.92,3.9 2.92,4.87 2.92,5.85 1.94,5.85 1.94,6.81 0.98,6.81 0.98,7.79 
		1.94,7.79 2.92,7.79 2.92,8.77 3.9,8.77 3.9,9.73 3.9,10.71 4.86,10.71 4.86,9.73 4.86,8.77 4.86,7.79 4.86,6.81 4.86,5.85 
		4.86,4.87 4.86,3.9 4.86,2.93 4.86,1.95 5.84,1.95 6.81,1.95 7.791,1.95 7.791,2.93 8.759,2.93 8.759,1.95 	"/>
</g>
<rect x="6.815" y="6.81" fill="#C7B570" width="0.97" height="0.98"/>
<rect x="5.835" y="7.79" fill="#C7B570" width="0.98" height="0.98"/>
<rect x="5.835" y="6.81" fill="#C7B570" width="0.98" height="0.98"/>
<rect x="4.875" y="6.81" fill="#C7B570" width="0.96" height="0.98"/>
<g>
	<polygon fill="#8C8C8C" points="9.735,7.79 9.735,8.77 8.755,8.77 8.755,9.73 7.785,9.73 7.785,8.77 7.785,7.79 6.815,7.79 
		6.815,8.77 6.815,9.73 6.815,10.71 6.815,11.68 5.835,11.68 5.835,10.71 5.835,9.73 5.835,8.77 5.835,7.79 4.875,7.79 4.875,8.77 
		4.875,9.73 4.875,10.71 3.895,10.71 3.895,9.73 3.895,8.77 2.925,8.77 2.925,7.79 1.955,7.79 0.975,7.79 0.975,8.77 0.005,8.77 
		0.005,9.73 0.005,10.71 0.005,11.68 0.005,12.66 0.005,13.63 0.005,14.6 0.975,14.6 0.975,13.63 0.975,12.66 0.975,11.68 
		0.975,10.71 1.955,10.71 1.955,11.68 1.955,12.66 2.925,12.66 2.925,13.63 2.925,14.6 2.925,15.58 2.925,16.54 1.955,16.54 
		1.955,17.52 1.955,18.49 1.955,19.46 1.955,20.44 2.925,20.44 2.925,19.46 3.895,19.46 3.895,18.49 4.875,18.49 4.875,17.52 
		5.835,17.52 5.835,16.54 5.835,15.58 5.835,14.6 5.835,13.63 5.835,12.66 6.815,12.66 6.815,13.63 6.815,14.6 6.815,15.58 
		6.815,16.54 6.815,17.52 7.785,17.52 7.785,18.49 8.755,18.49 8.755,19.46 9.735,19.46 9.735,18.49 9.735,17.52 9.735,16.54 
		8.755,16.54 8.755,15.58 8.755,14.6 8.755,13.63 8.755,12.66 9.735,12.66 9.735,13.63 9.735,14.6 10.705,14.6 10.705,13.63 
		10.705,12.66 10.705,11.68 10.705,10.71 10.705,9.73 10.705,8.77 10.705,7.79 	"/>
	<rect x="8.755" y="21.41" fill="#8C8C8C" width="0.979" height="0.98"/>
	<polygon fill="#8C8C8C" points="7.785,31.14 7.785,32.12 7.785,33.08 7.785,34.06 8.755,34.06 8.755,33.08 8.755,32.12 
		8.755,31.14 8.755,30.17 7.785,30.17 	"/>
	<polygon fill="#8C8C8C" points="7.785,22.39 7.785,21.41 6.815,21.41 6.815,20.44 5.835,20.44 4.875,20.44 4.875,21.41 
		3.895,21.41 3.895,22.39 3.895,23.35 3.895,24.33 4.875,24.33 5.835,24.33 5.835,23.35 6.815,23.35 7.785,23.35 	"/>
	<polygon fill="#8C8C8C" points="2.925,31.14 2.925,32.12 2.925,33.08 2.925,34.06 3.895,34.06 3.895,33.08 3.895,32.12 
		3.895,31.14 3.895,30.17 2.925,30.17 	"/>
	<polygon fill="#8C8C8C" points="2.925,23.35 2.925,22.39 2.925,21.41 1.955,21.41 1.955,22.39 1.955,23.35 0.975,23.35 
		0.975,24.33 0.005,24.33 0.005,25.31 0.975,25.31 1.955,25.31 1.955,24.33 2.925,24.33 	"/>
</g>
<g>
	<polygon fill="#B3B3B3" points="9.735,15.58 9.735,16.54 9.735,17.52 10.705,17.52 10.705,16.54 10.705,15.58 10.705,14.6 
		9.735,14.6 	"/>
	<polygon fill="#B3B3B3" points="8.755,18.49 7.785,18.49 7.785,17.52 6.815,17.52 6.815,16.54 6.815,15.58 6.815,14.6 6.815,13.63 
		6.815,12.66 5.835,12.66 5.835,13.63 5.835,14.6 5.835,15.58 5.835,16.54 5.835,17.52 4.875,17.52 4.875,18.49 3.895,18.49 
		3.895,19.46 2.925,19.46 2.925,20.44 1.955,20.44 1.955,21.41 2.925,21.41 2.925,22.39 2.925,23.35 2.925,24.33 2.925,25.31 
		2.925,26.27 2.925,27.25 2.925,28.22 2.925,29.19 2.925,30.17 3.895,30.17 3.895,29.19 3.895,28.22 3.895,27.25 3.895,26.27 
		3.895,25.31 3.895,24.33 3.895,23.35 3.895,22.39 3.895,21.41 4.875,21.41 4.875,20.44 5.835,20.44 6.815,20.44 6.815,21.41 
		7.785,21.41 7.785,22.39 7.785,23.35 7.785,24.33 7.785,25.31 7.785,26.27 7.785,27.25 7.785,28.22 7.785,29.19 7.785,30.17 
		8.755,30.17 8.755,29.19 8.755,28.22 8.755,27.25 8.755,26.27 8.755,25.31 8.755,24.33 8.755,23.35 8.755,22.39 8.755,21.41 
		9.735,21.41 9.735,20.44 9.735,19.46 8.755,19.46 	"/>
	<polygon fill="#B3B3B3" points="6.815,10.71 6.815,9.73 6.815,8.77 5.835,8.77 5.835,9.73 5.835,10.71 5.835,11.68 6.815,11.68 	
		"/>
	<polygon fill="#B3B3B3" points="0.005,15.58 0.005,16.54 0.005,17.52 0.975,17.52 0.975,16.54 0.975,15.58 0.975,14.6 0.005,14.6 	
		"/>
	<polygon fill="#B3B3B3" points="0.97,1.94 0.97,2.911 1.94,2.911 2.91,2.911 2.91,1.94 1.94,1.94 	"/>
	<polygon fill="#B3B3B3" points="10.7,0 9.72,0 9.72,0.96 10.7,0.96 11.669,0.96 11.669,0 	"/>
	<polygon fill="#B3B3B3" points="7.78,0.96 7.78,0 6.799,0 5.83,0 4.86,0 4.86,0.96 3.89,0.96 2.91,0.96 2.91,1.94 3.89,1.94 
		4.86,1.94 5.83,1.94 6.799,1.94 7.78,1.94 8.75,1.94 9.72,1.94 9.72,0.96 8.75,0.96 	"/>
</g>
<g>
	<polygon fill="#4D4D4D" points="15.566,23.36 15.566,22.379 14.595,22.379 13.625,22.379 12.646,22.379 11.675,22.379 
		10.706,22.379 10.706,23.36 11.675,23.36 12.646,23.36 12.646,24.32 11.675,24.32 11.675,25.299 12.646,25.299 12.646,26.28 
		13.625,26.28 14.595,26.28 14.595,25.299 15.566,25.299 15.566,24.32 14.595,24.32 14.595,23.36 	"/>
	<rect x="8.755" y="22.379" fill="#4D4D4D" width="0.971" height="0.98"/>
</g>
</svg>
