<?xml version="1.0" encoding="utf-8"?>
<!-- Generator: Adobe Illustrator 16.0.0, SVG Export Plug-In . SVG Version: 6.00 Build 0)  -->
<!DOCTYPE svg PUBLIC "-//W3C//DTD SVG 1.1//EN" "http://www.w3.org/Graphics/SVG/1.1/DTD/svg11.dtd">
<svg version="1.1" id="Layer_2" xmlns="http://www.w3.org/2000/svg" xmlns:xlink="http://www.w3.org/1999/xlink" x="0px" y="0px"
	 width="13.62px" height="35.02px" viewBox="0 0 13.62 35.02" enable-background="new 0 0 13.62 35.02" xml:space="preserve">
<polygon fill="#737144" points="9.685,16.54 8.705,16.54 7.735,16.54 6.755,16.54 5.795,16.54 4.815,16.54 4.815,17.5 4.815,18.48 
	4.815,19.45 4.815,20.42 4.815,21.4 4.815,22.37 4.815,23.35 4.815,24.31 4.815,25.29 4.815,26.27 4.815,27.23 4.815,28.21 
	4.815,29.18 4.815,30.15 4.815,31.13 4.815,32.1 4.815,33.08 4.815,34.04 5.795,34.04 5.795,33.08 5.795,32.1 5.795,31.13 
	5.795,30.15 5.795,29.18 5.795,28.21 5.795,27.23 5.795,26.27 5.795,25.29 5.795,24.31 5.795,23.35 5.795,22.37 5.795,21.4 
	6.755,21.4 7.735,21.4 8.705,21.4 9.685,21.4 9.685,22.37 9.685,23.35 9.685,24.31 9.685,25.29 9.685,26.27 9.685,27.23 
	9.685,28.21 9.685,29.18 9.685,30.15 9.685,31.13 9.685,32.1 9.685,33.08 9.685,34.04 10.655,34.04 10.655,33.08 10.655,32.1 
	10.655,31.13 10.655,30.15 10.655,29.18 10.655,28.21 10.655,27.23 10.655,26.27 10.655,25.29 10.655,24.31 10.655,23.35 
	10.655,22.37 10.655,21.4 10.655,20.42 10.655,19.45 10.655,18.48 10.655,17.5 10.655,16.54 "/>
<g>
	<polygon fill="#6D5217" points="9.685,6.81 9.685,7.77 9.685,8.75 10.655,8.75 10.655,7.77 10.655,6.81 10.655,5.83 9.685,5.83 	
		"/>
	<polygon fill="#6D5217" points="9.685,0.96 9.685,0 8.705,0 7.735,0 6.755,0 6.755,0.96 5.795,0.96 5.795,1.94 5.795,2.91 
		5.795,3.89 5.795,4.86 5.795,5.83 4.815,5.83 4.815,6.81 4.815,7.77 5.795,7.77 5.795,6.81 6.755,6.81 6.755,5.83 6.755,4.86 
		7.735,4.86 7.735,3.89 7.735,2.91 7.735,1.94 8.705,1.94 9.685,1.94 10.655,1.94 10.655,0.96 	"/>
</g>
<polygon fill="#9C8F57" points="12.605,9.73 12.605,8.75 12.605,7.77 11.625,7.77 11.625,6.81 10.655,6.81 10.655,7.77 10.655,8.75 
	9.685,8.75 9.685,7.77 9.685,6.81 8.705,6.81 7.735,6.81 6.755,6.81 5.795,6.81 5.795,7.77 4.815,7.77 4.815,6.81 3.835,6.81 
	3.835,7.77 2.875,7.77 2.875,8.75 2.875,9.73 1.895,9.73 1.895,10.69 1.895,11.67 2.875,11.67 3.835,11.67 3.835,12.64 3.835,13.62 
	4.815,13.62 4.815,14.59 4.815,15.56 4.815,16.54 5.795,16.54 6.755,16.54 7.735,16.54 8.705,16.54 9.685,16.54 10.655,16.54 
	10.655,15.56 10.655,14.59 10.655,13.62 11.625,13.62 11.625,12.64 11.625,11.67 12.605,11.67 13.565,11.67 13.565,10.69 
	13.565,9.73 "/>
<g>
	<polygon fill="#4D4D4D" points="8.75,22.37 7.78,22.37 6.81,22.37 5.84,22.37 4.86,22.37 3.89,22.37 3.89,21.4 3.89,20.42 
		2.92,20.42 2.92,21.4 2.92,22.37 2.92,23.35 2.92,24.31 2.92,25.29 3.89,25.29 3.89,24.31 3.89,23.35 4.86,23.35 5.84,23.35 
		6.81,23.35 7.78,23.35 8.75,23.35 9.73,23.35 9.73,22.37 	"/>
	<polygon fill="#4D4D4D" points="0,22.37 0,23.35 0.97,23.35 1.94,23.35 1.94,22.37 0.97,22.37 	"/>
</g>
<g>
	<polygon fill="#C7B570" points="12.605,11.67 11.625,11.67 11.625,12.64 11.625,13.62 11.625,14.59 11.625,15.56 11.625,16.54 
		11.625,17.5 11.625,18.48 11.625,19.45 11.625,20.42 11.625,21.4 11.625,22.37 11.625,23.35 12.605,23.35 12.605,22.37 
		12.605,21.4 12.605,20.42 12.605,19.45 12.605,18.48 12.605,17.5 12.605,16.54 12.605,15.56 12.605,14.59 12.605,13.62 
		12.605,12.64 13.565,12.64 13.565,11.67 	"/>
	<rect x="9.685" y="34.04" fill="#C7B570" width="0.97" height="0.98"/>
	<polygon fill="#C7B570" points="8.705,1.94 7.735,1.94 7.735,2.91 7.735,3.89 7.735,4.86 6.755,4.86 6.755,5.83 6.755,6.81 
		6.81,6.81 6.81,7.77 7.78,7.77 7.78,8.75 8.75,8.75 8.75,7.77 9.73,7.77 9.73,6.81 9.685,6.81 9.685,5.83 10.655,5.83 10.655,4.86 
		10.655,3.89 10.655,2.91 10.655,1.94 9.685,1.94 	"/>
	<rect x="4.815" y="34.04" fill="#C7B570" width="0.98" height="0.98"/>
	<polygon fill="#C7B570" points="1.94,19.45 1.94,20.42 1.94,21.4 1.94,22.37 1.94,23.35 2.92,23.35 2.92,22.37 2.92,21.4 
		2.92,20.42 2.92,19.45 2.92,18.48 1.94,18.48 	"/>
</g>
<g>
	<polygon fill="#B3B3B3" points="2.92,1.94 2.92,2.91 3.89,2.91 4.86,2.91 4.86,1.94 3.89,1.94 	"/>
	<polygon fill="#B3B3B3" points="12.65,0 11.67,0 11.67,0.96 12.65,0.96 13.62,0.96 13.62,0 	"/>
	<polygon fill="#B3B3B3" points="9.73,0.96 9.73,0 8.75,0 7.78,0 6.81,0 6.81,0.96 5.84,0.96 4.86,0.96 4.86,1.94 5.84,1.94 
		6.81,1.94 7.78,1.94 8.75,1.94 9.73,1.94 10.7,1.94 11.67,1.94 11.67,0.96 10.7,0.96 	"/>
	<polygon fill="#B3B3B3" points="11.67,17.5 11.67,18.48 12.65,18.48 12.65,17.5 12.65,16.54 11.67,16.54 	"/>
	<polygon fill="#B3B3B3" points="9.73,18.48 9.73,17.5 9.73,16.54 8.75,16.54 8.75,15.56 8.75,14.59 8.75,13.62 8.75,12.64 
		8.75,11.67 7.78,11.67 7.78,12.64 7.78,13.62 7.78,14.59 7.78,15.56 7.78,16.54 6.81,16.54 6.81,17.5 5.84,17.5 5.84,18.48 
		5.84,19.45 4.86,19.45 4.86,20.42 4.86,21.4 4.86,22.37 5.84,22.37 5.84,21.4 6.81,21.4 7.78,21.4 8.75,21.4 9.73,21.4 9.73,22.37 
		9.73,23.35 9.73,24.31 9.73,25.29 9.73,26.27 9.73,27.23 9.73,28.21 9.73,29.18 9.73,30.15 9.73,31.13 10.7,31.13 10.7,30.15 
		10.7,29.18 10.7,28.21 10.7,27.23 10.7,26.27 10.7,25.29 10.7,24.31 10.7,23.35 10.7,22.37 10.7,21.4 10.7,20.42 10.7,19.45 
		9.73,19.45 	"/>
	<polygon fill="#B3B3B3" points="8.75,9.73 8.75,8.75 7.78,8.75 7.78,9.73 7.78,10.69 8.75,10.69 	"/>
	<polygon fill="#B3B3B3" points="4.86,24.31 4.86,25.29 4.86,26.27 4.86,27.23 4.86,28.21 4.86,29.18 4.86,30.15 4.86,31.13 
		5.84,31.13 5.84,30.15 5.84,29.18 5.84,28.21 5.84,27.23 5.84,26.27 5.84,25.29 5.84,24.31 5.84,23.35 4.86,23.35 	"/>
	<polygon fill="#B3B3B3" points="1.94,17.5 1.94,18.48 2.92,18.48 2.92,17.5 2.92,16.54 1.94,16.54 	"/>
</g>
<g>
	<rect x="3.89" y="23.35" fill="#8C8C8C" width="0.97" height="0.96"/>
	<polygon fill="#8C8C8C" points="3.89,20.42 3.89,21.4 3.89,22.37 4.86,22.37 4.86,21.4 4.86,20.42 4.86,19.45 3.89,19.45 	"/>
	<polygon fill="#8C8C8C" points="9.73,23.35 8.75,23.35 7.78,23.35 6.81,23.35 5.84,23.35 5.84,24.31 6.81,24.31 7.78,24.31 
		8.75,24.31 9.73,24.31 	"/>
	<polygon fill="#8C8C8C" points="7.78,22.37 8.75,22.37 9.73,22.37 9.73,21.4 8.75,21.4 7.78,21.4 6.81,21.4 5.84,21.4 5.84,22.37 
		6.81,22.37 	"/>
	<polygon fill="#8C8C8C" points="12.65,9.73 12.65,8.75 12.65,7.77 11.67,7.77 11.67,6.81 10.7,6.81 10.7,7.77 10.7,8.75 9.73,8.75 
		9.73,7.77 8.75,7.77 8.75,8.75 8.75,9.73 8.75,10.69 7.78,10.69 7.78,9.73 7.78,8.75 7.78,7.77 6.81,7.77 6.81,6.81 5.84,6.81 
		5.84,7.77 4.86,7.77 4.86,6.81 3.89,6.81 3.89,7.77 2.92,7.77 2.92,8.75 2.92,9.73 1.94,9.73 1.94,10.69 1.94,11.67 1.94,12.64 
		1.94,13.62 1.94,14.59 1.94,15.56 1.94,16.54 2.92,16.54 2.92,15.56 2.92,14.59 2.92,13.62 2.92,12.64 3.89,12.64 3.89,13.62 
		4.86,13.62 4.86,14.59 4.86,15.56 4.86,16.54 4.86,17.5 4.86,18.48 4.86,19.45 5.84,19.45 5.84,18.48 5.84,17.5 6.81,17.5 
		6.81,16.54 7.78,16.54 7.78,15.56 7.78,14.59 7.78,13.62 7.78,12.64 7.78,11.67 8.75,11.67 8.75,12.64 8.75,13.62 8.75,14.59 
		8.75,15.56 8.75,16.54 9.73,16.54 9.73,17.5 9.73,18.48 9.73,19.45 10.7,19.45 10.7,18.48 10.7,17.5 10.7,16.54 10.7,15.56 
		10.7,14.59 10.7,13.62 11.67,13.62 11.67,14.59 11.67,15.56 11.67,16.54 12.65,16.54 12.65,15.56 12.65,14.59 12.65,13.62 
		12.65,12.64 13.62,12.64 13.62,11.67 13.62,10.69 13.62,9.73 	"/>
	<polygon fill="#8C8C8C" points="9.73,32.1 9.73,33.08 9.73,34.04 9.73,35.02 10.7,35.02 10.7,34.04 10.7,33.08 10.7,32.1 
		10.7,31.13 9.73,31.13 	"/>
	<polygon fill="#8C8C8C" points="4.86,32.1 4.86,33.08 4.86,34.04 4.86,35.02 5.84,35.02 5.84,34.04 5.84,33.08 5.84,32.1 
		5.84,31.13 4.86,31.13 	"/>
</g>
</svg>
