<?xml version="1.0" encoding="utf-8"?>
<!-- Generator: Adobe Illustrator 16.0.0, SVG Export Plug-In . SVG Version: 6.00 Build 0)  -->
<!DOCTYPE svg PUBLIC "-//W3C//DTD SVG 1.1//EN" "http://www.w3.org/Graphics/SVG/1.1/DTD/svg11.dtd">
<svg version="1.1" id="Layer_2" xmlns="http://www.w3.org/2000/svg" xmlns:xlink="http://www.w3.org/1999/xlink" x="0px" y="0px"
	 width="11.695px" height="32.11px" viewBox="0 0 11.695 32.11" enable-background="new 0 0 11.695 32.11" xml:space="preserve">
<polygon fill="#C7B570" points="8.759,11.74 8.759,12.72 8.759,13.69 8.759,14.66 8.759,15.629 8.759,16.59 8.759,17.56 
	8.759,18.53 8.759,19.5 8.759,20.48 8.759,21.45 9.73,21.45 9.73,20.48 9.73,19.5 9.73,18.53 9.73,17.56 9.73,16.59 9.73,15.629 
	9.73,14.66 9.73,13.69 9.73,12.72 9.73,11.74 "/>
<rect x="7.78" y="31.14" fill="#C7B570" width="0.979" height="0.97"/>
<rect x="2.94" y="31.14" fill="#C7B570" width="0.97" height="0.97"/>
<polygon fill="#737144" points="7.78,15.629 6.81,15.629 5.85,15.629 4.879,15.629 3.91,15.629 2.94,15.629 1.969,15.629 
	1.969,16.59 1.969,17.56 2.94,17.56 2.94,18.53 2.94,19.5 2.94,20.48 2.94,21.45 2.94,22.41 2.94,23.379 2.94,24.35 2.94,25.32 
	2.94,26.29 2.94,27.26 2.94,28.23 2.94,29.2 2.94,30.169 2.94,31.14 3.91,31.14 3.91,30.169 3.91,29.2 3.91,28.23 3.91,27.26 
	3.91,26.29 3.91,25.32 3.91,24.35 3.91,23.379 3.91,22.41 3.91,21.45 3.91,20.48 4.879,20.48 4.879,19.5 5.85,19.5 6.81,19.5 
	6.81,20.48 7.78,20.48 7.78,21.45 7.78,22.41 7.78,23.379 7.78,24.35 7.78,25.32 7.78,26.29 7.78,27.26 7.78,28.23 7.78,29.2 
	7.78,30.169 7.78,31.14 8.759,31.14 8.759,30.169 8.759,29.2 8.759,28.23 8.759,27.26 8.759,26.29 8.759,25.32 8.759,24.35 
	8.759,23.379 8.759,22.41 8.759,21.45 8.759,20.48 8.759,19.5 8.759,18.53 8.759,17.56 8.759,16.59 8.759,15.629 "/>
<g>
	<polygon fill="#6D5217" points="7.78,1.08 6.81,1.08 5.85,1.08 4.879,1.08 4.879,2.05 4.879,3.02 3.91,3.02 3.91,3.99 3.91,4.96 
		2.94,4.96 2.94,5.93 2.94,6.9 3.91,6.9 3.91,7.87 3.91,8.84 4.879,8.84 4.879,7.87 4.879,6.9 4.879,5.93 4.879,4.96 4.879,3.99 
		5.85,3.99 5.85,3.02 6.81,3.02 6.81,2.05 7.78,2.05 7.78,3.02 8.759,3.02 8.759,2.05 8.759,1.08 	"/>
	<polygon fill="#6D5217" points="5.85,5.93 5.85,6.9 5.85,7.87 5.85,8.84 6.81,8.84 6.81,7.87 7.78,7.87 7.78,6.9 7.78,5.93 
		6.81,5.93 	"/>
	<rect x="1.969" y="6.9" fill="#6D5217" width="0.971" height="0.97"/>
</g>
<g>
	<polygon fill="#C7B570" points="1.969,17.56 1.969,18.53 1.969,19.5 1.969,20.48 1.969,21.45 2.94,21.45 2.94,20.48 2.94,19.5 
		2.94,18.53 2.94,17.56 	"/>
	<polygon fill="#C7B570" points="1.969,15.629 1.969,14.66 1.969,13.69 1.969,12.72 1.969,11.74 1,11.74 1,12.72 1,13.69 1,14.66 
		1,15.629 1,16.59 1,17.56 1.969,17.56 1.969,16.59 	"/>
</g>
<polygon fill="#9C8F57" points="8.759,8.84 8.759,7.87 8.759,6.9 7.78,6.9 7.78,7.87 6.81,7.87 6.81,8.84 5.85,8.84 5.85,7.87 
	5.85,6.9 4.879,6.9 4.879,7.87 4.879,8.84 3.91,8.84 3.91,7.87 3.91,6.9 2.94,6.9 2.94,7.87 1.969,7.87 1.969,8.84 1.969,9.81 
	1,9.81 1,10.77 1,11.74 1.969,11.74 2.94,11.74 2.94,12.72 3.91,12.72 3.91,13.69 2.94,13.69 2.94,14.66 1.969,14.66 1.969,15.629 
	2.94,15.629 3.91,15.629 4.879,15.629 5.85,15.629 6.81,15.629 7.78,15.629 8.759,15.629 8.759,14.66 8.759,13.69 7.78,13.69 
	7.78,12.72 8.759,12.72 8.759,11.74 9.73,11.74 9.73,10.77 9.73,9.81 9.73,8.84 "/>
<polygon fill="#C7B570" points="6.81,2.05 6.81,3.02 5.85,3.02 5.85,3.99 5.855,3.99 5.855,4.96 5.85,4.96 5.85,3.99 4.879,3.99 
	4.879,4.96 4.879,5.93 4.884,5.93 4.884,6.9 4.885,6.9 4.885,7.78 5.845,7.78 5.845,6.9 5.855,6.9 5.855,5.93 6.81,5.93 7.78,5.93 
	7.78,4.96 7.78,3.99 7.78,3.02 7.78,2.05 "/>
<g>
	<polygon fill="#B3B3B3" points="5.845,8.76 5.845,7.78 4.885,7.78 4.885,8.76 4.885,9.73 5.845,9.73 	"/>
	<polygon fill="#B3B3B3" points="1.965,1.95 1.965,2.92 2.935,2.92 3.905,2.92 3.905,1.95 2.935,1.95 	"/>
	<polygon fill="#B3B3B3" points="10.714,0 9.745,0 9.745,0.98 10.714,0.98 11.695,0.98 11.695,0 	"/>
	<polygon fill="#B3B3B3" points="7.794,0.98 7.794,0 6.825,0 5.845,0 5.845,0.98 4.885,0.98 3.905,0.98 3.905,1.95 4.885,1.95 
		5.845,1.95 6.825,1.95 7.794,1.95 8.765,1.95 9.745,1.95 9.745,0.98 8.765,0.98 	"/>
	<polygon fill="#B3B3B3" points="8.765,13.63 8.765,14.59 8.765,15.57 9.745,15.57 9.745,14.59 9.745,13.63 9.745,12.65 
		8.765,12.65 	"/>
	<polygon fill="#B3B3B3" points="0.985,13.63 0.985,14.59 0.985,15.57 1.965,15.57 1.965,14.59 1.965,13.63 1.965,12.65 
		0.985,12.65 	"/>
	<polygon fill="#B3B3B3" points="7.794,16.55 6.825,16.55 6.825,15.57 5.845,15.57 5.845,14.59 5.845,13.63 5.845,12.65 
		5.845,11.68 5.845,10.71 4.885,10.71 4.885,11.68 4.885,12.65 4.885,13.63 4.885,14.59 4.885,15.57 3.905,15.57 3.905,16.55 
		2.935,16.55 2.935,17.51 2.935,18.49 2.935,19.459 2.935,20.44 2.935,21.4 2.935,22.379 2.935,23.36 2.935,24.32 2.935,25.3 
		2.935,26.27 2.935,27.24 2.935,28.22 3.905,28.22 3.905,27.24 3.905,26.27 3.905,25.3 3.905,24.32 3.905,23.36 3.905,22.379 
		3.905,21.4 3.905,20.44 4.885,20.44 4.885,19.459 5.845,19.459 6.825,19.459 6.825,20.44 7.794,20.44 7.794,21.4 7.794,22.379 
		7.794,23.36 7.794,24.32 7.794,25.3 7.794,26.27 7.794,27.24 7.794,28.22 8.765,28.22 8.765,27.24 8.765,26.27 8.765,25.3 
		8.765,24.32 8.765,23.36 8.765,22.379 8.765,21.4 8.765,20.44 8.765,19.459 8.765,18.49 8.765,17.51 7.794,17.51 	"/>
</g>
<g>
	<polygon fill="#8C8C8C" points="2.935,21.4 1.965,21.4 1.965,20.44 0.985,20.44 0.985,21.4 0.985,22.379 0.015,22.379 0.015,23.36 
		0.985,23.36 1.965,23.36 1.965,22.379 2.935,22.379 	"/>
	<polygon fill="#8C8C8C" points="4.885,19.459 4.885,20.44 3.905,20.44 3.905,21.4 4.885,21.4 5.845,21.4 5.845,20.44 6.825,20.44 
		6.825,19.459 5.845,19.459 	"/>
	<polygon fill="#8C8C8C" points="8.765,8.76 8.765,7.78 8.765,6.82 7.794,6.82 7.794,7.78 6.825,7.78 6.825,8.76 5.845,8.76 
		5.845,9.73 4.885,9.73 4.885,8.76 3.905,8.76 3.905,7.78 3.905,6.82 2.935,6.82 2.935,7.78 1.965,7.78 1.965,8.76 1.965,9.73 
		0.985,9.73 0.985,10.71 0.985,11.68 0.985,12.65 1.965,12.65 1.965,11.68 2.935,11.68 2.935,12.65 3.905,12.65 3.905,13.63 
		2.935,13.63 2.935,14.59 1.965,14.59 1.965,15.57 1.965,16.55 1.965,17.51 2.935,17.51 2.935,16.55 3.905,16.55 3.905,15.57 
		4.885,15.57 4.885,14.59 4.885,13.63 4.885,12.65 4.885,11.68 4.885,10.71 5.845,10.71 5.845,11.68 5.845,12.65 5.845,13.63 
		5.845,14.59 5.845,15.57 6.825,15.57 6.825,16.55 7.794,16.55 7.794,17.51 8.765,17.51 8.765,16.55 8.765,15.57 8.765,14.59 
		8.765,13.63 7.794,13.63 7.794,12.65 8.765,12.65 9.745,12.65 9.745,11.68 9.745,10.71 9.745,9.73 9.745,8.76 	"/>
	<polygon fill="#8C8C8C" points="2.935,29.19 2.935,30.169 2.935,31.14 2.935,32.11 3.905,32.11 3.905,31.14 3.905,30.169 
		3.905,29.19 3.905,28.22 2.935,28.22 	"/>
	<polygon fill="#8C8C8C" points="7.794,29.19 7.794,30.169 7.794,31.14 7.794,32.11 8.765,32.11 8.765,31.14 8.765,30.169 
		8.765,29.19 8.765,28.22 7.794,28.22 	"/>
</g>
<g>
	<polygon fill="#4D4D4D" points="8.75,20.44 7.78,20.44 6.81,20.44 5.839,20.44 4.86,20.44 3.89,20.44 3.89,19.47 3.89,18.491 
		2.92,18.491 2.92,19.47 2.92,20.44 2.92,21.42 2.92,22.38 2.92,23.36 3.89,23.36 3.89,22.38 3.89,21.42 4.86,21.42 5.839,21.42 
		6.81,21.42 7.78,21.42 8.75,21.42 9.73,21.42 9.73,20.44 	"/>
	<polygon fill="#4D4D4D" points="0,20.44 0,21.42 0.97,21.42 1.94,21.42 1.94,20.44 0.97,20.44 	"/>
</g>
</svg>
