<?xml version="1.0" encoding="utf-8"?>
<!-- Generator: Adobe Illustrator 16.0.0, SVG Export Plug-In . SVG Version: 6.00 Build 0)  -->
<!DOCTYPE svg PUBLIC "-//W3C//DTD SVG 1.1//EN" "http://www.w3.org/Graphics/SVG/1.1/DTD/svg11.dtd">
<svg version="1.1" id="Layer_3" xmlns="http://www.w3.org/2000/svg" xmlns:xlink="http://www.w3.org/1999/xlink" x="0px" y="0px"
	 width="12.639px" height="34.06px" viewBox="0 0 12.639 34.06" enable-background="new 0 0 12.639 34.06" xml:space="preserve">
<polygon fill="#737144" points="9.729,18.49 9.729,17.52 8.76,17.52 7.78,17.52 6.81,17.52 5.83,17.52 4.87,17.52 3.89,17.52 
	2.91,17.52 2.91,18.49 2.91,19.46 2.91,20.44 2.91,21.41 3.89,21.41 3.89,22.39 3.89,23.35 3.89,24.33 3.89,25.31 3.89,26.27 
	3.89,27.25 3.89,28.22 3.89,29.19 3.89,30.17 3.89,31.14 3.89,32.12 3.89,33.08 4.87,33.08 4.87,32.12 4.87,31.14 4.87,30.17 
	4.87,29.19 4.87,28.22 4.87,27.25 4.87,26.27 4.87,25.31 4.87,24.33 4.87,23.35 4.87,22.39 4.87,21.41 5.83,21.41 5.83,20.44 
	6.81,20.44 7.78,20.44 7.78,21.41 8.76,21.41 8.76,22.39 8.76,23.35 8.76,24.33 8.76,25.31 8.76,26.27 8.76,27.25 8.76,28.22 
	8.76,29.19 8.76,30.17 8.76,31.14 8.76,32.12 8.76,33.08 9.729,33.08 9.729,32.12 9.729,31.14 9.729,30.17 9.729,29.19 9.729,28.22 
	9.729,27.25 9.729,26.27 9.729,25.31 9.729,24.33 9.729,23.35 9.729,22.39 9.729,21.41 10.7,21.41 10.7,20.44 10.7,19.46 
	10.7,18.49 "/>
<g>
	<rect x="3.89" y="33.08" fill="#C7B570" width="0.98" height="0.98"/>
	<rect x="8.76" y="33.08" fill="#C7B570" width="0.969" height="0.98"/>
	<polygon fill="#C7B570" points="10.7,11.68 10.7,12.66 10.7,13.63 10.7,14.6 10.7,15.58 10.7,16.54 10.7,17.52 10.7,18.49 
		10.7,19.46 10.7,20.44 10.7,21.41 10.7,22.39 10.7,23.35 11.68,23.35 11.68,22.39 11.68,21.41 11.68,20.44 11.68,19.46 
		11.68,18.49 11.68,17.52 11.68,16.54 11.68,15.58 11.68,14.6 11.68,13.63 11.68,12.66 11.68,11.68 	"/>
	<polygon fill="#C7B570" points="8.76,1.95 7.78,1.95 6.81,1.95 5.83,1.95 5.83,2.93 5.83,3.9 5.83,4.87 5.83,5.85 5.83,6.81 
		6.81,6.81 7.78,6.81 8.76,6.81 8.76,5.85 9.729,5.85 9.729,4.87 9.729,3.9 9.729,2.93 8.76,2.93 	"/>
	<polygon fill="#C7B570" points="1.95,16.54 1.95,15.58 1.95,14.6 1.95,13.63 1.95,12.66 1.95,11.68 0.97,11.68 0.97,12.66 
		0.97,13.63 0.97,14.6 0.97,15.58 0.97,16.54 0.97,17.52 0.97,18.49 1.95,18.49 1.95,19.46 1.95,20.44 1.95,21.41 1.95,22.39 
		1.95,23.35 2.91,23.35 2.91,22.39 2.91,21.41 2.91,20.44 2.91,19.46 2.91,18.49 2.91,17.52 1.95,17.52 	"/>
</g>
<polygon fill="#9C8F57" points="10.7,7.79 10.7,8.77 9.729,8.77 9.729,9.73 8.76,9.73 8.76,8.77 8.76,7.79 8.76,6.81 7.78,6.81 
	6.81,6.81 5.83,6.81 5.83,7.79 5.83,8.77 5.83,9.73 5.83,10.71 4.87,10.71 4.87,9.73 4.87,8.77 3.89,8.77 3.89,7.79 2.91,7.79 
	1.95,7.79 1.95,8.77 0.97,8.77 0.97,9.73 0.97,10.71 0.97,11.68 1.95,11.68 1.95,10.71 2.91,10.71 2.91,11.68 2.91,12.66 
	3.89,12.66 3.89,13.63 3.89,14.6 3.89,15.58 3.89,16.54 2.91,16.54 2.91,17.52 3.89,17.52 4.87,17.52 5.83,17.52 6.81,17.52 
	7.78,17.52 8.76,17.52 9.729,17.52 9.729,18.49 10.7,18.49 10.7,17.52 10.7,16.54 9.729,16.54 9.729,15.58 9.729,14.6 9.729,13.63 
	9.729,12.66 10.7,12.66 10.7,11.68 11.68,11.68 11.68,10.71 11.68,9.73 11.68,8.77 11.68,7.79 "/>
<g>
	<rect x="9.729" y="2.93" fill="#6D5217" width="0.971" height="0.97"/>
	<polygon fill="#6D5217" points="9.729,5.85 8.76,5.85 8.76,6.81 8.76,7.79 8.76,8.77 8.76,9.73 9.729,9.73 9.729,8.77 10.7,8.77 
		10.7,7.79 10.7,6.81 9.729,6.81 	"/>
	<polygon fill="#6D5217" points="9.729,0.98 8.76,0.98 8.76,0 7.78,0 6.81,0 5.83,0 5.83,0.98 4.87,0.98 4.87,1.95 4.87,2.93 
		4.865,2.93 4.865,1.95 3.895,1.95 3.895,2.93 3.89,2.93 3.89,3.9 3.89,4.87 3.89,5.85 2.91,5.85 2.91,6.81 1.95,6.81 1.95,7.79 
		2.91,7.79 3.89,7.79 3.89,8.77 4.87,8.77 4.87,9.73 4.87,10.71 5.83,10.71 5.83,9.73 5.83,8.77 5.83,7.79 5.83,6.81 5.83,5.85 
		5.83,4.87 5.83,3.9 5.83,2.93 5.83,1.95 6.81,1.95 7.78,1.95 8.76,1.95 8.76,2.93 9.729,2.93 9.729,1.95 	"/>
</g>
<rect x="7.785" y="6.81" fill="#C7B570" width="0.97" height="0.98"/>
<rect x="6.805" y="7.79" fill="#C7B570" width="0.98" height="0.98"/>
<rect x="6.805" y="6.81" fill="#C7B570" width="0.98" height="0.98"/>
<rect x="5.845" y="6.81" fill="#C7B570" width="0.96" height="0.98"/>
<g>
	<polygon fill="#8C8C8C" points="10.705,7.79 10.705,8.77 9.725,8.77 9.725,9.73 8.754,9.73 8.754,8.77 8.754,7.79 7.785,7.79 
		7.785,8.77 7.785,9.73 7.785,10.71 7.785,11.68 6.805,11.68 6.805,10.71 6.805,9.73 6.805,8.77 6.805,7.79 5.845,7.79 5.845,8.77 
		5.845,9.73 5.845,10.71 4.865,10.71 4.865,9.73 4.865,8.77 3.895,8.77 3.895,7.79 2.925,7.79 1.945,7.79 1.945,8.77 0.975,8.77 
		0.975,9.73 0.975,10.71 0.975,11.68 0.975,12.66 0.975,13.63 0.975,14.6 1.945,14.6 1.945,13.63 1.945,12.66 1.945,11.68 
		1.945,10.71 2.925,10.71 2.925,11.68 2.925,12.66 3.895,12.66 3.895,13.63 3.895,14.6 3.895,15.58 3.895,16.54 2.925,16.54 
		2.925,17.52 2.925,18.49 2.925,19.46 2.925,20.44 3.895,20.44 3.895,19.46 4.865,19.46 4.865,18.49 5.845,18.49 5.845,17.52 
		6.805,17.52 6.805,16.54 6.805,15.58 6.805,14.6 6.805,13.63 6.805,12.66 7.785,12.66 7.785,13.63 7.785,14.6 7.785,15.58 
		7.785,16.54 7.785,17.52 8.754,17.52 8.754,18.49 9.725,18.49 9.725,19.46 10.705,19.46 10.705,18.49 10.705,17.52 10.705,16.54 
		9.725,16.54 9.725,15.58 9.725,14.6 9.725,13.63 9.725,12.66 10.705,12.66 10.705,13.63 10.705,14.6 11.674,14.6 11.674,13.63 
		11.674,12.66 11.674,11.68 11.674,10.71 11.674,9.73 11.674,8.77 11.674,7.79 	"/>
	<rect x="9.725" y="21.41" fill="#8C8C8C" width="0.979" height="0.98"/>
	<polygon fill="#8C8C8C" points="8.754,31.14 8.754,32.12 8.754,33.08 8.754,34.06 9.725,34.06 9.725,33.08 9.725,32.12 
		9.725,31.14 9.725,30.17 8.754,30.17 	"/>
	<polygon fill="#8C8C8C" points="8.754,22.39 8.754,21.41 7.785,21.41 7.785,20.44 6.805,20.44 5.845,20.44 5.845,21.41 
		4.865,21.41 4.865,22.39 4.865,23.35 4.865,24.33 5.845,24.33 6.805,24.33 6.805,23.35 7.785,23.35 8.754,23.35 	"/>
	<polygon fill="#8C8C8C" points="3.895,31.14 3.895,32.12 3.895,33.08 3.895,34.06 4.865,34.06 4.865,33.08 4.865,32.12 
		4.865,31.14 4.865,30.17 3.895,30.17 	"/>
	<polygon fill="#8C8C8C" points="3.895,23.35 3.895,22.39 3.895,21.41 2.925,21.41 2.925,22.39 2.925,23.35 1.945,23.35 
		1.945,24.33 0.975,24.33 0.975,25.31 1.945,25.31 2.925,25.31 2.925,24.33 3.895,24.33 	"/>
</g>
<g>
	<polygon fill="#B3B3B3" points="10.705,15.58 10.705,16.54 10.705,17.52 11.674,17.52 11.674,16.54 11.674,15.58 11.674,14.6 
		10.705,14.6 	"/>
	<polygon fill="#B3B3B3" points="9.725,18.49 8.754,18.49 8.754,17.52 7.785,17.52 7.785,16.54 7.785,15.58 7.785,14.6 7.785,13.63 
		7.785,12.66 6.805,12.66 6.805,13.63 6.805,14.6 6.805,15.58 6.805,16.54 6.805,17.52 5.845,17.52 5.845,18.49 4.865,18.49 
		4.865,19.46 3.895,19.46 3.895,20.44 2.925,20.44 2.925,21.41 3.895,21.41 3.895,22.39 3.895,23.35 3.895,24.33 3.895,25.31 
		3.895,26.27 3.895,27.25 3.895,28.22 3.895,29.19 3.895,30.17 4.865,30.17 4.865,29.19 4.865,28.22 4.865,27.25 4.865,26.27 
		4.865,25.31 4.865,24.33 4.865,23.35 4.865,22.39 4.865,21.41 5.845,21.41 5.845,20.44 6.805,20.44 7.785,20.44 7.785,21.41 
		8.754,21.41 8.754,22.39 8.754,23.35 8.754,24.33 8.754,25.31 8.754,26.27 8.754,27.25 8.754,28.22 8.754,29.19 8.754,30.17 
		9.725,30.17 9.725,29.19 9.725,28.22 9.725,27.25 9.725,26.27 9.725,25.31 9.725,24.33 9.725,23.35 9.725,22.39 9.725,21.41 
		10.705,21.41 10.705,20.44 10.705,19.46 9.725,19.46 	"/>
	<polygon fill="#B3B3B3" points="7.785,10.71 7.785,9.73 7.785,8.77 6.805,8.77 6.805,9.73 6.805,10.71 6.805,11.68 7.785,11.68 	
		"/>
	<polygon fill="#B3B3B3" points="0.975,15.58 0.975,16.54 0.975,17.52 1.945,17.52 1.945,16.54 1.945,15.58 1.945,14.6 0.975,14.6 	
		"/>
	<polygon fill="#B3B3B3" points="1.939,1.94 1.939,2.911 2.91,2.911 3.879,2.911 3.879,1.94 2.91,1.94 	"/>
	<polygon fill="#B3B3B3" points="11.669,0 10.69,0 10.69,0.96 11.669,0.96 12.639,0.96 12.639,0 	"/>
	<polygon fill="#B3B3B3" points="8.75,0.96 8.75,0 7.769,0 6.799,0 5.83,0 5.83,0.96 4.859,0.96 3.879,0.96 3.879,1.94 4.859,1.94 
		5.83,1.94 6.799,1.94 7.769,1.94 8.75,1.94 9.719,1.94 10.69,1.94 10.69,0.96 9.719,0.96 	"/>
</g>
<g>
	<polygon fill="#4D4D4D" points="8.75,22.389 7.78,22.389 6.81,22.389 5.839,22.389 4.86,22.389 3.89,22.389 3.89,21.419 
		3.89,20.44 2.92,20.44 2.92,21.419 2.92,22.389 2.92,23.37 2.92,24.33 2.92,25.309 3.89,25.309 3.89,24.33 3.89,23.37 4.86,23.37 
		5.839,23.37 6.81,23.37 7.78,23.37 8.75,23.37 9.73,23.37 9.73,22.389 	"/>
	<polygon fill="#4D4D4D" points="0,22.389 0,23.37 0.97,23.37 1.94,23.37 1.94,22.389 0.97,22.389 	"/>
</g>
</svg>
