<?xml version="1.0" encoding="utf-8"?>
<!-- Generator: Adobe Illustrator 16.0.0, SVG Export Plug-In . SVG Version: 6.00 Build 0)  -->
<!DOCTYPE svg PUBLIC "-//W3C//DTD SVG 1.1//EN" "http://www.w3.org/Graphics/SVG/1.1/DTD/svg11.dtd">
<svg version="1.1" id="Layer_2" xmlns="http://www.w3.org/2000/svg" xmlns:xlink="http://www.w3.org/1999/xlink" x="0px" y="0px"
	 width="16.535px" height="23.35px" viewBox="0 0 16.535 23.35" enable-background="new 0 0 16.535 23.35" xml:space="preserve">
<polygon fill="#6D5217" points="8.755,5.9 8.755,4.93 8.755,3.96 7.785,3.96 6.814,3.96 6.814,2.98 5.835,2.98 5.835,2.01 
	6.814,2.01 7.785,2.01 8.755,2.01 8.755,1.05 7.785,1.05 7.785,0.081 6.814,0.081 5.835,0.081 4.865,0.081 3.905,0.081 3.905,1.05 
	2.935,1.05 2.935,2.01 2.935,2.98 2.935,3.96 2.935,4.93 2.935,5.9 3.905,5.9 3.905,4.93 4.865,4.93 4.865,3.96 5.835,3.96 
	5.835,4.93 6.814,4.93 6.814,5.9 7.785,5.9 7.785,6.87 8.755,6.87 8.755,7.831 8.755,8.8 9.725,8.8 9.725,7.831 9.725,6.87 
	9.725,5.9 "/>
<polygon fill="#737144" points="8.755,13.65 7.785,13.65 6.814,13.65 5.835,13.65 4.865,13.65 3.905,13.65 2.935,13.65 1.965,13.65 
	1.965,14.62 1.965,15.59 1.965,16.56 1.965,17.53 1.965,18.5 1.965,19.47 1.965,20.44 1.965,21.41 1.965,22.38 2.935,22.38 
	2.935,21.41 2.935,20.44 2.935,19.47 2.935,18.5 2.935,17.53 2.935,16.56 2.935,15.59 3.905,15.59 4.865,15.59 5.835,15.59 
	6.814,15.59 7.785,15.59 8.755,15.59 8.755,16.56 8.755,17.53 8.755,18.5 8.755,19.47 8.755,20.44 8.755,21.41 8.755,22.38 
	9.725,22.38 9.725,21.41 9.725,20.44 9.725,19.47 9.725,18.5 9.725,17.53 9.725,16.56 9.725,15.59 9.725,14.62 9.725,13.65 "/>
<polygon fill="#C7B570" points="10.685,16.56 10.685,17.53 10.685,18.5 11.655,18.5 11.655,17.53 11.655,16.56 "/>
<polygon fill="#C7B570" points="10.685,14.62 10.685,13.65 9.725,13.65 9.725,14.62 9.725,15.59 9.725,16.56 10.685,16.56 
	10.685,15.59 "/>
<polygon fill="#C7B570" points="0.995,17.53 0.995,18.5 1.965,18.5 1.965,17.53 1.965,16.56 1.965,15.59 1.965,14.62 0.995,14.62 
	0.995,13.65 0.024,13.65 0.024,14.62 0.024,15.59 0.995,15.59 0.995,16.56 "/>
<rect x="8.755" y="22.38" fill="#C7B570" width="0.97" height="0.97"/>
<polygon fill="#C7B570" points="8.755,2.98 8.755,2.01 7.785,2.01 6.814,2.01 5.835,2.01 5.835,2.98 6.814,2.98 6.814,3.96 
	7.785,3.96 8.755,3.96 "/>
<rect x="1.965" y="22.38" fill="#C7B570" width="0.97" height="0.97"/>
<polygon fill="#9C8F57" points="9.725,6.87 9.725,7.831 9.725,8.8 8.755,8.8 8.755,7.831 8.755,6.87 7.785,6.87 7.785,5.9 
	6.814,5.9 5.835,5.9 4.865,5.9 3.905,5.9 2.935,5.9 1.965,5.9 1.965,6.87 0.995,6.87 0.995,7.831 0.024,7.831 0.024,8.8 0.024,9.77 
	0.024,10.74 0.024,11.72 0.024,12.69 0.024,13.65 0.995,13.65 0.995,12.69 0.995,11.72 0.995,10.74 1.965,10.74 1.965,11.72 
	1.965,12.69 1.965,13.65 2.935,13.65 3.905,13.65 4.865,13.65 5.835,13.65 6.814,13.65 7.785,13.65 8.755,13.65 9.725,13.65 
	10.685,13.65 10.685,12.69 10.685,11.72 10.685,10.74 10.685,9.77 10.685,8.8 10.685,7.831 10.685,6.87 "/>
<polygon fill="#C7B570" points="6.814,5.83 6.814,4.93 5.835,4.93 5.835,3.96 4.865,3.96 4.865,4.93 3.905,4.93 3.905,5.9 
	4.865,5.9 4.87,5.9 4.87,6.81 5.84,6.81 5.84,7.78 6.81,7.78 6.81,6.81 7.79,6.81 7.79,5.83 "/>
<g>
	<polygon fill="#B3B3B3" points="10.71,0 9.729,0 8.76,0 8.76,0.97 7.79,0.97 7.79,0 6.81,0 5.84,0 4.87,0 3.9,0 3.9,0.97 
		2.92,0.97 1.95,0.97 1.95,1.95 0.98,1.95 0,1.95 0,2.92 0.98,2.92 1.95,2.92 2.92,2.92 2.92,1.95 3.9,1.95 4.87,1.95 5.84,1.95 
		6.81,1.95 7.79,1.95 8.76,1.95 9.729,1.95 9.729,0.97 10.71,0.97 11.68,0.97 11.68,0 	"/>
	<polygon fill="#B3B3B3" points="9.729,12.64 9.729,13.62 9.729,14.6 10.71,14.6 10.71,13.62 10.71,12.64 10.71,11.68 9.729,11.68 	
		"/>
	<polygon fill="#B3B3B3" points="8.76,16.541 8.76,17.51 8.76,18.48 8.76,19.46 9.729,19.46 9.729,18.48 9.729,17.51 9.729,16.541 
		9.729,15.56 8.76,15.56 	"/>
	<polygon fill="#B3B3B3" points="6.81,13.62 6.81,12.64 6.81,11.68 6.81,10.7 6.81,9.73 6.81,8.75 6.81,7.78 5.84,7.78 5.84,8.75 
		5.84,9.73 5.84,10.7 5.84,11.68 5.84,12.64 5.84,13.62 4.87,13.62 4.87,14.6 3.9,14.6 3.9,15.56 4.87,15.56 5.84,15.56 6.81,15.56 
		7.79,15.56 7.79,14.6 6.81,14.6 	"/>
	<polygon fill="#B3B3B3" points="1.95,16.541 1.95,17.51 1.95,18.48 1.95,19.46 2.92,19.46 2.92,18.48 2.92,17.51 2.92,16.541 
		2.92,15.56 1.95,15.56 	"/>
	<polygon fill="#B3B3B3" points="0,12.64 0,13.62 0,14.6 0.98,14.6 0.98,13.62 0.98,12.64 0.98,11.68 0,11.68 	"/>
</g>
<g>
	<polygon fill="#8C8C8C" points="9.729,6.81 9.729,7.78 9.729,8.75 8.76,8.75 8.76,7.78 8.76,6.81 7.79,6.81 6.81,6.81 6.81,7.78 
		6.81,8.75 6.81,9.73 6.81,10.7 6.81,11.68 6.81,12.64 6.81,13.62 6.81,14.6 7.79,14.6 7.79,15.56 6.81,15.56 5.84,15.56 
		4.87,15.56 3.9,15.56 3.9,14.6 4.87,14.6 4.87,13.62 5.84,13.62 5.84,12.64 5.84,11.68 5.84,10.7 5.84,9.73 5.84,8.75 5.84,7.78 
		5.84,6.81 4.87,6.81 4.87,5.83 3.9,5.83 2.92,5.83 1.95,5.83 1.95,6.81 0.98,6.81 0.98,7.78 0,7.78 0,8.75 0,9.73 0,10.7 0,11.68 
		0.98,11.68 0.98,10.7 1.95,10.7 1.95,11.68 1.95,12.64 1.95,13.62 1.95,14.6 1.95,15.56 2.92,15.56 2.92,16.541 2.92,17.51 
		2.92,18.48 3.9,18.48 4.87,18.48 5.84,18.48 5.84,17.51 6.81,17.51 7.79,17.51 8.76,17.51 8.76,16.541 8.76,15.56 9.729,15.56 
		9.729,14.6 9.729,13.62 9.729,12.64 9.729,11.68 10.71,11.68 10.71,10.7 10.71,9.73 10.71,8.75 10.71,7.78 10.71,6.81 	"/>
	<polygon fill="#8C8C8C" points="8.76,20.43 8.76,21.41 8.76,22.37 8.76,23.35 9.729,23.35 9.729,22.37 9.729,21.41 9.729,20.43 
		9.729,19.46 8.76,19.46 	"/>
	<polygon fill="#8C8C8C" points="1.95,20.43 1.95,21.41 1.95,22.37 1.95,23.35 2.92,23.35 2.92,22.37 2.92,21.41 2.92,20.43 
		2.92,19.46 1.95,19.46 	"/>
</g>
<g>
	<polygon fill="#4D4D4D" points="16.535,18.491 16.535,17.51 15.564,17.51 14.595,17.51 13.615,17.51 12.645,17.51 11.675,17.51 
		11.675,18.491 12.645,18.491 13.615,18.491 13.615,19.45 12.645,19.45 12.645,20.43 13.615,20.43 13.615,21.411 14.595,21.411 
		15.564,21.411 15.564,20.43 16.535,20.43 16.535,19.45 15.564,19.45 15.564,18.491 	"/>
	<rect x="9.725" y="17.51" fill="#4D4D4D" width="0.971" height="0.98"/>
</g>
</svg>
