<?xml version="1.0" encoding="utf-8"?>
<!-- Generator: Adobe Illustrator 16.0.0, SVG Export Plug-In . SVG Version: 6.00 Build 0)  -->
<!DOCTYPE svg PUBLIC "-//W3C//DTD SVG 1.1//EN" "http://www.w3.org/Graphics/SVG/1.1/DTD/svg11.dtd">
<svg version="1.1" id="Layer_2" xmlns="http://www.w3.org/2000/svg" xmlns:xlink="http://www.w3.org/1999/xlink" x="0px" y="0px"
	 width="10.705px" height="32.11px" viewBox="0 0 10.705 32.11" enable-background="new 0 0 10.705 32.11" xml:space="preserve">
<g>
	<g>
		<polygon fill="#6D5217" points="7.78,1.08 6.8,1.08 5.831,1.08 4.871,1.08 4.871,2.05 3.9,2.05 3.9,3.02 4.871,3.02 4.871,3.99 
			5.831,3.99 5.831,3.02 6.8,3.02 7.78,3.02 7.78,2.05 8.75,2.05 8.75,1.08 		"/>
		<polygon fill="#6D5217" points="3.9,4.96 3.9,5.93 3.9,6.9 4.871,6.9 4.871,5.93 4.871,4.96 4.871,3.99 3.9,3.99 		"/>
	</g>
	<g>
		<rect x="2.93" y="31.14" fill="#C7B570" width="0.97" height="0.97"/>
		<rect x="6.8" y="31.14" fill="#C7B570" width="0.979" height="0.97"/>
		<rect x="3.9" y="3.02" fill="#C7B570" width="0.971" height="0.97"/>
		<polygon fill="#C7B570" points="1.96,21.45 1.96,22.41 1.96,23.379 1.96,24.35 2.93,24.35 2.93,23.379 2.93,22.41 2.93,21.45 
			2.93,20.48 2.93,19.5 1.96,19.5 1.96,20.48 		"/>
		<polygon fill="#C7B570" points="1.96,17.56 1.96,16.59 1.96,15.629 1.96,14.66 0.99,14.66 0.99,15.629 0.99,16.59 0.99,17.56 
			0.99,18.53 0.99,19.5 1.96,19.5 1.96,18.53 		"/>
		<polygon fill="#C7B570" points="7.78,18.53 7.78,19.5 7.78,20.48 7.78,21.45 7.78,22.41 7.78,23.379 7.78,24.35 8.75,24.35 
			8.75,23.379 8.75,22.41 8.75,21.45 8.75,20.48 8.75,19.5 8.75,18.53 8.75,17.56 7.78,17.56 		"/>
		<polygon fill="#C7B570" points="8.75,13.69 8.75,14.66 8.75,15.629 8.75,16.59 8.75,17.56 9.72,17.56 9.72,16.59 9.72,15.629 
			9.72,14.66 9.72,13.69 		"/>
		<polygon fill="#C7B570" points="6.8,6.9 7.78,6.9 7.78,5.93 7.78,4.96 7.78,3.99 7.78,3.02 6.8,3.02 5.831,3.02 5.831,3.99 
			4.871,3.99 4.871,4.96 4.871,5.93 4.871,6.9 4.871,7.87 5.831,7.87 6.8,7.87 		"/>
	</g>
	<g>
		<polygon fill="#9C8F57" points="0.99,13.69 0.99,14.66 1.96,14.66 1.96,13.69 1.96,12.72 0.99,12.72 		"/>
		<rect x="8.75" y="12.72" fill="#9C8F57" width="0.97" height="0.97"/>
		<polygon fill="#9C8F57" points="8.75,10.77 8.75,9.81 7.78,9.81 7.78,8.84 7.78,7.87 6.8,7.87 5.831,7.87 4.871,7.87 3.9,7.87 
			2.93,7.87 2.93,8.84 1.96,8.84 1.96,9.81 1.96,10.77 1.96,11.74 1.96,12.72 2.93,12.72 2.93,13.69 2.93,14.66 2.93,15.629 
			2.93,16.59 2.93,17.56 3.9,17.56 4.871,17.56 5.831,17.56 6.8,17.56 7.78,17.56 7.78,16.59 7.78,15.629 7.78,14.66 7.78,13.69 
			7.78,12.72 8.75,12.72 8.75,11.74 		"/>
	</g>
	<polygon fill="#737144" points="6.8,17.56 5.831,17.56 4.871,17.56 3.9,17.56 2.93,17.56 2.93,18.53 2.93,19.5 2.93,20.48 
		2.93,21.45 2.93,22.41 2.93,23.379 2.93,24.35 2.93,25.32 2.93,26.29 2.93,27.26 2.93,28.23 2.93,29.2 2.93,30.169 2.93,31.14 
		3.9,31.14 3.9,30.169 3.9,29.2 3.9,28.23 3.9,27.26 3.9,26.29 3.9,25.32 3.9,24.35 3.9,23.379 3.9,22.41 4.871,22.41 5.831,22.41 
		6.8,22.41 6.8,23.379 6.8,24.35 6.8,25.32 6.8,26.29 6.8,27.26 6.8,28.23 6.8,29.2 6.8,30.169 6.8,31.14 7.78,31.14 7.78,30.169 
		7.78,29.2 7.78,28.23 7.78,27.26 7.78,26.29 7.78,25.32 7.78,24.35 7.78,23.379 7.78,22.41 7.78,21.45 7.78,20.48 7.78,19.5 
		7.78,18.53 7.78,17.56 	"/>
</g>
<rect x="3.895" y="1.95" fill="#6D5217" width="0.98" height="0.97"/>
<rect x="4.875" y="8.76" fill="#C7B570" width="0.96" height="0.97"/>
<rect x="4.875" y="7.78" fill="#C7B570" width="0.96" height="0.98"/>
<g>
	<polygon fill="#B3B3B3" points="0.975,1.95 0.975,2.92 1.955,2.92 2.925,2.92 2.925,1.95 1.955,1.95 	"/>
	<polygon fill="#B3B3B3" points="7.785,0 6.815,0 5.835,0 4.875,0 4.875,0.98 3.895,0.98 2.925,0.98 2.925,1.95 3.895,1.95 
		4.875,1.95 5.835,1.95 6.815,1.95 7.785,1.95 8.755,1.95 8.755,0.98 7.785,0.98 	"/>
	<polygon fill="#B3B3B3" points="9.735,0 8.755,0 8.755,0.98 9.735,0.98 10.705,0.98 10.705,0 	"/>
	<polygon fill="#B3B3B3" points="8.755,14.59 8.755,15.57 8.755,16.55 9.735,16.55 9.735,15.57 9.735,14.59 9.735,13.63 
		8.755,13.63 	"/>
	<polygon fill="#B3B3B3" points="6.815,18.49 5.835,18.49 5.835,17.51 5.835,16.55 5.835,15.57 5.835,14.59 5.835,13.63 
		5.835,12.65 4.875,12.65 4.875,13.63 4.875,14.59 4.875,15.57 4.875,16.55 4.875,17.51 4.875,18.49 3.895,18.49 3.895,19.459 
		2.925,19.459 2.925,20.44 2.925,21.4 2.925,22.379 2.925,23.36 2.925,24.32 2.925,25.3 2.925,26.27 2.925,27.24 2.925,28.22 
		3.895,28.22 3.895,27.24 3.895,26.27 3.895,25.3 3.895,24.32 3.895,23.36 3.895,22.379 4.875,22.379 5.835,22.379 6.815,22.379 
		6.815,23.36 6.815,24.32 6.815,25.3 6.815,26.27 6.815,27.24 6.815,28.22 7.785,28.22 7.785,27.24 7.785,26.27 7.785,25.3 
		7.785,24.32 7.785,23.36 7.785,22.379 7.785,21.4 7.785,20.44 7.785,19.459 6.815,19.459 	"/>
	<polygon fill="#B3B3B3" points="5.835,10.71 5.835,9.73 4.875,9.73 4.875,10.71 4.875,11.68 5.835,11.68 	"/>
	<polygon fill="#B3B3B3" points="0.975,14.59 0.975,15.57 0.975,16.55 1.955,16.55 1.955,15.57 1.955,14.59 1.955,13.63 
		0.975,13.63 	"/>
</g>
<g>
	<rect x="8.755" y="12.65" fill="#8C8C8C" width="0.979" height="0.98"/>
	<polygon fill="#8C8C8C" points="8.755,10.71 8.755,9.73 7.785,9.73 7.785,8.76 7.785,7.78 6.815,7.78 5.835,7.78 5.835,8.76 
		5.835,9.73 5.835,10.71 5.835,11.68 4.875,11.68 4.875,10.71 4.875,9.73 4.875,8.76 4.875,7.78 3.895,7.78 2.925,7.78 2.925,8.76 
		1.955,8.76 1.955,9.73 1.955,10.71 1.955,11.68 1.955,12.65 2.925,12.65 2.925,13.63 2.925,14.59 2.925,15.57 2.925,16.55 
		2.925,17.51 2.925,18.49 2.925,19.459 3.895,19.459 3.895,18.49 4.875,18.49 4.875,17.51 4.875,16.55 4.875,15.57 4.875,14.59 
		4.875,13.63 4.875,12.65 5.835,12.65 5.835,13.63 5.835,14.59 5.835,15.57 5.835,16.55 5.835,17.51 5.835,18.49 6.815,18.49 
		6.815,19.459 7.785,19.459 7.785,18.49 7.785,17.51 7.785,16.55 7.785,15.57 7.785,14.59 7.785,13.63 7.785,12.65 8.755,12.65 
		8.755,11.68 	"/>
	<polygon fill="#8C8C8C" points="6.815,29.19 6.815,30.169 6.815,31.14 6.815,32.11 7.785,32.11 7.785,31.14 7.785,30.169 
		7.785,29.19 7.785,28.22 6.815,28.22 	"/>
	<polygon fill="#8C8C8C" points="3.895,22.379 3.895,23.36 4.875,23.36 5.835,23.36 5.835,22.379 4.875,22.379 	"/>
	<polygon fill="#8C8C8C" points="2.925,29.19 2.925,30.169 2.925,31.14 2.925,32.11 3.895,32.11 3.895,31.14 3.895,30.169 
		3.895,29.19 3.895,28.22 2.925,28.22 	"/>
	<rect x="0.975" y="12.65" fill="#8C8C8C" width="0.98" height="0.98"/>
</g>
<g>
	<polygon fill="#4D4D4D" points="8.75,23.334 7.78,23.334 6.81,23.334 5.839,23.334 4.86,23.334 3.89,23.334 3.89,22.365 
		3.89,21.385 2.919,21.385 2.919,22.365 2.919,23.334 2.919,24.315 2.919,25.275 2.919,26.254 3.89,26.254 3.89,25.275 3.89,24.315 
		4.86,24.315 5.839,24.315 6.81,24.315 7.78,24.315 8.75,24.315 9.73,24.315 9.73,23.334 	"/>
	<polygon fill="#4D4D4D" points="0,23.334 0,24.315 0.97,24.315 1.94,24.315 1.94,23.334 0.97,23.334 	"/>
</g>
</svg>
