<?xml version="1.0" encoding="utf-8"?>
<!-- Generator: Adobe Illustrator 16.0.0, SVG Export Plug-In . SVG Version: 6.00 Build 0)  -->
<!DOCTYPE svg PUBLIC "-//W3C//DTD SVG 1.1//EN" "http://www.w3.org/Graphics/SVG/1.1/DTD/svg11.dtd">
<svg version="1.1" id="Layer_2" xmlns="http://www.w3.org/2000/svg" xmlns:xlink="http://www.w3.org/1999/xlink" x="0px" y="0px"
	 width="9.73px" height="32.11px" viewBox="0 0 9.73 32.11" enable-background="new 0 0 9.73 32.11" xml:space="preserve">
<rect x="7.77" y="21.45" fill="#999999" width="0.97" height="0.96"/>
<polygon fill="#999999" points="7.77,9.81 7.77,10.77 7.77,11.74 8.74,11.74 8.74,10.77 8.74,9.81 "/>
<rect x="6.799" y="31.14" fill="#999999" width="0.971" height="0.97"/>
<polygon fill="#999999" points="6.799,18.53 6.799,19.5 6.799,20.48 7.77,20.48 7.77,19.5 7.77,18.53 "/>
<polygon fill="#999999" points="4.85,6.9 3.89,6.9 3.89,7.87 4.85,7.87 5.82,7.87 5.82,6.9 "/>
<polygon fill="#999999" points="4.85,0.11 3.89,0.11 3.89,1.08 3.89,2.05 4.85,2.05 4.85,1.08 5.82,1.08 5.82,0.11 "/>
<polygon fill="#999999" points="5.82,16.59 4.85,16.59 3.89,16.59 2.92,16.59 2.92,17.56 3.89,17.56 4.85,17.56 5.82,17.56 
	6.799,17.56 6.799,16.59 "/>
<rect x="1.95" y="31.14" fill="#999999" width="0.97" height="0.97"/>
<polygon fill="#999999" points="1.95,18.53 1.95,19.5 1.95,20.48 2.92,20.48 2.92,19.5 2.92,18.53 "/>
<rect x="0.98" y="21.45" fill="#999999" width="0.97" height="0.96"/>
<polygon fill="#999999" points="0.98,8.84 0.98,9.81 0.98,10.77 0.98,11.74 1.95,11.74 1.95,10.77 1.95,9.81 1.95,8.84 "/>
<g>
	<polygon fill="#CCCCCC" points="8.74,11.74 8.74,12.72 8.74,13.69 8.74,14.66 8.74,15.629 9.709,15.629 9.709,14.66 9.709,13.69 
		9.709,12.72 9.709,11.74 	"/>
	<polygon fill="#CCCCCC" points="5.82,6.9 6.799,6.9 6.799,5.93 6.799,4.96 6.799,3.99 6.799,3.02 6.799,2.05 6.799,1.08 
		6.799,0.11 5.82,0.11 5.82,1.08 4.85,1.08 4.85,2.05 3.89,2.05 3.89,3.02 3.89,3.99 3.89,4.96 3.89,5.93 3.89,6.9 4.85,6.9 	"/>
	<polygon fill="#CCCCCC" points="7.77,14.66 7.77,13.69 7.77,12.72 7.77,11.74 7.77,10.77 7.77,9.81 7.77,8.84 7.77,7.87 
		6.799,7.87 5.82,7.87 4.85,7.87 3.89,7.87 2.92,7.87 1.95,7.87 1.95,8.84 1.95,9.81 1.95,10.77 1.95,11.74 1.95,12.72 1.95,13.69 
		1.95,14.66 1.95,15.629 1.95,16.59 2.92,16.59 3.89,16.59 4.85,16.59 5.82,16.59 6.799,16.59 7.77,16.59 7.77,17.56 6.799,17.56 
		5.82,17.56 4.85,17.56 3.89,17.56 2.92,17.56 1.95,17.56 1.95,18.53 2.92,18.53 2.92,19.5 3.89,19.5 4.85,19.5 5.82,19.5 
		6.799,19.5 6.799,18.53 7.77,18.53 7.77,19.5 7.77,20.48 6.799,20.48 6.799,21.45 6.799,22.41 6.799,23.379 6.799,24.35 
		6.799,25.32 6.799,26.29 6.799,27.26 6.799,28.23 6.799,29.2 6.799,30.169 6.799,31.14 7.77,31.14 7.77,30.169 7.77,29.2 
		7.77,28.23 7.77,27.26 7.77,26.29 7.77,25.32 7.77,24.35 7.77,23.379 7.77,22.41 7.77,21.45 8.74,21.45 8.74,20.48 8.74,19.5 
		8.74,18.53 8.74,17.56 8.74,16.59 8.74,15.629 7.77,15.629 	"/>
	<polygon fill="#CCCCCC" points="0.98,19.5 0.98,20.48 0.98,21.45 1.95,21.45 1.95,22.41 1.95,23.379 1.95,24.35 1.95,25.32 
		1.95,26.29 1.95,27.26 1.95,28.23 1.95,29.2 1.95,30.169 1.95,31.14 2.92,31.14 2.92,30.169 2.92,29.2 2.92,28.23 2.92,27.26 
		2.92,26.29 2.92,25.32 2.92,24.35 2.92,23.379 2.92,22.41 2.92,21.45 2.92,20.48 1.95,20.48 1.95,19.5 1.95,18.53 0.98,18.53 	"/>
	<polygon fill="#CCCCCC" points="0.98,16.59 0.98,15.629 0.98,14.66 0.98,13.69 0.98,12.72 0.98,11.74 0.01,11.74 0.01,12.72 
		0.01,13.69 0.01,14.66 0.01,15.629 0.01,16.59 0.01,17.56 0.01,18.53 0.98,18.53 0.98,17.56 	"/>
</g>
<g>
	<polygon fill="#8C8C8C" points="6.81,16.54 5.84,16.54 4.86,16.54 3.89,16.54 2.92,16.54 2.92,17.51 3.89,17.51 4.86,17.51 
		5.84,17.51 6.81,17.51 	"/>
	<rect x="7.78" y="15.57" fill="#8C8C8C" width="0.97" height="0.97"/>
	<rect x="8.75" y="14.59" fill="#8C8C8C" width="0.98" height="0.98"/>
	<polygon fill="#8C8C8C" points="0.98,15.57 0.98,14.59 0,14.59 0,15.57 0,16.54 0.98,16.54 	"/>
	<polygon fill="#8C8C8C" points="1.94,21.4 1.94,20.44 0.98,20.44 0.98,21.4 0.98,22.379 1.94,22.379 	"/>
	<polygon fill="#8C8C8C" points="7.78,21.4 7.78,22.379 8.75,22.379 8.75,21.4 8.75,20.44 7.78,20.44 	"/>
	<polygon fill="#8C8C8C" points="1.94,26.27 1.94,27.24 2.92,27.24 2.92,26.27 2.92,25.3 1.94,25.3 	"/>
	<polygon fill="#8C8C8C" points="6.81,26.27 6.81,27.24 7.78,27.24 7.78,26.27 7.78,25.3 6.81,25.3 	"/>
	<polygon fill="#8C8C8C" points="6.81,31.129 6.81,32.11 7.78,32.11 7.78,31.129 7.78,30.169 6.81,30.169 	"/>
	<polygon fill="#8C8C8C" points="1.94,31.129 1.94,32.11 2.92,32.11 2.92,31.129 2.92,30.169 1.94,30.169 	"/>
	<polygon fill="#8C8C8C" points="2.92,9.73 3.89,9.73 3.89,10.71 4.86,10.71 5.84,10.71 5.84,9.73 6.81,9.73 6.81,8.76 7.78,8.76 
		7.78,7.78 6.81,7.78 5.84,7.78 5.84,6.82 6.81,6.82 6.81,5.84 6.81,4.86 5.84,4.86 4.86,4.86 4.86,3.9 4.86,2.92 4.86,1.95 
		4.86,0.98 5.84,0.98 6.81,0.98 6.81,0 5.84,0 4.86,0 3.89,0 3.89,0.98 3.89,1.95 3.89,2.92 3.89,3.9 3.89,4.86 3.89,5.84 
		3.89,6.82 3.89,7.78 2.92,7.78 1.94,7.78 1.94,8.76 2.92,8.76 	"/>
</g>
<g>
	<polygon fill="#4D4D4D" points="5.84,21.41 4.869,21.41 3.9,21.41 2.92,21.41 2.92,20.44 1.96,20.44 1.96,21.41 1.96,22.39 
		1.96,23.35 2.92,23.35 2.92,22.39 3.9,22.39 4.869,22.39 5.84,22.39 6.821,22.39 6.821,21.41 	"/>
	<rect y="21.41" fill="#4D4D4D" width="0.98" height="0.98"/>
</g>
</svg>
