<?xml version="1.0" encoding="utf-8"?>
<!-- Generator: Adobe Illustrator 16.0.0, SVG Export Plug-In . SVG Version: 6.00 Build 0)  -->
<!DOCTYPE svg PUBLIC "-//W3C//DTD SVG 1.1//EN" "http://www.w3.org/Graphics/SVG/1.1/DTD/svg11.dtd">
<svg version="1.1" id="Layer_1" xmlns="http://www.w3.org/2000/svg" xmlns:xlink="http://www.w3.org/1999/xlink" x="0px" y="0px"
	 width="9.73px" height="32.11px" viewBox="0 0 9.73 32.11" enable-background="new 0 0 9.73 32.11" xml:space="preserve">
<g>
	<polygon fill="#6D5217" points="6.804,0.11 5.834,0.11 4.865,0.11 3.894,0.11 3.894,1.081 3.894,2.05 3.894,3.021 3.894,3.99 
		4.865,3.99 4.865,3.021 4.865,2.05 5.834,2.05 5.834,1.081 6.804,1.081 7.765,1.081 7.765,0.11 	"/>
	<polygon fill="#C7B570" points="6.804,1.081 5.834,1.081 5.834,2.05 4.865,2.05 4.865,3.021 4.865,3.99 3.894,3.99 3.894,4.96 
		3.894,5.93 4.865,5.93 5.834,5.93 6.804,5.93 6.804,4.96 7.765,4.96 7.765,3.99 7.765,3.021 7.765,2.05 7.765,1.081 	"/>
	<g>
		<polygon fill="#C7B570" points="7.765,15.63 7.765,16.59 7.765,17.561 7.765,18.53 7.765,19.5 7.765,20.481 7.765,21.45 
			7.765,22.411 8.735,22.411 8.735,21.45 8.735,20.481 8.735,19.5 8.735,18.53 8.735,17.561 8.735,16.59 8.735,15.63 8.735,14.66 
			7.765,14.66 		"/>
		<polygon fill="#C7B570" points="8.735,11.74 8.735,12.72 8.735,13.69 8.735,14.66 9.706,14.66 9.706,13.69 9.706,12.72 
			9.706,11.74 		"/>
	</g>
	<g>
		<polygon fill="#C7B570" points="0.985,17.561 0.985,18.53 0.985,19.5 0.985,20.481 0.985,21.45 0.985,22.411 1.945,22.411 
			1.945,21.45 1.945,20.481 1.945,19.5 1.945,18.53 1.945,17.561 		"/>
		<polygon fill="#C7B570" points="0.985,15.63 0.985,14.66 0.985,13.69 0.985,12.72 0.985,11.74 0.015,11.74 0.015,12.72 
			0.015,13.69 0.015,14.66 0.015,15.63 0.015,16.59 0.015,17.561 0.985,17.561 0.985,16.59 		"/>
	</g>
	<rect x="6.804" y="31.141" fill="#C7B570" width="0.961" height="0.969"/>
	<polygon fill="#737144" points="6.804,15.63 5.834,15.63 4.865,15.63 3.894,15.63 2.915,15.63 1.945,15.63 1.945,16.59 
		1.945,17.561 1.945,18.53 1.945,19.5 1.945,20.481 1.945,21.45 1.945,22.411 1.945,23.379 1.945,24.35 1.945,25.321 1.945,26.29 
		1.945,27.26 1.945,28.231 1.945,29.2 1.945,30.17 1.945,31.141 2.915,31.141 2.915,30.17 2.915,29.2 2.915,28.231 2.915,27.26 
		2.915,26.29 2.915,25.321 2.915,24.35 2.915,23.379 2.915,22.411 2.915,21.45 2.915,20.481 2.915,19.5 3.894,19.5 4.865,19.5 
		5.834,19.5 6.804,19.5 6.804,20.481 6.804,21.45 6.804,22.411 6.804,23.379 6.804,24.35 6.804,25.321 6.804,26.29 6.804,27.26 
		6.804,28.231 6.804,29.2 6.804,30.17 6.804,31.141 7.765,31.141 7.765,30.17 7.765,29.2 7.765,28.231 7.765,27.26 7.765,26.29 
		7.765,25.321 7.765,24.35 7.765,23.379 7.765,22.411 7.765,21.45 7.765,20.481 7.765,19.5 7.765,18.53 7.765,17.561 7.765,16.59 
		7.765,15.63 	"/>
	<g>
		<rect x="8.735" y="10.771" fill="#9C8F57" width="0.971" height="0.97"/>
		<polygon fill="#9C8F57" points="8.735,8.84 8.735,7.87 7.765,7.87 7.765,6.9 7.765,5.93 6.804,5.93 5.834,5.93 4.865,5.93 
			3.894,5.93 2.915,5.93 1.945,5.93 1.945,6.9 0.985,6.9 0.985,7.87 0.985,8.84 0.985,9.811 0.985,10.771 1.945,10.771 1.945,11.74 
			1.945,12.72 1.945,13.69 1.945,14.66 1.945,15.63 2.915,15.63 3.894,15.63 4.865,15.63 5.834,15.63 6.804,15.63 7.765,15.63 
			7.765,14.66 7.765,13.69 7.765,12.72 7.765,11.74 7.765,10.771 8.735,10.771 8.735,9.811 		"/>
		<rect x="0.015" y="10.771" fill="#9C8F57" width="0.97" height="0.97"/>
	</g>
	<rect x="1.945" y="31.141" fill="#C7B570" width="0.97" height="0.969"/>
</g>
<g>
	<polygon fill="#8C8C8C" points="7.78,21.4 7.78,22.379 8.75,22.379 8.75,21.4 8.75,20.44 7.78,20.44 	"/>
	<polygon fill="#8C8C8C" points="7.78,14.59 7.78,15.57 6.81,15.57 5.84,15.57 5.84,14.59 5.84,13.63 5.84,12.65 5.84,11.68 
		5.84,10.71 5.84,9.73 5.84,8.76 5.84,7.78 6.81,7.78 6.81,6.82 7.78,6.82 7.78,5.84 6.81,5.84 6.81,4.86 7.78,4.86 7.78,3.9 
		6.81,3.9 5.84,3.9 4.86,3.9 4.86,2.92 4.86,1.95 5.84,1.95 5.84,0.98 6.81,0.98 7.78,0.98 7.78,0 6.81,0 5.84,0 4.86,0 3.89,0 
		3.89,0.98 3.89,1.95 3.89,2.92 3.89,3.9 3.89,4.86 3.89,5.84 2.92,5.84 1.94,5.84 1.94,6.82 2.92,6.82 3.89,6.82 3.89,7.78 
		4.86,7.78 4.86,8.76 4.86,9.73 4.86,10.71 4.86,11.68 4.86,12.65 4.86,13.63 4.86,14.59 4.86,15.57 3.89,15.57 2.92,15.57 
		1.94,15.57 1.94,16.54 2.92,16.54 3.89,16.54 4.86,16.54 5.84,16.54 6.81,16.54 7.78,16.54 8.75,16.54 8.75,15.57 8.75,14.59 	"/>
	<polygon fill="#8C8C8C" points="6.81,31.129 6.81,32.11 7.78,32.11 7.78,31.129 7.78,30.169 6.81,30.169 	"/>
	<polygon fill="#8C8C8C" points="1.94,31.129 1.94,32.11 2.92,32.11 2.92,31.129 2.92,30.169 1.94,30.169 	"/>
	<polygon fill="#8C8C8C" points="1.94,21.4 1.94,20.44 0.98,20.44 0.98,21.4 0.98,22.379 1.94,22.379 	"/>
	<polygon fill="#8C8C8C" points="0.98,15.57 0.98,14.59 0,14.59 0,15.57 0,16.54 0.98,16.54 	"/>
</g>
<g>
	<polygon fill="#B3B3B3" points="8.75,10.71 8.75,11.68 8.75,12.65 8.75,13.63 8.75,14.59 9.73,14.59 9.73,13.63 9.73,12.65 
		9.73,11.68 9.73,10.71 	"/>
	<polygon fill="#B3B3B3" points="8.75,8.76 8.75,7.78 7.78,7.78 7.78,6.82 6.81,6.82 6.81,7.78 5.84,7.78 5.84,8.76 5.84,9.73 
		5.84,10.71 5.84,11.68 5.84,12.65 5.84,13.63 5.84,14.59 5.84,15.57 6.81,15.57 7.78,15.57 7.78,14.59 7.78,13.63 7.78,12.65 
		7.78,11.68 7.78,10.71 8.75,10.71 8.75,9.73 	"/>
	<polygon fill="#B3B3B3" points="6.81,16.54 5.84,16.54 4.86,16.54 3.89,16.54 2.92,16.54 1.94,16.54 1.94,17.51 0.98,17.51 
		0.98,18.49 0.98,19.459 0.98,20.44 1.94,20.44 1.94,21.4 1.94,22.379 1.94,23.36 1.94,24.32 1.94,25.3 1.94,26.27 1.94,27.24 
		1.94,28.22 1.94,29.19 1.94,30.169 2.92,30.169 2.92,29.19 2.92,28.22 2.92,27.24 2.92,26.27 2.92,25.3 2.92,24.32 2.92,23.36 
		2.92,22.379 2.92,21.4 2.92,20.44 2.92,19.459 3.89,19.459 4.86,19.459 5.84,19.459 6.81,19.459 6.81,20.44 6.81,21.4 6.81,22.379 
		6.81,23.36 6.81,24.32 6.81,25.3 6.81,26.27 6.81,27.24 6.81,28.22 6.81,29.19 6.81,30.169 7.78,30.169 7.78,29.19 7.78,28.22 
		7.78,27.24 7.78,26.27 7.78,25.3 7.78,24.32 7.78,23.36 7.78,22.379 7.78,21.4 7.78,20.44 8.75,20.44 8.75,19.459 8.75,18.49 
		8.75,17.51 8.75,16.54 7.78,16.54 	"/>
	<polygon fill="#B3B3B3" points="1.94,11.68 1.94,12.65 1.94,13.63 1.94,14.59 1.94,15.57 2.92,15.57 3.89,15.57 4.86,15.57 
		4.86,14.59 4.86,13.63 4.86,12.65 4.86,11.68 4.86,10.71 4.86,9.73 4.86,8.76 4.86,7.78 3.89,7.78 3.89,6.82 2.92,6.82 1.94,6.82 
		0.98,6.82 0.98,7.78 0.98,8.76 0.98,9.73 0.98,10.71 1.94,10.71 	"/>
	<rect y="16.54" fill="#B3B3B3" width="0.98" height="0.971"/>
	<polygon fill="#B3B3B3" points="0.98,13.63 0.98,12.65 0.98,11.68 0.98,10.71 0,10.71 0,11.68 0,12.65 0,13.63 0,14.59 0.98,14.59 
			"/>
</g>
<g>
	<polygon fill="#4D4D4D" points="5.84,21.41 4.869,21.41 3.9,21.41 2.92,21.41 2.92,20.44 1.96,20.44 1.96,21.41 1.96,22.39 
		1.96,23.35 2.92,23.35 2.92,22.39 3.9,22.39 4.869,22.39 5.84,22.39 6.821,22.39 6.821,21.41 	"/>
	<rect y="21.41" fill="#4D4D4D" width="0.98" height="0.98"/>
</g>
</svg>
