<?xml version="1.0" encoding="utf-8"?>
<!-- Generator: Adobe Illustrator 16.0.0, SVG Export Plug-In . SVG Version: 6.00 Build 0)  -->
<!DOCTYPE svg PUBLIC "-//W3C//DTD SVG 1.1//EN" "http://www.w3.org/Graphics/SVG/1.1/DTD/svg11.dtd">
<svg version="1.1" id="Layer_2" xmlns="http://www.w3.org/2000/svg" xmlns:xlink="http://www.w3.org/1999/xlink" x="0px" y="0px"
	 width="17.521px" height="34.06px" viewBox="0 0 17.521 34.06" enable-background="new 0 0 17.521 34.06" xml:space="preserve">
<g>
	<g>
		<polygon fill="#C7B570" points="1.95,16.54 0.98,16.54 0.98,17.52 0.98,18.49 1.95,18.49 1.95,19.46 1.95,20.44 1.95,21.41 
			1.95,22.39 1.95,23.35 2.93,23.35 2.93,22.39 2.93,21.41 2.93,20.44 2.93,19.46 2.93,18.49 2.93,17.52 1.95,17.52 		"/>
		<polygon fill="#C7B570" points="10.71,16.54 10.71,17.52 10.71,18.49 10.71,19.46 10.71,20.44 10.71,21.41 10.71,22.39 
			11.68,22.39 11.68,21.41 11.68,20.44 11.68,19.46 11.68,18.49 11.68,17.52 11.68,16.54 		"/>
		<polygon fill="#C7B570" points="8.76,1.95 7.79,1.95 6.811,1.95 5.85,1.95 5.85,2.93 5.85,3.9 5.85,4.87 5.85,5.85 5.85,6.81 
			6.811,6.81 7.79,6.81 8.76,6.81 8.76,5.85 9.73,5.85 9.73,4.87 9.73,3.9 9.73,2.93 8.76,2.93 		"/>
	</g>
	<g>
		<polygon fill="#6D5217" points="9.73,6.81 9.73,5.85 8.76,5.85 8.76,6.81 8.76,7.79 8.76,8.77 8.76,9.73 9.73,9.73 9.73,8.77 
			10.71,8.77 10.71,7.79 10.71,6.81 		"/>
		<polygon fill="#6D5217" points="3.9,5.85 2.93,5.85 2.93,6.81 2.93,7.79 3.9,7.79 3.9,8.77 4.87,8.77 4.87,9.73 4.87,10.71 
			5.85,10.71 5.85,9.73 5.85,8.77 5.85,7.79 5.85,6.81 5.85,5.85 4.87,5.85 		"/>
	</g>
	<polygon fill="#9C8F57" points="7.79,6.81 6.811,6.81 5.85,6.81 5.85,7.79 5.85,8.77 6.811,8.77 7.79,8.77 8.76,8.77 8.76,7.79 
		8.76,6.81 	"/>
	<g>
		<rect x="2.93" y="4.87" fill="#8C8C8C" width="0.97" height="0.98"/>
		<polygon fill="#8C8C8C" points="12.66,7.79 12.66,6.81 11.68,6.81 11.68,5.85 10.71,5.85 10.71,4.87 9.73,4.87 9.73,5.85 
			9.73,6.81 10.71,6.81 10.71,7.79 10.71,8.77 11.68,8.77 12.66,8.77 13.62,8.77 13.62,7.79 		"/>
		<polygon fill="#8C8C8C" points="7.79,8.77 6.811,8.77 5.85,8.77 5.85,9.73 6.811,9.73 7.79,9.73 8.76,9.73 8.76,8.77 		"/>
		<rect x="7.79" y="12.66" fill="#8C8C8C" width="0.97" height="0.96"/>
		<polygon fill="#8C8C8C" points="8.76,10.71 8.76,11.68 8.76,12.66 9.73,12.66 9.73,11.68 9.73,10.71 9.73,9.73 8.76,9.73 		"/>
		<polygon fill="#8C8C8C" points="5.85,13.62 5.85,14.6 5.85,15.58 5.85,16.54 6.811,16.54 7.79,16.54 7.79,15.58 7.79,14.6 
			7.79,13.62 6.811,13.62 		"/>
		<rect x="4.87" y="12.66" fill="#8C8C8C" width="0.98" height="0.96"/>
		<polygon fill="#8C8C8C" points="2.93,7.79 2.93,6.81 2.93,5.85 1.95,5.85 1.95,6.81 0.98,6.81 0.98,7.79 0,7.79 0,8.77 0.98,8.77 
			1.95,8.77 2.93,8.77 3.9,8.77 3.9,7.79 		"/>
		<polygon fill="#8C8C8C" points="4.87,10.71 4.87,9.73 4.87,8.77 3.9,8.77 3.9,9.73 3.9,10.71 3.9,11.68 3.9,12.66 4.87,12.66 
			4.87,11.68 		"/>
	</g>
	<g>
		<polygon fill="#B3B3B3" points="10.71,3.9 10.71,2.93 10.71,1.95 9.73,1.95 9.73,0.98 8.76,0.98 7.79,0.98 6.811,0.98 6.811,1.95 
			7.79,1.95 8.76,1.95 8.76,2.93 9.73,2.93 9.73,3.9 		"/>
		<rect x="8.76" y="33.08" fill="#B3B3B3" width="0.971" height="0.98"/>
		<rect x="3.9" y="33.08" fill="#B3B3B3" width="0.97" height="0.98"/>
		<polygon fill="#B3B3B3" points="10.71,14.6 10.71,15.58 10.71,16.54 11.68,16.54 11.68,15.58 11.68,14.6 		"/>
		<polygon fill="#B3B3B3" points="7.79,15.58 7.79,16.54 8.76,16.54 9.73,16.54 9.73,15.58 8.76,15.58 		"/>
		<polygon fill="#B3B3B3" points="3.9,15.58 3.9,16.54 4.87,16.54 5.85,16.54 5.85,15.58 4.87,15.58 		"/>
		<polygon fill="#B3B3B3" points="0.98,15.58 0.98,16.54 1.95,16.54 1.95,15.58 1.95,14.6 0.98,14.6 		"/>
		<polygon fill="#B3B3B3" points="3.9,28.22 3.9,29.19 4.87,29.19 4.87,28.22 4.87,27.25 3.9,27.25 		"/>
		<polygon fill="#B3B3B3" points="8.76,28.22 8.76,29.19 9.73,29.19 9.73,28.22 9.73,27.25 8.76,27.25 		"/>
	</g>
	<g>
		<polygon fill="#4D4D4D" points="16.54,22.39 15.58,22.39 14.6,22.39 13.62,22.39 12.66,22.39 11.68,22.39 10.71,22.39 9.73,22.39 
			8.76,22.39 7.79,22.39 6.811,22.39 5.85,22.39 4.87,22.39 3.9,22.39 3.9,21.41 3.9,20.44 2.93,20.44 2.93,21.41 2.93,22.39 
			2.93,23.35 2.93,24.33 2.93,25.31 3.9,25.31 3.9,24.33 3.9,23.35 4.87,23.35 5.85,23.35 6.811,23.35 7.79,23.35 8.76,23.35 
			9.73,23.35 10.71,23.35 11.68,23.35 12.66,23.35 13.62,23.35 14.6,23.35 15.58,23.35 16.54,23.35 17.521,23.35 17.521,22.39 		"/>
		<polygon fill="#4D4D4D" points="0,22.39 0,23.35 0.98,23.35 1.95,23.35 1.95,22.39 0.98,22.39 		"/>
	</g>
	<g>
		<polygon fill="#BFBFBF" points="5.85,5.85 5.85,4.87 5.85,3.9 5.85,2.93 5.85,1.95 6.811,1.95 6.811,0.98 7.79,0.98 8.76,0.98 
			8.76,0 7.79,0 6.811,0 5.85,0 5.85,0.98 4.87,0.98 4.87,1.95 4.87,2.93 3.9,2.93 3.9,3.9 3.9,4.87 3.9,5.85 4.87,5.85 		"/>
		<polygon fill="#BFBFBF" points="10.71,8.77 9.73,8.77 9.73,9.73 9.73,10.71 9.73,11.68 9.73,12.66 10.71,12.66 10.71,13.62 
			10.71,14.6 11.68,14.6 11.68,13.62 11.68,12.66 11.68,11.68 11.68,10.71 11.68,9.73 11.68,8.77 		"/>
		<polygon fill="#BFBFBF" points="8.76,16.54 7.79,16.54 6.811,16.54 5.85,16.54 4.87,16.54 3.9,16.54 2.93,16.54 2.93,17.52 
			2.93,18.49 2.93,19.46 2.93,20.44 3.9,20.44 3.9,21.41 3.9,22.39 4.87,22.39 4.87,21.41 5.85,21.41 5.85,20.44 6.811,20.44 
			7.79,20.44 7.79,21.41 8.76,21.41 8.76,22.39 9.73,22.39 9.73,21.41 10.71,21.41 10.71,20.44 10.71,19.46 10.71,18.49 
			10.71,17.52 10.71,16.54 9.73,16.54 		"/>
		<polygon fill="#BFBFBF" points="8.76,12.66 8.76,11.68 8.76,10.71 8.76,9.73 7.79,9.73 6.811,9.73 5.85,9.73 5.85,10.71 
			4.87,10.71 4.87,11.68 4.87,12.66 5.85,12.66 5.85,13.62 6.811,13.62 7.79,13.62 7.79,12.66 		"/>
		<polygon fill="#BFBFBF" points="8.76,13.62 7.79,13.62 7.79,14.6 7.79,15.58 8.76,15.58 9.73,15.58 9.73,14.6 9.73,13.62 
			9.73,12.66 8.76,12.66 		"/>
		<polygon fill="#BFBFBF" points="3.9,10.71 3.9,9.73 3.9,8.77 2.93,8.77 1.95,8.77 0.98,8.77 0.98,9.73 0.98,10.71 0.98,11.68 
			0.98,12.66 0.98,13.62 0.98,14.6 1.95,14.6 1.95,13.62 1.95,12.66 1.95,11.68 1.95,10.71 2.93,10.71 2.93,11.68 2.93,12.66 
			3.9,12.66 3.9,11.68 		"/>
		<polygon fill="#BFBFBF" points="4.87,12.66 3.9,12.66 3.9,13.62 3.9,14.6 3.9,15.58 4.87,15.58 5.85,15.58 5.85,14.6 5.85,13.62 
			4.87,13.62 		"/>
		<polygon fill="#BFBFBF" points="3.9,30.17 3.9,31.14 3.9,32.12 3.9,33.08 4.87,33.08 4.87,32.12 4.87,31.14 4.87,30.17 
			4.87,29.19 3.9,29.19 		"/>
		<polygon fill="#BFBFBF" points="3.9,24.33 3.9,25.31 3.9,26.27 3.9,27.25 4.87,27.25 4.87,26.27 4.87,25.31 4.87,24.33 
			4.87,23.35 3.9,23.35 		"/>
		<polygon fill="#BFBFBF" points="8.76,30.17 8.76,31.14 8.76,32.12 8.76,33.08 9.73,33.08 9.73,32.12 9.73,31.14 9.73,30.17 
			9.73,29.19 8.76,29.19 		"/>
		<polygon fill="#BFBFBF" points="8.76,24.33 8.76,25.31 8.76,26.27 8.76,27.25 9.73,27.25 9.73,26.27 9.73,25.31 9.73,24.33 
			9.73,23.35 8.76,23.35 		"/>
	</g>
</g>
</svg>
