<?xml version="1.0" encoding="utf-8"?>
<!-- Generator: Adobe Illustrator 16.0.0, SVG Export Plug-In . SVG Version: 6.00 Build 0)  -->
<!DOCTYPE svg PUBLIC "-//W3C//DTD SVG 1.1//EN" "http://www.w3.org/Graphics/SVG/1.1/DTD/svg11.dtd">
<svg version="1.1" id="Layer_2" xmlns="http://www.w3.org/2000/svg" xmlns:xlink="http://www.w3.org/1999/xlink" x="0px" y="0px"
	 width="16.55px" height="32.11px" viewBox="0 0 16.55 32.11" enable-background="new 0 0 16.55 32.11" xml:space="preserve">
<g>
	<g>
		<polygon fill="#4D4D4D" points="15.57,21.4 14.59,21.4 13.63,21.4 12.649,21.4 11.68,21.4 10.71,21.4 9.729,21.4 8.76,21.4 
			7.78,21.4 6.82,21.4 5.84,21.4 4.86,21.4 3.9,21.4 3.9,20.44 3.9,19.459 2.92,19.459 2.92,20.44 2.92,21.4 2.92,22.379 
			2.92,23.36 2.92,24.32 3.9,24.32 3.9,23.36 3.9,22.379 4.86,22.379 5.84,22.379 6.82,22.379 7.78,22.379 8.76,22.379 
			9.729,22.379 10.71,22.379 11.68,22.379 12.649,22.379 13.63,22.379 14.59,22.379 15.57,22.379 16.55,22.379 16.55,21.4 		"/>
		<polygon fill="#4D4D4D" points="0,21.4 0,22.379 0.98,22.379 1.95,22.379 1.95,21.4 0.98,21.4 		"/>
	</g>
	<g>
		<polygon fill="#C7B570" points="7.78,1.95 6.82,1.95 5.84,1.95 5.84,2.92 5.84,3.9 4.86,3.9 4.86,4.86 4.86,5.84 5.84,5.84 
			6.82,5.84 7.78,5.84 7.78,4.86 8.76,4.86 8.76,3.9 8.76,2.92 8.76,1.95 		"/>
		<rect x="1.95" y="21.4" fill="#C7B570" width="0.97" height="0.979"/>
	</g>
	<g>
		<polygon fill="#9C8F57" points="8.76,16.54 8.76,17.51 8.76,18.49 8.76,19.459 8.76,20.44 8.76,21.4 9.729,21.4 9.729,20.44 
			9.729,19.459 9.729,18.49 9.729,17.51 9.729,16.54 		"/>
		<polygon fill="#9C8F57" points="5.84,5.84 4.86,5.84 3.9,5.84 3.9,6.82 4.86,6.82 4.86,7.78 4.86,8.76 5.84,8.76 6.82,8.76 
			6.82,7.78 6.82,6.82 7.78,6.82 7.78,5.84 6.82,5.84 		"/>
		<polygon fill="#9C8F57" points="1.95,18.49 1.95,19.459 1.95,20.44 1.95,21.4 2.92,21.4 2.92,20.44 2.92,19.459 2.92,18.49 
			2.92,17.51 1.95,17.51 		"/>
		<rect x="0.98" y="16.54" fill="#9C8F57" width="0.97" height="0.971"/>
	</g>
	<g>
		<polygon fill="#B3B3B3" points="9.729,12.65 9.729,13.63 9.729,14.59 10.71,14.59 10.71,13.63 10.71,12.65 		"/>
		<polygon fill="#B3B3B3" points="8.76,15.57 7.78,15.57 6.82,15.57 6.82,16.54 7.78,16.54 8.76,16.54 9.729,16.54 9.729,15.57 
			9.729,14.59 8.76,14.59 		"/>
		<rect x="7.78" y="31.129" fill="#B3B3B3" width="0.979" height="0.98"/>
		<polygon fill="#B3B3B3" points="7.78,26.27 7.78,27.24 8.76,27.24 8.76,26.27 8.76,25.3 7.78,25.3 		"/>
		<polygon fill="#B3B3B3" points="8.76,1.95 8.76,2.92 9.729,2.92 9.729,1.95 9.729,0.98 8.76,0.98 7.78,0.98 6.82,0.98 6.82,1.95 
			7.78,1.95 		"/>
		<polygon fill="#B3B3B3" points="6.82,13.63 6.82,12.65 6.82,11.67 7.78,11.67 7.78,10.71 6.82,10.71 6.82,9.73 5.84,9.73 
			4.86,9.73 4.86,10.71 3.9,10.71 3.9,11.67 4.86,11.67 4.86,12.65 4.86,13.63 4.86,14.59 5.84,14.59 6.82,14.59 		"/>
		<polygon fill="#B3B3B3" points="4.86,4.86 4.86,3.9 3.9,3.9 3.9,4.86 3.9,5.84 4.86,5.84 		"/>
		<rect x="2.92" y="31.129" fill="#B3B3B3" width="0.98" height="0.98"/>
		<polygon fill="#B3B3B3" points="2.92,26.27 2.92,27.24 3.9,27.24 3.9,26.27 3.9,25.3 2.92,25.3 		"/>
		<polygon fill="#B3B3B3" points="2.92,15.57 2.92,16.54 3.9,16.54 4.86,16.54 4.86,15.57 3.9,15.57 		"/>
		<polygon fill="#B3B3B3" points="0.98,13.63 0.98,14.59 0.98,15.57 0.98,16.54 1.95,16.54 1.95,15.57 1.95,14.59 1.95,13.63 
			1.95,12.65 0.98,12.65 		"/>
	</g>
	<g>
		<polygon fill="#BFBFBF" points="9.729,10.71 9.729,11.67 9.729,12.65 10.71,12.65 10.71,11.67 10.71,10.71 		"/>
		<polygon fill="#BFBFBF" points="9.729,8.76 9.729,7.78 8.76,7.78 8.76,8.76 8.76,9.73 8.76,10.71 9.729,10.71 9.729,9.73 		"/>
		<polygon fill="#BFBFBF" points="7.78,28.22 7.78,29.19 7.78,30.169 7.78,31.129 8.76,31.129 8.76,30.169 8.76,29.19 8.76,28.22 
			8.76,27.24 7.78,27.24 		"/>
		<polygon fill="#BFBFBF" points="7.78,23.36 7.78,24.32 7.78,25.3 8.76,25.3 8.76,24.32 8.76,23.36 8.76,22.379 7.78,22.379 		"/>
		<polygon fill="#BFBFBF" points="7.78,14.59 6.82,14.59 6.82,15.57 7.78,15.57 8.76,15.57 8.76,14.59 8.76,13.63 7.78,13.63 		"/>
		<polygon fill="#BFBFBF" points="6.82,16.54 5.84,16.54 4.86,16.54 3.9,16.54 2.92,16.54 2.92,17.51 2.92,18.49 2.92,19.459 
			3.9,19.459 4.86,19.459 5.84,19.459 6.82,19.459 7.78,19.459 7.78,20.44 7.78,21.4 8.76,21.4 8.76,20.44 8.76,19.459 8.76,18.49 
			8.76,17.51 8.76,16.54 7.78,16.54 		"/>
		<polygon fill="#BFBFBF" points="7.78,11.67 6.82,11.67 6.82,12.65 6.82,13.63 7.78,13.63 7.78,12.65 		"/>
		<rect x="6.82" y="9.73" fill="#BFBFBF" width="0.96" height="0.98"/>
		<polygon fill="#BFBFBF" points="7.78,7.78 7.78,6.82 6.82,6.82 6.82,7.78 6.82,8.76 7.78,8.76 		"/>
		<polygon fill="#BFBFBF" points="5.84,3.9 5.84,2.92 5.84,1.95 6.82,1.95 6.82,0.98 7.78,0.98 8.76,0.98 8.76,0 7.78,0 6.82,0 
			5.84,0 4.86,0 4.86,0.98 4.86,1.95 3.9,1.95 3.9,2.92 3.9,3.9 4.86,3.9 		"/>
		<polygon fill="#BFBFBF" points="4.86,12.65 4.86,11.67 3.9,11.67 3.9,12.65 3.9,13.63 4.86,13.63 		"/>
		<rect x="3.9" y="9.73" fill="#BFBFBF" width="0.96" height="0.98"/>
		<polygon fill="#BFBFBF" points="4.86,7.78 4.86,6.82 3.9,6.82 3.9,7.78 3.9,8.76 4.86,8.76 		"/>
		<polygon fill="#BFBFBF" points="2.92,28.22 2.92,29.19 2.92,30.169 2.92,31.129 3.9,31.129 3.9,30.169 3.9,29.19 3.9,28.22 
			3.9,27.24 2.92,27.24 		"/>
		<rect x="2.92" y="24.32" fill="#BFBFBF" width="0.98" height="0.98"/>
		<polygon fill="#BFBFBF" points="2.92,14.59 2.92,15.57 3.9,15.57 4.86,15.57 4.86,14.59 3.9,14.59 3.9,13.63 2.92,13.63 		"/>
		<polygon fill="#BFBFBF" points="2.92,9.73 2.92,8.76 2.92,7.78 1.95,7.78 1.95,8.76 1.95,9.73 1.95,10.71 2.92,10.71 		"/>
		<polygon fill="#BFBFBF" points="0.98,11.67 0.98,12.65 1.95,12.65 1.95,11.67 1.95,10.71 0.98,10.71 		"/>
	</g>
	<g>
		<polygon fill="#8C8C8C" points="9.729,6.82 9.729,5.84 8.76,5.84 8.76,4.86 7.78,4.86 7.78,5.84 7.78,6.82 7.78,7.78 7.78,8.76 
			6.82,8.76 5.84,8.76 4.86,8.76 3.9,8.76 3.9,7.78 3.9,6.82 3.9,5.84 3.9,4.86 2.92,4.86 2.92,5.84 1.95,5.84 1.95,6.82 0.98,6.82 
			0.98,7.78 1.95,7.78 2.92,7.78 2.92,8.76 2.92,9.73 2.92,10.71 2.92,11.67 2.92,12.65 2.92,13.63 3.9,13.63 3.9,12.65 3.9,11.67 
			3.9,10.71 3.9,9.73 4.86,9.73 5.84,9.73 6.82,9.73 7.78,9.73 7.78,10.71 7.78,11.67 7.78,12.65 7.78,13.63 8.76,13.63 8.76,12.65 
			8.76,11.67 8.76,10.71 8.76,9.73 8.76,8.76 8.76,7.78 9.729,7.78 10.71,7.78 10.71,6.82 		"/>
		<rect x="6.82" y="13.63" fill="#8C8C8C" width="0.96" height="0.96"/>
		<polygon fill="#8C8C8C" points="4.86,14.59 4.86,15.57 4.86,16.54 5.84,16.54 6.82,16.54 6.82,15.57 6.82,14.59 5.84,14.59 		"/>
		<rect x="3.9" y="13.63" fill="#8C8C8C" width="0.96" height="0.96"/>
	</g>
</g>
</svg>
