<?xml version="1.0" encoding="utf-8"?>
<!-- Generator: Adobe Illustrator 16.0.0, SVG Export Plug-In . SVG Version: 6.00 Build 0)  -->
<!DOCTYPE svg PUBLIC "-//W3C//DTD SVG 1.1//EN" "http://www.w3.org/Graphics/SVG/1.1/DTD/svg11.dtd">
<svg version="1.1" id="Layer_3" xmlns="http://www.w3.org/2000/svg" xmlns:xlink="http://www.w3.org/1999/xlink" x="0px" y="0px"
	 width="12.64px" height="31.13px" viewBox="0 0 12.64 31.13" enable-background="new 0 0 12.64 31.13" xml:space="preserve">
<g>
	<g>
		<polygon fill="#0A3542" points="11.68,14.59 10.7,14.59 9.73,14.59 9.73,15.56 9.73,16.53 8.75,16.53 8.75,15.56 8.75,14.59 
			7.78,14.59 7.78,15.56 7.78,16.53 7.78,17.51 8.75,17.51 8.75,18.479 8.75,19.46 7.78,19.46 7.78,20.42 8.75,20.42 8.75,21.399 
			8.75,22.38 9.73,22.38 10.7,22.38 11.68,22.38 12.64,22.38 12.64,21.399 12.64,20.42 12.64,19.46 12.64,18.479 12.64,17.51 
			12.64,16.53 12.64,15.56 12.64,14.59 		"/>
		<polygon fill="#0A3542" points="4.87,21.399 3.89,21.399 3.89,22.38 4.87,22.38 5.83,22.38 6.81,22.38 6.81,21.399 5.83,21.399 		
			"/>
	</g>
	<g>
		<polygon fill="#BFBFBF" points="7.78,9.73 6.81,9.73 6.81,10.7 6.81,11.67 6.81,12.65 6.81,13.61 6.81,14.59 6.81,15.56 
			7.78,15.56 7.78,14.59 7.78,13.61 7.78,12.65 7.78,11.67 7.78,10.7 8.75,10.7 8.75,9.73 		"/>
		<polygon fill="#BFBFBF" points="6.81,27.24 6.81,28.21 6.81,29.189 6.81,30.149 7.78,30.149 7.78,29.189 7.78,28.21 7.78,27.24 
			7.78,26.26 6.81,26.26 		"/>
		<rect x="6.81" y="23.34" fill="#BFBFBF" width="0.97" height="0.98"/>
		<polygon fill="#BFBFBF" points="5.83,16.53 4.87,16.53 3.89,16.53 2.92,16.53 2.92,17.51 2.92,18.479 2.92,19.46 2.92,20.42 
			2.92,21.399 3.89,21.399 4.87,21.399 5.83,21.399 6.81,21.399 6.81,22.38 7.78,22.38 7.78,21.399 7.78,20.42 7.78,19.46 
			7.78,18.479 7.78,17.51 7.78,16.53 6.81,16.53 		"/>
		<polygon fill="#BFBFBF" points="6.81,7.78 6.81,6.8 5.83,6.8 4.87,6.8 3.89,6.8 3.89,7.78 3.89,8.75 3.89,9.73 4.87,9.73 
			4.87,10.7 4.87,11.67 5.83,11.67 5.83,10.7 5.83,9.73 6.81,9.73 6.81,8.75 		"/>
		<polygon fill="#BFBFBF" points="5.83,13.61 5.83,12.65 4.87,12.65 4.87,13.61 4.87,14.59 5.83,14.59 		"/>
		<polygon fill="#BFBFBF" points="4.87,4.86 4.87,3.88 5.83,3.88 5.83,2.92 5.83,1.94 5.83,0.97 6.81,0.97 7.78,0.97 7.78,0 6.81,0 
			5.83,0 4.87,0 4.87,0.97 3.89,0.97 3.89,1.94 4.87,1.94 4.87,2.92 3.89,2.92 3.89,3.88 3.89,4.86 3.89,5.84 4.87,5.84 		"/>
		<polygon fill="#BFBFBF" points="2.92,27.24 2.92,28.21 2.92,29.189 2.92,30.149 3.89,30.149 3.89,29.189 3.89,28.21 3.89,27.24 
			3.89,26.26 2.92,26.26 		"/>
		<polygon fill="#BFBFBF" points="1.95,9.73 1.95,10.7 1.95,11.67 2.92,11.67 2.92,12.65 2.92,13.61 2.92,14.59 2.92,15.56 
			3.89,15.56 3.89,14.59 3.89,13.61 3.89,12.65 3.89,11.67 3.89,10.7 3.89,9.73 2.92,9.73 		"/>
	</g>
	<g>
		<polygon fill="#C7B570" points="8.75,12.65 8.75,13.61 8.75,14.59 8.75,15.56 8.75,16.53 9.73,16.53 9.73,15.56 9.73,14.59 
			9.73,13.61 9.73,12.65 		"/>
		<polygon fill="#C7B570" points="7.78,21.399 7.78,22.38 8.75,22.38 8.75,21.399 8.75,20.42 7.78,20.42 		"/>
		<polygon fill="#C7B570" points="7.78,18.479 7.78,19.46 8.75,19.46 8.75,18.479 8.75,17.51 7.78,17.51 		"/>
		<polygon fill="#C7B570" points="7.78,4.86 7.78,3.88 7.78,2.92 7.78,1.94 6.81,1.94 5.83,1.94 5.83,2.92 5.83,3.88 4.87,3.88 
			4.87,4.86 4.87,5.84 4.87,6.8 5.83,6.8 6.81,6.8 6.81,5.84 7.78,5.84 		"/>
		<rect x="3.89" y="1.94" fill="#C7B570" width="0.98" height="0.98"/>
		<polygon fill="#C7B570" points="1.95,19.46 1.95,20.42 1.95,21.399 1.95,22.38 1.95,23.34 2.92,23.34 2.92,22.38 2.92,21.399 
			2.92,20.42 2.92,19.46 2.92,18.479 1.95,18.479 		"/>
		<polygon fill="#C7B570" points="1.95,16.53 1.95,15.56 1.95,14.59 1.95,13.61 0.97,13.61 0.97,14.59 0.97,15.56 0.97,16.53 
			0.97,17.51 0.97,18.479 1.95,18.479 1.95,17.51 		"/>
	</g>
	<g>
		<rect x="8.75" y="11.67" fill="#B3B3B3" width="0.979" height="0.98"/>
		<rect x="7.78" y="10.7" fill="#B3B3B3" width="0.971" height="0.97"/>
		<rect x="6.81" y="30.149" fill="#B3B3B3" width="0.97" height="0.98"/>
		<polygon fill="#B3B3B3" points="6.81,25.29 6.81,26.26 7.78,26.26 7.78,25.29 7.78,24.32 6.81,24.32 		"/>
		<rect x="6.81" y="15.56" fill="#B3B3B3" width="0.97" height="0.971"/>
		<polygon fill="#B3B3B3" points="7.78,1.94 7.78,2.92 7.78,3.88 8.75,3.88 8.75,2.92 8.75,1.94 8.75,0.97 8.75,0 7.78,0 7.78,0.97 
			6.81,0.97 5.83,0.97 5.83,1.94 6.81,1.94 		"/>
		<rect x="2.92" y="30.149" fill="#B3B3B3" width="0.97" height="0.98"/>
		<polygon fill="#B3B3B3" points="2.92,25.29 2.92,26.26 3.89,26.26 3.89,25.29 3.89,24.32 2.92,24.32 		"/>
		<rect x="2.92" y="15.56" fill="#B3B3B3" width="0.97" height="0.971"/>
		<polygon fill="#B3B3B3" points="0.97,12.65 0.97,13.61 1.95,13.61 1.95,12.65 1.95,11.67 0.97,11.67 		"/>
	</g>
	<g>
		<polygon fill="#8C8C8C" points="8.75,8.75 8.75,7.78 7.78,7.78 7.78,6.8 6.81,6.8 6.81,7.78 6.81,8.75 6.81,9.73 7.78,9.73 
			8.75,9.73 9.73,9.73 9.73,8.75 		"/>
		<path fill="#8C8C8C" d="M5.83,10.7v0.97H4.87V10.7V9.73H3.89v0.97v0.97v0.98v0.96v0.98v0.97v0.971h0.98h0.96h0.98V15.56v-0.97
			v-0.98v-0.96v-0.98V10.7V9.73H5.83V10.7z M5.83,13.61v0.98H4.87v-0.98v-0.96h0.96V13.61z"/>
		<polygon fill="#8C8C8C" points="3.89,7.78 3.89,6.8 2.92,6.8 2.92,7.78 1.95,7.78 1.95,8.75 0.97,8.75 0.97,9.73 1.95,9.73 
			2.92,9.73 3.89,9.73 3.89,8.75 		"/>
	</g>
	<g>
		<polygon fill="#4D4D4D" points="9.73,22.38 8.75,22.38 7.78,22.38 6.81,22.38 5.83,22.38 4.87,22.38 3.89,22.38 3.89,21.399 
			2.92,21.399 2.92,22.38 2.92,23.34 2.92,24.32 3.89,24.32 3.89,23.34 4.87,23.34 5.83,23.34 6.81,23.34 7.78,23.34 8.75,23.34 
			9.73,23.34 10.7,23.34 10.7,22.38 		"/>
		<polygon fill="#4D4D4D" points="0,22.38 0,23.34 0.97,23.34 1.95,23.34 1.95,22.38 0.97,22.38 		"/>
	</g>
</g>
</svg>
