<?xml version="1.0" encoding="utf-8"?>
<!-- Generator: Adobe Illustrator 16.0.0, SVG Export Plug-In . SVG Version: 6.00 Build 0)  -->
<!DOCTYPE svg PUBLIC "-//W3C//DTD SVG 1.1//EN" "http://www.w3.org/Graphics/SVG/1.1/DTD/svg11.dtd">
<svg version="1.1" id="Layer_3" xmlns="http://www.w3.org/2000/svg" xmlns:xlink="http://www.w3.org/1999/xlink" x="0px" y="0px"
	 width="13.62px" height="31.13px" viewBox="0 0 13.62 31.13" enable-background="new 0 0 13.62 31.13" xml:space="preserve">
<g>
	<g>
		<polygon fill="#0A3542" points="4.87,18.479 4.87,19.46 5.83,19.46 6.81,19.46 6.81,18.479 5.83,18.479 		"/>
		<rect x="7.78" y="11.67" fill="#0A3542" width="0.971" height="0.98"/>
		<polygon fill="#0A3542" points="12.64,10.69 11.68,10.69 10.7,10.69 9.73,10.69 9.73,11.67 9.73,12.65 9.73,13.61 8.75,13.61 
			8.75,14.59 9.73,14.59 9.73,15.56 9.73,16.53 8.75,16.53 8.75,17.51 9.73,17.51 9.73,18.479 9.73,19.46 10.7,19.46 11.68,19.46 
			12.64,19.46 13.62,19.46 13.62,18.479 13.62,17.51 13.62,16.53 13.62,15.56 13.62,14.59 13.62,13.61 13.62,12.65 13.62,11.67 
			13.62,10.69 		"/>
	</g>
	<g>
		<polygon fill="#6D5217" points="6.81,4.86 5.83,4.86 5.83,5.84 5.83,6.8 5.83,7.78 6.81,7.78 6.81,6.8 7.78,6.8 7.78,5.84 
			7.78,4.86 		"/>
		<polygon fill="#6D5217" points="2.92,4.86 2.92,5.84 3.89,5.84 3.89,6.8 3.89,7.78 4.87,7.78 4.87,6.8 4.87,5.84 4.87,4.86 
			3.89,4.86 		"/>
		<rect x="1.95" y="5.84" fill="#6D5217" width="0.97" height="0.96"/>
	</g>
	<g>
		<polygon fill="#C7B570" points="8.75,18.479 8.75,19.46 9.73,19.46 9.73,18.479 9.73,17.51 8.75,17.51 		"/>
		<polygon fill="#C7B570" points="8.75,14.59 8.75,15.56 8.75,16.53 9.73,16.53 9.73,15.56 9.73,14.59 		"/>
		<polygon fill="#C7B570" points="5.83,1.94 5.83,2.92 4.87,2.92 4.87,3.88 4.87,4.86 4.87,5.84 4.87,6.8 4.87,7.78 5.83,7.78 
			5.83,6.8 5.83,5.84 5.83,4.86 6.81,4.86 7.78,4.86 7.78,3.88 7.78,2.92 7.78,1.94 6.81,1.94 		"/>
		<polygon fill="#C7B570" points="1.95,17.51 1.95,18.479 1.95,19.46 1.95,20.42 2.92,20.42 2.92,19.46 2.92,18.479 2.92,17.51 
			2.92,16.53 1.95,16.53 		"/>
		<polygon fill="#C7B570" points="1.95,14.59 0.97,14.59 0.97,15.56 0.97,16.53 1.95,16.53 1.95,15.56 		"/>
	</g>
	<g>
		<polygon fill="#B3B3B3" points="8.75,10.69 8.75,11.67 8.75,12.65 9.73,12.65 9.73,11.67 9.73,10.69 		"/>
		<rect x="7.78" y="30.149" fill="#B3B3B3" width="0.971" height="0.98"/>
		<polygon fill="#B3B3B3" points="7.78,25.29 7.78,26.26 8.75,26.26 8.75,25.29 8.75,24.32 7.78,24.32 		"/>
		<polygon fill="#B3B3B3" points="6.81,13.61 6.81,14.59 5.83,14.59 4.87,14.59 4.87,13.61 3.89,13.61 2.92,13.61 1.95,13.61 
			1.95,14.59 1.95,15.56 2.92,15.56 3.89,15.56 4.87,15.56 5.83,15.56 6.81,15.56 7.78,15.56 8.75,15.56 8.75,14.59 8.75,13.61 
			7.78,13.61 		"/>
		<polygon fill="#B3B3B3" points="6.81,12.65 6.81,11.67 6.81,10.69 6.81,9.73 5.83,9.73 4.87,9.73 4.87,10.69 4.87,11.67 
			4.87,12.65 5.83,12.65 		"/>
		<polygon fill="#B3B3B3" points="6.81,8.75 6.81,7.78 5.83,7.78 4.87,7.78 4.87,8.75 5.83,8.75 		"/>
		<polygon fill="#B3B3B3" points="6.81,0.97 7.78,0.97 7.78,1.94 7.78,2.92 8.75,2.92 8.75,1.94 8.75,0.97 8.75,0 7.78,0 6.81,0 
			5.83,0 4.87,0 4.87,0.97 5.83,0.97 		"/>
		<rect x="2.92" y="30.149" fill="#B3B3B3" width="0.97" height="0.98"/>
		<polygon fill="#B3B3B3" points="2.92,25.29 2.92,26.26 3.89,26.26 3.89,25.29 3.89,24.32 2.92,24.32 		"/>
		<polygon fill="#B3B3B3" points="1.95,11.67 1.95,10.69 0.97,10.69 0.97,11.67 0.97,12.65 1.95,12.65 		"/>
	</g>
	<g>
		<polygon fill="#BFBFBF" points="8.75,8.75 8.75,9.73 8.75,10.69 9.73,10.69 9.73,9.73 9.73,8.75 		"/>
		<polygon fill="#BFBFBF" points="7.78,27.24 7.78,28.21 7.78,29.189 7.78,30.149 8.75,30.149 8.75,29.189 8.75,28.21 8.75,27.24 
			8.75,26.26 7.78,26.26 		"/>
		<polygon fill="#BFBFBF" points="7.78,21.399 7.78,22.38 7.78,23.34 7.78,24.32 8.75,24.32 8.75,23.34 8.75,22.38 8.75,21.399 
			8.75,20.42 7.78,20.42 		"/>
		<polygon fill="#BFBFBF" points="7.78,12.65 6.81,12.65 6.81,13.61 7.78,13.61 8.75,13.61 9.73,13.61 9.73,12.65 8.75,12.65 		"/>
		<polygon fill="#BFBFBF" points="6.81,15.56 5.83,15.56 4.87,15.56 3.89,15.56 2.92,15.56 1.95,15.56 1.95,16.53 2.92,16.53 
			2.92,17.51 2.92,18.479 3.89,18.479 3.89,19.46 4.87,19.46 4.87,18.479 5.83,18.479 6.81,18.479 6.81,19.46 7.78,19.46 
			8.75,19.46 8.75,18.479 8.75,17.51 8.75,16.53 8.75,15.56 7.78,15.56 		"/>
		<polygon fill="#BFBFBF" points="6.81,10.69 6.81,11.67 7.78,11.67 7.78,10.69 7.78,9.73 6.81,9.73 		"/>
		<polygon fill="#BFBFBF" points="4.87,10.69 4.87,9.73 3.89,9.73 3.89,10.69 3.89,11.67 4.87,11.67 		"/>
		<polygon fill="#BFBFBF" points="4.87,4.86 4.87,3.88 4.87,2.92 5.83,2.92 5.83,1.94 6.81,1.94 7.78,1.94 7.78,0.97 6.81,0.97 
			5.83,0.97 4.87,0.97 3.89,0.97 3.89,1.94 3.89,2.92 2.92,2.92 2.92,3.88 2.92,4.86 3.89,4.86 		"/>
		<polygon fill="#BFBFBF" points="2.92,27.24 2.92,28.21 2.92,29.189 2.92,30.149 3.89,30.149 3.89,29.189 3.89,28.21 3.89,27.24 
			3.89,26.26 2.92,26.26 		"/>
		<polygon fill="#BFBFBF" points="2.92,22.38 2.92,23.34 2.92,24.32 3.89,24.32 3.89,23.34 3.89,22.38 3.89,21.399 2.92,21.399 		
			"/>
		<polygon fill="#BFBFBF" points="2.92,12.65 2.92,13.61 3.89,13.61 4.87,13.61 4.87,12.65 3.89,12.65 		"/>
		<polygon fill="#BFBFBF" points="2.92,10.69 2.92,9.73 2.92,8.75 1.95,8.75 0.97,8.75 0.97,9.73 0.97,10.69 1.95,10.69 		"/>
		<polygon fill="#BFBFBF" points="1.95,13.61 1.95,12.65 0.97,12.65 0.97,13.61 0.97,14.59 1.95,14.59 		"/>
	</g>
	<g>
		<polygon fill="#4D4D4D" points="9.73,19.46 8.75,19.46 7.78,19.46 6.81,19.46 5.83,19.46 4.87,19.46 3.89,19.46 3.89,18.479 
			2.92,18.479 2.92,19.46 2.92,20.42 2.92,21.399 3.89,21.399 3.89,20.42 4.87,20.42 5.83,20.42 6.81,20.42 7.78,20.42 8.75,20.42 
			9.73,20.42 10.7,20.42 10.7,19.46 		"/>
		<polygon fill="#4D4D4D" points="0,19.46 0,20.42 0.97,20.42 1.95,20.42 1.95,19.46 0.97,19.46 		"/>
	</g>
	<g>
		<polygon fill="#8C8C8C" points="9.73,7.78 9.73,6.8 8.75,6.8 8.75,5.84 7.78,5.84 7.78,6.8 6.81,6.8 6.81,7.78 6.81,8.75 
			5.83,8.75 4.87,8.75 4.87,7.78 3.89,7.78 3.89,6.8 3.89,5.84 2.92,5.84 2.92,6.8 1.95,6.8 0.97,6.8 0.97,7.78 0,7.78 0,8.75 
			0.97,8.75 1.95,8.75 2.92,8.75 2.92,9.73 2.92,10.69 2.92,11.67 3.89,11.67 3.89,10.69 3.89,9.73 4.87,9.73 5.83,9.73 6.81,9.73 
			7.78,9.73 7.78,10.69 7.78,11.67 8.75,11.67 8.75,10.69 8.75,9.73 8.75,8.75 9.73,8.75 10.7,8.75 10.7,7.78 		"/>
		<rect x="6.81" y="11.67" fill="#8C8C8C" width="0.97" height="0.98"/>
		<polygon fill="#8C8C8C" points="4.87,12.65 4.87,13.61 4.87,14.59 5.83,14.59 6.81,14.59 6.81,13.61 6.81,12.65 5.83,12.65 		"/>
		<rect x="3.89" y="11.67" fill="#8C8C8C" width="0.98" height="0.98"/>
	</g>
</g>
</svg>
