<?xml version="1.0" encoding="utf-8"?>
<!-- Generator: Adobe Illustrator 16.0.0, SVG Export Plug-In . SVG Version: 6.00 Build 0)  -->
<!DOCTYPE svg PUBLIC "-//W3C//DTD SVG 1.1//EN" "http://www.w3.org/Graphics/SVG/1.1/DTD/svg11.dtd">
<svg version="1.1" id="Layer_1" xmlns="http://www.w3.org/2000/svg" xmlns:xlink="http://www.w3.org/1999/xlink" x="0px" y="0px"
	 width="18.49px" height="32.109px" viewBox="0 0 18.49 32.109" enable-background="new 0 0 18.49 32.109" xml:space="preserve">
<polygon fill="#6D5217" points="7.784,0.11 6.814,0.11 5.845,0.11 4.874,0.11 4.874,1.08 4.874,2.05 4.874,3.02 4.874,3.99 
	5.845,3.99 5.845,3.02 5.845,2.05 6.814,2.05 6.814,1.08 7.784,1.08 8.745,1.08 8.745,0.11 "/>
<polygon fill="#C7B570" points="7.784,1.08 6.814,1.08 6.814,2.05 5.845,2.05 5.845,3.02 5.845,3.99 4.874,3.99 4.874,4.96 
	4.874,5.93 5.845,5.93 6.814,5.93 7.784,5.93 7.784,4.96 8.745,4.96 8.745,3.99 8.745,3.02 8.745,2.05 8.745,1.08 "/>
<g>
	<polygon fill="#C7B570" points="1.965,17.561 1.965,18.529 1.965,19.5 1.965,20.48 1.965,21.449 1.965,22.41 2.925,22.41 
		2.925,21.449 2.925,20.48 2.925,19.5 2.925,18.529 2.925,17.561 	"/>
	<polygon fill="#C7B570" points="1.965,15.63 1.965,14.66 1.965,13.69 1.965,12.72 1.965,11.74 0.995,11.74 0.995,12.72 
		0.995,13.69 0.995,14.66 0.995,15.63 0.995,16.59 0.995,17.561 1.965,17.561 1.965,16.59 	"/>
</g>
<rect x="7.784" y="31.141" fill="#C7B570" width="0.961" height="0.969"/>
<polygon fill="#737144" points="7.784,15.63 6.814,15.63 5.845,15.63 4.874,15.63 3.895,15.63 2.925,15.63 2.925,16.59 
	2.925,17.561 2.925,18.529 2.925,19.5 2.925,20.48 2.925,21.449 2.925,22.41 2.925,23.379 2.925,24.35 2.925,25.32 2.925,26.289 
	2.925,27.26 2.925,28.23 2.925,29.199 2.925,30.17 2.925,31.141 3.895,31.141 3.895,30.17 3.895,29.199 3.895,28.23 3.895,27.26 
	3.895,26.289 3.895,25.32 3.895,24.35 3.895,23.379 3.895,22.41 3.895,21.449 3.895,20.48 3.895,19.5 4.874,19.5 5.845,19.5 
	6.814,19.5 7.784,19.5 7.784,20.48 7.784,21.449 7.784,22.41 7.784,23.379 7.784,24.35 7.784,25.32 7.784,26.289 7.784,27.26 
	7.784,28.23 7.784,29.199 7.784,30.17 7.784,31.141 8.745,31.141 8.745,30.17 8.745,29.199 8.745,28.23 8.745,27.26 8.745,26.289 
	8.745,25.32 8.745,24.35 8.745,23.379 8.745,22.41 8.745,21.449 8.745,20.48 8.745,19.5 8.745,18.529 8.745,17.561 8.745,16.59 
	8.745,15.63 "/>
<g>
	<rect x="9.715" y="10.77" fill="#9C8F57" width="0.971" height="0.97"/>
	<polygon fill="#9C8F57" points="9.715,8.84 9.715,7.87 8.745,7.87 8.745,6.9 8.745,5.93 7.784,5.93 6.814,5.93 5.845,5.93 
		4.874,5.93 3.895,5.93 2.925,5.93 2.925,6.9 1.965,6.9 1.965,7.87 1.965,8.84 1.965,9.81 1.965,10.77 2.925,10.77 2.925,11.74 
		2.925,12.72 2.925,13.69 2.925,14.66 2.925,15.63 3.895,15.63 4.874,15.63 5.845,15.63 6.814,15.63 7.784,15.63 8.745,15.63 
		8.745,14.66 8.745,13.69 8.745,12.72 8.745,11.74 8.745,10.77 9.715,10.77 9.715,9.81 	"/>
	<rect x="0.995" y="10.77" fill="#9C8F57" width="0.97" height="0.97"/>
</g>
<rect x="2.925" y="31.141" fill="#C7B570" width="0.97" height="0.969"/>
<rect x="15.57" y="8.759" fill="#C7B570" width="0.979" height="0.97"/>
<rect x="14.6" y="8.759" fill="#C7B570" width="0.971" height="0.97"/>
<g>
	<rect x="0.98" y="31.129" fill="#8C8C8C" width="0.98" height="0.98"/>
	<polygon fill="#8C8C8C" points="4.87,31.129 4.87,32.109 5.84,32.109 5.84,31.129 5.84,30.169 4.87,30.169 	"/>
	<rect x="0.98" y="13.629" fill="#8C8C8C" width="0.98" height="0.96"/>
	<rect x="1.96" y="8.759" fill="#8C8C8C" width="0.96" height="0.97"/>
	<rect x="7.79" y="29.189" fill="#8C8C8C" width="0.97" height="0.979"/>
	<polygon fill="#8C8C8C" points="7.79,23.359 6.82,23.359 6.82,22.379 6.82,21.399 6.82,20.439 6.82,19.459 6.82,18.489 6.82,17.51 
		6.82,16.539 6.82,15.569 6.82,14.589 6.82,13.629 6.82,12.649 6.82,11.679 7.79,11.679 7.79,10.709 6.82,10.709 6.82,9.729 
		6.82,8.759 6.82,7.779 6.82,6.819 6.82,5.839 5.84,5.839 5.84,6.819 5.84,7.779 5.84,8.759 5.84,9.729 5.84,10.709 5.84,11.679 
		5.84,12.649 5.84,13.629 5.84,14.589 5.84,15.569 5.84,16.539 4.87,16.539 4.87,17.51 5.84,17.51 5.84,18.489 5.84,19.459 
		5.84,20.439 5.84,21.399 5.84,22.379 5.84,23.359 5.84,24.319 5.84,25.3 5.84,26.27 5.84,27.239 5.84,28.22 5.84,29.189 
		5.84,30.169 6.82,30.169 6.82,29.189 6.82,28.22 6.82,27.239 6.82,26.27 6.82,25.3 6.82,24.319 7.79,24.319 	"/>
	<rect x="3.9" y="10.709" fill="#8C8C8C" width="0.97" height="0.97"/>
	<rect x="3.9" y="26.27" fill="#8C8C8C" width="0.97" height="0.97"/>
	<rect x="2.92" y="20.439" fill="#8C8C8C" width="0.98" height="0.96"/>
	<rect x="7.79" y="17.51" fill="#8C8C8C" width="0.97" height="0.979"/>
	<rect x="13.63" y="11.679" fill="#8C8C8C" width="0.97" height="0.97"/>
	<rect x="9.729" y="11.679" fill="#8C8C8C" width="0.98" height="0.97"/>
	<rect x="7.79" y="7.779" fill="#8C8C8C" width="0.97" height="0.98"/>
	<rect x="2.92" y="5.839" fill="#8C8C8C" width="0.98" height="0.98"/>
</g>
<g>
	<rect y="31.129" fill="#B3B3B3" width="0.98" height="0.98"/>
	<polygon fill="#B3B3B3" points="0.98,11.679 0.98,12.649 0.98,13.629 1.96,13.629 1.96,12.649 1.96,11.679 1.96,10.709 
		0.98,10.709 	"/>
	<polygon fill="#B3B3B3" points="1.96,15.569 1.96,14.589 0.98,14.589 0.98,15.569 0.98,16.539 0.98,17.51 1.96,17.51 1.96,16.539 	
		"/>
	<path fill="#B3B3B3" d="M5.84,28.22v-0.98v-0.97V25.3v-0.98v-0.96v-0.98v-0.979v-0.96v-0.98v-0.97V17.51H4.87v-0.971h0.97v-0.97
		v-0.98v-0.96v-0.98v-0.97v-0.97v-0.98v-0.97v-0.98v-0.96v-0.98H4.87H3.9v0.98H2.92H1.96v0.96v0.98h0.96v0.97H1.96v0.98h0.96v0.97
		v0.97v0.98v0.96v0.98v0.97v0.971H1.96v0.979v0.97v0.98v0.96h0.96v-0.96H3.9v0.96H2.92v0.979v0.98v0.96v0.98v0.97v0.97v0.98H1.96
		v0.97v0.979H0.98v0.96h0.98v0.98h0.96v-0.98H3.9v0.98h0.97v-0.98v-0.96h0.97v-0.979V28.22z M3.9,10.709h0.97v0.97H3.9V10.709z
		 M3.9,26.27h0.97v0.97H3.9V26.27z"/>
	<rect x="9.729" y="10.709" fill="#B3B3B3" width="0.98" height="0.97"/>
	<polygon fill="#B3B3B3" points="14.6,9.729 14.6,10.709 13.63,10.709 13.63,11.679 14.6,11.679 15.57,11.679 15.57,10.709 
		15.57,9.729 	"/>
	<rect x="12.649" y="11.679" fill="#B3B3B3" width="0.98" height="0.97"/>
	<polygon fill="#B3B3B3" points="11.68,11.679 10.71,11.679 10.71,12.649 10.71,13.629 11.68,13.629 12.649,13.629 12.649,12.649 
		11.68,12.649 	"/>
	<polygon fill="#B3B3B3" points="9.729,8.759 9.729,7.779 8.76,7.779 8.76,8.759 7.79,8.759 7.79,7.779 8.76,7.779 8.76,6.819 
		8.76,5.839 7.79,5.839 6.82,5.839 6.82,6.819 6.82,7.779 6.82,8.759 6.82,9.729 6.82,10.709 7.79,10.709 7.79,11.679 6.82,11.679 
		6.82,12.649 6.82,13.629 6.82,14.589 6.82,15.569 6.82,16.539 6.82,17.51 6.82,18.489 6.82,19.459 6.82,20.439 6.82,21.399 
		6.82,22.379 6.82,23.359 7.79,23.359 7.79,24.319 6.82,24.319 6.82,25.3 6.82,26.27 6.82,27.239 6.82,28.22 6.82,29.189 
		6.82,30.169 5.84,30.169 5.84,31.129 5.84,32.109 6.82,32.109 7.79,32.109 7.79,31.129 8.76,31.129 8.76,30.169 7.79,30.169 
		7.79,29.189 8.76,29.189 8.76,28.22 8.76,27.239 8.76,26.27 8.76,25.3 8.76,24.319 8.76,23.359 8.76,22.379 8.76,21.399 
		8.76,20.439 8.76,19.459 8.76,18.489 7.79,18.489 7.79,17.51 8.76,17.51 8.76,16.539 8.76,15.569 8.76,14.589 8.76,13.629 
		8.76,12.649 8.76,11.679 8.76,10.709 9.729,10.709 9.729,9.729 	"/>
</g>
<g>
	<polygon fill="#ED1C24" points="17.52,4.869 16.551,4.869 16.551,3.89 16.551,2.91 15.57,2.91 15.57,1.95 15.57,0.97 14.609,0.97 
		14.609,1.95 14.609,2.91 14.609,3.89 15.57,3.89 15.57,4.869 14.609,4.869 14.609,3.89 13.629,3.89 13.629,4.869 13.629,5.83 
		12.65,5.83 12.65,6.811 13.629,6.811 14.609,6.811 14.609,7.779 15.57,7.779 16.551,7.779 17.52,7.779 17.52,6.811 16.551,6.811 
		16.551,5.83 17.52,5.83 17.52,6.811 18.49,6.811 18.49,5.83 18.49,4.869 	"/>
	<g>
		<rect x="14.609" fill="#F7931E" width="0.961" height="0.97"/>
		<rect x="16.551" y="5.83" fill="#F7931E" width="0.969" height="0.98"/>
		<rect x="16.551" y="3.89" fill="#F7931E" width="0.969" height="0.979"/>
		<rect x="15.57" y="1.95" fill="#F7931E" width="0.98" height="0.96"/>
		<rect x="14.609" y="3.89" fill="#F7931E" width="0.961" height="0.979"/>
		<rect x="13.629" y="6.811" fill="#F7931E" width="0.98" height="0.969"/>
		<rect x="12.65" y="4.869" fill="#F7931E" width="0.979" height="0.961"/>
	</g>
</g>
</svg>
