<?xml version="1.0" encoding="utf-8"?>
<!-- Generator: Adobe Illustrator 16.0.0, SVG Export Plug-In . SVG Version: 6.00 Build 0)  -->
<!DOCTYPE svg PUBLIC "-//W3C//DTD SVG 1.1//EN" "http://www.w3.org/Graphics/SVG/1.1/DTD/svg11.dtd">
<svg version="1.1" id="Layer_2" xmlns="http://www.w3.org/2000/svg" xmlns:xlink="http://www.w3.org/1999/xlink" x="0px" y="0px"
	 width="17.52px" height="31.041px" viewBox="0 0 17.52 31.041" enable-background="new 0 0 17.52 31.041" xml:space="preserve">
<rect x="7.765" y="30.071" fill="#C7B570" width="0.979" height="0.97"/>
<polygon fill="#C7B570" points="6.795,0.98 6.795,1.951 5.835,1.951 5.835,2.92 5.84,2.92 5.84,3.891 5.835,3.891 5.835,2.92 
	4.865,2.92 4.865,3.891 4.865,4.86 4.87,4.86 4.87,5.831 5.84,5.831 5.84,4.86 6.795,4.86 7.765,4.86 7.765,3.891 7.765,2.92 
	7.765,1.951 7.765,0.98 "/>
<rect x="2.925" y="30.071" fill="#C7B570" width="0.97" height="0.97"/>
<polygon fill="#737144" points="7.765,14.56 6.795,14.56 5.835,14.56 4.865,14.56 3.895,14.56 2.925,14.56 1.955,14.56 
	1.955,15.521 1.955,16.491 2.925,16.491 2.925,17.46 2.925,18.43 2.925,19.411 2.925,20.38 2.925,21.34 2.925,22.31 2.925,23.281 
	2.925,24.25 2.925,25.22 2.925,26.191 2.925,27.161 2.925,28.13 2.925,29.1 2.925,30.071 3.895,30.071 3.895,29.1 3.895,28.13 
	3.895,27.161 3.895,26.191 3.895,25.22 3.895,24.25 3.895,23.281 3.895,22.31 3.895,21.34 3.895,20.38 3.895,19.411 4.865,19.411 
	4.865,18.43 5.835,18.43 6.795,18.43 6.795,19.411 7.765,19.411 7.765,20.38 7.765,21.34 7.765,22.31 7.765,23.281 7.765,24.25 
	7.765,25.22 7.765,26.191 7.765,27.161 7.765,28.13 7.765,29.1 7.765,30.071 8.745,30.071 8.745,29.1 8.745,28.13 8.745,27.161 
	8.745,26.191 8.745,25.22 8.745,24.25 8.745,23.281 8.745,22.31 8.745,21.34 8.745,20.38 8.745,19.411 8.745,18.43 8.745,17.46 
	8.745,16.491 8.745,15.521 8.745,14.56 "/>
<g>
	<polygon fill="#6D5217" points="7.765,0.011 6.795,0.011 5.835,0.011 4.865,0.011 4.865,0.98 4.865,1.951 3.895,1.951 3.895,2.92 
		3.895,3.891 2.925,3.891 2.925,4.86 2.925,5.831 3.895,5.831 3.895,6.8 3.895,7.771 4.865,7.771 4.865,6.8 4.865,5.831 4.865,4.86 
		4.865,3.891 4.865,2.92 5.835,2.92 5.835,1.951 6.795,1.951 6.795,0.98 7.765,0.98 7.765,1.951 8.745,1.951 8.745,0.98 
		8.745,0.011 	"/>
	<polygon fill="#6D5217" points="5.835,4.86 5.835,5.831 5.835,6.8 5.835,7.771 6.795,7.771 6.795,6.8 7.765,6.8 7.765,5.831 
		7.765,4.86 6.795,4.86 	"/>
	<rect x="1.955" y="5.831" fill="#6D5217" width="0.971" height="0.97"/>
</g>
<g>
	<polygon fill="#C7B570" points="1.955,16.491 1.955,17.46 1.955,18.43 1.955,19.411 1.955,20.38 2.925,20.38 2.925,19.411 
		2.925,18.43 2.925,17.46 2.925,16.491 	"/>
	<polygon fill="#C7B570" points="1.955,14.56 1.955,13.59 1.955,12.621 1.955,11.65 1.955,10.67 0.985,10.67 0.985,11.65 
		0.985,12.621 0.985,13.59 0.985,14.56 0.985,15.521 0.985,16.491 1.955,16.491 1.955,15.521 	"/>
</g>
<polygon fill="#9C8F57" points="8.745,7.771 8.745,6.8 8.745,5.831 7.765,5.831 7.765,6.8 6.795,6.8 6.795,7.771 5.835,7.771 
	5.835,6.8 5.835,5.831 4.865,5.831 4.865,6.8 4.865,7.771 3.895,7.771 3.895,6.8 3.895,5.831 2.925,5.831 2.925,6.8 1.955,6.8 
	1.955,7.771 1.955,8.741 0.985,8.741 0.985,9.701 0.985,10.67 1.955,10.67 2.925,10.67 2.925,11.65 3.895,11.65 3.895,12.621 
	2.925,12.621 2.925,13.59 1.955,13.59 1.955,14.56 2.925,14.56 3.895,14.56 4.865,14.56 5.835,14.56 6.795,14.56 7.765,14.56 
	8.745,14.56 8.745,13.59 8.745,12.621 7.765,12.621 7.765,11.65 8.745,11.65 8.745,10.67 9.715,10.67 9.715,9.701 9.715,8.741 
	9.715,7.771 "/>
<rect x="14.6" y="8.661" fill="#C7B570" width="0.96" height="0.98"/>
<rect x="13.62" y="8.661" fill="#C7B570" width="0.98" height="0.98"/>
<g>
	<rect x="10.7" y="11.581" fill="#8C8C8C" width="0.98" height="0.98"/>
	<rect x="7.78" y="25.201" fill="#8C8C8C" width="0.971" height="0.97"/>
	<rect x="7.78" y="18.39" fill="#8C8C8C" width="0.971" height="0.98"/>
	<rect x="7.78" y="6.71" fill="#8C8C8C" width="0.971" height="0.98"/>
	<polygon fill="#8C8C8C" points="7.78,14.5 6.81,14.5 6.81,13.521 6.81,12.561 6.81,11.581 6.81,10.61 6.81,9.641 6.81,8.661 
		6.81,7.69 5.83,7.69 5.83,8.661 4.87,8.661 4.87,9.641 5.83,9.641 5.83,10.61 5.83,11.581 5.83,12.561 5.83,13.521 5.83,14.5 
		5.83,15.47 5.83,16.441 5.83,17.42 5.83,18.39 5.83,19.371 5.83,20.331 5.83,21.31 5.83,22.291 5.83,23.25 5.83,24.231 
		5.83,25.201 5.83,26.17 5.83,27.151 5.83,28.121 5.83,29.1 6.81,29.1 6.81,28.121 6.81,27.151 6.81,26.17 6.81,25.201 6.81,24.231 
		6.81,23.25 6.81,22.291 6.81,21.31 6.81,20.331 6.81,19.371 6.81,18.39 6.81,17.42 6.81,16.441 6.81,15.47 7.78,15.47 	"/>
	<polygon fill="#8C8C8C" points="4.87,30.06 4.87,31.041 5.83,31.041 5.83,30.06 5.83,29.1 4.87,29.1 	"/>
	<rect x="3.89" y="21.31" fill="#8C8C8C" width="0.98" height="0.98"/>
	<rect x="3.89" y="17.42" fill="#8C8C8C" width="0.98" height="0.97"/>
	<rect x="2.92" y="25.201" fill="#8C8C8C" width="0.97" height="0.97"/>
	<rect x="2.92" y="14.5" fill="#8C8C8C" width="0.97" height="0.97"/>
	<rect x="1.95" y="29.1" fill="#8C8C8C" width="0.97" height="0.96"/>
	<rect x="1.95" y="7.69" fill="#8C8C8C" width="0.97" height="0.97"/>
	<rect x="0.97" y="11.581" fill="#8C8C8C" width="0.98" height="0.98"/>
</g>
<g>
	<polygon fill="#B3B3B3" points="13.62,9.641 13.62,10.61 12.64,10.61 12.64,11.581 12.64,12.561 11.68,12.561 10.7,12.561 
		10.7,13.521 11.68,13.521 12.64,13.521 13.62,13.521 13.62,12.561 13.62,11.581 14.6,11.581 14.6,10.61 14.6,9.641 	"/>
	<polygon fill="#B3B3B3" points="10.7,10.61 9.73,10.61 9.73,11.581 9.73,12.561 10.7,12.561 10.7,11.581 	"/>
	<polygon fill="#B3B3B3" points="9.73,8.661 9.73,7.69 8.75,7.69 7.78,7.69 7.78,6.71 6.81,6.71 6.81,7.69 6.81,8.661 6.81,9.641 
		6.81,10.61 6.81,11.581 6.81,12.561 6.81,13.521 6.81,14.5 7.78,14.5 7.78,15.47 6.81,15.47 6.81,16.441 6.81,17.42 6.81,18.39 
		6.81,19.371 6.81,20.331 6.81,21.31 6.81,22.291 6.81,23.25 6.81,24.231 6.81,25.201 6.81,26.17 6.81,27.151 6.81,28.121 
		6.81,29.1 5.83,29.1 5.83,30.06 5.83,31.041 6.81,31.041 7.78,31.041 7.78,30.06 8.75,30.06 8.75,29.1 8.75,28.121 8.75,27.151 
		8.75,26.17 7.78,26.17 7.78,25.201 8.75,25.201 8.75,24.231 8.75,23.25 8.75,22.291 8.75,21.31 8.75,20.331 8.75,19.371 
		7.78,19.371 7.78,18.39 8.75,18.39 8.75,17.42 8.75,16.441 8.75,15.47 8.75,14.5 8.75,13.521 8.75,12.561 7.78,12.561 7.78,11.581 
		8.75,11.581 8.75,10.61 9.73,10.61 9.73,9.641 	"/>
	<rect x="7.78" y="5.75" fill="#B3B3B3" width="0.971" height="0.96"/>
	<path fill="#B3B3B3" d="M5.83,27.151v-0.98v-0.97v-0.97v-0.98v-0.96v-0.98v-0.979v-0.96v-0.98v-0.97v-0.979V15.47V14.5v-0.98v-0.96
		v-0.98v-0.97v-0.97H4.87v-0.98h0.96V7.69V6.71V5.75H4.87v0.96v0.98H3.89V6.71V5.75H2.92v0.96H1.95v0.98h0.97v0.97H1.95H0.97v0.98
		v0.97v0.97h0.98v-0.97h0.97v0.97h0.97v0.98H2.92v0.96H1.95v-0.96H0.97v0.96v0.98v0.97v0.971h0.98v0.979v0.97v0.98h0.97v0.96v0.979
		v0.98v0.96v0.98v0.97h0.97v0.97H2.92v0.98H1.95v0.97V29.1h0.97v0.96h0.97v0.98h0.98v-0.98V29.1h0.96v-0.979V27.151z M4.87,18.39
		H3.89v-0.97h0.98V18.39z M3.89,14.5v0.97H2.92V14.5H3.89z M3.89,21.31h0.98v0.98H3.89V21.31z"/>
	<polygon fill="#B3B3B3" points="1.95,29.1 0.97,29.1 0.97,30.06 0,30.06 0,31.041 0.97,31.041 1.95,31.041 2.92,31.041 2.92,30.06 
		1.95,30.06 	"/>
</g>
<g>
	<polygon fill="#29ABE2" points="16.551,4.87 15.581,4.87 15.581,3.89 15.581,2.91 14.6,2.91 14.6,1.95 14.6,0.97 13.641,0.97 
		13.641,1.95 13.641,2.91 13.641,3.89 14.6,3.89 14.6,4.87 13.641,4.87 13.641,3.89 12.661,3.89 12.661,4.87 12.661,5.83 
		11.68,5.83 11.68,6.811 12.661,6.811 13.641,6.811 13.641,7.781 14.6,7.781 15.581,7.781 16.551,7.781 16.551,6.811 15.581,6.811 
		15.581,5.83 16.551,5.83 16.551,6.811 17.52,6.811 17.52,5.83 17.52,4.87 	"/>
	<g>
		<rect x="13.641" fill="#0071BC" width="0.959" height="0.97"/>
		<rect x="15.581" y="5.83" fill="#0071BC" width="0.971" height="0.98"/>
		<rect x="15.581" y="3.89" fill="#0071BC" width="0.971" height="0.98"/>
		<rect x="14.6" y="1.95" fill="#0071BC" width="0.98" height="0.96"/>
		<rect x="13.641" y="3.89" fill="#0071BC" width="0.959" height="0.98"/>
		<rect x="12.661" y="6.811" fill="#0071BC" width="0.98" height="0.971"/>
		<rect x="11.68" y="4.87" fill="#0071BC" width="0.98" height="0.96"/>
	</g>
</g>
</svg>
