<?xml version="1.0" encoding="utf-8"?>
<!-- Generator: Adobe Illustrator 16.0.0, SVG Export Plug-In . SVG Version: 6.00 Build 0)  -->
<!DOCTYPE svg PUBLIC "-//W3C//DTD SVG 1.1//EN" "http://www.w3.org/Graphics/SVG/1.1/DTD/svg11.dtd">
<svg version="1.1" id="Layer_1" xmlns="http://www.w3.org/2000/svg" xmlns:xlink="http://www.w3.org/1999/xlink" x="0px" y="0px"
	 width="18.49px" height="32.111px" viewBox="0 0 18.49 32.111" enable-background="new 0 0 18.49 32.111" xml:space="preserve">
<polygon fill="#6D5217" points="7.784,0.112 6.814,0.112 5.845,0.112 4.874,0.112 4.874,1.082 4.874,2.052 4.874,3.022 4.874,3.992 
	5.845,3.992 5.845,3.022 5.845,2.052 6.814,2.052 6.814,1.082 7.784,1.082 8.745,1.082 8.745,0.112 "/>
<polygon fill="#C7B570" points="7.784,1.082 6.814,1.082 6.814,2.052 5.845,2.052 5.845,3.022 5.845,3.992 4.874,3.992 4.874,4.962 
	4.874,5.932 5.845,5.932 6.814,5.932 7.784,5.932 7.784,4.962 8.745,4.962 8.745,3.992 8.745,3.022 8.745,2.052 8.745,1.082 "/>
<g>
	<polygon fill="#C7B570" points="1.965,17.563 1.965,18.531 1.965,19.502 1.965,20.482 1.965,21.451 1.965,22.412 2.925,22.412 
		2.925,21.451 2.925,20.482 2.925,19.502 2.925,18.531 2.925,17.563 	"/>
	<polygon fill="#C7B570" points="1.965,15.632 1.965,14.662 1.965,13.692 1.965,12.722 1.965,11.742 0.995,11.742 0.995,12.722 
		0.995,13.692 0.995,14.662 0.995,15.632 0.995,16.592 0.995,17.563 1.965,17.563 1.965,16.592 	"/>
</g>
<rect x="7.784" y="31.143" fill="#C7B570" width="0.961" height="0.969"/>
<polygon fill="#737144" points="7.784,15.632 6.814,15.632 5.845,15.632 4.874,15.632 3.895,15.632 2.925,15.632 2.925,16.592 
	2.925,17.563 2.925,18.531 2.925,19.502 2.925,20.482 2.925,21.451 2.925,22.412 2.925,23.381 2.925,24.352 2.925,25.322 
	2.925,26.291 2.925,27.262 2.925,28.232 2.925,29.201 2.925,30.172 2.925,31.143 3.895,31.143 3.895,30.172 3.895,29.201 
	3.895,28.232 3.895,27.262 3.895,26.291 3.895,25.322 3.895,24.352 3.895,23.381 3.895,22.412 3.895,21.451 3.895,20.482 
	3.895,19.502 4.874,19.502 5.845,19.502 6.814,19.502 7.784,19.502 7.784,20.482 7.784,21.451 7.784,22.412 7.784,23.381 
	7.784,24.352 7.784,25.322 7.784,26.291 7.784,27.262 7.784,28.232 7.784,29.201 7.784,30.172 7.784,31.143 8.745,31.143 
	8.745,30.172 8.745,29.201 8.745,28.232 8.745,27.262 8.745,26.291 8.745,25.322 8.745,24.352 8.745,23.381 8.745,22.412 
	8.745,21.451 8.745,20.482 8.745,19.502 8.745,18.531 8.745,17.563 8.745,16.592 8.745,15.632 "/>
<g>
	<rect x="9.715" y="10.772" fill="#9C8F57" width="0.971" height="0.97"/>
	<polygon fill="#9C8F57" points="9.715,8.842 9.715,7.872 8.745,7.872 8.745,6.902 8.745,5.932 7.784,5.932 6.814,5.932 
		5.845,5.932 4.874,5.932 3.895,5.932 2.925,5.932 2.925,6.902 1.965,6.902 1.965,7.872 1.965,8.842 1.965,9.812 1.965,10.772 
		2.925,10.772 2.925,11.742 2.925,12.722 2.925,13.692 2.925,14.662 2.925,15.632 3.895,15.632 4.874,15.632 5.845,15.632 
		6.814,15.632 7.784,15.632 8.745,15.632 8.745,14.662 8.745,13.692 8.745,12.722 8.745,11.742 8.745,10.772 9.715,10.772 
		9.715,9.812 	"/>
	<rect x="0.995" y="10.772" fill="#9C8F57" width="0.97" height="0.97"/>
</g>
<rect x="2.925" y="31.143" fill="#C7B570" width="0.97" height="0.969"/>
<rect x="15.57" y="8.761" fill="#C7B570" width="0.979" height="0.97"/>
<rect x="14.6" y="8.761" fill="#C7B570" width="0.971" height="0.97"/>
<g>
	<rect x="0.98" y="31.131" fill="#8C8C8C" width="0.98" height="0.98"/>
	<polygon fill="#8C8C8C" points="4.87,31.131 4.87,32.111 5.84,32.111 5.84,31.131 5.84,30.171 4.87,30.171 	"/>
	<rect x="0.98" y="13.631" fill="#8C8C8C" width="0.98" height="0.96"/>
	<rect x="1.96" y="8.761" fill="#8C8C8C" width="0.96" height="0.97"/>
	<rect x="7.79" y="29.191" fill="#8C8C8C" width="0.97" height="0.979"/>
	<polygon fill="#8C8C8C" points="7.79,23.361 6.82,23.361 6.82,22.381 6.82,21.401 6.82,20.441 6.82,19.461 6.82,18.491 
		6.82,17.512 6.82,16.541 6.82,15.571 6.82,14.591 6.82,13.631 6.82,12.651 6.82,11.681 7.79,11.681 7.79,10.711 6.82,10.711 
		6.82,9.731 6.82,8.761 6.82,7.781 6.82,6.821 6.82,5.841 5.84,5.841 5.84,6.821 5.84,7.781 5.84,8.761 5.84,9.731 5.84,10.711 
		5.84,11.681 5.84,12.651 5.84,13.631 5.84,14.591 5.84,15.571 5.84,16.541 4.87,16.541 4.87,17.512 5.84,17.512 5.84,18.491 
		5.84,19.461 5.84,20.441 5.84,21.401 5.84,22.381 5.84,23.361 5.84,24.321 5.84,25.302 5.84,26.271 5.84,27.241 5.84,28.222 
		5.84,29.191 5.84,30.171 6.82,30.171 6.82,29.191 6.82,28.222 6.82,27.241 6.82,26.271 6.82,25.302 6.82,24.321 7.79,24.321 	"/>
	<rect x="3.9" y="10.711" fill="#8C8C8C" width="0.97" height="0.97"/>
	<rect x="3.9" y="26.271" fill="#8C8C8C" width="0.97" height="0.97"/>
	<rect x="2.92" y="20.441" fill="#8C8C8C" width="0.98" height="0.96"/>
	<rect x="7.79" y="17.512" fill="#8C8C8C" width="0.97" height="0.979"/>
	<rect x="13.63" y="11.681" fill="#8C8C8C" width="0.97" height="0.97"/>
	<rect x="9.729" y="11.681" fill="#8C8C8C" width="0.98" height="0.97"/>
	<rect x="7.79" y="7.781" fill="#8C8C8C" width="0.97" height="0.98"/>
	<rect x="2.92" y="5.841" fill="#8C8C8C" width="0.98" height="0.98"/>
</g>
<g>
	<rect y="31.131" fill="#B3B3B3" width="0.98" height="0.98"/>
	<polygon fill="#B3B3B3" points="0.98,11.681 0.98,12.651 0.98,13.631 1.96,13.631 1.96,12.651 1.96,11.681 1.96,10.711 
		0.98,10.711 	"/>
	<polygon fill="#B3B3B3" points="1.96,15.571 1.96,14.591 0.98,14.591 0.98,15.571 0.98,16.541 0.98,17.512 1.96,17.512 
		1.96,16.541 	"/>
	<path fill="#B3B3B3" d="M5.84,28.222v-0.98v-0.97v-0.97v-0.98v-0.96v-0.98v-0.979v-0.96v-0.98v-0.97v-0.979H4.87v-0.971h0.97v-0.97
		v-0.98v-0.96v-0.98v-0.97v-0.97v-0.98v-0.97v-0.98v-0.96v-0.98H4.87H3.9v0.98H2.92H1.96v0.96v0.98h0.96v0.97H1.96v0.98h0.96v0.97
		v0.97v0.98v0.96v0.98v0.97v0.971H1.96v0.979v0.97v0.98v0.96h0.96v-0.96H3.9v0.96H2.92v0.979v0.98v0.96v0.98v0.97v0.97v0.98H1.96
		v0.97v0.979H0.98v0.96h0.98v0.98h0.96v-0.98H3.9v0.98h0.97v-0.98v-0.96h0.97v-0.979V28.222z M3.9,10.711h0.97v0.97H3.9V10.711z
		 M3.9,26.271h0.97v0.97H3.9V26.271z"/>
	<rect x="9.729" y="10.711" fill="#B3B3B3" width="0.98" height="0.97"/>
	<polygon fill="#B3B3B3" points="14.6,9.731 14.6,10.711 13.63,10.711 13.63,11.681 14.6,11.681 15.57,11.681 15.57,10.711 
		15.57,9.731 	"/>
	<rect x="12.649" y="11.681" fill="#B3B3B3" width="0.98" height="0.97"/>
	<polygon fill="#B3B3B3" points="11.68,11.681 10.71,11.681 10.71,12.651 10.71,13.631 11.68,13.631 12.649,13.631 12.649,12.651 
		11.68,12.651 	"/>
	<polygon fill="#B3B3B3" points="9.729,8.761 9.729,7.781 8.76,7.781 8.76,8.761 7.79,8.761 7.79,7.781 8.76,7.781 8.76,6.821 
		8.76,5.841 7.79,5.841 6.82,5.841 6.82,6.821 6.82,7.781 6.82,8.761 6.82,9.731 6.82,10.711 7.79,10.711 7.79,11.681 6.82,11.681 
		6.82,12.651 6.82,13.631 6.82,14.591 6.82,15.571 6.82,16.541 6.82,17.512 6.82,18.491 6.82,19.461 6.82,20.441 6.82,21.401 
		6.82,22.381 6.82,23.361 7.79,23.361 7.79,24.321 6.82,24.321 6.82,25.302 6.82,26.271 6.82,27.241 6.82,28.222 6.82,29.191 
		6.82,30.171 5.84,30.171 5.84,31.131 5.84,32.111 6.82,32.111 7.79,32.111 7.79,31.131 8.76,31.131 8.76,30.171 7.79,30.171 
		7.79,29.191 8.76,29.191 8.76,28.222 8.76,27.241 8.76,26.271 8.76,25.302 8.76,24.321 8.76,23.361 8.76,22.381 8.76,21.401 
		8.76,20.441 8.76,19.461 8.76,18.491 7.79,18.491 7.79,17.512 8.76,17.512 8.76,16.541 8.76,15.571 8.76,14.591 8.76,13.631 
		8.76,12.651 8.76,11.681 8.76,10.711 9.729,10.711 9.729,9.731 	"/>
</g>
<g>
	<polygon fill="#29ABE2" points="17.521,4.87 16.551,4.87 16.551,3.89 16.551,2.91 15.57,2.91 15.57,1.95 15.57,0.97 14.611,0.97 
		14.611,1.95 14.611,2.91 14.611,3.89 15.57,3.89 15.57,4.87 14.611,4.87 14.611,3.89 13.631,3.89 13.631,4.87 13.631,5.83 
		12.65,5.83 12.65,6.811 13.631,6.811 14.611,6.811 14.611,7.781 15.57,7.781 16.551,7.781 17.521,7.781 17.521,6.811 16.551,6.811 
		16.551,5.83 17.521,5.83 17.521,6.811 18.49,6.811 18.49,5.83 18.49,4.87 	"/>
	<g>
		<rect x="14.611" fill="#0071BC" width="0.959" height="0.97"/>
		<rect x="16.551" y="5.83" fill="#0071BC" width="0.971" height="0.98"/>
		<rect x="16.551" y="3.89" fill="#0071BC" width="0.971" height="0.98"/>
		<rect x="15.57" y="1.95" fill="#0071BC" width="0.98" height="0.96"/>
		<rect x="14.611" y="3.89" fill="#0071BC" width="0.959" height="0.98"/>
		<rect x="13.631" y="6.811" fill="#0071BC" width="0.98" height="0.971"/>
		<rect x="12.65" y="4.87" fill="#0071BC" width="0.98" height="0.96"/>
	</g>
</g>
</svg>
