<?xml version="1.0" encoding="utf-8"?>
<!-- Generator: Adobe Illustrator 16.0.0, SVG Export Plug-In . SVG Version: 6.00 Build 0)  -->
<!DOCTYPE svg PUBLIC "-//W3C//DTD SVG 1.1//EN" "http://www.w3.org/Graphics/SVG/1.1/DTD/svg11.dtd">
<svg version="1.1" id="Layer_3" xmlns="http://www.w3.org/2000/svg" xmlns:xlink="http://www.w3.org/1999/xlink" x="0px" y="0px"
	 width="17.519px" height="31.03px" viewBox="0 0 17.519 31.03" enable-background="new 0 0 17.519 31.03" xml:space="preserve">
<polygon fill="#737144" points="6.795,16.48 5.826,16.48 4.866,16.48 3.895,16.48 2.925,16.48 2.925,17.45 1.956,17.45 
	1.956,18.419 2.925,18.419 2.925,19.4 2.925,20.37 2.925,21.33 2.925,22.299 2.925,23.27 2.925,24.24 2.925,25.209 2.925,26.18 
	2.925,27.15 2.925,28.12 2.925,29.089 2.925,30.06 3.895,30.06 3.895,29.089 3.895,28.12 3.895,27.15 3.895,26.18 3.895,25.209 
	3.895,24.24 3.895,23.27 3.895,22.299 4.866,22.299 4.866,21.33 5.826,21.33 5.826,22.299 6.795,22.299 6.795,23.27 6.795,24.24 
	6.795,25.209 6.795,26.18 6.795,27.15 6.795,28.12 6.795,29.089 6.795,30.06 7.775,30.06 7.775,29.089 7.775,28.12 7.775,27.15 
	7.775,26.18 7.775,25.209 7.775,24.24 7.775,23.27 7.775,22.299 7.775,21.33 7.775,20.37 7.775,19.4 7.775,18.419 7.775,17.45 
	7.775,16.48 "/>
<g>
	<polygon fill="#6D5217" points="2.925,2.91 2.925,3.88 2.925,4.85 2.925,5.82 1.956,5.82 1.956,6.79 1.956,7.76 1.956,8.73 
		2.925,8.73 2.925,7.76 3.895,7.76 3.895,8.73 3.895,9.69 3.895,10.66 4.866,10.66 4.866,9.69 4.866,8.73 4.866,7.76 4.866,6.79 
		4.866,5.82 4.866,4.85 4.866,3.88 4.866,2.91 3.895,2.91 	"/>
	<rect x="7.775" y="7.76" fill="#6D5217" width="0.971" height="0.97"/>
	<rect x="0.985" y="8.73" fill="#6D5217" width="0.971" height="0.96"/>
	<polygon fill="#6D5217" points="8.746,0.97 8.746,0 7.775,0 6.795,0 5.826,0 4.866,0 4.866,0.97 3.895,0.97 3.895,1.94 4.866,1.94 
		4.866,2.91 5.826,2.91 5.826,1.94 6.795,1.94 7.775,1.94 7.775,2.91 8.746,2.91 8.746,1.94 9.715,1.94 9.715,0.97 	"/>
	<polygon fill="#6D5217" points="7.775,5.82 6.795,5.82 6.795,6.79 6.795,7.76 7.775,7.76 7.775,6.79 	"/>
</g>
<rect x="6.795" y="30.06" fill="#C7B570" width="0.979" height="0.97"/>
<polygon fill="#C7B570" points="6.795,5.82 7.775,5.82 7.775,4.85 7.775,3.88 7.775,2.91 7.775,1.94 6.795,1.94 5.826,1.94 
	5.826,2.91 4.866,2.91 4.866,3.88 4.866,4.85 4.866,5.82 4.866,6.79 5.826,6.79 6.795,6.79 "/>
<rect x="3.895" y="1.94" fill="#C7B570" width="0.971" height="0.97"/>
<rect x="2.925" y="30.06" fill="#C7B570" width="0.97" height="0.97"/>
<polygon fill="#C7B570" points="1.956,20.37 1.956,21.33 1.956,22.299 2.925,22.299 2.925,21.33 2.925,20.37 2.925,19.4 
	2.925,18.419 1.956,18.419 1.956,19.4 "/>
<polygon fill="#C7B570" points="1.956,16.48 1.956,15.51 1.956,14.549 0.985,14.549 0.985,15.51 0.985,16.48 0.985,17.45 
	0.985,18.419 1.956,18.419 1.956,17.45 "/>
<g>
	<polygon fill="#9C8F57" points="8.746,11.64 8.746,12.61 8.746,13.58 8.746,14.549 9.715,14.549 9.715,13.58 9.715,12.61 
		9.715,11.64 	"/>
	<polygon fill="#9C8F57" points="8.746,9.69 8.746,8.73 7.775,8.73 7.775,7.76 6.795,7.76 6.795,6.79 5.826,6.79 4.866,6.79 
		4.866,7.76 4.866,8.73 4.866,9.69 4.866,10.66 3.895,10.66 3.895,9.69 3.895,8.73 3.895,7.76 2.925,7.76 2.925,8.73 1.956,8.73 
		1.956,9.69 1.956,10.66 1.956,11.64 2.925,11.64 2.925,12.61 2.925,13.58 2.925,14.549 2.925,15.51 3.895,15.51 3.895,16.48 
		4.866,16.48 5.826,16.48 6.795,16.48 6.795,15.51 7.775,15.51 7.775,14.549 7.775,13.58 7.775,12.61 7.775,11.64 8.746,11.64 
		8.746,10.66 	"/>
	<polygon fill="#9C8F57" points="0.985,12.61 0.985,13.58 0.985,14.549 1.956,14.549 1.956,13.58 1.956,12.61 1.956,11.64 
		0.985,11.64 	"/>
</g>
<rect x="14.6" y="10.6" fill="#C7B570" width="0.96" height="0.97"/>
<rect x="13.62" y="10.6" fill="#C7B570" width="0.98" height="0.97"/>
<g>
	<rect x="11.68" y="13.51" fill="#8C8C8C" width="0.96" height="0.98"/>
	<rect x="8.75" y="12.55" fill="#8C8C8C" width="0.979" height="0.96"/>
	<rect x="6.81" y="21.299" fill="#8C8C8C" width="0.97" height="0.98"/>
	<rect x="6.81" y="8.65" fill="#8C8C8C" width="0.97" height="0.98"/>
	<polygon fill="#8C8C8C" points="5.83,27.14 5.83,26.16 5.83,25.19 5.83,24.22 5.83,23.24 5.83,22.28 5.83,21.299 5.83,20.32 
		5.83,19.36 5.83,18.379 5.83,17.41 5.83,16.43 5.83,15.459 5.83,14.49 6.81,14.49 6.81,13.51 5.83,13.51 5.83,12.55 5.83,11.57 
		5.83,10.6 5.83,9.63 5.83,8.65 5.83,7.68 5.83,6.7 4.87,6.7 4.87,7.68 4.87,8.65 4.87,9.63 4.87,10.6 4.87,11.57 4.87,12.55 
		4.87,13.51 4.87,14.49 4.87,15.459 4.87,16.43 4.87,17.41 4.87,18.379 4.87,19.36 4.87,20.32 4.87,21.299 4.87,22.28 4.87,23.24 
		4.87,24.22 4.87,25.19 4.87,26.16 4.87,27.14 4.87,28.11 4.87,29.089 4.87,30.049 4.87,31.03 5.83,31.03 5.83,30.049 5.83,29.089 
		6.81,29.089 6.81,28.11 5.83,28.11 	"/>
	<rect x="2.92" y="27.14" fill="#8C8C8C" width="0.97" height="0.97"/>
	<rect x="2.92" y="18.379" fill="#8C8C8C" width="0.97" height="0.98"/>
	<rect x="1.95" y="10.6" fill="#8C8C8C" width="0.97" height="0.97"/>
	<rect x="0.97" y="29.089" fill="#8C8C8C" width="0.98" height="0.96"/>
	<rect x="0.97" y="14.49" fill="#8C8C8C" width="0.98" height="0.97"/>
</g>
<g>
	<rect x="13.62" y="11.57" fill="#B3B3B3" width="0.98" height="0.98"/>
	<rect x="12.64" y="12.55" fill="#B3B3B3" width="0.979" height="0.96"/>
	<rect x="11.68" y="14.49" fill="#B3B3B3" width="0.96" height="0.97"/>
	<rect x="10.7" y="15.459" fill="#B3B3B3" width="0.98" height="0.971"/>
	<rect x="9.73" y="14.49" fill="#B3B3B3" width="0.97" height="0.97"/>
	<rect x="8.75" y="13.51" fill="#B3B3B3" width="0.979" height="0.98"/>
	<rect x="8.75" y="11.57" fill="#B3B3B3" width="0.979" height="0.98"/>
	<polygon fill="#B3B3B3" points="8.75,10.6 8.75,9.63 8.75,8.65 7.78,8.65 7.78,9.63 6.81,9.63 6.81,8.65 7.78,8.65 7.78,7.68 
		6.81,7.68 6.81,6.7 5.83,6.7 5.83,7.68 5.83,8.65 5.83,9.63 5.83,10.6 5.83,11.57 5.83,12.55 5.83,13.51 6.81,13.51 6.81,14.49 
		5.83,14.49 5.83,15.459 5.83,16.43 5.83,17.41 5.83,18.379 5.83,19.36 5.83,20.32 5.83,21.299 5.83,22.28 5.83,23.24 5.83,24.22 
		5.83,25.19 5.83,26.16 5.83,27.14 5.83,28.11 6.81,28.11 6.81,29.089 5.83,29.089 5.83,30.049 5.83,31.03 6.81,31.03 6.81,30.049 
		7.78,30.049 7.78,29.089 7.78,28.11 7.78,27.14 7.78,26.16 7.78,25.19 7.78,24.22 7.78,23.24 7.78,22.28 6.81,22.28 6.81,21.299 
		7.78,21.299 7.78,20.32 7.78,19.36 7.78,18.379 7.78,17.41 7.78,16.43 6.81,16.43 6.81,15.459 7.78,15.459 7.78,14.49 7.78,13.51 
		7.78,12.55 7.78,11.57 8.75,11.57 	"/>
	<path fill="#B3B3B3" d="M3.89,9.63V8.65V7.68H2.92v0.97H1.95v0.98v0.97h0.97v0.97v0.98v0.96v0.98v0.97h0.97v0.971H2.92v0.979H1.95
		V16.43v-0.971H0.97v0.971v0.979v0.97h0.98v0.98v0.96v0.979h0.97v0.98v0.96v0.98v0.97v0.97H1.95v0.98v0.97v0.979v0.96H0.97H0v0.98
		h0.97h0.98h0.97v-0.98h0.97v0.98h0.98v-0.98v-0.96V28.11v-0.97v-0.98v-0.97v-0.97v-0.98v-0.96v-0.98V20.32v-0.96v-0.98v-0.97V16.43
		v-0.971v-0.97v-0.98v-0.96v-0.98V10.6H3.89V9.63z M3.89,28.11H2.92v-0.97h0.97V28.11z M3.89,19.36H2.92v-0.98h0.97V19.36z"/>
	<polygon fill="#B3B3B3" points="1.95,13.51 1.95,12.55 1.95,11.57 0.97,11.57 0.97,12.55 0.97,13.51 0.97,14.49 1.95,14.49 	"/>
</g>
<g>
	<polygon fill="#ED1C24" points="16.548,6.799 15.58,6.799 15.58,5.82 15.58,4.84 14.599,4.84 14.599,3.88 14.599,2.9 13.638,2.9 
		13.638,3.88 13.638,4.84 13.638,5.82 14.599,5.82 14.599,6.799 13.638,6.799 13.638,5.82 12.658,5.82 12.658,6.799 12.658,7.76 
		11.679,7.76 11.679,8.741 12.658,8.741 13.638,8.741 13.638,9.709 14.599,9.709 15.58,9.709 16.548,9.709 16.548,8.741 
		15.58,8.741 15.58,7.76 16.548,7.76 16.548,8.741 17.519,8.741 17.519,7.76 17.519,6.799 	"/>
	<g>
		<rect x="13.638" y="1.93" fill="#F7931E" width="0.961" height="0.97"/>
		<rect x="15.58" y="7.76" fill="#F7931E" width="0.969" height="0.98"/>
		<rect x="15.58" y="5.82" fill="#F7931E" width="0.969" height="0.979"/>
		<rect x="14.599" y="3.88" fill="#F7931E" width="0.98" height="0.96"/>
		<rect x="13.638" y="5.82" fill="#F7931E" width="0.961" height="0.979"/>
		<rect x="12.658" y="8.741" fill="#F7931E" width="0.98" height="0.969"/>
		<rect x="11.679" y="6.799" fill="#F7931E" width="0.979" height="0.961"/>
	</g>
</g>
</svg>
