<?xml version="1.0" encoding="utf-8"?>
<!-- Generator: Adobe Illustrator 16.0.0, SVG Export Plug-In . SVG Version: 6.00 Build 0)  -->
<!DOCTYPE svg PUBLIC "-//W3C//DTD SVG 1.1//EN" "http://www.w3.org/Graphics/SVG/1.1/DTD/svg11.dtd">
<svg version="1.1" id="Layer_3" xmlns="http://www.w3.org/2000/svg" xmlns:xlink="http://www.w3.org/1999/xlink" x="0px" y="0px"
	 width="18.485px" height="34.06px" viewBox="0 0 18.485 34.06" enable-background="new 0 0 18.485 34.06" xml:space="preserve">
<polygon fill="#737144" points="8.759,18.49 8.759,17.52 7.791,17.52 6.81,17.52 5.84,17.52 4.86,17.52 3.9,17.52 2.92,17.52 
	1.94,17.52 1.94,18.49 1.94,19.46 1.94,20.44 1.94,21.41 2.92,21.41 2.92,22.39 2.92,23.35 2.92,24.33 2.92,25.31 2.92,26.27 
	2.92,27.25 2.92,28.22 2.92,29.19 2.92,30.17 2.92,31.14 2.92,32.12 2.92,33.08 3.9,33.08 3.9,32.12 3.9,31.14 3.9,30.17 3.9,29.19 
	3.9,28.22 3.9,27.25 3.9,26.27 3.9,25.31 3.9,24.33 3.9,23.35 3.9,22.39 3.9,21.41 4.86,21.41 4.86,20.44 5.84,20.44 6.81,20.44 
	6.81,21.41 7.791,21.41 7.791,22.39 7.791,23.35 7.791,24.33 7.791,25.31 7.791,26.27 7.791,27.25 7.791,28.22 7.791,29.19 
	7.791,30.17 7.791,31.14 7.791,32.12 7.791,33.08 8.759,33.08 8.759,32.12 8.759,31.14 8.759,30.17 8.759,29.19 8.759,28.22 
	8.759,27.25 8.759,26.27 8.759,25.31 8.759,24.33 8.759,23.35 8.759,22.39 8.759,21.41 9.73,21.41 9.73,20.44 9.73,19.46 
	9.73,18.49 "/>
<g>
	<rect x="8.759" y="2.93" fill="#6D5217" width="0.971" height="0.97"/>
	<polygon fill="#6D5217" points="8.759,5.85 7.791,5.85 7.791,6.81 7.791,7.79 7.791,8.77 7.791,9.73 8.759,9.73 8.759,8.77 
		9.73,8.77 9.73,7.79 9.73,6.81 8.759,6.81 	"/>
	<polygon fill="#6D5217" points="8.759,0.98 7.791,0.98 7.791,0 6.81,0 5.84,0 4.86,0 4.86,0.98 3.9,0.98 3.9,1.95 3.9,2.93 
		2.92,2.93 2.92,3.9 2.92,4.87 2.92,5.85 1.94,5.85 1.94,6.81 0.98,6.81 0.98,7.79 1.94,7.79 2.92,7.79 2.92,8.77 3.9,8.77 
		3.9,9.73 3.9,10.71 4.86,10.71 4.86,9.73 4.86,8.77 4.86,7.79 4.86,6.81 4.86,5.85 4.86,4.87 4.86,3.9 4.86,2.93 4.86,1.95 
		5.84,1.95 6.81,1.95 7.791,1.95 7.791,2.93 8.759,2.93 8.759,1.95 	"/>
</g>
<rect x="2.92" y="33.08" fill="#C7B570" width="0.98" height="0.98"/>
<rect x="7.791" y="33.08" fill="#C7B570" width="0.969" height="0.98"/>
<polygon fill="#C7B570" points="7.791,1.95 6.81,1.95 5.84,1.95 4.86,1.95 4.86,2.93 4.86,3.9 4.86,4.87 4.86,5.85 4.86,6.81 
	5.84,6.81 6.81,6.81 7.791,6.81 7.791,5.85 8.759,5.85 8.759,4.87 8.759,3.9 8.759,2.93 7.791,2.93 "/>
<polygon fill="#9C8F57" points="9.73,7.79 9.73,8.77 8.759,8.77 8.759,9.73 7.791,9.73 7.791,8.77 7.791,7.79 7.791,6.81 6.81,6.81 
	5.84,6.81 4.86,6.81 4.86,7.79 4.86,8.77 4.86,9.73 4.86,10.71 3.9,10.71 3.9,9.73 3.9,8.77 2.92,8.77 2.92,7.79 1.94,7.79 
	0.98,7.79 0.98,8.77 0,8.77 0,9.73 0,10.71 0,11.68 0.98,11.68 0.98,10.71 1.94,10.71 1.94,11.68 1.94,12.66 2.92,12.66 2.92,13.63 
	2.92,14.6 2.92,15.58 2.92,16.54 1.94,16.54 1.94,17.52 2.92,17.52 3.9,17.52 4.86,17.52 5.84,17.52 6.81,17.52 7.791,17.52 
	8.759,17.52 8.759,18.49 9.73,18.49 9.73,17.52 9.73,16.54 8.759,16.54 8.759,15.58 8.759,14.6 8.759,13.63 8.759,12.66 9.73,12.66 
	9.73,11.68 10.71,11.68 10.71,10.71 10.71,9.73 10.71,8.77 10.71,7.79 "/>
<polygon fill="#737144" points="8.759,18.49 8.759,17.52 7.791,17.52 6.81,17.52 5.84,17.52 4.86,17.52 3.9,17.52 2.92,17.52 
	1.94,17.52 1.94,18.49 1.94,19.46 1.94,20.44 1.94,21.41 2.92,21.41 2.92,22.39 2.92,23.35 2.92,24.33 2.92,25.31 2.92,26.27 
	2.92,27.25 2.92,28.22 2.92,29.19 2.92,30.17 2.92,31.14 2.92,32.12 2.92,33.08 3.9,33.08 3.9,32.12 3.9,31.14 3.9,30.17 3.9,29.19 
	3.9,28.22 3.9,27.25 3.9,26.27 3.9,25.31 3.9,24.33 3.9,23.35 3.9,22.39 3.9,21.41 4.86,21.41 4.86,20.44 5.84,20.44 6.81,20.44 
	6.81,21.41 7.791,21.41 7.791,22.39 7.791,23.35 7.791,24.33 7.791,25.31 7.791,26.27 7.791,27.25 7.791,28.22 7.791,29.19 
	7.791,30.17 7.791,31.14 7.791,32.12 7.791,33.08 8.759,33.08 8.759,32.12 8.759,31.14 8.759,30.17 8.759,29.19 8.759,28.22 
	8.759,27.25 8.759,26.27 8.759,25.31 8.759,24.33 8.759,23.35 8.759,22.39 8.759,21.41 9.73,21.41 9.73,20.44 9.73,19.46 
	9.73,18.49 "/>
<g>
	<rect x="8.759" y="2.93" fill="#6D5217" width="0.971" height="0.97"/>
	<polygon fill="#6D5217" points="8.759,5.85 7.791,5.85 7.791,6.81 7.791,7.79 7.791,8.77 7.791,9.73 8.759,9.73 8.759,8.77 
		9.73,8.77 9.73,7.79 9.73,6.81 8.759,6.81 	"/>
	<polygon fill="#6D5217" points="8.759,0.98 7.791,0.98 7.791,0 6.81,0 5.84,0 4.86,0 4.86,0.98 3.9,0.98 3.9,1.95 3.9,2.93 
		2.92,2.93 2.92,3.9 2.92,4.87 2.92,5.85 1.94,5.85 1.94,6.81 0.98,6.81 0.98,7.79 1.94,7.79 2.92,7.79 2.92,8.77 3.9,8.77 
		3.9,9.73 3.9,10.71 4.86,10.71 4.86,9.73 4.86,8.77 4.86,7.79 4.86,6.81 4.86,5.85 4.86,4.87 4.86,3.9 4.86,2.93 4.86,1.95 
		5.84,1.95 6.81,1.95 7.791,1.95 7.791,2.93 8.759,2.93 8.759,1.95 	"/>
</g>
<rect x="2.92" y="33.08" fill="#C7B570" width="0.98" height="0.98"/>
<rect x="7.791" y="33.08" fill="#C7B570" width="0.969" height="0.98"/>
<polygon fill="#C7B570" points="7.791,1.95 6.81,1.95 5.84,1.95 4.86,1.95 4.86,2.93 4.86,3.9 4.86,4.87 4.86,5.85 4.86,6.81 
	5.84,6.81 6.81,6.81 7.791,6.81 7.791,5.85 8.759,5.85 8.759,4.87 8.759,3.9 8.759,2.93 7.791,2.93 "/>
<polygon fill="#9C8F57" points="9.73,7.79 9.73,8.77 8.759,8.77 8.759,9.73 7.791,9.73 7.791,8.77 7.791,7.79 7.791,6.81 6.81,6.81 
	5.84,6.81 4.86,6.81 4.86,7.79 4.86,8.77 4.86,9.73 4.86,10.71 3.9,10.71 3.9,9.73 3.9,8.77 2.92,8.77 2.92,7.79 1.94,7.79 
	0.98,7.79 0.98,8.77 0,8.77 0,9.73 0,10.71 0,11.68 0.98,11.68 0.98,10.71 1.94,10.71 1.94,11.68 1.94,12.66 2.92,12.66 2.92,13.63 
	2.92,14.6 2.92,15.58 2.92,16.54 1.94,16.54 1.94,17.52 2.92,17.52 3.9,17.52 4.86,17.52 5.84,17.52 6.81,17.52 7.791,17.52 
	8.759,17.52 8.759,18.49 9.73,18.49 9.73,17.52 9.73,16.54 8.759,16.54 8.759,15.58 8.759,14.6 8.759,13.63 8.759,12.66 9.73,12.66 
	9.73,11.68 10.71,11.68 10.71,10.71 10.71,9.73 10.71,8.77 10.71,7.79 "/>
<g>
	<polygon fill="#C7B570" points="10.705,12.66 10.705,11.68 9.735,11.68 9.735,12.66 9.735,13.63 9.735,14.6 10.705,14.6 
		10.705,13.63 	"/>
	<polygon fill="#C7B570" points="15.565,12.66 14.605,12.66 14.605,13.63 14.605,14.6 15.565,14.6 15.565,13.63 16.545,13.63 
		16.545,12.66 	"/>
	<rect x="13.625" y="14.6" fill="#C7B570" width="0.98" height="0.98"/>
	<polygon fill="#C7B570" points="12.645,16.54 11.685,16.54 11.685,17.52 12.645,17.52 13.625,17.52 13.625,16.54 13.625,15.58 
		12.645,15.58 	"/>
	<polygon fill="#C7B570" points="11.685,14.6 10.705,14.6 10.705,15.58 10.705,16.54 11.685,16.54 11.685,15.58 	"/>
</g>
<rect x="5.835" y="8.77" fill="#C7B570" width="0.98" height="0.96"/>
<rect x="5.835" y="7.79" fill="#C7B570" width="0.98" height="0.98"/>
<rect x="5.835" y="6.81" fill="#C7B570" width="0.98" height="0.98"/>
<rect x="0.005" y="22.39" fill="#C7B570" width="0.97" height="0.96"/>
<g>
	<rect x="12.645" y="15.58" fill="#8C8C8C" width="0.979" height="0.96"/>
	<rect x="8.755" y="9.73" fill="#8C8C8C" width="0.979" height="0.98"/>
	<rect x="7.785" y="30.17" fill="#8C8C8C" width="0.971" height="0.97"/>
	<rect x="7.785" y="19.46" fill="#8C8C8C" width="0.971" height="0.979"/>
	<polygon fill="#8C8C8C" points="7.785,23.35 6.815,23.35 6.815,22.39 6.815,21.41 6.815,20.44 6.815,19.46 6.815,18.49 
		6.815,17.52 6.815,16.54 6.815,15.58 6.815,14.6 6.815,13.62 6.815,12.66 6.815,11.68 6.815,10.71 6.815,9.73 5.835,9.73 
		5.835,10.71 5.835,11.68 5.835,12.66 5.835,13.62 5.835,14.6 5.835,15.58 5.835,16.54 5.835,17.52 5.835,18.49 5.835,19.46 
		5.835,20.44 5.835,21.41 5.835,22.39 5.835,23.35 5.835,24.33 5.835,25.31 5.835,26.27 5.835,27.25 5.835,28.22 5.835,29.19 
		5.835,30.17 5.835,31.14 5.835,32.12 6.815,32.12 6.815,31.14 6.815,30.17 6.815,29.19 6.815,28.22 6.815,27.25 6.815,26.27 
		6.815,25.31 6.815,24.33 7.785,24.33 	"/>
	<polygon fill="#8C8C8C" points="4.875,33.08 4.875,34.06 5.835,34.06 5.835,33.08 5.835,32.12 4.875,32.12 	"/>
	<rect x="3.895" y="25.31" fill="#8C8C8C" width="0.98" height="0.96"/>
	<rect x="3.895" y="17.52" fill="#8C8C8C" width="0.98" height="0.97"/>
	<rect x="2.925" y="31.14" fill="#8C8C8C" width="0.97" height="0.979"/>
	<rect x="2.925" y="11.68" fill="#8C8C8C" width="0.97" height="0.98"/>
	<rect x="0.975" y="9.73" fill="#8C8C8C" width="0.98" height="0.98"/>
	<rect x="0.005" y="19.46" fill="#8C8C8C" width="0.97" height="0.979"/>
	<rect x="0.005" y="14.6" fill="#8C8C8C" width="0.97" height="0.98"/>
</g>
<g>
	<rect x="14.605" y="13.62" fill="#B3B3B3" width="0.96" height="0.98"/>
	<rect x="13.625" y="14.6" fill="#B3B3B3" width="0.98" height="0.98"/>
	<polygon fill="#B3B3B3" points="11.685,16.54 11.685,17.52 12.645,17.52 13.625,17.52 13.625,16.54 12.645,16.54 	"/>
	<polygon fill="#B3B3B3" points="11.685,14.6 10.705,14.6 10.705,15.58 10.705,16.54 11.685,16.54 11.685,15.58 	"/>
	<path fill="#B3B3B3" d="M10.705,12.66v-0.98v-0.97V9.73V8.77V7.79h-0.97v0.98H8.755v0.96h0.979v0.98H8.755V9.73H7.785V8.77V7.79
		V6.81h-0.97v0.98v0.98v0.96v0.98v0.97v0.98v0.96v0.98v0.98v0.96v0.98v0.97v0.971v0.979v0.97v0.98v0.96h0.97v0.979h-0.97v0.98v0.96
		v0.98v0.97v0.97v0.98v0.97v0.979h-0.98v0.96v0.98h0.98h0.97v-0.98h0.971v-0.96V31.14H7.785v-0.97h0.971v-0.98v-0.97v-0.97v-0.98
		v-0.96v-0.98V23.35v-0.96v-0.98h0.979v-0.97V19.46V18.49v-0.97v-0.98H8.755v-0.96V14.6v-0.98v-0.96h0.979v0.96v0.98h0.97v-0.98
		V12.66z M8.755,20.44H7.785V19.46h0.971V20.44z"/>
	<path fill="#B3B3B3" d="M5.835,30.17v-0.98v-0.97v-0.97v-0.98v-0.96v-0.98V23.35v-0.96v-0.98v-0.97V19.46V18.49v-0.97v-0.98v-0.96
		V14.6v-0.98v-0.96v-0.98v-0.97V9.73V8.77V7.79V6.81h-0.96v0.98v0.98v0.96v0.98h-0.98V9.73V8.77h-0.97V7.79h-0.97h-0.98v0.98h-0.97
		v0.96v0.98v0.97v0.98v0.96v0.98h0.97v-0.98v-0.96v-0.98v-0.97V9.73h0.98v0.98v0.97v0.98h0.97v-0.98h0.97v0.98h-0.97v0.96v0.98v0.98
		v0.96h-0.97v0.98v0.97v0.971v0.979v0.97h0.97v0.98v0.96v0.979v0.98v0.96v0.98v0.97h-0.97v0.97v0.98v0.97v0.979h-0.98v0.96h-0.97
		v0.98h0.97h0.98h0.97v-0.98h0.97v0.98h0.98v-0.98v-0.96h0.96V31.14V30.17z M4.875,18.49h-0.98v-0.97h0.98V18.49z M3.895,25.31h0.98
		v0.96h-0.98V25.31z M2.925,32.12V31.14h0.97v0.979H2.925z"/>
	<polygon fill="#B3B3B3" points="0.975,21.41 0.975,20.44 0.005,20.44 0.005,21.41 0.005,22.39 0.975,22.39 	"/>
	<polygon fill="#B3B3B3" points="0.975,18.49 0.975,17.52 0.975,16.54 0.975,15.58 0.005,15.58 0.005,16.54 0.005,17.52 
		0.005,18.49 0.005,19.46 0.975,19.46 	"/>
</g>
<g>
	<polygon fill="#ED1C24" points="17.515,8.77 16.545,8.77 16.545,7.79 16.545,6.81 15.565,6.81 15.565,5.85 15.565,4.87 
		14.605,4.87 14.605,5.85 14.605,6.81 14.605,7.79 15.565,7.79 15.565,8.77 14.605,8.77 14.605,7.79 13.625,7.79 13.625,8.77 
		13.625,9.73 12.645,9.73 12.645,10.71 13.625,10.71 14.605,10.71 14.605,11.68 15.565,11.68 16.545,11.68 17.515,11.68 
		17.515,10.71 16.545,10.71 16.545,9.73 17.515,9.73 17.515,10.71 18.485,10.71 18.485,9.73 18.485,8.77 	"/>
	<g>
		<rect x="14.605" y="3.9" fill="#F7931E" width="0.96" height="0.97"/>
		<rect x="16.545" y="9.73" fill="#F7931E" width="0.97" height="0.98"/>
		<rect x="16.545" y="7.79" fill="#F7931E" width="0.97" height="0.98"/>
		<rect x="15.565" y="5.85" fill="#F7931E" width="0.98" height="0.96"/>
		<rect x="14.605" y="7.79" fill="#F7931E" width="0.96" height="0.98"/>
		<rect x="13.625" y="10.71" fill="#F7931E" width="0.98" height="0.97"/>
		<rect x="12.645" y="8.77" fill="#F7931E" width="0.979" height="0.96"/>
	</g>
</g>
</svg>
