<?xml version="1.0" encoding="utf-8"?>
<!-- Generator: Adobe Illustrator 16.0.0, SVG Export Plug-In . SVG Version: 6.00 Build 0)  -->
<!DOCTYPE svg PUBLIC "-//W3C//DTD SVG 1.1//EN" "http://www.w3.org/Graphics/SVG/1.1/DTD/svg11.dtd">
<svg version="1.1" id="Layer_3" xmlns="http://www.w3.org/2000/svg" xmlns:xlink="http://www.w3.org/1999/xlink" x="0px" y="0px"
	 width="17.519px" height="23.27px" viewBox="0 0 17.519 23.27" enable-background="new 0 0 17.519 23.27" xml:space="preserve">
<polygon fill="#737144" points="8.75,14.54 8.75,13.57 7.78,13.57 6.81,13.57 5.83,13.57 4.86,13.57 3.9,13.57 2.93,13.57 
	2.93,14.54 1.96,14.54 1.96,15.51 1.96,16.48 1.96,17.45 2.93,17.45 2.93,18.42 2.93,19.39 2.93,20.36 2.93,21.33 2.93,22.3 
	3.9,22.3 3.9,21.33 3.9,20.36 3.9,19.39 3.9,18.42 3.9,17.45 3.9,16.48 4.86,16.48 4.86,15.51 5.83,15.51 6.81,15.51 6.81,16.48 
	7.78,16.48 7.78,17.45 7.78,18.42 7.78,19.39 7.78,20.36 7.78,21.33 7.78,22.3 8.75,22.3 8.75,21.33 8.75,20.36 8.75,19.39 
	8.75,18.42 8.75,17.45 9.72,17.45 9.72,16.48 9.72,15.51 9.72,14.54 "/>
<g>
	<rect x="8.75" y="1.93" fill="#6D5217" width="0.97" height="0.97"/>
	<polygon fill="#6D5217" points="7.78,0.97 7.78,0 6.81,0 5.83,0 4.86,0 3.9,0 3.9,0.97 2.93,0.97 2.93,1.93 2.93,2.9 1.96,2.9 
		1.96,3.88 1.96,4.85 1.96,5.82 1.96,6.79 2.93,6.79 2.93,7.75 3.9,7.75 3.9,6.79 3.9,5.82 3.9,4.85 4.86,4.85 4.86,3.88 5.83,3.88 
		5.83,2.9 5.83,1.93 6.81,1.93 7.78,1.93 8.75,1.93 8.75,0.97 	"/>
	<polygon fill="#6D5217" points="6.81,4.85 6.81,5.82 6.81,6.79 7.78,6.79 8.75,6.79 8.75,7.75 8.75,8.72 8.75,9.69 9.72,9.69 
		9.72,8.72 9.72,7.75 9.72,6.79 9.72,5.82 8.75,5.82 8.75,4.85 8.75,3.88 7.78,3.88 6.81,3.88 5.83,3.88 5.83,4.85 	"/>
</g>
<polygon fill="#C7B570" points="0.99,14.54 0.99,15.51 0.99,16.48 0.99,17.45 0.99,18.42 1.96,18.42 1.96,17.45 1.96,16.48 
	1.96,15.51 1.96,14.54 1.96,13.57 0.99,13.57 "/>
<rect x="7.78" y="22.3" fill="#C7B570" width="0.971" height="0.97"/>
<polygon fill="#C7B570" points="6.81,1.93 5.83,1.93 5.83,2.9 5.83,3.88 6.81,3.88 7.78,3.88 8.75,3.88 8.75,2.9 8.75,1.93 
	7.78,1.93 "/>
<polygon fill="#C7B570" points="4.86,4.85 3.9,4.85 3.9,5.82 4.86,5.82 5.83,5.82 6.81,5.82 6.81,4.85 5.83,4.85 5.83,3.88 
	4.86,3.88 "/>
<rect x="2.93" y="22.3" fill="#C7B570" width="0.97" height="0.97"/>
<g>
	<polygon fill="#9C8F57" points="9.72,7.75 9.72,8.72 9.72,9.69 8.75,9.69 8.75,8.72 8.75,7.75 8.75,6.79 7.78,6.79 6.81,6.79 
		6.81,5.82 5.83,5.82 4.86,5.82 3.9,5.82 3.9,6.79 3.9,7.75 2.93,7.75 2.93,6.79 1.96,6.79 0.99,6.79 0.99,7.75 0.99,8.72 
		0.99,9.69 0.99,10.66 1.96,10.66 2.93,10.66 2.93,11.64 2.93,12.61 2.93,13.57 3.9,13.57 4.86,13.57 5.83,13.57 6.81,13.57 
		7.78,13.57 8.75,13.57 8.75,12.61 8.75,11.64 8.75,10.66 9.72,10.66 9.72,11.64 9.72,12.61 9.72,13.57 10.68,13.57 10.68,12.61 
		10.68,11.64 10.68,10.66 10.68,9.69 10.68,8.72 10.68,7.75 	"/>
	<polygon fill="#9C8F57" points="0.02,11.64 0.02,12.61 0.02,13.57 0.99,13.57 0.99,12.61 0.99,11.64 0.99,10.66 0.02,10.66 	"/>
</g>
<rect x="14.6" y="10.62" fill="#C7B570" width="0.96" height="0.98"/>
<rect x="13.62" y="10.62" fill="#C7B570" width="0.98" height="0.98"/>
<rect x="5.83" y="8.67" fill="#C7B570" width="0.98" height="0.979"/>
<rect x="5.83" y="7.7" fill="#C7B570" width="0.98" height="0.971"/>
<rect x="5.83" y="6.73" fill="#C7B570" width="0.98" height="0.97"/>
<rect x="5.83" y="5.75" fill="#C7B570" width="0.98" height="0.98"/>
<g>
	<rect x="9.73" y="9.65" fill="#8C8C8C" width="0.97" height="0.97"/>
	<rect x="7.78" y="21.33" fill="#8C8C8C" width="0.971" height="0.96"/>
	<rect x="7.78" y="15.48" fill="#8C8C8C" width="0.971" height="0.98"/>
	<rect x="7.78" y="9.65" fill="#8C8C8C" width="0.971" height="0.97"/>
	<rect x="7.78" y="6.73" fill="#8C8C8C" width="0.971" height="0.97"/>
	<polygon fill="#8C8C8C" points="7.78,18.4 6.81,18.4 6.81,17.43 6.81,16.46 6.81,15.48 6.81,14.52 6.81,13.54 6.81,12.56 
		6.81,11.6 6.81,10.62 6.81,9.65 5.83,9.65 5.83,10.62 5.83,11.6 5.83,12.56 5.83,13.54 5.83,14.52 5.83,15.48 5.83,16.46 
		5.83,17.43 5.83,18.4 5.83,19.38 5.83,20.35 5.83,21.33 6.81,21.33 6.81,20.35 6.81,19.38 7.78,19.38 	"/>
	<polygon fill="#8C8C8C" points="4.87,22.29 4.87,23.27 5.83,23.27 5.83,22.29 5.83,21.33 4.87,21.33 	"/>
	<rect x="4.87" y="8.67" fill="#8C8C8C" width="0.96" height="0.979"/>
	<rect x="3.89" y="13.54" fill="#8C8C8C" width="0.98" height="0.98"/>
	<rect x="2.92" y="20.35" fill="#8C8C8C" width="0.97" height="0.979"/>
	<rect x="1.95" y="15.48" fill="#8C8C8C" width="0.97" height="0.98"/>
	<rect x="1.95" y="7.7" fill="#8C8C8C" width="0.97" height="0.971"/>
	<rect y="11.6" fill="#8C8C8C" width="0.97" height="0.96"/>
</g>
<g>
	<rect x="13.62" y="11.6" fill="#B3B3B3" width="0.98" height="0.96"/>
	<rect x="12.64" y="12.56" fill="#B3B3B3" width="0.979" height="0.979"/>
	<polygon fill="#B3B3B3" points="10.7,13.54 10.7,14.52 11.68,14.52 12.64,14.52 12.64,13.54 11.68,13.54 	"/>
	<polygon fill="#B3B3B3" points="10.7,11.6 10.7,10.62 9.73,10.62 9.73,11.6 9.73,12.56 9.73,13.54 10.7,13.54 10.7,12.56 	"/>
	<polygon fill="#B3B3B3" points="10.7,8.67 10.7,7.7 9.73,7.7 9.73,8.67 9.73,9.65 10.7,9.65 	"/>
	<rect x="8.75" y="9.65" fill="#B3B3B3" width="0.979" height="0.97"/>
	<path fill="#B3B3B3" d="M7.78,9.65H8.75V8.67V7.7H7.78V6.73H6.81V7.7V8.67V9.65v0.97v0.98v0.96v0.979v0.98v0.96v0.98v0.97v0.97
		h0.97v0.98H6.81v0.97v0.979H5.83v0.96v0.98h0.98h0.97v-0.98v-0.96H8.75V20.35v-0.97V18.4v-0.97H9.73v-0.97v-0.98v-0.96H8.75v-0.98
		V12.56V11.6v-0.98H7.78V9.65z M8.75,16.46H7.78v-0.98H8.75V16.46z"/>
	<path fill="#B3B3B3" d="M5.83,19.38V18.4v-0.97v-0.97v-0.98v-0.96v-0.98V12.56V11.6v-0.98V9.65H4.87V8.67h0.96V7.7V6.73V5.75H4.87
		H3.89v0.98V7.7H2.92V8.67H1.95V7.7h0.97V6.73H1.95H0.97V7.7V8.67V9.65v0.97h0.98h0.97v0.98v0.96v0.979v0.98H1.95v-0.98H0.97v0.98
		v0.96v0.98v0.97h0.98h0.97v0.97v0.98H1.95v0.97v0.979H0.97v0.96H0v0.98h0.97h0.98h0.97v-0.98h0.97v0.98h0.98v-0.98v-0.96h0.96
		V20.35V19.38z M3.89,13.54h0.98v0.98H3.89V13.54z M1.95,16.46v-0.98h0.97v0.98H1.95z M2.92,21.33V20.35h0.97v0.979H2.92z"/>
	<rect y="12.56" fill="#B3B3B3" width="0.97" height="0.979"/>
	<rect y="10.62" fill="#B3B3B3" width="0.97" height="0.98"/>
</g>
<g>
	<polygon fill="#ED1C24" points="16.548,6.73 15.58,6.73 15.58,5.75 15.58,4.771 14.599,4.771 14.599,3.811 14.599,2.831 
		13.638,2.831 13.638,3.811 13.638,4.771 13.638,5.75 14.599,5.75 14.599,6.73 13.638,6.73 13.638,5.75 12.658,5.75 12.658,6.73 
		12.658,7.691 11.679,7.691 11.679,8.671 12.658,8.671 13.638,8.671 13.638,9.64 14.599,9.64 15.58,9.64 16.548,9.64 16.548,8.671 
		15.58,8.671 15.58,7.691 16.548,7.691 16.548,8.671 17.519,8.671 17.519,7.691 17.519,6.73 	"/>
	<g>
		<rect x="13.638" y="1.86" fill="#F7931E" width="0.961" height="0.97"/>
		<rect x="15.58" y="7.691" fill="#F7931E" width="0.969" height="0.98"/>
		<rect x="15.58" y="5.75" fill="#F7931E" width="0.969" height="0.979"/>
		<rect x="14.599" y="3.811" fill="#F7931E" width="0.98" height="0.96"/>
		<rect x="13.638" y="5.75" fill="#F7931E" width="0.961" height="0.979"/>
		<rect x="12.658" y="8.671" fill="#F7931E" width="0.98" height="0.969"/>
		<rect x="11.679" y="6.73" fill="#F7931E" width="0.979" height="0.961"/>
	</g>
</g>
</svg>
