<?xml version="1.0" encoding="utf-8"?>
<!-- Generator: Adobe Illustrator 16.0.0, SVG Export Plug-In . SVG Version: 6.00 Build 0)  -->
<!DOCTYPE svg PUBLIC "-//W3C//DTD SVG 1.1//EN" "http://www.w3.org/Graphics/SVG/1.1/DTD/svg11.dtd">
<svg version="1.1" id="Layer_1" xmlns="http://www.w3.org/2000/svg" xmlns:xlink="http://www.w3.org/1999/xlink" x="0px" y="0px"
	 width="823.898px" height="1100px" viewBox="0 0 823.898 1100" enable-background="new 0 0 823.898 1100" xml:space="preserve">
<g id="body">
	<g>
		<g>
			<path fill="#6A71FF" d="M544.324,507.031c-2.29-1.892-6.592-3.584-9.557-3.767l-116.665-4.616
				c-2.965-0.181-5.391-0.353-5.391-0.384c0-0.029-0.172-0.041-0.383-0.022c-0.209,0.015-0.554,0.015-0.763,0
				c-0.209-0.019-0.382-0.005-0.382,0.022c0,0.029-2.426,0.202-5.391,0.384l-116.667,4.616c-2.965,0.182-7.264,1.875-9.554,3.767
				L120.95,646.623c-2.291,1.891-2.748,5.413-1.019,7.827l28.725,40.089c1.729,2.412,4.983,2.802,7.232,0.86l106.423-91.327
				c2.248-1.942,4.356-1.113,4.685,1.837l17.033,112.969c0.33,2.95,0.599,7.798,0.599,10.768V1094.6c0,2.972,2.43,5.4,5.4,5.4
				h103.085c2.971,0,5.4-2.43,5.4-5.4V857.354c0-2.97,2.431-5.399,5.4-5.399h1.876c2.97,0,5.744,0,6.162,0c0.419,0,3.191,0,6.163,0
				h1.877c2.97,0,5.399,2.431,5.399,5.399V1094.6c0,2.972,2.431,5.4,5.399,5.4h103.082c2.971,0,5.399-2.43,5.399-5.4V729.646
				c0-2.971,0.27-7.815,0.601-10.769l17.035-112.969c0.33-2.95,2.438-3.779,4.687-1.839l106.417,91.329
				c2.248,1.94,5.503,1.553,7.233-0.86l28.725-40.089c1.732-2.414,1.271-5.938-1.017-7.827L544.324,507.031z"/>
			<path fill="none" stroke="#000000" stroke-width="5" stroke-miterlimit="10" d="M544.324,507.031
				c-2.29-1.892-6.592-3.584-9.557-3.767l-116.665-4.616c-2.965-0.181-5.391-0.353-5.391-0.384c0-0.029-0.172-0.041-0.383-0.022
				c-0.209,0.015-0.554,0.015-0.763,0c-0.209-0.019-0.382-0.005-0.382,0.022c0,0.029-2.426,0.202-5.391,0.384l-116.667,4.616
				c-2.965,0.182-7.264,1.875-9.554,3.767L120.95,646.623c-2.291,1.891-2.748,5.413-1.019,7.827l28.725,40.089
				c1.729,2.412,4.983,2.802,7.232,0.86l106.423-91.327c2.248-1.942,4.356-1.113,4.685,1.837l17.033,112.969
				c0.33,2.95,0.599,7.798,0.599,10.768V1094.6c0,2.972,2.43,5.4,5.4,5.4h103.085c2.971,0,5.4-2.43,5.4-5.4V857.354
				c0-2.97,2.431-5.399,5.4-5.399h1.876c2.97,0,5.744,0,6.162,0c0.419,0,3.191,0,6.163,0h1.877c2.97,0,5.399,2.431,5.399,5.399
				V1094.6c0,2.972,2.431,5.4,5.399,5.4h103.082c2.971,0,5.399-2.43,5.399-5.4V729.646c0-2.971,0.27-7.815,0.601-10.769
				l17.035-112.969c0.33-2.95,2.438-3.779,4.687-1.839l106.417,91.329c2.248,1.94,5.503,1.553,7.233-0.86l28.725-40.089
				c1.732-2.414,1.271-5.938-1.017-7.827L544.324,507.031z"/>
		</g>
		<path fill="#6A71FF" stroke="#000000" stroke-width="5" stroke-miterlimit="10" d="M403.085,1100
			c0.522-3.271,0.867-6.587,0.867-9.991c0-35.578-28.84-64.42-64.413-64.42c-35.576,0-64.417,28.842-64.417,64.42
			c0,3.404,0.341,6.72,0.869,9.991H403.085z"/>
		<path fill="#6A71FF" stroke="#000000" stroke-width="5" stroke-miterlimit="10" d="M186.551,705.167
			c0,38.597-31.293,69.896-69.892,69.896c-38.602,0-69.895-31.297-69.895-69.896c0-38.602,31.293-69.896,69.895-69.896
			C155.258,635.271,186.551,666.565,186.551,705.167z"/>
		<path fill="#6A71FF" stroke="#000000" stroke-width="5" stroke-miterlimit="10" d="M608.898,245.535
			c0-134.511-87.432-223.052-196.184-225.476V20c-0.257,0.003-0.506,0.024-0.765,0.031c-0.253-0.007-0.503-0.028-0.763-0.031v0.06
			C302.429,22.484,215,111.025,215,245.536c0,134.504,87.43,264.515,196.187,268.088v0.09c0.26-0.006,0.509-0.037,0.763-0.045
			c0.257,0.008,0.508,0.038,0.765,0.045v-0.09C521.468,510.05,608.898,380.039,608.898,245.535z"/>
		<path fill="#6A71FF" stroke="#000000" stroke-width="5" stroke-miterlimit="10" d="M546.564,1100
			c0.529-3.271,0.867-6.587,0.867-9.991c0-35.578-28.84-64.42-64.412-64.42c-35.576,0-64.418,28.842-64.418,64.42
			c0,3.404,0.339,6.72,0.868,9.991H546.564z"/>
		<path fill="#6A71FF" stroke="#000000" stroke-width="5" stroke-miterlimit="10" d="M637.354,705.167
			c0,38.597,31.291,69.896,69.891,69.896c38.602,0,69.893-31.297,69.893-69.896c0-38.602-31.291-69.896-69.893-69.896
			C668.645,635.271,637.354,666.565,637.354,705.167z"/>
	</g>
</g>
<text transform="matrix(1 0 0 1 387.3501 579.3506)" font-family="'MyriadPro-Regular'" font-size="100">E</text>
</svg>
