<?xml version="1.0" encoding="utf-8"?>
<!-- Generator: Adobe Illustrator 16.0.0, SVG Export Plug-In . SVG Version: 6.00 Build 0)  -->
<!DOCTYPE svg PUBLIC "-//W3C//DTD SVG 1.1//EN" "http://www.w3.org/Graphics/SVG/1.1/DTD/svg11.dtd">
<svg version="1.1" id="Layer_1" xmlns="http://www.w3.org/2000/svg" xmlns:xlink="http://www.w3.org/1999/xlink" x="0px" y="0px"
	 width="823.898px" height="1100px" viewBox="0 0 823.898 1100" enable-background="new 0 0 823.898 1100" xml:space="preserve">
<g>
	<path fill="#6A71FF" d="M511.576,595.453c-1.988-1.59-5.65-3.152-8.135-3.479l-86.323-11.322c-2.484-0.328-4.519,0.805-4.519,2.512
		s-0.146,3.115-0.324,3.128c-0.177,0.012-0.471,0.012-0.646,0c-0.175-0.014-0.322-1.422-0.322-3.128
		c0-1.707-2.032-2.838-4.519-2.512l-86.323,11.322c-2.485,0.326-6.146,1.89-8.135,3.479L165.002,713.008
		c-1.989,1.59-2.444,4.644-1.012,6.785l18.474,27.627c1.433,2.143,4.262,2.635,6.285,1.097l99.356-75.509
		c2.025-1.537,4.017-0.689,4.427,1.889l13.863,87.043c0.411,2.578,0.478,6.805,0.152,9.396L292.38,883.539
		c-0.327,2.592-0.473,6.842-0.324,9.449l11.539,202.27c0.148,2.607,2.32,4.741,4.824,4.741h87.57c2.504,0,4.554-2.138,4.554-4.75
		V892.998c0-2.612,2.049-4.75,4.554-4.75h1.653c2.505,0,4.846,0,5.2,0s2.696,0,5.201,0h1.65c2.505,0,4.555,2.138,4.555,4.75v202.252
		c0,2.612,2.049,4.75,4.554,4.75h87.57c2.504,0,4.676-2.134,4.823-4.741l11.536-202.27c0.148-2.608,0.009-6.862-0.312-9.45
		l-13.855-112.201c-0.323-2.593-0.253-6.82,0.148-9.4l13.559-87.034c0.4-2.58,2.386-3.431,4.41-1.894l99.356,75.509
		c2.024,1.537,4.852,1.046,6.283-1.097l18.477-27.628c1.432-2.142,0.977-5.195-1.012-6.783L511.576,595.453z"/>
	<path fill="none" stroke="#000000" stroke-width="5" stroke-miterlimit="10" d="M511.576,595.453
		c-1.988-1.59-5.65-3.152-8.135-3.479l-86.323-11.322c-2.484-0.328-4.519,0.805-4.519,2.512s-0.146,3.115-0.324,3.128
		c-0.177,0.012-0.471,0.012-0.646,0c-0.175-0.014-0.322-1.422-0.322-3.128c0-1.707-2.032-2.838-4.519-2.512l-86.323,11.322
		c-2.485,0.326-6.146,1.89-8.135,3.479L165.002,713.008c-1.989,1.59-2.444,4.644-1.012,6.785l18.474,27.627
		c1.433,2.143,4.262,2.635,6.285,1.097l99.356-75.509c2.025-1.537,4.017-0.689,4.427,1.889l13.863,87.043
		c0.411,2.578,0.478,6.805,0.152,9.396L292.38,883.539c-0.327,2.592-0.473,6.842-0.324,9.449l11.539,202.27
		c0.148,2.607,2.32,4.741,4.824,4.741h87.57c2.504,0,4.554-2.138,4.554-4.75V892.998c0-2.612,2.049-4.75,4.554-4.75h1.653
		c2.505,0,4.846,0,5.2,0s2.696,0,5.201,0h1.65c2.505,0,4.555,2.138,4.555,4.75v202.252c0,2.612,2.049,4.75,4.554,4.75h87.57
		c2.504,0,4.676-2.134,4.823-4.741l11.536-202.27c0.148-2.608,0.009-6.862-0.312-9.45l-13.855-112.201
		c-0.323-2.593-0.253-6.82,0.148-9.4l13.559-87.034c0.4-2.58,2.386-3.431,4.41-1.894l99.356,75.509
		c2.024,1.537,4.852,1.046,6.283-1.097l18.477-27.628c1.432-2.142,0.977-5.195-1.012-6.783L511.576,595.453z"/>
</g>
<path fill="#6A71FF" stroke="#000000" stroke-width="5" stroke-miterlimit="10" d="M404.102,1100
	c0.465-2.896,0.772-5.831,0.772-8.847c0-31.507-25.538-57.041-57.038-57.041c-31.501,0-57.037,25.534-57.037,57.041
	c0,3.016,0.299,5.949,0.769,8.847H404.102z"/>
<path fill="#6A71FF" stroke="#000000" stroke-width="5" stroke-miterlimit="10" d="M212.369,750.389
	c0,34.179-27.708,61.89-61.888,61.89s-61.892-27.714-61.892-61.89c0-34.18,27.709-61.889,61.892-61.889
	C184.66,688.5,212.369,716.209,212.369,750.389z"/>
<path fill="#6A71FF" stroke="#000000" stroke-width="5" stroke-miterlimit="10" d="M586.344,349.702
	c0-119.104-77.417-197.502-173.716-199.649V150c-0.228,0.003-0.451,0.021-0.677,0.026c-0.227-0.005-0.446-0.023-0.673-0.026v0.053
	c-96.302,2.146-173.716,80.545-173.716,199.649c0,119.099,77.415,234.219,173.716,237.384v0.08c0.227-0.006,0.447-0.034,0.673-0.039
	c0.226,0.004,0.449,0.033,0.677,0.039v-0.08C508.927,583.921,586.344,468.801,586.344,349.702z"/>
<path fill="#6A71FF" stroke="#000000" stroke-width="5" stroke-miterlimit="10" d="M531.146,1100
	c0.467-2.896,0.771-5.831,0.771-8.847c0-31.507-25.538-57.041-57.033-57.041c-31.501,0-57.039,25.534-57.039,57.041
	c0,3.016,0.3,5.949,0.769,8.847H531.146z"/>
<path fill="#6A71FF" stroke="#000000" stroke-width="5" stroke-miterlimit="10" d="M611.538,750.389
	c0,34.179,27.705,61.89,61.883,61.89c34.181,0,61.89-27.714,61.89-61.89c0-34.18-27.712-61.889-61.89-61.889
	C639.244,688.5,611.538,716.209,611.538,750.389z"/>
<text transform="matrix(1 0 0 1 387.0996 579.3506)" font-family="'MyriadPro-Regular'" font-size="100">T</text>
</svg>
