<?xml version="1.0" encoding="utf-8"?>
<!-- Generator: Adobe Illustrator 16.0.0, SVG Export Plug-In . SVG Version: 6.00 Build 0)  -->
<!DOCTYPE svg PUBLIC "-//W3C//DTD SVG 1.1//EN" "http://www.w3.org/Graphics/SVG/1.1/DTD/svg11.dtd">
<svg version="1.1" id="Layer_1" xmlns="http://www.w3.org/2000/svg" xmlns:xlink="http://www.w3.org/1999/xlink" x="0px" y="0px"
	 width="823.898px" height="1100px" viewBox="0 0 823.898 1100" enable-background="new 0 0 823.898 1100" xml:space="preserve">
<g>
	<path fill="#6A71FF" d="M515.794,580.166c-1.911-1.663-5.505-3.15-7.979-3.311l-90.73-5.82c-2.474-0.159-4.499-0.312-4.499-0.338
		s-0.143-0.035-0.32-0.021c-0.173,0.014-0.462,0.014-0.637,0c-0.172-0.016-0.316-0.004-0.316,0.021s-2.025,0.179-4.502,0.338
		l-90.73,5.82c-2.475,0.157-6.065,1.646-7.977,3.311L168.979,701.195c-1.913,1.664-2.295,4.763-0.85,6.887l23.983,35.263
		c1.444,2.12,4.161,2.464,6.039,0.757l92.197-83.854c1.877-1.709,3.637-0.979,3.912,1.615l10.882,102.891
		c0.275,2.594,0.5,6.859,0.5,9.471v321.025c0,2.612,2.029,4.75,4.509,4.75h86.071c2.48,0,4.509-2.138,4.509-4.75V886.563
		c0-2.612,2.028-4.75,4.509-4.75h1.566c2.479,0,4.796,0,5.146,0s2.665,0,5.146,0h1.567c2.479,0,4.509,2.138,4.509,4.75v208.688
		c0,2.612,2.028,4.75,4.508,4.75h86.067c2.479,0,4.509-2.138,4.509-4.75V774.225c0-2.61,0.225-6.874,0.502-9.471l10.883-102.891
		c0.276-2.595,2.035-3.324,3.912-1.617l92.192,83.854c1.878,1.707,4.596,1.365,6.039-0.757l23.983-35.263
		c1.447-2.124,1.063-5.224-0.848-6.887L515.794,580.166z"/>
	<path fill="none" stroke="#000000" stroke-width="5" stroke-miterlimit="10" d="M515.794,580.166
		c-1.911-1.663-5.505-3.15-7.979-3.311l-90.73-5.82c-2.474-0.159-4.499-0.312-4.499-0.338s-0.143-0.035-0.32-0.021
		c-0.173,0.014-0.462,0.014-0.637,0c-0.172-0.016-0.316-0.004-0.316,0.021s-2.025,0.179-4.502,0.338l-90.73,5.82
		c-2.475,0.157-6.065,1.646-7.977,3.311L168.979,701.195c-1.913,1.664-2.295,4.763-0.85,6.887l23.983,35.263
		c1.444,2.12,4.161,2.464,6.039,0.757l92.197-83.854c1.877-1.709,3.637-0.979,3.912,1.615l10.882,102.891
		c0.275,2.594,0.5,6.859,0.5,9.471v321.025c0,2.612,2.029,4.75,4.509,4.75h86.071c2.48,0,4.509-2.138,4.509-4.75V886.563
		c0-2.612,2.028-4.75,4.509-4.75h1.566c2.479,0,4.796,0,5.146,0s2.665,0,5.146,0h1.567c2.479,0,4.509,2.138,4.509,4.75v208.688
		c0,2.612,2.028,4.75,4.508,4.75h86.067c2.479,0,4.509-2.138,4.509-4.75V774.225c0-2.61,0.225-6.874,0.502-9.471l10.883-102.891
		c0.276-2.595,2.035-3.324,3.912-1.617l92.192,83.854c1.878,1.707,4.596,1.365,6.039-0.757l23.983-35.263
		c1.447-2.124,1.063-5.224-0.848-6.887L515.794,580.166z"/>
</g>
<path fill="#6A71FF" stroke="#000000" stroke-width="5" stroke-miterlimit="10" d="M404.152,1100
	c0.459-2.878,0.763-5.794,0.763-8.788c0-31.297-25.369-56.665-56.66-56.665c-31.294,0-56.663,25.368-56.663,56.665
	c0,2.994,0.3,5.91,0.764,8.788H404.152z"/>
<path fill="#6A71FF" stroke="#000000" stroke-width="5" stroke-miterlimit="10" d="M213.682,752.693
	c0,33.95-27.526,61.481-61.479,61.481c-33.955,0-61.481-27.53-61.481-61.481c0-33.955,27.526-61.482,61.481-61.482
	C186.156,691.211,213.682,718.738,213.682,752.693z"/>
<path fill="#6A71FF" stroke="#000000" stroke-width="5" stroke-miterlimit="10" d="M585.192,348.388
	c0-118.319-76.907-196.203-172.567-198.335V150c-0.227,0.003-0.446,0.022-0.673,0.027c-0.224-0.005-0.442-0.024-0.67-0.027v0.053
	c-95.667,2.132-172.571,80.016-172.571,198.335c0,118.313,76.905,232.675,172.571,235.817v0.078c0.228-0.005,0.446-0.031,0.67-0.039
	c0.224,0.008,0.446,0.033,0.673,0.039v-0.078C508.285,581.063,585.192,466.701,585.192,348.388z"/>
<path fill="#6A71FF" stroke="#000000" stroke-width="5" stroke-miterlimit="10" d="M530.361,1100
	c0.466-2.878,0.763-5.794,0.763-8.788c0-31.297-25.366-56.665-56.659-56.665s-56.664,25.368-56.664,56.665
	c0,2.994,0.297,5.91,0.765,8.788H530.361z"/>
<path fill="#6A71FF" stroke="#000000" stroke-width="5" stroke-miterlimit="10" d="M610.221,752.693
	c0,33.95,27.525,61.481,61.479,61.481c33.955,0,61.479-27.53,61.479-61.481c0-33.955-27.523-61.482-61.479-61.482
	C637.746,691.211,610.221,718.738,610.221,752.693z"/>
<text transform="matrix(1 0 0 1 387.3501 579.3506)" font-family="'MyriadPro-Regular'" font-size="100">E</text>
</svg>
