<?xml version="1.0" encoding="utf-8"?>
<!-- Generator: Adobe Illustrator 16.0.0, SVG Export Plug-In . SVG Version: 6.00 Build 0)  -->
<!DOCTYPE svg PUBLIC "-//W3C//DTD SVG 1.1//EN" "http://www.w3.org/Graphics/SVG/1.1/DTD/svg11.dtd">
<svg version="1.1" id="Layer_1" xmlns="http://www.w3.org/2000/svg" xmlns:xlink="http://www.w3.org/1999/xlink" x="0px" y="0px"
	 width="823.898px" height="1100px" viewBox="0 0 823.898 1100" enable-background="new 0 0 823.898 1100" xml:space="preserve">
<g id="body">
	<g>
		<g>
			<path fill="#6A71FF" d="M527.111,552.807c-2.12-1.751-6.103-3.319-8.847-3.487l-100.617-6.127
				c-2.745-0.167-4.991-0.326-4.991-0.354s-0.159-0.038-0.354-0.023c-0.194,0.014-0.513,0.014-0.706,0
				c-0.193-0.015-0.353-0.003-0.353,0.023s-2.246,0.186-4.991,0.354l-100.618,6.127c-2.745,0.167-6.726,1.736-8.846,3.487
				L142.506,680.206c-2.121,1.751-2.545,5.013-0.943,7.248l26.596,37.119c1.602,2.234,4.615,2.594,6.697,0.797l102.243-88.267
				c2.082-1.797,4.034-1.03,4.338,1.702l12.068,108.304c0.305,2.732,0.554,7.22,0.554,9.97V1095c0,2.75,2.25,5,5,5h95.45
				c2.75,0,5-2.25,5-5V875.328c0-2.75,2.25-5,5-5h1.737c2.75,0,5.318,0,5.706,0s2.956,0,5.706,0h1.738c2.75,0,5,2.25,5,5V1095
				c0,2.75,2.25,5,5,5h95.447c2.75,0,5-2.25,5-5V757.079c0-2.75,0.249-7.236,0.555-9.97l12.07-108.304
				c0.305-2.732,2.258-3.499,4.339-1.702l102.238,88.267c2.082,1.797,5.096,1.438,6.697-0.797l26.598-37.119
				c1.603-2.235,1.177-5.497-0.942-7.248L527.111,552.807z"/>
			<path fill="none" stroke="#000000" stroke-width="5" stroke-miterlimit="10" d="M527.111,552.807
				c-2.12-1.751-6.103-3.319-8.847-3.487l-100.617-6.127c-2.745-0.167-4.991-0.326-4.991-0.354s-0.159-0.038-0.354-0.023
				c-0.194,0.014-0.513,0.014-0.706,0c-0.193-0.015-0.353-0.003-0.353,0.023s-2.246,0.186-4.991,0.354l-100.618,6.127
				c-2.745,0.167-6.726,1.736-8.846,3.487L142.506,680.206c-2.121,1.751-2.545,5.013-0.943,7.248l26.596,37.119
				c1.602,2.234,4.615,2.594,6.697,0.797l102.243-88.267c2.082-1.797,4.034-1.03,4.338,1.702l12.068,108.304
				c0.305,2.732,0.554,7.22,0.554,9.97V1095c0,2.75,2.25,5,5,5h95.45c2.75,0,5-2.25,5-5V875.328c0-2.75,2.25-5,5-5h1.737
				c2.75,0,5.318,0,5.706,0s2.956,0,5.706,0h1.738c2.75,0,5,2.25,5,5V1095c0,2.75,2.25,5,5,5h95.447c2.75,0,5-2.25,5-5V757.079
				c0-2.75,0.249-7.236,0.555-9.97l12.07-108.304c0.305-2.732,2.258-3.499,4.339-1.702l102.238,88.267
				c2.082,1.797,5.096,1.438,6.697-0.797l26.598-37.119c1.603-2.235,1.177-5.497-0.942-7.248L527.111,552.807z"/>
		</g>
		<path fill="#6A71FF" stroke="#000000" stroke-width="5" stroke-miterlimit="10" d="M403.741,1100
			c0.485-3.029,0.804-6.099,0.804-9.251c0-32.943-26.704-59.648-59.642-59.648c-32.941,0-59.645,26.705-59.645,59.648
			c0,3.152,0.315,6.222,0.804,9.251H403.741z"/>
		<path fill="#6A71FF" stroke="#000000" stroke-width="5" stroke-miterlimit="10" d="M203.247,734.414
			c0,35.737-28.975,64.718-64.715,64.718c-35.742,0-64.717-28.979-64.717-64.718c0-35.742,28.975-64.718,64.717-64.718
			C174.272,669.696,203.247,698.672,203.247,734.414z"/>
		<path fill="#6A71FF" stroke="#000000" stroke-width="5" stroke-miterlimit="10" d="M594.311,308.829
			c0-124.547-80.955-206.529-181.652-208.774V100c-0.238,0.003-0.469,0.023-0.708,0.029c-0.234-0.006-0.466-0.026-0.705-0.029v0.055
			c-100.702,2.245-181.654,84.227-181.654,208.774c0,124.54,80.953,244.921,181.654,248.23v0.083
			c0.239-0.006,0.47-0.035,0.705-0.042c0.237,0.007,0.47,0.035,0.708,0.042v-0.083C513.355,553.75,594.311,433.369,594.311,308.829z
			"/>
		<path fill="#6A71FF" stroke="#000000" stroke-width="5" stroke-miterlimit="10" d="M536.594,1100
			c0.49-3.029,0.803-6.099,0.803-9.251c0-32.943-26.704-59.648-59.642-59.648c-32.94,0-59.646,26.705-59.646,59.648
			c0,3.152,0.314,6.222,0.804,9.251H536.594z"/>
		<path fill="#6A71FF" stroke="#000000" stroke-width="5" stroke-miterlimit="10" d="M620.656,734.414
			c0,35.737,28.974,64.718,64.713,64.718c35.742,0,64.716-28.979,64.716-64.718c0-35.742-28.974-64.718-64.716-64.718
			C649.63,669.696,620.656,698.672,620.656,734.414z"/>
	</g>
</g>
</svg>
