<?xml version="1.0" encoding="utf-8"?>
<!-- Generator: Adobe Illustrator 16.0.0, SVG Export Plug-In . SVG Version: 6.00 Build 0)  -->
<!DOCTYPE svg PUBLIC "-//W3C//DTD SVG 1.1//EN" "http://www.w3.org/Graphics/SVG/1.1/DTD/svg11.dtd">
<svg version="1.1" id="Layer_1" xmlns="http://www.w3.org/2000/svg" xmlns:xlink="http://www.w3.org/1999/xlink" x="0px" y="0px"
	 width="823.898px" height="1100px" viewBox="0 0 823.898 1100" enable-background="new 0 0 823.898 1100" xml:space="preserve">
<g id="body">
	<g>
		<g>
			<path fill="#6A71FF" d="M521.335,568.898c-2.185-1.673-6.204-3.319-8.933-3.662l-94.779-11.919
				c-2.729-0.345-4.961,0.847-4.961,2.644s-0.16,3.279-0.356,3.292c-0.194,0.013-0.516,0.014-0.71,0
				c-0.192-0.014-0.354-1.496-0.354-3.292c0-1.797-2.232-2.987-4.961-2.644l-94.78,11.919c-2.729,0.343-6.748,1.989-8.932,3.662
				L140.809,692.64c-2.184,1.673-2.684,4.886-1.111,7.141l20.284,29.082c1.573,2.255,4.679,2.773,6.901,1.155l109.09-79.483
				c2.223-1.619,4.41-0.727,4.86,1.987l15.221,91.624c0.451,2.714,0.525,7.163,0.167,9.891l-15.554,118.109
				c-0.359,2.728-0.519,7.202-0.356,9.947l12.669,212.915c0.163,2.745,2.547,4.991,5.297,4.991h96.148c2.75,0,5-2.25,5-5V882.104
				c0-2.75,2.25-5,5-5h1.815c2.75,0,5.32,0,5.71,0s2.96,0,5.71,0h1.814c2.75,0,5,2.25,5,5V1095c0,2.75,2.25,5,5,5h96.148
				c2.75,0,5.134-2.246,5.297-4.991l12.666-212.915c0.163-2.745,0.01-7.223-0.342-9.948l-15.213-118.106
				c-0.354-2.729-0.277-7.18,0.163-9.896l14.887-91.616c0.44-2.716,2.62-3.61,4.843-1.991l109.09,79.482
				c2.223,1.619,5.326,1.101,6.899-1.154l20.285-29.082c1.573-2.255,1.073-5.469-1.11-7.141L521.335,568.898z"/>
			<path fill="none" stroke="#000000" stroke-width="5" stroke-miterlimit="10" d="M521.335,568.898
				c-2.185-1.673-6.204-3.319-8.933-3.662l-94.779-11.919c-2.729-0.345-4.961,0.847-4.961,2.644s-0.16,3.279-0.356,3.292
				c-0.194,0.013-0.516,0.014-0.71,0c-0.192-0.014-0.354-1.496-0.354-3.292c0-1.797-2.232-2.987-4.961-2.644l-94.78,11.919
				c-2.729,0.343-6.748,1.989-8.932,3.662L140.809,692.64c-2.184,1.673-2.684,4.886-1.111,7.141l20.284,29.082
				c1.573,2.255,4.679,2.773,6.901,1.155l109.09-79.483c2.223-1.619,4.41-0.727,4.86,1.987l15.221,91.624
				c0.451,2.714,0.525,7.163,0.167,9.891l-15.554,118.109c-0.359,2.728-0.519,7.202-0.356,9.947l12.669,212.915
				c0.163,2.745,2.547,4.991,5.297,4.991h96.148c2.75,0,5-2.25,5-5V882.104c0-2.75,2.25-5,5-5h1.815c2.75,0,5.32,0,5.71,0
				s2.96,0,5.71,0h1.814c2.75,0,5,2.25,5,5V1095c0,2.75,2.25,5,5,5h96.148c2.75,0,5.134-2.246,5.297-4.991l12.666-212.915
				c0.163-2.745,0.01-7.223-0.342-9.948l-15.213-118.106c-0.354-2.729-0.277-7.18,0.163-9.896l14.887-91.616
				c0.44-2.716,2.62-3.61,4.843-1.991l109.09,79.482c2.223,1.619,5.326,1.101,6.899-1.154l20.285-29.082
				c1.573-2.255,1.073-5.469-1.11-7.141L521.335,568.898z"/>
		</g>
		<path fill="#6A71FF" stroke="#000000" stroke-width="5" stroke-miterlimit="10" d="M403.688,1100
			c0.488-3.049,0.812-6.138,0.812-9.313c0-33.164-26.882-60.043-60.04-60.043c-33.159,0-60.039,26.879-60.039,60.043
			c0,3.175,0.315,6.264,0.809,9.313H403.688z"/>
		<path fill="#6A71FF" stroke="#000000" stroke-width="5" stroke-miterlimit="10" d="M201.863,731.988
			c0,35.976-29.167,65.146-65.145,65.146c-35.979,0-65.149-29.172-65.149-65.146c0-35.979,29.168-65.146,65.149-65.146
			C172.696,666.843,201.863,696.009,201.863,731.988z"/>
		<path fill="#6A71FF" stroke="#000000" stroke-width="5" stroke-miterlimit="10" d="M595.521,310.213
			c0-125.373-81.492-207.897-182.859-210.158V100c-0.239,0.003-0.475,0.022-0.712,0.028c-0.237-0.006-0.47-0.025-0.709-0.028v0.055
			c-101.37,2.26-182.859,84.785-182.859,210.158c0,125.367,81.489,246.546,182.859,249.878v0.084
			c0.239-0.006,0.472-0.036,0.709-0.042c0.237,0.005,0.473,0.036,0.712,0.042v-0.084
			C514.029,556.759,595.521,435.58,595.521,310.213z"/>
		<path fill="#6A71FF" stroke="#000000" stroke-width="5" stroke-miterlimit="10" d="M537.42,1100
			c0.49-3.049,0.811-6.138,0.811-9.313c0-33.164-26.883-60.043-60.037-60.043c-33.158,0-60.041,26.879-60.041,60.043
			c0,3.175,0.315,6.264,0.809,9.313H537.42z"/>
		<path fill="#6A71FF" stroke="#000000" stroke-width="5" stroke-miterlimit="10" d="M622.041,731.988
			c0,35.976,29.164,65.146,65.141,65.146c35.979,0,65.146-29.172,65.146-65.146c0-35.979-29.17-65.146-65.146-65.146
			C651.206,666.842,622.041,696.009,622.041,731.988z"/>
	</g>
</g>
<text transform="matrix(1 0 0 1 387.0996 579.3506)" font-family="'MyriadPro-Regular'" font-size="100">T</text>
</svg>
