<?xml version="1.0" encoding="utf-8"?>
<!-- Generator: Adobe Illustrator 16.0.0, SVG Export Plug-In . SVG Version: 6.00 Build 0)  -->
<!DOCTYPE svg PUBLIC "-//W3C//DTD SVG 1.1//EN" "http://www.w3.org/Graphics/SVG/1.1/DTD/svg11.dtd">
<svg version="1.1" id="Layer_1" xmlns="http://www.w3.org/2000/svg" xmlns:xlink="http://www.w3.org/1999/xlink" x="0px" y="0px"
	 width="823.898px" height="1100px" viewBox="0 0 823.898 1100" enable-background="new 0 0 823.898 1100" xml:space="preserve">
<g id="Layer_1_1_" display="none" opacity="0.3">
	<g id="body" display="inline">
		<g>
			<g>
				<path fill="#6A71FF" stroke="#000000" stroke-width="4" stroke-miterlimit="10" d="M527.111,552.807
					c-2.12-1.751-6.104-3.316-8.85-3.484l-100.615-6.127c-2.744-0.167-4.99-0.326-4.99-0.354s-0.159-0.038-0.354-0.021
					c-0.191,0.014-0.513,0.014-0.706,0c-0.19-0.018-0.353-0.004-0.353,0.021c0,0.026-2.246,0.188-4.991,0.354l-100.618,6.127
					c-2.745,0.167-6.726,1.733-8.846,3.484L142.506,680.206c-2.121,1.751-2.545,5.013-0.943,7.248l26.596,37.119
					c1.602,2.231,4.615,2.594,6.697,0.797l102.243-88.267c2.082-1.8,4.034-1.03,4.338,1.699l12.068,108.307
					c0.305,2.729,0.554,7.22,0.554,9.97V1095c0,2.75,2.25,5,5,5h95.45c2.75,0,5-2.25,5-5V875.328c0-2.75,2.25-5,5-5h1.737
					c2.75,0,5.318,0,5.706,0s2.956,0,5.706,0h1.738c2.75,0,5,2.25,5,5V1095c0,2.75,2.25,5,5,5h95.444c2.75,0,5-2.25,5-5V757.079
					c0-2.75,0.249-7.236,0.558-9.97l12.067-108.307c0.308-2.729,2.258-3.499,4.339-1.702l102.238,88.27
					c2.082,1.797,5.096,1.438,6.697-0.797l26.598-37.119c1.604-2.235,1.177-5.497-0.939-7.248L527.111,552.807z"/>
				<path fill="#6A71FF" stroke="#000000" stroke-width="4" stroke-miterlimit="10" d="M527.111,552.807
					c-2.12-1.751-6.104-3.316-8.85-3.484l-100.615-6.127c-2.744-0.167-4.99-0.326-4.99-0.354s-0.159-0.038-0.354-0.021
					c-0.191,0.014-0.513,0.014-0.706,0c-0.19-0.018-0.353-0.004-0.353,0.021c0,0.026-2.246,0.188-4.991,0.354l-100.618,6.127
					c-2.745,0.167-6.726,1.733-8.846,3.484L142.506,680.206c-2.121,1.751-2.545,5.013-0.943,7.248l26.596,37.119
					c1.602,2.231,4.615,2.594,6.697,0.797l102.243-88.267c2.082-1.8,4.034-1.03,4.338,1.699l12.068,108.307
					c0.305,2.729,0.554,7.22,0.554,9.97V1095c0,2.75,2.25,5,5,5h95.45c2.75,0,5-2.25,5-5V875.328c0-2.75,2.25-5,5-5h1.737
					c2.75,0,5.318,0,5.706,0s2.956,0,5.706,0h1.738c2.75,0,5,2.25,5,5V1095c0,2.75,2.25,5,5,5h95.444c2.75,0,5-2.25,5-5V757.079
					c0-2.75,0.249-7.236,0.558-9.97l12.067-108.307c0.308-2.729,2.258-3.499,4.339-1.702l102.238,88.27
					c2.082,1.797,5.096,1.438,6.697-0.797l26.598-37.119c1.604-2.235,1.177-5.497-0.939-7.248L527.111,552.807z"/>
			</g>
			<path fill="#6A71FF" stroke="#000000" stroke-width="4" stroke-miterlimit="10" d="M403.741,1100
				c0.482-3.029,0.804-6.099,0.804-9.251c0-32.943-26.704-59.647-59.642-59.647c-32.941,0-59.645,26.704-59.645,59.647
				c0,3.152,0.315,6.222,0.804,9.251H403.741z"/>
			<path fill="#6A71FF" stroke="#000000" stroke-width="4" stroke-miterlimit="10" d="M203.247,734.414
				c0,35.737-28.975,64.718-64.715,64.718c-35.742,0-64.717-28.979-64.717-64.718c0-35.742,28.975-64.718,64.717-64.718
				C174.272,669.696,203.247,698.672,203.247,734.414z"/>
			<path fill="#6A71FF" stroke="#000000" stroke-width="4" stroke-miterlimit="10" d="M594.311,308.829
				c0-124.547-80.955-206.529-181.649-208.774V100c-0.238,0.003-0.469,0.023-0.708,0.029c-0.234-0.006-0.466-0.026-0.705-0.029
				v0.055c-100.702,2.245-181.654,84.227-181.654,208.774c0,124.54,80.953,244.921,181.654,248.229v0.083
				c0.239-0.006,0.47-0.032,0.705-0.042c0.234,0.01,0.47,0.035,0.708,0.042v-0.083C513.355,553.75,594.311,433.369,594.311,308.829z
				"/>
			<path fill="#6A71FF" stroke="#000000" stroke-width="4" stroke-miterlimit="10" d="M536.594,1100
				c0.49-3.029,0.803-6.099,0.803-9.251c0-32.943-26.701-59.647-59.642-59.647s-59.646,26.704-59.646,59.647
				c0,3.152,0.313,6.222,0.804,9.251H536.594z"/>
			<path fill="#6A71FF" stroke="#000000" stroke-width="4" stroke-miterlimit="10" d="M620.656,734.414
				c0,35.737,28.974,64.718,64.713,64.718c35.742,0,64.716-28.979,64.716-64.718c0-35.742-28.974-64.718-64.716-64.718
				C649.63,669.696,620.656,698.672,620.656,734.414z"/>
		</g>
	</g>
</g>
<g id="robot">
	<g>
		<path fill="#6A71FF" d="M168.375,682.967c-4.258,3.481-10.59,2.848-14.072-1.411l-0.433-0.529
			c-3.481-4.259-2.847-10.591,1.411-14.071l115.24-94.229c4.258-3.48,10.59-2.847,14.071,1.411l0.433,0.53
			c3.481,4.258,2.847,10.59-1.411,14.071L168.375,682.967z"/>
		<path fill="none" stroke="#000000" stroke-width="4" stroke-miterlimit="10" d="M168.375,682.967
			c-4.258,3.481-10.59,2.848-14.072-1.411l-0.433-0.529c-3.481-4.259-2.847-10.591,1.411-14.071l115.24-94.229
			c4.258-3.48,10.59-2.847,14.071,1.411l0.433,0.53c3.481,4.258,2.847,10.59-1.411,14.071L168.375,682.967z"/>
	</g>
	<g>
		<path fill="#6A71FF" d="M378.389,1090c0,5.5-4.5,10-10,10h-21.178c-5.5,0-10-4.5-10-10V864.654c0-5.5,4.5-10,10-10h21.178
			c5.5,0,10,4.5,10,10V1090z"/>
		<path fill="none" stroke="#000000" stroke-width="4" stroke-miterlimit="10" d="M378.389,1090c0,5.5-4.5,10-10,10h-21.178
			c-5.5,0-10-4.5-10-10V864.654c0-5.5,4.5-10,10-10h21.178c5.5,0,10,4.5,10,10V1090z"/>
	</g>
	<g>
		<path fill="#6A71FF" d="M392.555,1100c5.5,0,10.274-2.088,10.61-4.639c0,0,0,0,0-2.397c0-25.058-20.31-45.368-45.363-45.368
			c-25.055,0-45.366,20.312-45.366,45.368c0,2.397,0,2.397,0,2.397c0.336,2.551,5.11,4.639,10.61,4.639H392.555z"/>
		<path fill="none" stroke="#000000" stroke-width="4" stroke-miterlimit="10" d="M392.555,1100c5.5,0,10.274-2.088,10.61-4.639
			c0,0,0,0,0-2.397c0-25.058-20.31-45.368-45.363-45.368c-25.055,0-45.366,20.312-45.366,45.368c0,2.397,0,2.397,0,2.397
			c0.336,2.551,5.11,4.639,10.61,4.639H392.555z"/>
	</g>
	<g>
		<path fill="#6A71FF" d="M292.236,549.157c0-5.5-0.639-10.224-1.419-10.495c0,0,0,0-0.735,0c-6.938,0-12.562,14.808-12.562,33.074
			c0,18.266,5.624,33.072,12.562,33.072c0.735,0,0.735,0,0.735,0c0.78-0.271,1.419-4.994,1.419-10.494V549.157z"/>
		<path fill="none" stroke="#000000" stroke-width="4" stroke-miterlimit="10" d="M292.236,549.157c0-5.5-0.639-10.224-1.419-10.495
			c0,0,0,0-0.735,0c-6.938,0-12.562,14.808-12.562,33.074c0,18.266,5.624,33.072,12.562,33.072c0.735,0,0.735,0,0.735,0
			c0.78-0.271,1.419-4.994,1.419-10.494V549.157z"/>
	</g>
	<g>
		<circle fill="#6A71FF" cx="134.496" cy="702.268" r="47.046"/>
		<circle fill="none" stroke="#000000" stroke-width="4" stroke-miterlimit="10" cx="134.496" cy="702.268" r="47.046"/>
	</g>
	<g>
		<path fill="#6A71FF" d="M337.361,858.575c-5.335-1.337-10.072-1.865-10.527-1.174c0,0,0,0-0.177,0.714
			c-1.688,6.729,11.312,15.784,29.03,20.222c17.718,4.44,33.45,2.583,35.135-4.146c0.178-0.716,0.178-0.716,0.178-0.716
			c-0.075-0.822-4.501-2.591-9.836-3.928L337.361,858.575z"/>
		<path fill="none" stroke="#000000" stroke-width="4" stroke-miterlimit="10" d="M337.361,858.575
			c-5.335-1.337-10.072-1.865-10.527-1.174c0,0,0,0-0.177,0.714c-1.688,6.729,11.312,15.784,29.03,20.222
			c17.718,4.44,33.45,2.583,35.135-4.146c0.178-0.716,0.178-0.716,0.178-0.716c-0.075-0.822-4.501-2.591-9.836-3.928
			L337.361,858.575z"/>
	</g>
	<g>
		<path fill="#6A71FF" d="M655.523,682.967c4.259,3.481,10.591,2.848,14.071-1.411l0.434-0.529
			c3.48-4.259,2.847-10.591-1.411-14.071l-115.24-94.229c-4.258-3.48-10.59-2.847-14.071,1.411l-0.433,0.53
			c-3.481,4.258-2.847,10.59,1.411,14.071L655.523,682.967z"/>
		<path fill="none" stroke="#000000" stroke-width="4" stroke-miterlimit="10" d="M655.523,682.967
			c4.259,3.481,10.591,2.848,14.071-1.411l0.434-0.529c3.48-4.259,2.847-10.591-1.411-14.071l-115.24-94.229
			c-4.258-3.48-10.59-2.847-14.071,1.411l-0.433,0.53c-3.481,4.258-2.847,10.59,1.411,14.071L655.523,682.967z"/>
	</g>
	<g>
		<path fill="#6A71FF" d="M445.509,1090c0,5.5,4.5,10,10,10h21.179c5.5,0,10-4.5,10-10V864.654c0-5.5-4.5-10-10-10h-21.179
			c-5.5,0-10,4.5-10,10V1090L445.509,1090z"/>
		<path fill="none" stroke="#000000" stroke-width="4" stroke-miterlimit="10" d="M445.509,1090c0,5.5,4.5,10,10,10h21.179
			c5.5,0,10-4.5,10-10V864.654c0-5.5-4.5-10-10-10h-21.179c-5.5,0-10,4.5-10,10V1090L445.509,1090z"/>
	</g>
	<g>
		<path fill="#6A71FF" d="M422.928,759.929c-5.5,0-10.439,0-10.979,0s-5.479,0-10.979,0h-32.09c-5.5,0-10,4.5-10,10v15.714
			c0,5.5,4.5,10,10,10h32.09c5.5,0,10.44,0,10.979,0s5.479,0,10.979,0h32.09c5.5,0,10-4.5,10-10v-15.714c0-5.5-4.5-10-10-10H422.928
			z"/>
		<path fill="none" stroke="#000000" stroke-width="4" stroke-miterlimit="10" d="M422.928,759.929c-5.5,0-10.439,0-10.979,0
			s-5.479,0-10.979,0h-32.09c-5.5,0-10,4.5-10,10v15.714c0,5.5,4.5,10,10,10h32.09c5.5,0,10.44,0,10.979,0s5.479,0,10.979,0h32.09
			c5.5,0,10-4.5,10-10v-15.714c0-5.5-4.5-10-10-10H422.928z"/>
	</g>
	<g>
		<path fill="#6A71FF" d="M422.091,534.236c-5.5,0-10.063,0-10.142,0s-4.643,0-10.143,0h-99.572c-5.5,0-10,4.5-10,10v214.061
			c0,5.5,4.5,10,10,10h99.572c5.5,0,10.063,0,10.143,0s4.642,0,10.142,0h99.571c5.5,0,10-4.5,10-10V544.236c0-5.5-4.5-10-10-10
			H422.091z"/>
		<path fill="none" stroke="#000000" stroke-width="4" stroke-miterlimit="10" d="M422.091,534.236c-5.5,0-10.063,0-10.142,0
			s-4.643,0-10.143,0h-99.572c-5.5,0-10,4.5-10,10v214.061c0,5.5,4.5,10,10,10h99.572c5.5,0,10.063,0,10.143,0s4.642,0,10.142,0
			h99.571c5.5,0,10-4.5,10-10V544.236c0-5.5-4.5-10-10-10H422.091z"/>
	</g>
	<g>
		<path fill="#6A71FF" d="M500.854,1100c5.5,0,10.273-2.088,10.608-4.639c0,0,0,0,0-2.397c0-25.058-20.312-45.368-45.365-45.368
			c-25.053,0-45.362,20.312-45.362,45.368c0,2.397,0,2.397,0,2.397c0.336,2.551,5.109,4.639,10.609,4.639H500.854z"/>
		<path fill="none" stroke="#000000" stroke-width="4" stroke-miterlimit="10" d="M500.854,1100c5.5,0,10.273-2.088,10.608-4.639
			c0,0,0,0,0-2.397c0-25.058-20.312-45.368-45.365-45.368c-25.053,0-45.362,20.312-45.362,45.368c0,2.397,0,2.397,0,2.397
			c0.336,2.551,5.109,4.639,10.609,4.639H500.854z"/>
	</g>
	<g>
		<path fill="#6A71FF" d="M531.662,549.157c0-5.5,0.639-10.224,1.419-10.495c0,0,0,0,0.735,0c6.938,0,12.562,14.808,12.562,33.074
			c0,18.266-5.623,33.072-12.562,33.072c-0.735,0-0.735,0-0.735,0c-0.78-0.271-1.419-4.994-1.419-10.494V549.157z"/>
		<path fill="none" stroke="#000000" stroke-width="4" stroke-miterlimit="10" d="M531.662,549.157c0-5.5,0.639-10.224,1.419-10.495
			c0,0,0,0,0.735,0c6.938,0,12.562,14.808,12.562,33.074c0,18.266-5.623,33.072-12.562,33.072c-0.735,0-0.735,0-0.735,0
			c-0.78-0.271-1.419-4.994-1.419-10.494V549.157z"/>
	</g>
	<g>
		<circle fill="#6A71FF" cx="689.402" cy="702.268" r="47.046"/>
		<circle fill="none" stroke="#000000" stroke-width="4" stroke-miterlimit="10" cx="689.402" cy="702.268" r="47.046"/>
	</g>
	<g>
		<path fill="#6A71FF" d="M422.747,453.976c-5.5,0-10.359,0-10.798,0c-0.439,0-5.298,0-10.798,0h-4.321c-5.5,0-10,4.5-10,10v69.286
			c0,5.5,4.5,10,10,10h4.321c5.5,0,10.358,0,10.798,0c0.438,0,5.298,0,10.798,0h4.321c5.5,0,10-4.5,10-10v-69.286
			c0-5.5-4.5-10-10-10H422.747z"/>
		<path fill="none" stroke="#000000" stroke-width="4" stroke-miterlimit="10" d="M422.747,453.976c-5.5,0-10.359,0-10.798,0
			c-0.439,0-5.298,0-10.798,0h-4.321c-5.5,0-10,4.5-10,10v69.286c0,5.5,4.5,10,10,10h4.321c5.5,0,10.358,0,10.798,0
			c0.438,0,5.298,0,10.798,0h4.321c5.5,0,10-4.5,10-10v-69.286c0-5.5-4.5-10-10-10H422.747z"/>
	</g>
	<g>
		<path fill="#6A71FF" d="M427.637,221.833c-5.5,0-12.56,0-15.688,0s-10.188,0-15.688,0h-67.066c-5.5,0-10,4.5-10,10v231.921
			c0,5.5,4.5,10,10,10h67.066c5.5,0,12.561,0,15.688,0s10.188,0,15.688,0h67.066c5.5,0,10-4.5,10-10V231.833c0-5.5-4.5-10-10-10
			H427.637z"/>
		<path fill="none" stroke="#000000" stroke-width="4" stroke-miterlimit="10" d="M427.637,221.833c-5.5,0-12.56,0-15.688,0
			s-10.188,0-15.688,0h-67.066c-5.5,0-10,4.5-10,10v231.921c0,5.5,4.5,10,10,10h67.066c5.5,0,12.561,0,15.688,0s10.188,0,15.688,0
			h67.066c5.5,0,10-4.5,10-10V231.833c0-5.5-4.5-10-10-10H427.637z"/>
	</g>
	<g>
		<path fill="#6A71FF" d="M486.537,858.575c5.335-1.337,10.072-1.865,10.527-1.174c0,0,0,0,0.177,0.714
			c1.687,6.729-11.313,15.784-29.03,20.222c-17.718,4.44-33.449,2.583-35.135-4.146c-0.178-0.716-0.178-0.716-0.178-0.716
			c0.073-0.822,4.5-2.591,9.835-3.928L486.537,858.575z"/>
		<path fill="none" stroke="#000000" stroke-width="4" stroke-miterlimit="10" d="M486.537,858.575
			c5.335-1.337,10.072-1.865,10.527-1.174c0,0,0,0,0.177,0.714c1.687,6.729-11.313,15.784-29.03,20.222
			c-17.718,4.44-33.449,2.583-35.135-4.146c-0.178-0.716-0.178-0.716-0.178-0.716c0.073-0.822,4.5-2.591,9.835-3.928
			L486.537,858.575z"/>
	</g>
	<g>
		<path fill="#6A71FF" d="M516.289,797.503c1.223-5.362-2.277-9.75-7.777-9.75h-86.136c-5.5,0-10.192,0-10.427,0
			c-0.235,0-4.928,0-10.428,0h-86.136c-5.5,0-9,4.388-7.777,9.75l10.688,46.887c1.223,5.362,6.579,10.878,11.903,12.258
			l71.642,18.547c5.324,1.379,9.682,2.557,9.682,2.616c0,0.061,0.096,0.086,0.213,0.056c0.116-0.031,0.31-0.031,0.427,0
			c0.117,0.03,0.213,0.005,0.213-0.056s4.356-1.237,9.681-2.616l71.643-18.547c5.324-1.38,10.681-6.896,11.902-12.258
			L516.289,797.503z"/>
		<path fill="none" stroke="#000000" stroke-width="4" stroke-miterlimit="10" d="M516.289,797.503
			c1.223-5.362-2.277-9.75-7.777-9.75h-86.136c-5.5,0-10.192,0-10.427,0c-0.235,0-4.928,0-10.428,0h-86.136
			c-5.5,0-9,4.388-7.777,9.75l10.688,46.887c1.223,5.362,6.579,10.878,11.903,12.258l71.642,18.547
			c5.324,1.379,9.682,2.557,9.682,2.616c0,0.061,0.096,0.086,0.213,0.056c0.116-0.031,0.31-0.031,0.427,0
			c0.117,0.03,0.213,0.005,0.213-0.056s4.356-1.237,9.681-2.616l71.643-18.547c5.324-1.38,10.681-6.896,11.902-12.258
			L516.289,797.503z"/>
	</g>
</g>
<text transform="matrix(1 0 0 1 371.7505 579.3506)" font-family="'MyriadPro-Regular'" font-size="100">M</text>
</svg>
