<?xml version="1.0" encoding="utf-8"?>
<!-- Generator: Adobe Illustrator 16.0.0, SVG Export Plug-In . SVG Version: 6.00 Build 0)  -->
<!DOCTYPE svg PUBLIC "-//W3C//DTD SVG 1.1//EN" "http://www.w3.org/Graphics/SVG/1.1/DTD/svg11.dtd">
<svg version="1.1" id="Layer_3" xmlns="http://www.w3.org/2000/svg" xmlns:xlink="http://www.w3.org/1999/xlink" x="0px" y="0px"
	 width="10.71px" height="34.06px" viewBox="0 0 10.71 34.06" enable-background="new 0 0 10.71 34.06" xml:space="preserve">
<g>
	<polygon fill="#737144" points="8.759,18.49 8.759,17.52 7.791,17.52 6.81,17.52 5.84,17.52 4.86,17.52 3.9,17.52 2.92,17.52 
		1.94,17.52 1.94,18.49 1.94,19.46 1.94,20.44 1.94,21.41 2.92,21.41 2.92,22.39 2.92,23.35 2.92,24.33 2.92,25.31 2.92,26.27 
		2.92,27.25 2.92,28.22 2.92,29.19 2.92,30.17 2.92,31.14 2.92,32.12 2.92,33.08 3.9,33.08 3.9,32.12 3.9,31.14 3.9,30.17 
		3.9,29.19 3.9,28.22 3.9,27.25 3.9,26.27 3.9,25.31 3.9,24.33 3.9,23.35 3.9,22.39 3.9,21.41 4.86,21.41 4.86,20.44 5.84,20.44 
		6.81,20.44 6.81,21.41 7.791,21.41 7.791,22.39 7.791,23.35 7.791,24.33 7.791,25.31 7.791,26.27 7.791,27.25 7.791,28.22 
		7.791,29.19 7.791,30.17 7.791,31.14 7.791,32.12 7.791,33.08 8.759,33.08 8.759,32.12 8.759,31.14 8.759,30.17 8.759,29.19 
		8.759,28.22 8.759,27.25 8.759,26.27 8.759,25.31 8.759,24.33 8.759,23.35 8.759,22.39 8.759,21.41 9.73,21.41 9.73,20.44 
		9.73,19.46 9.73,18.49 	"/>
	<g>
		<rect x="8.759" y="2.93" fill="#6D5217" width="0.971" height="0.97"/>
		<polygon fill="#6D5217" points="8.759,5.85 7.791,5.85 7.791,6.81 7.791,7.79 7.791,8.77 7.791,9.73 8.759,9.73 8.759,8.77 
			9.73,8.77 9.73,7.79 9.73,6.81 8.759,6.81 		"/>
		<polygon fill="#6D5217" points="8.759,0.98 7.791,0.98 7.791,0 6.81,0 5.84,0 4.86,0 4.86,0.98 3.9,0.98 3.9,1.95 3.9,2.93 
			2.92,2.93 2.92,3.9 2.92,4.87 2.92,5.85 1.94,5.85 1.94,6.81 0.98,6.81 0.98,7.79 1.94,7.79 2.92,7.79 2.92,8.77 3.9,8.77 
			3.9,9.73 3.9,10.71 4.86,10.71 4.86,9.73 4.86,8.77 4.86,7.79 4.86,6.81 4.86,5.85 4.86,4.87 4.86,3.9 4.86,2.93 4.86,1.95 
			5.84,1.95 6.81,1.95 7.791,1.95 7.791,2.93 8.759,2.93 8.759,1.95 		"/>
	</g>
	<g>
		<rect x="2.92" y="33.08" fill="#C7B570" width="0.98" height="0.98"/>
		<rect x="7.791" y="33.08" fill="#C7B570" width="0.969" height="0.98"/>
		<polygon fill="#C7B570" points="9.73,11.68 9.73,12.66 9.73,13.63 9.73,14.6 9.73,15.58 9.73,16.54 9.73,17.52 9.73,18.49 
			9.73,19.46 9.73,20.44 9.73,21.41 9.73,22.39 9.73,23.35 10.71,23.35 10.71,22.39 10.71,21.41 10.71,20.44 10.71,19.46 
			10.71,18.49 10.71,17.52 10.71,16.54 10.71,15.58 10.71,14.6 10.71,13.63 10.71,12.66 10.71,11.68 		"/>
		<polygon fill="#C7B570" points="7.791,1.95 6.81,1.95 5.84,1.95 4.86,1.95 4.86,2.93 4.86,3.9 4.86,4.87 4.86,5.85 4.86,6.81 
			5.84,6.81 6.81,6.81 7.791,6.81 7.791,5.85 8.759,5.85 8.759,4.87 8.759,3.9 8.759,2.93 7.791,2.93 		"/>
		<polygon fill="#C7B570" points="0.98,16.54 0.98,15.58 0.98,14.6 0.98,13.63 0.98,12.66 0.98,11.68 0,11.68 0,12.66 0,13.63 
			0,14.6 0,15.58 0,16.54 0,17.52 0,18.49 0.98,18.49 0.98,19.46 0.98,20.44 0.98,21.41 0.98,22.39 0.98,23.35 1.94,23.35 
			1.94,22.39 1.94,21.41 1.94,20.44 1.94,19.46 1.94,18.49 1.94,17.52 0.98,17.52 		"/>
	</g>
	<polygon fill="#9C8F57" points="9.73,7.79 9.73,8.77 8.759,8.77 8.759,9.73 7.791,9.73 7.791,8.77 7.791,7.79 7.791,6.81 
		6.81,6.81 5.84,6.81 4.86,6.81 4.86,7.79 4.86,8.77 4.86,9.73 4.86,10.71 3.9,10.71 3.9,9.73 3.9,8.77 2.92,8.77 2.92,7.79 
		1.94,7.79 0.98,7.79 0.98,8.77 0,8.77 0,9.73 0,10.71 0,11.68 0.98,11.68 0.98,10.71 1.94,10.71 1.94,11.68 1.94,12.66 2.92,12.66 
		2.92,13.63 2.92,14.6 2.92,15.58 2.92,16.54 1.94,16.54 1.94,17.52 2.92,17.52 3.9,17.52 4.86,17.52 5.84,17.52 6.81,17.52 
		7.791,17.52 8.759,17.52 8.759,18.49 9.73,18.49 9.73,17.52 9.73,16.54 8.759,16.54 8.759,15.58 8.759,14.6 8.759,13.63 
		8.759,12.66 9.73,12.66 9.73,11.68 10.71,11.68 10.71,10.71 10.71,9.73 10.71,8.77 10.71,7.79 	"/>
</g>
<g>
	<polygon fill="#B3B3B3" points="2.925,0.98 1.955,0.98 1.955,1.95 1.955,2.93 2.925,2.93 3.895,2.93 3.895,1.95 2.925,1.95 	"/>
	<polygon fill="#B3B3B3" points="9.735,0 9.735,0.98 8.755,0.98 7.785,0.98 7.785,0 6.815,0 5.835,0 4.875,0 4.875,0.98 3.895,0.98 
		3.895,1.95 4.875,1.95 5.835,1.95 6.815,1.95 7.785,1.95 8.755,1.95 9.735,1.95 10.705,1.95 10.705,0.98 10.705,0 	"/>
	<rect x="7.785" y="14.6" fill="#B3B3B3" width="0.971" height="0.98"/>
	<polygon fill="#B3B3B3" points="7.785,9.73 7.785,10.71 8.755,10.71 9.735,10.71 9.735,9.73 8.755,9.73 	"/>
	<polygon fill="#B3B3B3" points="5.835,7.79 5.835,8.77 5.835,9.73 5.835,10.71 5.835,11.68 5.835,12.66 5.835,13.63 5.835,14.6 
		5.835,15.58 5.835,16.54 5.835,17.52 6.815,17.52 6.815,16.54 6.815,15.58 6.815,14.6 6.815,13.63 6.815,12.66 6.815,11.68 
		6.815,10.71 6.815,9.73 6.815,8.77 6.815,7.79 6.815,6.81 5.835,6.81 	"/>
	<rect x="3.895" y="14.6" fill="#B3B3B3" width="0.98" height="0.98"/>
</g>
<g>
	<polygon fill="#4D4D4D" points="8.755,17.52 7.785,17.52 6.815,17.52 5.835,17.52 4.875,17.52 3.895,17.52 2.925,17.52 
		1.955,17.52 1.955,18.49 2.925,18.49 3.895,18.49 4.875,18.49 5.835,18.49 6.815,18.49 6.815,19.46 7.785,19.46 7.785,18.49 
		8.755,18.49 9.735,18.49 9.735,17.52 	"/>
	<rect x="7.785" y="33.08" fill="#4D4D4D" width="0.971" height="0.98"/>
	<rect x="2.925" y="33.08" fill="#4D4D4D" width="0.97" height="0.98"/>
</g>
<path fill="#8C8C8C" d="M9.735,7.79v0.98H8.755v0.96h0.979v0.98H8.755H7.785V9.73V8.77V7.79V6.81h-0.97v0.98v0.98v0.96v0.98v0.97
	v0.98v0.97v0.97v0.98v0.96v0.98h0.97h0.971h0.979v0.97H8.755H7.785v0.971h-0.97V18.49h-0.98h-0.96h-0.98h-0.97h-0.97v-0.97h-0.98
	v-0.98v-0.96V14.6v-0.97v-0.97v-0.98v-0.97h0.98v0.97v0.98h0.97v0.97v0.97v0.98v0.96h-0.97v0.98h0.97h0.97h0.98h0.96v-0.98v-0.96
	V14.6v-0.97v-0.97v-0.98v-0.97V9.73V8.77V7.79V6.81h-0.96v0.98v0.98v0.96v0.98h-0.98V9.73V8.77h-0.97V7.79h-0.97h-0.98v0.98h-0.97
	v0.96v0.98v0.97v0.98v0.97v0.97v0.98v0.96v0.98v0.97h0.97v0.971v0.979v0.97h0.98h0.97v0.98v0.96v0.979v0.98v0.96v0.98v0.97v0.97
	v0.98v0.97v0.979v0.96h0.97v-0.96V31.14v-0.97v-0.98v-0.97v-0.97v-0.98v-0.96v-0.98V23.35v-0.96v-0.98h0.98v-0.97h0.96h0.98v0.97
	h0.97v0.98v0.96v0.979v0.98v0.96v0.98v0.97v0.97v0.98v0.97v0.979v0.96h0.971v-0.96V31.14v-0.97v-0.98v-0.97v-0.97v-0.98v-0.96v-0.98
	V23.35v-0.96v-0.98h0.979h0.97v-0.97V19.46V18.49v-0.97v-0.98v-0.96V14.6v-0.97v-0.97v-0.98v-0.97V9.73V8.77V7.79H9.735z
	 M4.875,15.58h-0.98V14.6h0.98V15.58z M9.735,13.63v0.97v0.98v0.96H8.755v-0.96H7.785V14.6h0.971v-0.97v-0.97h0.979V13.63z"/>
</svg>
