<?xml version="1.0" encoding="utf-8"?>
<!-- Generator: Adobe Illustrator 16.0.0, SVG Export Plug-In . SVG Version: 6.00 Build 0)  -->
<!DOCTYPE svg PUBLIC "-//W3C//DTD SVG 1.1//EN" "http://www.w3.org/Graphics/SVG/1.1/DTD/svg11.dtd">
<svg version="1.1" id="Layer_2" xmlns="http://www.w3.org/2000/svg" xmlns:xlink="http://www.w3.org/1999/xlink" x="0px" y="0px"
	 width="10.69px" height="33.08px" viewBox="0 0 10.69 33.08" enable-background="new 0 0 10.69 33.08" xml:space="preserve">
<rect x="7.771" y="22.42" fill="#999999" width="0.97" height="0.96"/>
<polygon fill="#999999" points="7.771,10.78 7.771,11.74 7.771,12.71 8.74,12.71 8.74,11.74 8.74,10.78 "/>
<rect x="6.8" y="32.11" fill="#999999" width="0.971" height="0.97"/>
<polygon fill="#999999" points="6.8,19.5 6.8,20.47 6.8,21.45 7.771,21.45 7.771,20.47 7.771,19.5 "/>
<polygon fill="#999999" points="4.851,7.87 3.891,7.87 3.891,8.84 4.851,8.84 5.82,8.84 5.82,7.87 "/>
<polygon fill="#999999" points="4.851,1.08 3.891,1.08 3.891,2.05 3.891,3.02 4.851,3.02 4.851,2.05 5.82,2.05 5.82,1.08 "/>
<polygon fill="#999999" points="5.82,17.561 4.851,17.561 3.891,17.561 2.92,17.561 2.92,18.53 3.891,18.53 4.851,18.53 5.82,18.53 
	6.8,18.53 6.8,17.561 "/>
<rect x="1.95" y="32.11" fill="#999999" width="0.97" height="0.97"/>
<polygon fill="#999999" points="1.95,19.5 1.95,20.47 1.95,21.45 2.92,21.45 2.92,20.47 2.92,19.5 "/>
<rect x="0.98" y="22.42" fill="#999999" width="0.97" height="0.96"/>
<polygon fill="#999999" points="0.98,9.81 0.98,10.78 0.98,11.74 0.98,12.71 1.95,12.71 1.95,11.74 1.95,10.78 1.95,9.81 "/>
<g>
	<polygon fill="#CCCCCC" points="8.74,12.71 8.74,13.69 8.74,14.66 8.74,15.63 8.74,16.6 9.71,16.6 9.71,15.63 9.71,14.66 
		9.71,13.69 9.71,12.71 	"/>
	<polygon fill="#CCCCCC" points="5.82,7.87 6.8,7.87 6.8,6.9 6.8,5.93 6.8,4.96 6.8,3.99 6.8,3.02 6.8,2.05 6.8,1.08 5.82,1.08 
		5.82,2.05 4.851,2.05 4.851,3.02 3.891,3.02 3.891,3.99 3.891,4.96 3.891,5.93 3.891,6.9 3.891,7.87 4.851,7.87 	"/>
	<polygon fill="#CCCCCC" points="7.771,15.63 7.771,14.66 7.771,13.69 7.771,12.71 7.771,11.74 7.771,10.78 7.771,9.81 7.771,8.84 
		6.8,8.84 5.82,8.84 4.851,8.84 3.891,8.84 2.92,8.84 1.95,8.84 1.95,9.81 1.95,10.78 1.95,11.74 1.95,12.71 1.95,13.69 1.95,14.66 
		1.95,15.63 1.95,16.6 1.95,17.561 2.92,17.561 3.891,17.561 4.851,17.561 5.82,17.561 6.8,17.561 7.771,17.561 7.771,18.53 
		6.8,18.53 5.82,18.53 4.851,18.53 3.891,18.53 2.92,18.53 1.95,18.53 1.95,19.5 2.92,19.5 2.92,20.47 3.891,20.47 4.851,20.47 
		5.82,20.47 6.8,20.47 6.8,19.5 7.771,19.5 7.771,20.47 7.771,21.45 6.8,21.45 6.8,22.42 6.8,23.38 6.8,24.35 6.8,25.32 6.8,26.29 
		6.8,27.26 6.8,28.23 6.8,29.2 6.8,30.17 6.8,31.14 6.8,32.11 7.771,32.11 7.771,31.14 7.771,30.17 7.771,29.2 7.771,28.23 
		7.771,27.26 7.771,26.29 7.771,25.32 7.771,24.35 7.771,23.38 7.771,22.42 8.74,22.42 8.74,21.45 8.74,20.47 8.74,19.5 8.74,18.53 
		8.74,17.561 8.74,16.6 7.771,16.6 	"/>
	<polygon fill="#CCCCCC" points="0.98,20.47 0.98,21.45 0.98,22.42 1.95,22.42 1.95,23.38 1.95,24.35 1.95,25.32 1.95,26.29 
		1.95,27.26 1.95,28.23 1.95,29.2 1.95,30.17 1.95,31.14 1.95,32.11 2.92,32.11 2.92,31.14 2.92,30.17 2.92,29.2 2.92,28.23 
		2.92,27.26 2.92,26.29 2.92,25.32 2.92,24.35 2.92,23.38 2.92,22.42 2.92,21.45 1.95,21.45 1.95,20.47 1.95,19.5 0.98,19.5 	"/>
	<polygon fill="#CCCCCC" points="0.98,17.561 0.98,16.6 0.98,15.63 0.98,14.66 0.98,13.69 0.98,12.71 0.01,12.71 0.01,13.69 
		0.01,14.66 0.01,15.63 0.01,16.6 0.01,17.561 0.01,18.53 0.01,19.5 0.98,19.5 0.98,18.53 	"/>
</g>
<g>
	<rect x="1.94" y="32.1" fill="#4D4D4D" width="0.98" height="0.98"/>
	<rect x="6.811" y="32.1" fill="#4D4D4D" width="0.97" height="0.98"/>
	<polygon fill="#4D4D4D" points="6.811,19.46 6.811,18.48 6.811,17.51 5.84,17.51 4.86,17.51 3.89,17.51 2.92,17.51 2.92,18.48 
		3.89,18.48 4.86,18.48 5.84,18.48 5.84,19.46 	"/>
</g>
<g>
	<polygon fill="#B3B3B3" points="4.86,10.7 4.86,11.68 5.84,11.68 6.811,11.68 6.811,10.7 5.84,10.7 	"/>
	<rect x="2.92" y="15.56" fill="#B3B3B3" width="0.97" height="0.98"/>
	<rect x="5.84" y="15.56" fill="#B3B3B3" width="0.97" height="0.98"/>
	<polygon fill="#B3B3B3" points="7.78,0 7.78,0.97 6.811,0.97 6.811,0 5.84,0 4.86,0 3.89,0 3.89,0.97 2.92,0.97 2.92,1.95 
		3.89,1.95 4.86,1.95 5.84,1.95 6.811,1.95 7.78,1.95 8.75,1.95 8.75,0.97 8.75,0 	"/>
	<polygon fill="#B3B3B3" points="1.94,0.97 0.98,0.97 0.98,1.95 0.98,2.92 1.94,2.92 2.92,2.92 2.92,1.95 1.94,1.95 	"/>
</g>
<g>
	<rect y="22.404" fill="#4D4D4D" width="0.98" height="0.98"/>
	<polygon fill="#4D4D4D" points="2.92,21.435 1.96,21.435 1.96,22.404 1.96,23.385 1.96,24.345 1.96,25.324 1.96,26.305 
		2.92,26.305 2.92,25.324 2.92,24.345 2.92,23.385 3.9,23.385 3.9,22.404 3.9,21.435 3.9,20.455 2.92,20.455 	"/>
</g>
<g>
	<rect x="6.79" y="22.404" fill="#4D4D4D" width="0.98" height="0.98"/>
	<polygon fill="#4D4D4D" points="9.71,21.435 8.75,21.435 8.75,22.404 8.75,23.385 8.75,24.345 8.75,25.324 8.75,26.305 
		9.71,26.305 9.71,25.324 9.71,24.345 9.71,23.385 10.69,23.385 10.69,22.404 10.69,21.435 10.69,20.455 9.71,20.455 	"/>
</g>
</svg>
