<?xml version="1.0" encoding="utf-8"?>
<!-- Generator: Adobe Illustrator 16.0.0, SVG Export Plug-In . SVG Version: 6.00 Build 0)  -->
<!DOCTYPE svg PUBLIC "-//W3C//DTD SVG 1.1//EN" "http://www.w3.org/Graphics/SVG/1.1/DTD/svg11.dtd">
<svg version="1.1" id="Layer_2" xmlns="http://www.w3.org/2000/svg" xmlns:xlink="http://www.w3.org/1999/xlink" x="0px" y="0px"
	 width="10.71px" height="33.08px" viewBox="0 0 10.71 33.08" enable-background="new 0 0 10.71 33.08" xml:space="preserve">
<rect x="8.75" y="22.42" fill="#999999" width="0.97" height="0.96"/>
<polygon fill="#999999" points="8.75,10.78 8.75,11.74 8.75,12.71 9.72,12.71 9.72,11.74 9.72,10.78 "/>
<rect x="7.779" y="32.11" fill="#999999" width="0.971" height="0.97"/>
<polygon fill="#999999" points="7.779,19.5 7.779,20.47 7.779,21.45 8.75,21.45 8.75,20.47 8.75,19.5 "/>
<polygon fill="#999999" points="5.83,7.87 4.87,7.87 4.87,8.84 5.83,8.84 6.8,8.84 6.8,7.87 "/>
<polygon fill="#999999" points="5.83,1.08 4.87,1.08 4.87,2.05 4.87,3.02 5.83,3.02 5.83,2.05 6.8,2.05 6.8,1.08 "/>
<polygon fill="#999999" points="6.8,17.561 5.83,17.561 4.87,17.561 3.9,17.561 3.9,18.53 4.87,18.53 5.83,18.53 6.8,18.53 
	7.779,18.53 7.779,17.561 "/>
<rect x="2.93" y="32.11" fill="#999999" width="0.97" height="0.97"/>
<polygon fill="#999999" points="2.93,19.5 2.93,20.47 2.93,21.45 3.9,21.45 3.9,20.47 3.9,19.5 "/>
<rect x="1.96" y="22.42" fill="#999999" width="0.97" height="0.96"/>
<polygon fill="#999999" points="1.96,9.81 1.96,10.78 1.96,11.74 1.96,12.71 2.93,12.71 2.93,11.74 2.93,10.78 2.93,9.81 "/>
<g>
	<polygon fill="#CCCCCC" points="9.72,12.71 9.72,13.69 9.72,14.66 9.72,15.63 9.72,16.6 10.689,16.6 10.689,15.63 10.689,14.66 
		10.689,13.69 10.689,12.71 	"/>
	<polygon fill="#CCCCCC" points="6.8,7.87 7.779,7.87 7.779,6.9 7.779,5.93 7.779,4.96 7.779,3.99 7.779,3.02 7.779,2.05 
		7.779,1.08 6.8,1.08 6.8,2.05 5.83,2.05 5.83,3.02 4.87,3.02 4.87,3.99 4.87,4.96 4.87,5.93 4.87,6.9 4.87,7.87 5.83,7.87 	"/>
	<polygon fill="#CCCCCC" points="8.75,15.63 8.75,14.66 8.75,13.69 8.75,12.71 8.75,11.74 8.75,10.78 8.75,9.81 8.75,8.84 
		7.779,8.84 6.8,8.84 5.83,8.84 4.87,8.84 3.9,8.84 2.93,8.84 2.93,9.81 2.93,10.78 2.93,11.74 2.93,12.71 2.93,13.69 2.93,14.66 
		2.93,15.63 2.93,16.6 2.93,17.561 3.9,17.561 4.87,17.561 5.83,17.561 6.8,17.561 7.779,17.561 8.75,17.561 8.75,18.53 
		7.779,18.53 6.8,18.53 5.83,18.53 4.87,18.53 3.9,18.53 2.93,18.53 2.93,19.5 3.9,19.5 3.9,20.47 4.87,20.47 5.83,20.47 6.8,20.47 
		7.779,20.47 7.779,19.5 8.75,19.5 8.75,20.47 8.75,21.45 7.779,21.45 7.779,22.42 7.779,23.38 7.779,24.35 7.779,25.32 
		7.779,26.29 7.779,27.26 7.779,28.23 7.779,29.2 7.779,30.17 7.779,31.14 7.779,32.11 8.75,32.11 8.75,31.14 8.75,30.17 8.75,29.2 
		8.75,28.23 8.75,27.26 8.75,26.29 8.75,25.32 8.75,24.35 8.75,23.38 8.75,22.42 9.72,22.42 9.72,21.45 9.72,20.47 9.72,19.5 
		9.72,18.53 9.72,17.561 9.72,16.6 8.75,16.6 	"/>
	<polygon fill="#CCCCCC" points="1.96,20.47 1.96,21.45 1.96,22.42 2.93,22.42 2.93,23.38 2.93,24.35 2.93,25.32 2.93,26.29 
		2.93,27.26 2.93,28.23 2.93,29.2 2.93,30.17 2.93,31.14 2.93,32.11 3.9,32.11 3.9,31.14 3.9,30.17 3.9,29.2 3.9,28.23 3.9,27.26 
		3.9,26.29 3.9,25.32 3.9,24.35 3.9,23.38 3.9,22.42 3.9,21.45 2.93,21.45 2.93,20.47 2.93,19.5 1.96,19.5 	"/>
	<polygon fill="#CCCCCC" points="1.96,17.561 1.96,16.6 1.96,15.63 1.96,14.66 1.96,13.69 1.96,12.71 0.99,12.71 0.99,13.69 
		0.99,14.66 0.99,15.63 0.99,16.6 0.99,17.561 0.99,18.53 0.99,19.5 1.96,19.5 1.96,18.53 	"/>
</g>
<g>
	<polygon fill="#B3B3B3" points="9.729,0 8.76,0 8.76,0.97 9.729,0.97 10.71,0.97 10.71,0 	"/>
	<polygon fill="#B3B3B3" points="7.79,0 6.82,0 5.84,0 4.87,0 4.87,0.97 3.9,0.97 3.9,1.95 4.87,1.95 5.84,1.95 6.82,1.95 
		7.79,1.95 8.76,1.95 8.76,0.97 7.79,0.97 	"/>
	<polygon fill="#B3B3B3" points="1.96,1.95 1.96,2.92 2.92,2.92 3.9,2.92 3.9,1.95 2.92,1.95 	"/>
</g>
<g>
	<polygon fill="#8C8C8C" points="7.79,30.16 7.79,31.14 7.79,32.1 7.79,33.08 8.76,33.08 8.76,32.1 8.76,31.14 8.76,30.16 
		8.76,29.19 7.79,29.19 	"/>
	<polygon fill="#8C8C8C" points="2.92,30.16 2.92,31.14 2.92,32.1 2.92,33.08 3.9,33.08 3.9,32.1 3.9,31.14 3.9,30.16 3.9,29.19 
		2.92,29.19 	"/>
	<polygon fill="#8C8C8C" points="9.729,12.65 9.729,13.62 9.729,14.6 9.729,15.56 10.71,15.56 10.71,14.6 10.71,13.62 10.71,12.65 	
		"/>
	<polygon fill="#8C8C8C" points="9.729,10.7 8.76,10.7 8.76,9.73 8.76,8.75 7.79,8.75 6.82,8.75 6.82,9.73 6.82,10.7 6.82,11.68 
		6.82,12.65 5.84,12.65 4.87,12.65 4.87,11.68 4.87,10.7 4.87,9.73 4.87,8.75 3.9,8.75 2.92,8.75 2.92,9.73 1.96,9.73 1.96,10.7 
		1.96,11.68 1.96,12.65 2.92,12.65 2.92,13.62 2.92,14.6 2.92,15.56 2.92,16.54 2.92,17.51 2.92,18.48 2.92,19.46 3.9,19.46 
		3.9,18.48 4.87,18.48 4.87,17.51 4.87,16.54 4.87,15.56 4.87,14.6 4.87,13.62 5.84,13.62 6.82,13.62 6.82,14.6 6.82,15.56 
		6.82,16.54 6.82,17.51 6.82,18.48 7.79,18.48 7.79,19.46 8.76,19.46 8.76,18.48 8.76,17.51 8.76,16.54 8.76,15.56 8.76,14.6 
		8.76,13.62 8.76,12.65 9.729,12.65 9.729,11.68 	"/>
	<polygon fill="#8C8C8C" points="7.79,20.43 6.82,20.43 5.84,20.43 4.87,20.43 3.9,20.43 3.9,21.41 3.9,22.37 3.9,23.35 4.87,23.35 
		5.84,23.35 5.84,22.37 6.82,22.37 6.82,21.41 7.79,21.41 	"/>
	<polygon fill="#8C8C8C" points="2.92,23.35 1.96,23.35 1.96,22.37 0.98,22.37 0.98,23.35 0.98,24.33 0,24.33 0,25.29 0.98,25.29 
		1.96,25.29 1.96,24.33 2.92,24.33 	"/>
	<polygon fill="#8C8C8C" points="0.98,13.62 0.98,14.6 0.98,15.56 1.96,15.56 1.96,14.6 1.96,13.62 1.96,12.65 0.98,12.65 	"/>
</g>
<g>
	<polygon fill="#4D4D4D" points="8.75,22.414 7.779,22.414 6.81,22.414 5.839,22.414 4.86,22.414 3.89,22.414 3.89,21.444 
		3.89,20.465 2.919,20.465 2.919,21.444 2.919,22.414 2.919,23.395 2.919,24.354 2.919,25.334 3.89,25.334 3.89,24.354 3.89,23.395 
		4.86,23.395 5.839,23.395 6.81,23.395 7.779,23.395 8.75,23.395 9.73,23.395 9.73,22.414 	"/>
	<polygon fill="#4D4D4D" points="0,22.414 0,23.395 0.97,23.395 1.94,23.395 1.94,22.414 0.97,22.414 	"/>
</g>
</svg>
