<?xml version="1.0" encoding="utf-8"?>
<!-- Generator: Adobe Illustrator 16.0.0, SVG Export Plug-In . SVG Version: 6.00 Build 0)  -->
<!DOCTYPE svg PUBLIC "-//W3C//DTD SVG 1.1//EN" "http://www.w3.org/Graphics/SVG/1.1/DTD/svg11.dtd">
<svg version="1.1" id="Layer_1" xmlns="http://www.w3.org/2000/svg" xmlns:xlink="http://www.w3.org/1999/xlink" x="0px" y="0px"
	 width="11.68px" height="33.08px" viewBox="0 0 11.68 33.08" enable-background="new 0 0 11.68 33.08" xml:space="preserve">
<polygon fill="#6D5217" points="7.785,1.081 6.815,1.081 5.845,1.081 4.875,1.081 4.875,2.051 4.875,3.021 4.875,3.991 4.875,4.96 
	5.845,4.96 5.845,3.991 5.845,3.021 6.815,3.021 6.815,2.051 7.785,2.051 8.746,2.051 8.746,1.081 "/>
<g>
	<polygon fill="#C7B570" points="8.746,16.601 8.746,17.561 8.746,18.531 8.746,19.5 8.746,20.471 8.746,21.451 8.746,22.42 
		8.746,23.381 9.715,23.381 9.715,22.42 9.715,21.451 9.715,20.471 9.715,19.5 9.715,18.531 9.715,17.561 9.715,16.601 9.715,15.63 
		8.746,15.63 	"/>
	<polygon fill="#C7B570" points="9.715,12.71 9.715,13.69 9.715,14.661 9.715,15.63 10.686,15.63 10.686,14.661 10.686,13.69 
		10.686,12.71 	"/>
</g>
<g>
	<polygon fill="#C7B570" points="1.965,18.531 1.965,19.5 1.965,20.471 1.965,21.451 1.965,22.42 1.965,23.381 2.925,23.381 
		2.925,22.42 2.925,21.451 2.925,20.471 2.925,19.5 2.925,18.531 	"/>
	<polygon fill="#C7B570" points="1.965,16.601 1.965,15.63 1.965,14.661 1.965,13.69 1.965,12.71 0.995,12.71 0.995,13.69 
		0.995,14.661 0.995,15.63 0.995,16.601 0.995,17.561 0.995,18.531 1.965,18.531 1.965,17.561 	"/>
</g>
<rect x="7.785" y="32.111" fill="#C7B570" width="0.961" height="0.969"/>
<polygon fill="#737144" points="7.785,16.601 6.815,16.601 5.845,16.601 4.875,16.601 3.895,16.601 2.925,16.601 2.925,17.561 
	2.925,18.531 2.925,19.5 2.925,20.471 2.925,21.451 2.925,22.42 2.925,23.381 2.925,24.35 2.925,25.32 2.925,26.291 2.925,27.26 
	2.925,28.23 2.925,29.201 2.925,30.17 2.925,31.141 2.925,32.111 3.895,32.111 3.895,31.141 3.895,30.17 3.895,29.201 3.895,28.23 
	3.895,27.26 3.895,26.291 3.895,25.32 3.895,24.35 3.895,23.381 3.895,22.42 3.895,21.451 3.895,20.471 4.875,20.471 5.845,20.471 
	6.815,20.471 7.785,20.471 7.785,21.451 7.785,22.42 7.785,23.381 7.785,24.35 7.785,25.32 7.785,26.291 7.785,27.26 7.785,28.23 
	7.785,29.201 7.785,30.17 7.785,31.141 7.785,32.111 8.746,32.111 8.746,31.141 8.746,30.17 8.746,29.201 8.746,28.23 8.746,27.26 
	8.746,26.291 8.746,25.32 8.746,24.35 8.746,23.381 8.746,22.42 8.746,21.451 8.746,20.471 8.746,19.5 8.746,18.531 8.746,17.561 
	8.746,16.601 "/>
<g>
	<rect x="9.715" y="11.741" fill="#9C8F57" width="0.971" height="0.97"/>
	<polygon fill="#9C8F57" points="9.715,9.811 9.715,8.84 8.746,8.84 8.746,7.871 8.746,6.9 7.785,6.9 6.815,6.9 5.845,6.9 
		4.875,6.9 3.895,6.9 2.925,6.9 2.925,7.871 1.965,7.871 1.965,8.84 1.965,9.811 1.965,10.781 1.965,11.741 2.925,11.741 
		2.925,12.71 2.925,13.69 2.925,14.661 2.925,15.63 2.925,16.601 3.895,16.601 4.875,16.601 5.845,16.601 6.815,16.601 
		7.785,16.601 8.746,16.601 8.746,15.63 8.746,14.661 8.746,13.69 8.746,12.71 8.746,11.741 9.715,11.741 9.715,10.781 	"/>
	<rect x="0.995" y="11.741" fill="#9C8F57" width="0.97" height="0.97"/>
</g>
<rect x="2.925" y="32.111" fill="#C7B570" width="0.97" height="0.969"/>
<polygon fill="#C7B570" points="7.785,2.051 6.815,2.051 6.815,3.021 5.845,3.021 5.845,3.991 5.845,4.96 4.875,4.96 4.875,5.931 
	4.875,6.9 5.84,6.9 5.84,7.79 6.82,7.79 6.82,6.9 7.785,6.9 7.785,5.931 8.746,5.931 8.746,4.96 8.746,3.991 8.746,3.021 
	8.746,2.051 "/>
<g>
	<polygon fill="#B3B3B3" points="10.71,0 9.73,0 9.73,0.97 10.71,0.97 11.68,0.97 11.68,0 	"/>
	<rect x="9.73" y="14.6" fill="#B3B3B3" width="0.98" height="0.96"/>
	<polygon fill="#B3B3B3" points="8.76,16.54 8.76,17.51 9.73,17.51 9.73,16.54 9.73,15.56 8.76,15.56 	"/>
	<polygon fill="#B3B3B3" points="7.791,0.97 7.791,0 6.82,0 5.84,0 5.84,0.97 4.87,0.97 3.9,0.97 3.9,1.95 4.87,1.95 5.84,1.95 
		6.82,1.95 7.791,1.95 8.76,1.95 9.73,1.95 9.73,0.97 8.76,0.97 	"/>
	<polygon fill="#B3B3B3" points="7.791,17.51 7.791,16.54 6.82,16.54 6.82,15.56 6.82,14.6 6.82,13.62 6.82,12.65 6.82,11.68 
		5.84,11.68 5.84,12.65 5.84,13.62 5.84,14.6 5.84,15.56 5.84,16.54 4.87,16.54 4.87,17.51 3.9,17.51 3.9,18.48 3.9,19.46 
		2.92,19.46 2.92,20.43 2.92,21.41 2.92,22.37 2.92,23.35 2.92,24.33 2.92,25.29 2.92,26.271 2.92,27.24 2.92,28.21 2.92,29.19 
		3.9,29.19 3.9,28.21 3.9,27.24 3.9,26.271 3.9,25.29 3.9,24.33 3.9,23.35 3.9,22.37 3.9,21.41 3.9,20.43 4.87,20.43 5.84,20.43 
		6.82,20.43 7.791,20.43 7.791,21.41 7.791,22.37 7.791,23.35 7.791,24.33 7.791,25.29 7.791,26.271 7.791,27.24 7.791,28.21 
		7.791,29.19 8.76,29.19 8.76,28.21 8.76,27.24 8.76,26.271 8.76,25.29 8.76,24.33 8.76,23.35 8.76,22.37 8.76,21.41 8.76,20.43 
		8.76,19.46 8.76,18.48 7.791,18.48 	"/>
	<polygon fill="#B3B3B3" points="6.82,9.73 6.82,8.75 6.82,7.79 5.84,7.79 5.84,8.75 5.84,9.73 5.84,10.7 6.82,10.7 	"/>
	<polygon fill="#B3B3B3" points="1.96,1.95 1.96,2.92 2.92,2.92 3.9,2.92 3.9,1.95 2.92,1.95 	"/>
	<polygon fill="#B3B3B3" points="0.98,15.56 0.98,16.54 0.98,17.51 1.96,17.51 1.96,16.54 1.96,15.56 1.96,14.6 0.98,14.6 	"/>
</g>
<g>
	<polygon fill="#8C8C8C" points="9.73,11.68 9.73,12.65 9.73,13.62 9.73,14.6 10.71,14.6 10.71,13.62 10.71,12.65 10.71,11.68 	"/>
	<polygon fill="#8C8C8C" points="9.73,9.73 9.73,8.75 8.76,8.75 8.76,7.79 8.76,6.81 7.791,6.81 6.82,6.81 6.82,7.79 6.82,8.75 
		6.82,9.73 6.82,10.7 5.84,10.7 5.84,9.73 5.84,8.75 5.84,7.79 5.84,6.81 4.87,6.81 3.9,6.81 2.92,6.81 2.92,7.79 1.96,7.79 
		1.96,8.75 1.96,9.73 1.96,10.7 1.96,11.68 2.92,11.68 2.92,12.65 2.92,13.62 2.92,14.6 2.92,15.56 2.92,16.54 2.92,17.51 
		2.92,18.48 2.92,19.46 3.9,19.46 3.9,18.48 3.9,17.51 4.87,17.51 4.87,16.54 5.84,16.54 5.84,15.56 5.84,14.6 5.84,13.62 
		5.84,12.65 5.84,11.68 6.82,11.68 6.82,12.65 6.82,13.62 6.82,14.6 6.82,15.56 6.82,16.54 7.791,16.54 7.791,17.51 7.791,18.48 
		8.76,18.48 8.76,17.51 8.76,16.54 8.76,15.56 8.76,14.6 8.76,13.62 8.76,12.65 8.76,11.68 9.73,11.68 9.73,10.7 	"/>
	<polygon fill="#8C8C8C" points="7.791,30.16 7.791,31.14 7.791,32.1 7.791,33.08 8.76,33.08 8.76,32.1 8.76,31.14 8.76,30.16 
		8.76,29.19 7.791,29.19 	"/>
	<polygon fill="#8C8C8C" points="7.791,20.43 6.82,20.43 5.84,20.43 4.87,20.43 3.9,20.43 3.9,21.41 3.9,22.37 3.9,23.35 
		4.87,23.35 5.84,23.35 5.84,22.37 6.82,22.37 6.82,21.41 7.791,21.41 	"/>
	<polygon fill="#8C8C8C" points="2.92,30.16 2.92,31.14 2.92,32.1 2.92,33.08 3.9,33.08 3.9,32.1 3.9,31.14 3.9,30.16 3.9,29.19 
		2.92,29.19 	"/>
	<polygon fill="#8C8C8C" points="0.98,12.65 0.98,13.62 0.98,14.6 1.96,14.6 1.96,13.62 1.96,12.65 1.96,11.68 0.98,11.68 	"/>
</g>
<g>
	<polygon fill="#4D4D4D" points="8.75,22.385 7.78,22.385 6.81,22.385 5.839,22.385 4.86,22.385 3.89,22.385 3.89,21.415 
		3.89,20.436 2.92,20.436 2.92,21.415 2.92,22.385 2.92,23.365 2.92,24.325 2.92,25.305 3.89,25.305 3.89,24.325 3.89,23.365 
		4.86,23.365 5.839,23.365 6.81,23.365 7.78,23.365 8.75,23.365 9.73,23.365 9.73,22.385 	"/>
	<polygon fill="#4D4D4D" points="0,22.385 0,23.365 0.97,23.365 1.94,23.365 1.94,22.385 0.97,22.385 	"/>
</g>
</svg>
