<?xml version="1.0" encoding="utf-8"?>
<!-- Generator: Adobe Illustrator 16.0.0, SVG Export Plug-In . SVG Version: 6.00 Build 0)  -->
<!DOCTYPE svg PUBLIC "-//W3C//DTD SVG 1.1//EN" "http://www.w3.org/Graphics/SVG/1.1/DTD/svg11.dtd">
<svg version="1.1" id="Layer_2" xmlns="http://www.w3.org/2000/svg" xmlns:xlink="http://www.w3.org/1999/xlink" x="0px" y="0px"
	 width="11.68px" height="23.36px" viewBox="0 0 11.68 23.36" enable-background="new 0 0 11.68 23.36" xml:space="preserve">
<g>
	<polygon fill="#6D5217" points="8.755,5.84 8.755,4.87 8.755,3.9 7.785,3.9 6.814,3.9 6.814,2.92 5.835,2.92 5.835,1.95 
		6.814,1.95 7.785,1.95 8.755,1.95 8.755,0.99 7.785,0.99 7.785,0.02 6.814,0.02 5.835,0.02 4.865,0.02 3.905,0.02 3.905,0.99 
		2.935,0.99 2.935,1.95 2.935,2.92 2.935,3.9 2.935,4.87 2.935,5.84 3.905,5.84 3.905,4.87 4.865,4.87 4.865,3.9 5.835,3.9 
		5.835,4.87 6.814,4.87 6.814,5.84 7.785,5.84 7.785,6.81 8.755,6.81 8.755,7.771 8.755,8.74 9.725,8.74 9.725,7.771 9.725,6.81 
		9.725,5.84 	"/>
	<polygon fill="#737144" points="8.755,13.59 7.785,13.59 6.814,13.59 5.835,13.59 4.865,13.59 3.905,13.59 2.935,13.59 
		1.965,13.59 1.965,14.56 1.965,15.53 1.965,16.5 1.965,17.47 1.965,18.44 1.965,19.41 1.965,20.38 1.965,21.35 1.965,22.32 
		2.935,22.32 2.935,21.35 2.935,20.38 2.935,19.41 2.935,18.44 2.935,17.47 2.935,16.5 2.935,15.53 3.905,15.53 4.865,15.53 
		5.835,15.53 6.814,15.53 7.785,15.53 8.755,15.53 8.755,16.5 8.755,17.47 8.755,18.44 8.755,19.41 8.755,20.38 8.755,21.35 
		8.755,22.32 9.725,22.32 9.725,21.35 9.725,20.38 9.725,19.41 9.725,18.44 9.725,17.47 9.725,16.5 9.725,15.53 9.725,14.56 
		9.725,13.59 	"/>
	<g>
		<polygon fill="#C7B570" points="10.685,16.5 10.685,17.47 10.685,18.44 11.655,18.44 11.655,17.47 11.655,16.5 		"/>
		<polygon fill="#C7B570" points="10.685,14.56 10.685,13.59 9.725,13.59 9.725,14.56 9.725,15.53 9.725,16.5 10.685,16.5 
			10.685,15.53 		"/>
		<polygon fill="#C7B570" points="0.995,17.47 0.995,18.44 1.965,18.44 1.965,17.47 1.965,16.5 1.965,15.53 1.965,14.56 
			0.995,14.56 0.995,13.59 0.024,13.59 0.024,14.56 0.024,15.53 0.995,15.53 0.995,16.5 		"/>
		<rect x="8.755" y="22.32" fill="#C7B570" width="0.97" height="0.97"/>
		<polygon fill="#C7B570" points="8.755,2.92 8.755,1.95 7.785,1.95 6.814,1.95 5.835,1.95 5.835,2.92 6.814,2.92 6.814,3.9 
			7.785,3.9 8.755,3.9 		"/>
		<polygon fill="#C7B570" points="5.835,3.9 4.865,3.9 4.865,4.87 3.905,4.87 3.905,5.84 4.865,5.84 5.835,5.84 6.814,5.84 
			6.814,4.87 5.835,4.87 		"/>
		<rect x="1.965" y="22.32" fill="#C7B570" width="0.97" height="0.97"/>
	</g>
	<polygon fill="#9C8F57" points="9.725,6.81 9.725,7.771 9.725,8.74 8.755,8.74 8.755,7.771 8.755,6.81 7.785,6.81 7.785,5.84 
		6.814,5.84 5.835,5.84 4.865,5.84 3.905,5.84 2.935,5.84 1.965,5.84 1.965,6.81 0.995,6.81 0.995,7.771 0.024,7.771 0.024,8.74 
		0.024,9.71 0.024,10.68 0.024,11.66 0.024,12.63 0.024,13.59 0.995,13.59 0.995,12.63 0.995,11.66 0.995,10.68 1.965,10.68 
		1.965,11.66 1.965,12.63 1.965,13.59 2.935,13.59 3.905,13.59 4.865,13.59 5.835,13.59 6.814,13.59 7.785,13.59 8.755,13.59 
		9.725,13.59 10.685,13.59 10.685,12.63 10.685,11.66 10.685,10.68 10.685,9.71 10.685,8.74 10.685,7.771 10.685,6.81 	"/>
</g>
<g>
	<polygon fill="#8C8C8C" points="10.7,16.55 10.7,17.521 10.7,18.49 11.68,18.49 11.68,17.521 11.68,16.55 	"/>
	<polygon fill="#8C8C8C" points="10.7,12.65 10.7,11.69 9.72,11.69 9.72,12.65 8.76,12.65 7.78,12.65 6.81,12.65 6.81,11.69 
		6.81,10.71 6.81,9.73 6.81,8.76 6.81,7.79 6.81,6.82 7.78,6.82 8.76,6.82 9.72,6.82 9.72,5.84 8.76,5.84 8.76,4.87 8.76,3.9 
		7.78,3.9 6.81,3.9 6.81,2.92 5.84,2.92 5.84,1.96 6.81,1.96 7.78,1.96 8.76,1.96 8.76,0.98 7.78,0.98 7.78,0 6.81,0 5.84,0 4.86,0 
		3.89,0 3.89,0.98 2.92,0.98 2.92,1.96 2.92,2.92 2.92,3.9 2.92,4.87 2.92,5.84 1.95,5.84 1.95,6.82 2.92,6.82 3.89,6.82 4.86,6.82 
		4.86,7.79 5.84,7.79 5.84,8.76 5.84,9.73 5.84,10.71 5.84,11.69 5.84,12.65 4.86,12.65 3.89,12.65 2.92,12.65 1.95,12.65 
		1.95,13.63 2.92,13.63 3.89,13.63 4.86,13.63 5.84,13.63 6.81,13.63 7.78,13.63 8.76,13.63 9.72,13.63 10.7,13.63 	"/>
	<polygon fill="#8C8C8C" points="8.76,22.38 8.76,23.36 9.72,23.36 9.72,22.38 9.72,21.41 8.76,21.41 	"/>
	<polygon fill="#8C8C8C" points="1.95,22.38 1.95,23.36 2.92,23.36 2.92,22.38 2.92,21.41 1.95,21.41 	"/>
	<polygon fill="#8C8C8C" points="1.95,17.521 1.95,16.55 0.97,16.55 0.97,17.521 0.97,18.49 1.95,18.49 	"/>
	<polygon fill="#8C8C8C" points="0.97,12.65 0.97,11.69 0,11.69 0,12.65 0,13.63 0.97,13.63 	"/>
</g>
<g>
	<polygon fill="#B3B3B3" points="9.72,6.82 8.76,6.82 7.78,6.82 6.81,6.82 6.81,7.79 6.81,8.76 6.81,9.73 6.81,10.71 6.81,11.69 
		6.81,12.65 7.78,12.65 8.76,12.65 9.72,12.65 9.72,11.69 10.7,11.69 10.7,10.71 10.7,9.73 10.7,8.76 10.7,7.79 10.7,6.82 	"/>
	<polygon fill="#B3B3B3" points="8.76,13.63 7.78,13.63 6.81,13.63 5.84,13.63 4.86,13.63 3.89,13.63 2.92,13.63 1.95,13.63 
		1.95,14.6 0.97,14.6 0.97,13.63 0,13.63 0,14.6 0,15.57 0.97,15.57 0.97,16.55 1.95,16.55 1.95,17.521 1.95,18.49 1.95,19.46 
		1.95,20.44 1.95,21.41 2.92,21.41 2.92,20.44 2.92,19.46 2.92,18.49 2.92,17.521 2.92,16.55 2.92,15.57 3.89,15.57 4.86,15.57 
		5.84,15.57 6.81,15.57 7.78,15.57 8.76,15.57 8.76,16.55 8.76,17.521 8.76,18.49 8.76,19.46 8.76,20.44 8.76,21.41 9.72,21.41 
		9.72,20.44 9.72,19.46 9.72,18.49 9.72,17.521 9.72,16.55 10.7,16.55 10.7,15.57 10.7,14.6 10.7,13.63 9.72,13.63 	"/>
	<polygon fill="#B3B3B3" points="0.97,10.71 1.95,10.71 1.95,11.69 1.95,12.65 2.92,12.65 3.89,12.65 4.86,12.65 5.84,12.65 
		5.84,11.69 5.84,10.71 5.84,9.73 5.84,8.76 5.84,7.79 4.86,7.79 4.86,6.82 3.89,6.82 2.92,6.82 1.95,6.82 0.97,6.82 0.97,7.79 
		0,7.79 0,8.76 0,9.73 0,10.71 0,11.69 0.97,11.69 	"/>
</g>
<g>
	<polygon fill="#4D4D4D" points="5.84,17.52 4.869,17.52 3.9,17.52 2.92,17.52 2.92,16.55 1.96,16.55 1.96,17.52 1.96,18.5 
		1.96,19.46 2.92,19.46 2.92,18.5 3.9,18.5 4.869,18.5 5.84,18.5 6.82,18.5 6.82,17.52 	"/>
	<rect y="17.52" fill="#4D4D4D" width="0.98" height="0.98"/>
</g>
</svg>
