<?xml version="1.0" encoding="utf-8"?>
<!-- Generator: Adobe Illustrator 16.0.0, SVG Export Plug-In . SVG Version: 6.00 Build 0)  -->
<!DOCTYPE svg PUBLIC "-//W3C//DTD SVG 1.1//EN" "http://www.w3.org/Graphics/SVG/1.1/DTD/svg11.dtd">
<svg version="1.1" id="Layer_3" xmlns="http://www.w3.org/2000/svg" xmlns:xlink="http://www.w3.org/1999/xlink" x="0px" y="0px"
	 width="13.63px" height="23.35px" viewBox="0 0 13.63 23.35" enable-background="new 0 0 13.63 23.35" xml:space="preserve">
<g>
	<polygon fill="#737144" points="8.755,14.62 8.755,13.65 7.785,13.65 6.815,13.65 5.835,13.65 4.865,13.65 3.905,13.65 
		2.935,13.65 2.935,14.62 1.965,14.62 1.965,15.59 1.965,16.56 1.965,17.53 2.935,17.53 2.935,18.5 2.935,19.47 2.935,20.44 
		2.935,21.41 2.935,22.38 3.905,22.38 3.905,21.41 3.905,20.44 3.905,19.47 3.905,18.5 3.905,17.53 3.905,16.56 4.865,16.56 
		4.865,15.59 5.835,15.59 6.815,15.59 6.815,16.56 7.785,16.56 7.785,17.53 7.785,18.5 7.785,19.47 7.785,20.44 7.785,21.41 
		7.785,22.38 8.755,22.38 8.755,21.41 8.755,20.44 8.755,19.47 8.755,18.5 8.755,17.53 9.725,17.53 9.725,16.56 9.725,15.59 
		9.725,14.62 	"/>
	<g>
		<rect x="8.755" y="2.01" fill="#6D5217" width="0.97" height="0.97"/>
		<polygon fill="#6D5217" points="7.785,1.05 7.785,0.08 6.815,0.08 5.835,0.08 4.865,0.08 3.905,0.08 3.905,1.05 2.935,1.05 
			2.935,2.01 2.935,2.98 1.965,2.98 1.965,3.96 1.965,4.93 1.965,5.9 1.965,6.87 2.935,6.87 2.935,7.831 3.905,7.831 3.905,6.87 
			3.905,5.9 3.905,4.93 4.865,4.93 4.865,3.96 5.835,3.96 5.835,2.98 5.835,2.01 6.815,2.01 7.785,2.01 8.755,2.01 8.755,1.05 		"/>
		<polygon fill="#6D5217" points="6.815,4.93 6.815,5.9 6.815,6.87 7.785,6.87 8.755,6.87 8.755,7.831 8.755,8.8 8.755,9.77 
			9.725,9.77 9.725,8.8 9.725,7.831 9.725,6.87 9.725,5.9 8.755,5.9 8.755,4.93 8.755,3.96 7.785,3.96 6.815,3.96 5.835,3.96 
			5.835,4.93 		"/>
	</g>
	<g>
		<polygon fill="#C7B570" points="0.995,14.62 0.995,15.59 0.995,16.56 0.995,17.53 0.995,18.5 1.965,18.5 1.965,17.53 1.965,16.56 
			1.965,15.59 1.965,14.62 1.965,13.65 0.995,13.65 		"/>
		<polygon fill="#C7B570" points="9.725,13.65 9.725,14.62 9.725,15.59 9.725,16.56 9.725,17.53 9.725,18.5 10.685,18.5 
			10.685,17.53 10.685,16.56 10.685,15.59 10.685,14.62 10.685,13.65 		"/>
		<rect x="7.785" y="22.38" fill="#C7B570" width="0.971" height="0.97"/>
		<polygon fill="#C7B570" points="6.815,2.01 5.835,2.01 5.835,2.98 5.835,3.96 6.815,3.96 7.785,3.96 8.755,3.96 8.755,2.98 
			8.755,2.01 7.785,2.01 		"/>
		<polygon fill="#C7B570" points="4.865,4.93 3.905,4.93 3.905,5.9 4.865,5.9 5.835,5.9 6.815,5.9 6.815,4.93 5.835,4.93 
			5.835,3.96 4.865,3.96 		"/>
		<rect x="2.935" y="22.38" fill="#C7B570" width="0.97" height="0.97"/>
	</g>
	<g>
		<polygon fill="#9C8F57" points="9.725,7.831 9.725,8.8 9.725,9.77 8.755,9.77 8.755,8.8 8.755,7.831 8.755,6.87 7.785,6.87 
			6.815,6.87 6.815,5.9 5.835,5.9 4.865,5.9 3.905,5.9 3.905,6.87 3.905,7.831 2.935,7.831 2.935,6.87 1.965,6.87 0.995,6.87 
			0.995,7.831 0.995,8.8 0.995,9.77 0.995,10.74 1.965,10.74 2.935,10.74 2.935,11.72 2.935,12.69 2.935,13.65 3.905,13.65 
			4.865,13.65 5.835,13.65 6.815,13.65 7.785,13.65 8.755,13.65 8.755,12.69 8.755,11.72 8.755,10.74 9.725,10.74 9.725,11.72 
			9.725,12.69 9.725,13.65 10.685,13.65 10.685,12.69 10.685,11.72 10.685,10.74 10.685,9.77 10.685,8.8 10.685,7.831 		"/>
		<polygon fill="#9C8F57" points="0.025,11.72 0.025,12.69 0.025,13.65 0.995,13.65 0.995,12.69 0.995,11.72 0.995,10.74 
			0.025,10.74 		"/>
	</g>
</g>
<g>
	<polygon fill="#8C8C8C" points="7.785,0 6.815,0 5.835,0 4.875,0 3.895,0 3.895,0.97 2.925,0.97 2.925,1.95 2.925,2.91 1.955,2.91 
		1.955,3.89 1.955,4.87 1.955,5.83 2.925,5.83 3.895,5.83 3.895,6.81 4.875,6.81 4.875,7.78 5.835,7.78 5.835,8.75 5.835,9.73 
		5.835,10.7 5.835,11.68 5.835,12.64 4.875,12.64 3.895,12.64 2.925,12.64 2.925,13.62 3.895,13.62 4.875,13.62 5.835,13.62 
		6.815,13.62 7.785,13.62 8.755,13.62 8.755,12.64 7.785,12.64 6.815,12.64 6.815,11.68 6.815,10.7 6.815,9.73 6.815,8.75 
		6.815,7.78 6.815,6.81 7.785,6.81 7.785,5.83 8.755,5.83 8.755,4.87 8.755,3.89 7.785,3.89 6.815,3.89 5.835,3.89 5.835,2.91 
		5.835,1.95 6.815,1.95 7.785,1.95 8.755,1.95 8.755,0.97 7.785,0.97 	"/>
	<polygon fill="#8C8C8C" points="9.735,17.51 9.735,18.48 10.705,18.48 10.705,17.51 10.705,16.541 9.735,16.541 	"/>
	<polygon fill="#8C8C8C" points="9.735,11.68 9.735,12.64 9.735,13.62 10.705,13.62 10.705,12.64 10.705,11.68 	"/>
	<polygon fill="#8C8C8C" points="7.785,22.37 7.785,23.35 8.755,23.35 8.755,22.37 8.755,21.41 7.785,21.41 	"/>
	<polygon fill="#8C8C8C" points="7.785,19.46 7.785,20.43 8.755,20.43 8.755,19.46 8.755,18.48 7.785,18.48 	"/>
	<polygon fill="#8C8C8C" points="2.925,22.37 2.925,23.35 3.895,23.35 3.895,22.37 3.895,21.41 2.925,21.41 	"/>
	<polygon fill="#8C8C8C" points="2.925,19.46 2.925,20.43 3.895,20.43 3.895,19.46 3.895,18.48 2.925,18.48 	"/>
	<polygon fill="#8C8C8C" points="0.975,17.51 0.975,18.48 1.955,18.48 1.955,17.51 1.955,16.541 0.975,16.541 	"/>
	<polygon fill="#8C8C8C" points="0.975,12.64 0.975,11.68 0.005,11.68 0.005,12.64 0.005,13.62 0.975,13.62 	"/>
</g>
<g>
	<polygon fill="#B3B3B3" points="9.735,14.6 8.755,14.6 8.755,13.62 7.785,13.62 6.815,13.62 5.835,13.62 4.875,13.62 3.895,13.62 
		2.925,13.62 2.925,14.6 1.955,14.6 1.955,13.62 0.975,13.62 0.975,14.6 0.975,15.56 0.975,16.541 1.955,16.541 1.955,17.51 
		2.925,17.51 2.925,18.48 3.895,18.48 3.895,17.51 3.895,16.541 4.875,16.541 4.875,15.56 5.835,15.56 6.815,15.56 6.815,16.541 
		7.785,16.541 7.785,17.51 7.785,18.48 8.755,18.48 8.755,17.51 9.735,17.51 9.735,16.541 10.705,16.541 10.705,15.56 10.705,14.6 
		10.705,13.62 9.735,13.62 	"/>
	<polygon fill="#B3B3B3" points="9.735,7.78 9.735,6.81 9.735,5.83 8.755,5.83 7.785,5.83 7.785,6.81 6.815,6.81 6.815,7.78 
		6.815,8.75 6.815,9.73 6.815,10.7 6.815,11.68 6.815,12.64 7.785,12.64 8.755,12.64 8.755,11.68 8.755,10.7 9.735,10.7 
		9.735,11.68 10.705,11.68 10.705,10.7 10.705,9.73 10.705,8.75 10.705,7.78 	"/>
	<rect x="7.785" y="20.43" fill="#B3B3B3" width="0.971" height="0.979"/>
	<rect x="2.925" y="20.43" fill="#B3B3B3" width="0.97" height="0.979"/>
	<polygon fill="#B3B3B3" points="2.925,10.7 2.925,11.68 2.925,12.64 3.895,12.64 4.875,12.64 5.835,12.64 5.835,11.68 5.835,10.7 
		5.835,9.73 5.835,8.75 5.835,7.78 4.875,7.78 4.875,6.81 3.895,6.81 3.895,5.83 2.925,5.83 1.955,5.83 1.955,6.81 0.975,6.81 
		0.975,7.78 0.975,8.75 0.975,9.73 0.975,10.7 1.955,10.7 	"/>
	<rect x="0.005" y="10.7" fill="#B3B3B3" width="0.97" height="0.98"/>
</g>
<g>
	<polygon fill="#4D4D4D" points="12.65,17.51 11.679,17.51 11.679,16.541 10.71,16.541 10.71,17.51 10.71,18.491 10.71,19.452 
		11.679,19.452 11.679,18.491 12.65,18.491 13.63,18.491 13.63,17.51 	"/>
	<rect x="8.759" y="17.51" fill="#4D4D4D" width="0.971" height="0.98"/>
	<polygon fill="#4D4D4D" points="2.92,17.51 2.92,16.541 1.96,16.541 1.96,17.51 1.96,18.491 1.96,19.452 2.92,19.452 2.92,18.491 
		3.9,18.491 4.87,18.491 4.87,17.51 3.9,17.51 	"/>
	<rect y="17.51" fill="#4D4D4D" width="0.98" height="0.98"/>
</g>
</svg>
