<?xml version="1.0" encoding="utf-8"?>
<!-- Generator: Adobe Illustrator 16.0.0, SVG Export Plug-In . SVG Version: 6.00 Build 0)  -->
<!DOCTYPE svg PUBLIC "-//W3C//DTD SVG 1.1//EN" "http://www.w3.org/Graphics/SVG/1.1/DTD/svg11.dtd">
<svg version="1.1" id="Layer_2" xmlns="http://www.w3.org/2000/svg" xmlns:xlink="http://www.w3.org/1999/xlink" x="0px" y="0px"
	 width="15.778px" height="31.03px" viewBox="0 0 15.778 31.03" enable-background="new 0 0 15.778 31.03" xml:space="preserve">
<g>
	<polygon fill="#6D5217" points="6.805,0 5.825,0 4.855,0 3.896,0 3.896,0.97 2.925,0.97 2.925,1.94 3.896,1.94 3.896,2.91 
		4.855,2.91 4.855,1.94 5.825,1.94 6.805,1.94 6.805,0.97 7.775,0.97 7.775,0 	"/>
	<polygon fill="#6D5217" points="2.925,3.88 2.925,4.85 2.925,5.82 3.896,5.82 3.896,4.85 3.896,3.88 3.896,2.91 2.925,2.91 	"/>
</g>
<rect x="1.955" y="30.06" fill="#C7B570" width="0.97" height="0.97"/>
<rect x="5.825" y="30.06" fill="#C7B570" width="0.979" height="0.97"/>
<rect x="2.925" y="1.94" fill="#C7B570" width="0.971" height="0.97"/>
<polygon fill="#C7B570" points="0.985,20.37 0.985,21.33 0.985,22.299 0.985,23.27 1.955,23.27 1.955,22.299 1.955,21.33 
	1.955,20.37 1.955,19.4 1.955,18.419 0.985,18.419 0.985,19.4 "/>
<polygon fill="#C7B570" points="0.985,16.48 0.985,15.51 0.985,14.549 0.985,13.58 0.015,13.58 0.015,14.549 0.015,15.51 
	0.015,16.48 0.015,17.45 0.015,18.419 0.985,18.419 0.985,17.45 "/>
<polygon fill="#C7B570" points="5.825,5.82 6.805,5.82 6.805,4.85 6.805,3.88 6.805,2.91 6.805,1.94 5.825,1.94 4.855,1.94 
	4.855,2.91 3.896,2.91 3.896,3.88 3.896,4.85 3.896,5.82 3.896,6.79 4.855,6.79 5.825,6.79 "/>
<g>
	<polygon fill="#9C8F57" points="0.015,12.61 0.015,13.58 0.985,13.58 0.985,12.61 0.985,11.64 0.015,11.64 	"/>
	<rect x="7.775" y="11.64" fill="#9C8F57" width="0.97" height="0.97"/>
	<polygon fill="#9C8F57" points="7.775,9.69 7.775,8.73 6.805,8.73 6.805,7.76 6.805,6.79 5.825,6.79 4.855,6.79 3.896,6.79 
		2.925,6.79 1.955,6.79 1.955,7.76 0.985,7.76 0.985,8.73 0.985,9.69 0.985,10.66 0.985,11.64 1.955,11.64 1.955,12.61 1.955,13.58 
		1.955,14.549 1.955,15.51 1.955,16.48 2.925,16.48 3.896,16.48 4.855,16.48 5.825,16.48 6.805,16.48 6.805,15.51 6.805,14.549 
		6.805,13.58 6.805,12.61 6.805,11.64 7.775,11.64 7.775,10.66 	"/>
</g>
<polygon fill="#737144" points="5.825,16.48 4.855,16.48 3.896,16.48 2.925,16.48 1.955,16.48 1.955,17.45 1.955,18.419 1.955,19.4 
	1.955,20.37 1.955,21.33 1.955,22.299 1.955,23.27 1.955,24.24 1.955,25.209 1.955,26.18 1.955,27.15 1.955,28.12 1.955,29.089 
	1.955,30.06 2.925,30.06 2.925,29.089 2.925,28.12 2.925,27.15 2.925,26.18 2.925,25.209 2.925,24.24 2.925,23.27 2.925,22.299 
	2.925,21.33 3.896,21.33 4.855,21.33 5.825,21.33 5.825,22.299 5.825,23.27 5.825,24.24 5.825,25.209 5.825,26.18 5.825,27.15 
	5.825,28.12 5.825,29.089 5.825,30.06 6.805,30.06 6.805,29.089 6.805,28.12 6.805,27.15 6.805,26.18 6.805,25.209 6.805,24.24 
	6.805,23.27 6.805,22.299 6.805,21.33 6.805,20.37 6.805,19.4 6.805,18.419 6.805,17.45 6.805,16.48 "/>
<polygon fill="#C7B570" points="12.649,10.6 11.67,10.6 11.67,11.57 12.649,11.57 13.63,11.57 13.63,10.6 "/>
<g>
	<rect x="0.98" y="28.11" fill="#8C8C8C" width="0.97" height="0.979"/>
	<rect x="8.76" y="13.51" fill="#8C8C8C" width="0.97" height="0.98"/>
	<rect y="14.49" fill="#8C8C8C" width="0.98" height="0.97"/>
	<rect x="0.98" y="18.379" fill="#8C8C8C" width="0.97" height="0.98"/>
	<rect x="6.81" y="10.6" fill="#8C8C8C" width="0.971" height="0.97"/>
	<rect x="5.84" y="29.089" fill="#8C8C8C" width="0.97" height="0.96"/>
	<polygon fill="#8C8C8C" points="5.84,12.55 5.84,11.57 5.84,10.6 5.84,9.63 5.84,8.65 5.84,7.68 5.84,6.7 4.86,6.7 4.86,7.68 
		3.9,7.68 3.9,8.65 4.86,8.65 4.86,9.63 4.86,10.6 4.86,11.57 4.86,12.55 4.86,13.51 4.86,14.49 4.86,15.459 4.86,16.43 4.86,17.41 
		4.86,18.379 4.86,19.36 4.86,20.32 4.86,21.299 4.86,22.28 4.86,23.24 4.86,24.22 4.86,25.19 4.86,26.16 4.86,27.14 4.86,28.11 
		3.9,28.11 3.9,29.089 3.9,30.049 3.9,31.03 4.86,31.03 4.86,30.049 4.86,29.089 5.84,29.089 5.84,28.11 5.84,27.14 5.84,26.16 
		5.84,25.19 5.84,24.22 6.81,24.22 6.81,23.24 5.84,23.24 5.84,22.28 5.84,21.299 5.84,20.32 5.84,19.36 5.84,18.379 5.84,17.41 
		5.84,16.43 5.84,15.459 5.84,14.49 6.81,14.49 6.81,13.51 5.84,13.51 	"/>
	<rect x="2.92" y="26.16" fill="#8C8C8C" width="0.98" height="0.98"/>
	<rect x="2.92" y="13.51" fill="#8C8C8C" width="0.98" height="0.98"/>
	<rect x="1.95" y="21.299" fill="#8C8C8C" width="0.97" height="0.98"/>
	<rect x="1.95" y="8.65" fill="#8C8C8C" width="0.97" height="0.98"/>
</g>
<g>
	<rect x="11.67" y="11.57" fill="#B3B3B3" width="0.979" height="0.98"/>
	<polygon fill="#B3B3B3" points="10.71,13.51 10.71,14.49 11.67,14.49 11.67,13.51 11.67,12.55 10.71,12.55 	"/>
	<rect x="9.729" y="14.49" fill="#B3B3B3" width="0.98" height="0.97"/>
	<polygon fill="#B3B3B3" points="7.78,12.55 7.78,13.51 8.76,13.51 8.76,12.55 8.76,11.57 7.78,11.57 	"/>
	<polygon fill="#B3B3B3" points="0,12.55 0,13.51 0,14.49 0.98,14.49 0.98,13.51 0.98,12.55 0.98,11.57 0,11.57 	"/>
	<polygon fill="#B3B3B3" points="0.98,17.41 0.98,16.43 0.98,15.459 0,15.459 0,16.43 0,17.41 0,18.379 0.98,18.379 	"/>
	<polygon fill="#B3B3B3" points="7.78,9.63 7.78,8.65 6.81,8.65 6.81,7.68 6.81,6.7 5.84,6.7 5.84,7.68 5.84,8.65 5.84,9.63 
		5.84,10.6 5.84,11.57 5.84,12.55 5.84,13.51 6.81,13.51 6.81,12.55 6.81,11.57 6.81,10.6 7.78,10.6 	"/>
	<polygon fill="#B3B3B3" points="5.84,25.19 5.84,26.16 5.84,27.14 5.84,28.11 5.84,29.089 6.81,29.089 6.81,28.11 6.81,27.14 
		6.81,26.16 6.81,25.19 6.81,24.22 5.84,24.22 	"/>
	<polygon fill="#B3B3B3" points="5.84,15.459 5.84,16.43 5.84,17.41 5.84,18.379 5.84,19.36 5.84,20.32 5.84,21.299 5.84,22.28 
		5.84,23.24 6.81,23.24 6.81,22.28 6.81,21.299 6.81,20.32 6.81,19.36 6.81,18.379 6.81,17.41 6.81,16.43 6.81,15.459 6.81,14.49 
		5.84,14.49 	"/>
	<polygon fill="#B3B3B3" points="4.86,30.049 4.86,31.03 5.84,31.03 5.84,30.049 5.84,29.089 4.86,29.089 	"/>
	<path fill="#B3B3B3" d="M4.86,27.14v-0.98v-0.97v-0.97v-0.98v-0.96v-0.98V20.32v-0.96v-0.98v-0.97V16.43v-0.971v-0.97v-0.98v-0.96
		v-0.98V10.6V9.63V8.65H3.9V7.68h0.96V6.7H3.9H2.92H1.95v0.98H0.98v0.97v0.98v0.97v0.97h0.97v0.98v0.96v0.98v0.97v0.971v0.979v0.97
		v0.98H0.98v0.96v0.979v0.98h0.97v-0.98h0.97v0.98H1.95v0.96v0.98v0.97v0.97v0.98v0.97v0.979H0.98v0.96H0v0.98h0.98h0.97v-0.98h0.97
		v0.98H3.9v-0.98v-0.96V28.11h0.96V27.14z M1.95,8.65h0.97v0.98H1.95V8.65z M2.92,13.51H3.9v0.98H2.92V13.51z M2.92,27.14v-0.98H3.9
		v0.98H2.92z"/>
</g>
<g>
	<polygon fill="#ED1C24" points="14.808,6.72 13.839,6.72 13.839,5.74 13.839,4.76 12.858,4.76 12.858,3.8 12.858,2.82 11.897,2.82 
		11.897,3.8 11.897,4.76 11.897,5.74 12.858,5.74 12.858,6.72 11.897,6.72 11.897,5.74 10.917,5.74 10.917,6.72 10.917,7.681 
		9.938,7.681 9.938,8.661 10.917,8.661 11.897,8.661 11.897,9.63 12.858,9.63 13.839,9.63 14.808,9.63 14.808,8.661 13.839,8.661 
		13.839,7.681 14.808,7.681 14.808,8.661 15.778,8.661 15.778,7.681 15.778,6.72 	"/>
	<g>
		<rect x="11.897" y="1.85" fill="#F7931E" width="0.961" height="0.97"/>
		<rect x="13.839" y="7.681" fill="#F7931E" width="0.969" height="0.98"/>
		<rect x="13.839" y="5.74" fill="#F7931E" width="0.969" height="0.979"/>
		<rect x="12.858" y="3.8" fill="#F7931E" width="0.98" height="0.96"/>
		<rect x="11.897" y="5.74" fill="#F7931E" width="0.961" height="0.979"/>
		<rect x="10.917" y="8.661" fill="#F7931E" width="0.98" height="0.969"/>
		<rect x="9.938" y="6.72" fill="#F7931E" width="0.979" height="0.961"/>
	</g>
</g>
</svg>
