<?xml version="1.0" encoding="utf-8"?>
<!-- Generator: Adobe Illustrator 16.0.0, SVG Export Plug-In . SVG Version: 6.00 Build 0)  -->
<!DOCTYPE svg PUBLIC "-//W3C//DTD SVG 1.1//EN" "http://www.w3.org/Graphics/SVG/1.1/DTD/svg11.dtd">
<svg version="1.1" id="Layer_2" xmlns="http://www.w3.org/2000/svg" xmlns:xlink="http://www.w3.org/1999/xlink" x="0px" y="0px"
	 width="17.52px" height="31.04px" viewBox="0 0 17.52 31.04" enable-background="new 0 0 17.52 31.04" xml:space="preserve">
<rect x="7.765" y="30.07" fill="#C7B570" width="0.979" height="0.97"/>
<polygon fill="#C7B570" points="6.795,0.979 6.795,1.95 5.835,1.95 5.835,2.919 5.84,2.919 5.84,3.89 5.835,3.89 5.835,2.919 
	4.865,2.919 4.865,3.89 4.865,4.859 4.87,4.859 4.87,5.83 5.84,5.83 5.84,4.859 6.795,4.859 7.765,4.859 7.765,3.89 7.765,2.919 
	7.765,1.95 7.765,0.979 "/>
<rect x="2.925" y="30.07" fill="#C7B570" width="0.97" height="0.97"/>
<polygon fill="#737144" points="7.765,14.559 6.795,14.559 5.835,14.559 4.865,14.559 3.895,14.559 2.925,14.559 1.955,14.559 
	1.955,15.52 1.955,16.49 2.925,16.49 2.925,17.459 2.925,18.429 2.925,19.41 2.925,20.379 2.925,21.339 2.925,22.309 2.925,23.28 
	2.925,24.25 2.925,25.219 2.925,26.19 2.925,27.16 2.925,28.129 2.925,29.099 2.925,30.07 3.895,30.07 3.895,29.099 3.895,28.129 
	3.895,27.16 3.895,26.19 3.895,25.219 3.895,24.25 3.895,23.28 3.895,22.309 3.895,21.339 3.895,20.379 3.895,19.41 4.865,19.41 
	4.865,18.429 5.835,18.429 6.795,18.429 6.795,19.41 7.765,19.41 7.765,20.379 7.765,21.339 7.765,22.309 7.765,23.28 7.765,24.25 
	7.765,25.219 7.765,26.19 7.765,27.16 7.765,28.129 7.765,29.099 7.765,30.07 8.745,30.07 8.745,29.099 8.745,28.129 8.745,27.16 
	8.745,26.19 8.745,25.219 8.745,24.25 8.745,23.28 8.745,22.309 8.745,21.339 8.745,20.379 8.745,19.41 8.745,18.429 8.745,17.459 
	8.745,16.49 8.745,15.52 8.745,14.559 "/>
<g>
	<polygon fill="#6D5217" points="7.765,0.01 6.795,0.01 5.835,0.01 4.865,0.01 4.865,0.979 4.865,1.95 3.895,1.95 3.895,2.919 
		3.895,3.89 2.925,3.89 2.925,4.859 2.925,5.83 3.895,5.83 3.895,6.799 3.895,7.77 4.865,7.77 4.865,6.799 4.865,5.83 4.865,4.859 
		4.865,3.89 4.865,2.919 5.835,2.919 5.835,1.95 6.795,1.95 6.795,0.979 7.765,0.979 7.765,1.95 8.745,1.95 8.745,0.979 8.745,0.01 
			"/>
	<polygon fill="#6D5217" points="5.835,4.859 5.835,5.83 5.835,6.799 5.835,7.77 6.795,7.77 6.795,6.799 7.765,6.799 7.765,5.83 
		7.765,4.859 6.795,4.859 	"/>
	<rect x="1.955" y="5.83" fill="#6D5217" width="0.971" height="0.97"/>
</g>
<g>
	<polygon fill="#C7B570" points="1.955,16.49 1.955,17.459 1.955,18.429 1.955,19.41 1.955,20.379 2.925,20.379 2.925,19.41 
		2.925,18.429 2.925,17.459 2.925,16.49 	"/>
	<polygon fill="#C7B570" points="1.955,14.559 1.955,13.589 1.955,12.62 1.955,11.649 1.955,10.669 0.985,10.669 0.985,11.649 
		0.985,12.62 0.985,13.589 0.985,14.559 0.985,15.52 0.985,16.49 1.955,16.49 1.955,15.52 	"/>
</g>
<polygon fill="#9C8F57" points="8.745,7.77 8.745,6.799 8.745,5.83 7.765,5.83 7.765,6.799 6.795,6.799 6.795,7.77 5.835,7.77 
	5.835,6.799 5.835,5.83 4.865,5.83 4.865,6.799 4.865,7.77 3.895,7.77 3.895,6.799 3.895,5.83 2.925,5.83 2.925,6.799 1.955,6.799 
	1.955,7.77 1.955,8.74 0.985,8.74 0.985,9.7 0.985,10.669 1.955,10.669 2.925,10.669 2.925,11.649 3.895,11.649 3.895,12.62 
	2.925,12.62 2.925,13.589 1.955,13.589 1.955,14.559 2.925,14.559 3.895,14.559 4.865,14.559 5.835,14.559 6.795,14.559 
	7.765,14.559 8.745,14.559 8.745,13.589 8.745,12.62 7.765,12.62 7.765,11.649 8.745,11.649 8.745,10.669 9.715,10.669 9.715,9.7 
	9.715,8.74 9.715,7.77 "/>
<rect x="14.6" y="8.66" fill="#C7B570" width="0.96" height="0.98"/>
<rect x="13.62" y="8.66" fill="#C7B570" width="0.98" height="0.98"/>
<g>
	<rect x="10.7" y="11.58" fill="#8C8C8C" width="0.98" height="0.98"/>
	<rect x="7.78" y="25.2" fill="#8C8C8C" width="0.971" height="0.97"/>
	<rect x="7.78" y="18.389" fill="#8C8C8C" width="0.971" height="0.98"/>
	<rect x="7.78" y="6.709" fill="#8C8C8C" width="0.971" height="0.98"/>
	<polygon fill="#8C8C8C" points="7.78,14.5 6.81,14.5 6.81,13.52 6.81,12.56 6.81,11.58 6.81,10.609 6.81,9.64 6.81,8.66 
		6.81,7.689 5.83,7.689 5.83,8.66 4.87,8.66 4.87,9.64 5.83,9.64 5.83,10.609 5.83,11.58 5.83,12.56 5.83,13.52 5.83,14.5 
		5.83,15.469 5.83,16.44 5.83,17.419 5.83,18.389 5.83,19.37 5.83,20.33 5.83,21.309 5.83,22.29 5.83,23.25 5.83,24.23 5.83,25.2 
		5.83,26.169 5.83,27.15 5.83,28.12 5.83,29.099 6.81,29.099 6.81,28.12 6.81,27.15 6.81,26.169 6.81,25.2 6.81,24.23 6.81,23.25 
		6.81,22.29 6.81,21.309 6.81,20.33 6.81,19.37 6.81,18.389 6.81,17.419 6.81,16.44 6.81,15.469 7.78,15.469 	"/>
	<polygon fill="#8C8C8C" points="4.87,30.059 4.87,31.04 5.83,31.04 5.83,30.059 5.83,29.099 4.87,29.099 	"/>
	<rect x="3.89" y="21.309" fill="#8C8C8C" width="0.98" height="0.98"/>
	<rect x="3.89" y="17.419" fill="#8C8C8C" width="0.98" height="0.97"/>
	<rect x="2.92" y="25.2" fill="#8C8C8C" width="0.97" height="0.97"/>
	<rect x="2.92" y="14.5" fill="#8C8C8C" width="0.97" height="0.97"/>
	<rect x="1.95" y="29.099" fill="#8C8C8C" width="0.97" height="0.96"/>
	<rect x="1.95" y="7.689" fill="#8C8C8C" width="0.97" height="0.97"/>
	<rect x="0.97" y="11.58" fill="#8C8C8C" width="0.98" height="0.98"/>
</g>
<g>
	<polygon fill="#B3B3B3" points="13.62,9.64 13.62,10.609 12.64,10.609 12.64,11.58 12.64,12.56 11.68,12.56 10.7,12.56 10.7,13.52 
		11.68,13.52 12.64,13.52 13.62,13.52 13.62,12.56 13.62,11.58 14.6,11.58 14.6,10.609 14.6,9.64 	"/>
	<polygon fill="#B3B3B3" points="10.7,10.609 9.73,10.609 9.73,11.58 9.73,12.56 10.7,12.56 10.7,11.58 	"/>
	<polygon fill="#B3B3B3" points="9.73,8.66 9.73,7.689 8.75,7.689 7.78,7.689 7.78,6.709 6.81,6.709 6.81,7.689 6.81,8.66 
		6.81,9.64 6.81,10.609 6.81,11.58 6.81,12.56 6.81,13.52 6.81,14.5 7.78,14.5 7.78,15.469 6.81,15.469 6.81,16.44 6.81,17.419 
		6.81,18.389 6.81,19.37 6.81,20.33 6.81,21.309 6.81,22.29 6.81,23.25 6.81,24.23 6.81,25.2 6.81,26.169 6.81,27.15 6.81,28.12 
		6.81,29.099 5.83,29.099 5.83,30.059 5.83,31.04 6.81,31.04 7.78,31.04 7.78,30.059 8.75,30.059 8.75,29.099 8.75,28.12 
		8.75,27.15 8.75,26.169 7.78,26.169 7.78,25.2 8.75,25.2 8.75,24.23 8.75,23.25 8.75,22.29 8.75,21.309 8.75,20.33 8.75,19.37 
		7.78,19.37 7.78,18.389 8.75,18.389 8.75,17.419 8.75,16.44 8.75,15.469 8.75,14.5 8.75,13.52 8.75,12.56 7.78,12.56 7.78,11.58 
		8.75,11.58 8.75,10.609 9.73,10.609 9.73,9.64 	"/>
	<rect x="7.78" y="5.75" fill="#B3B3B3" width="0.971" height="0.96"/>
	<path fill="#B3B3B3" d="M5.83,27.15v-0.98V25.2v-0.97v-0.98v-0.96v-0.98V20.33v-0.96v-0.98v-0.97V16.44v-0.971V14.5v-0.98v-0.96
		v-0.98v-0.97V9.64H4.87V8.66h0.96v-0.97v-0.98V5.75H4.87v0.96v0.98H3.89v-0.98V5.75H2.92v0.96H1.95v0.98h0.97v0.97H1.95H0.97v0.98
		v0.97v0.97h0.98v-0.97h0.97v0.97h0.97v0.98H2.92v0.96H1.95v-0.96H0.97v0.96v0.98v0.97v0.971h0.98v0.979v0.97v0.98h0.97v0.96v0.979
		v0.98v0.96v0.98v0.97h0.97v0.97H2.92v0.98H1.95v0.97v0.979h0.97v0.96h0.97v0.98h0.98v-0.98v-0.96h0.96V28.12V27.15z M4.87,18.389
		H3.89v-0.97h0.98V18.389z M3.89,14.5v0.97H2.92V14.5H3.89z M3.89,21.309h0.98v0.98H3.89V21.309z"/>
	<polygon fill="#B3B3B3" points="1.95,29.099 0.97,29.099 0.97,30.059 0,30.059 0,31.04 0.97,31.04 1.95,31.04 2.92,31.04 
		2.92,30.059 1.95,30.059 	"/>
</g>
<g>
	<polygon fill="#ED1C24" points="16.549,4.869 15.581,4.869 15.581,3.89 15.581,2.91 14.6,2.91 14.6,1.95 14.6,0.97 13.639,0.97 
		13.639,1.95 13.639,2.91 13.639,3.89 14.6,3.89 14.6,4.869 13.639,4.869 13.639,3.89 12.659,3.89 12.659,4.869 12.659,5.83 
		11.68,5.83 11.68,6.811 12.659,6.811 13.639,6.811 13.639,7.779 14.6,7.779 15.581,7.779 16.549,7.779 16.549,6.811 15.581,6.811 
		15.581,5.83 16.549,5.83 16.549,6.811 17.52,6.811 17.52,5.83 17.52,4.869 	"/>
	<g>
		<rect x="13.639" fill="#F7931E" width="0.961" height="0.97"/>
		<rect x="15.581" y="5.83" fill="#F7931E" width="0.969" height="0.98"/>
		<rect x="15.581" y="3.89" fill="#F7931E" width="0.969" height="0.979"/>
		<rect x="14.6" y="1.95" fill="#F7931E" width="0.98" height="0.96"/>
		<rect x="13.639" y="3.89" fill="#F7931E" width="0.961" height="0.979"/>
		<rect x="12.659" y="6.811" fill="#F7931E" width="0.98" height="0.969"/>
		<rect x="11.68" y="4.869" fill="#F7931E" width="0.979" height="0.961"/>
	</g>
</g>
</svg>
