<?xml version="1.0" encoding="utf-8"?>
<!-- Generator: Adobe Illustrator 16.0.0, SVG Export Plug-In . SVG Version: 6.00 Build 0)  -->
<!DOCTYPE svg PUBLIC "-//W3C//DTD SVG 1.1//EN" "http://www.w3.org/Graphics/SVG/1.1/DTD/svg11.dtd">
<svg version="1.1" id="Layer_2" xmlns="http://www.w3.org/2000/svg" xmlns:xlink="http://www.w3.org/1999/xlink" x="0px" y="0px"
	 width="15.57px" height="32px" viewBox="0 0 15.57 32" enable-background="new 0 0 15.57 32" xml:space="preserve">
<polygon fill="#999999" points="7.77,9.7 7.77,10.66 7.77,11.63 8.74,11.63 8.74,10.66 8.74,9.7 "/>
<rect x="6.799" y="31.03" fill="#999999" width="0.971" height="0.97"/>
<polygon fill="#999999" points="6.799,18.42 6.799,19.39 6.799,20.37 7.77,20.37 7.77,19.39 7.77,18.42 "/>
<polygon fill="#999999" points="4.85,6.79 3.89,6.79 3.89,7.76 4.85,7.76 5.82,7.76 5.82,6.79 "/>
<polygon fill="#999999" points="4.85,0 3.89,0 3.89,0.97 3.89,1.94 4.85,1.94 4.85,0.97 5.82,0.97 5.82,0 "/>
<polygon fill="#999999" points="5.82,16.48 4.85,16.48 3.89,16.48 2.92,16.48 2.92,17.45 3.89,17.45 4.85,17.45 5.82,17.45 
	6.799,17.45 6.799,16.48 "/>
<rect x="1.95" y="31.03" fill="#999999" width="0.97" height="0.97"/>
<polygon fill="#999999" points="1.95,18.42 1.95,19.39 1.95,20.37 2.92,20.37 2.92,19.39 2.92,18.42 "/>
<rect x="0.98" y="21.34" fill="#999999" width="0.97" height="0.96"/>
<polygon fill="#999999" points="0.98,8.73 0.98,9.7 0.98,10.66 0.98,11.63 1.95,11.63 1.95,10.66 1.95,9.7 1.95,8.73 "/>
<polygon fill="#CCCCCC" points="5.82,6.79 6.799,6.79 6.799,5.82 6.799,4.85 6.799,3.88 6.799,2.91 6.799,1.94 6.799,0.97 6.799,0 
	5.82,0 5.82,0.97 4.85,0.97 4.85,1.94 3.89,1.94 3.89,2.91 3.89,3.88 3.89,4.85 3.89,5.82 3.89,6.79 4.85,6.79 "/>
<polyline fill="#CCCCCC" points="7.77,15.52 7.77,14.55 7.77,13.58 7.77,12.61 7.77,11.63 7.77,10.66 7.77,9.7 7.77,8.73 7.77,7.76 
	6.799,7.76 5.82,7.76 4.85,7.76 3.89,7.76 2.92,7.76 1.95,7.76 1.95,8.73 1.95,9.7 1.95,10.66 1.95,11.63 1.95,12.61 1.95,13.58 
	1.95,14.55 1.95,15.52 1.95,16.48 2.92,16.48 3.89,16.48 4.85,16.48 5.82,16.48 6.799,16.48 7.77,16.48 "/>
<line fill="#CCCCCC" x1="7.77" y1="22.3" x2="7.77" y2="21.34"/>
<polyline fill="#CCCCCC" points="7.77,20.37 6.799,20.37 6.799,21.34 6.799,22.3 6.799,23.27 6.799,24.24 6.799,25.21 6.799,26.18 
	6.799,27.15 6.799,28.12 6.799,29.09 6.799,30.06 6.799,31.03 7.77,31.03 7.77,30.06 7.77,29.09 7.77,28.12 7.77,27.15 7.77,26.18 
	7.77,25.21 7.77,24.24 7.77,23.27 7.77,22.3 "/>
<polyline fill="#CCCCCC" points="7.77,18.42 7.77,19.39 7.77,20.37 "/>
<polyline fill="#CCCCCC" points="7.77,17.45 6.799,17.45 5.82,17.45 4.85,17.45 3.89,17.45 2.92,17.45 1.95,17.45 1.95,18.42 
	2.92,18.42 2.92,19.39 3.89,19.39 4.85,19.39 5.82,19.39 6.799,19.39 6.799,18.42 7.77,18.42 "/>
<polygon fill="#CCCCCC" points="0.98,19.39 0.98,20.37 0.98,21.34 1.95,21.34 1.95,22.3 1.95,23.27 1.95,24.24 1.95,25.21 
	1.95,26.18 1.95,27.15 1.95,28.12 1.95,29.09 1.95,30.06 1.95,31.03 2.92,31.03 2.92,30.06 2.92,29.09 2.92,28.12 2.92,27.15 
	2.92,26.18 2.92,25.21 2.92,24.24 2.92,23.27 2.92,22.3 2.92,21.34 2.92,20.37 1.95,20.37 1.95,19.39 1.95,18.42 0.98,18.42 "/>
<polygon fill="#CCCCCC" points="0.98,16.48 0.98,15.52 0.98,14.55 0.98,13.58 0.98,12.61 0.98,11.63 0.01,11.63 0.01,12.61 
	0.01,13.58 0.01,14.55 0.01,15.52 0.01,16.48 0.01,17.45 0.01,18.42 0.98,18.42 0.98,17.45 "/>
<g>
	<rect y="13.52" fill="#8C8C8C" width="0.98" height="0.96"/>
	<rect x="0.98" y="19.35" fill="#8C8C8C" width="0.96" height="0.98"/>
	<rect x="1.94" y="22.27" fill="#8C8C8C" width="0.98" height="0.98"/>
	<rect x="1.94" y="29.08" fill="#8C8C8C" width="0.98" height="0.979"/>
	<rect x="6.81" y="28.11" fill="#8C8C8C" width="0.97" height="0.97"/>
	<rect x="6.81" y="23.25" fill="#8C8C8C" width="0.97" height="0.96"/>
	<rect x="8.75" y="13.52" fill="#8C8C8C" width="0.98" height="0.96"/>
	<polygon fill="#8C8C8C" points="6.81,14.48 5.84,14.48 5.84,13.52 5.84,12.54 5.84,11.57 5.84,10.6 5.84,9.62 5.84,8.65 5.84,7.67 
		4.86,7.67 4.86,8.65 3.89,8.65 3.89,9.62 4.86,9.62 4.86,10.6 4.86,11.57 4.86,12.54 4.86,13.52 4.86,14.48 4.86,15.46 4.86,16.44 
		5.84,16.44 5.84,15.46 6.81,15.46 	"/>
	<rect x="6.81" y="9.62" fill="#8C8C8C" width="0.97" height="0.98"/>
	<rect x="2.92" y="13.52" fill="#8C8C8C" width="0.97" height="0.96"/>
	<rect x="1.94" y="9.62" fill="#8C8C8C" width="0.98" height="0.98"/>
	<rect x="11.669" y="13.52" fill="#8C8C8C" width="0.98" height="0.96"/>
</g>
<g>
	<polygon fill="#CCCCCC" points="8.74,12.61 8.74,13.58 8.74,14.55 8.74,15.52 9.709,15.52 9.709,14.55 9.709,13.58 9.709,12.61 
		9.709,11.63 8.74,11.63 	"/>
	<polygon fill="#CCCCCC" points="12.65,11.57 11.669,11.57 11.669,12.54 11.669,13.52 12.65,13.52 12.65,12.54 13.62,12.54 
		13.62,11.57 	"/>
	<rect x="10.7" y="14.48" fill="#CCCCCC" width="0.97" height="0.98"/>
	<rect x="9.73" y="15.46" fill="#CCCCCC" width="0.97" height="0.98"/>
</g>
<g>
	<polygon fill="#29ABE2" points="14.601,7.689 13.63,7.689 13.63,6.708 13.63,5.729 12.65,5.729 12.65,4.769 12.65,3.789 
		11.691,3.789 11.691,4.769 11.691,5.729 11.691,6.708 12.65,6.708 12.65,7.689 11.691,7.689 11.691,6.708 10.71,6.708 10.71,7.689 
		10.71,8.649 9.73,8.649 9.73,9.629 10.71,9.629 11.691,9.629 11.691,10.6 12.65,10.6 13.63,10.6 14.601,10.6 14.601,9.629 
		13.63,9.629 13.63,8.649 14.601,8.649 14.601,9.629 15.57,9.629 15.57,8.649 15.57,7.689 	"/>
	<g>
		<rect x="11.691" y="2.819" fill="#0071BC" width="0.959" height="0.97"/>
		<rect x="13.63" y="8.649" fill="#0071BC" width="0.971" height="0.98"/>
		<rect x="13.63" y="6.708" fill="#0071BC" width="0.971" height="0.98"/>
		<rect x="12.65" y="4.769" fill="#0071BC" width="0.98" height="0.96"/>
		<rect x="11.691" y="6.708" fill="#0071BC" width="0.959" height="0.98"/>
		<rect x="10.71" y="9.629" fill="#0071BC" width="0.98" height="0.971"/>
		<rect x="9.73" y="7.689" fill="#0071BC" width="0.98" height="0.96"/>
	</g>
</g>
</svg>
