<?xml version="1.0" encoding="utf-8"?>
<!-- Generator: Adobe Illustrator 16.0.0, SVG Export Plug-In . SVG Version: 6.00 Build 0)  -->
<!DOCTYPE svg PUBLIC "-//W3C//DTD SVG 1.1//EN" "http://www.w3.org/Graphics/SVG/1.1/DTD/svg11.dtd">
<svg version="1.1" id="Layer_1" xmlns="http://www.w3.org/2000/svg" xmlns:xlink="http://www.w3.org/1999/xlink" x="0px" y="0px"
	 width="10.69px" height="33.08px" viewBox="0 0 10.69 33.08" enable-background="new 0 0 10.69 33.08" xml:space="preserve">
<g>
	<polygon fill="#6D5217" points="6.81,1.081 5.84,1.081 4.87,1.081 3.899,1.081 3.899,2.051 3.899,3.021 3.899,3.991 3.899,4.96 
		4.87,4.96 4.87,3.991 4.87,3.021 5.84,3.021 5.84,2.051 6.81,2.051 7.771,2.051 7.771,1.081 	"/>
	<polygon fill="#C7B570" points="6.81,2.051 5.84,2.051 5.84,3.021 4.87,3.021 4.87,3.991 4.87,4.96 3.899,4.96 3.899,5.931 
		3.899,6.9 4.87,6.9 5.84,6.9 6.81,6.9 6.81,5.931 7.771,5.931 7.771,4.96 7.771,3.991 7.771,3.021 7.771,2.051 	"/>
	<g>
		<polygon fill="#C7B570" points="7.771,16.601 7.771,17.561 7.771,18.531 7.771,19.5 7.771,20.471 7.771,21.451 7.771,22.42 
			7.771,23.381 8.74,23.381 8.74,22.42 8.74,21.451 8.74,20.471 8.74,19.5 8.74,18.531 8.74,17.561 8.74,16.601 8.74,15.63 
			7.771,15.63 		"/>
		<polygon fill="#C7B570" points="8.74,12.71 8.74,13.69 8.74,14.661 8.74,15.63 9.711,15.63 9.711,14.661 9.711,13.69 9.711,12.71 
					"/>
	</g>
	<g>
		<polygon fill="#C7B570" points="0.99,18.531 0.99,19.5 0.99,20.471 0.99,21.451 0.99,22.42 0.99,23.381 1.95,23.381 1.95,22.42 
			1.95,21.451 1.95,20.471 1.95,19.5 1.95,18.531 		"/>
		<polygon fill="#C7B570" points="0.99,16.601 0.99,15.63 0.99,14.661 0.99,13.69 0.99,12.71 0.02,12.71 0.02,13.69 0.02,14.661 
			0.02,15.63 0.02,16.601 0.02,17.561 0.02,18.531 0.99,18.531 0.99,17.561 		"/>
	</g>
	<rect x="6.81" y="32.111" fill="#C7B570" width="0.961" height="0.969"/>
	<polygon fill="#737144" points="6.81,16.601 5.84,16.601 4.87,16.601 3.899,16.601 2.92,16.601 1.95,16.601 1.95,17.561 
		1.95,18.531 1.95,19.5 1.95,20.471 1.95,21.451 1.95,22.42 1.95,23.381 1.95,24.35 1.95,25.32 1.95,26.291 1.95,27.26 1.95,28.23 
		1.95,29.201 1.95,30.17 1.95,31.141 1.95,32.111 2.92,32.111 2.92,31.141 2.92,30.17 2.92,29.201 2.92,28.23 2.92,27.26 
		2.92,26.291 2.92,25.32 2.92,24.35 2.92,23.381 2.92,22.42 2.92,21.451 2.92,20.471 3.899,20.471 4.87,20.471 5.84,20.471 
		6.81,20.471 6.81,21.451 6.81,22.42 6.81,23.381 6.81,24.35 6.81,25.32 6.81,26.291 6.81,27.26 6.81,28.23 6.81,29.201 6.81,30.17 
		6.81,31.141 6.81,32.111 7.771,32.111 7.771,31.141 7.771,30.17 7.771,29.201 7.771,28.23 7.771,27.26 7.771,26.291 7.771,25.32 
		7.771,24.35 7.771,23.381 7.771,22.42 7.771,21.451 7.771,20.471 7.771,19.5 7.771,18.531 7.771,17.561 7.771,16.601 	"/>
	<g>
		<rect x="8.74" y="11.741" fill="#9C8F57" width="0.971" height="0.97"/>
		<polygon fill="#9C8F57" points="8.74,9.811 8.74,8.84 7.771,8.84 7.771,7.871 7.771,6.9 6.81,6.9 5.84,6.9 4.87,6.9 3.899,6.9 
			2.92,6.9 1.95,6.9 1.95,7.871 0.99,7.871 0.99,8.84 0.99,9.811 0.99,10.781 0.99,11.741 1.95,11.741 1.95,12.71 1.95,13.69 
			1.95,14.661 1.95,15.63 1.95,16.601 2.92,16.601 3.899,16.601 4.87,16.601 5.84,16.601 6.81,16.601 7.771,16.601 7.771,15.63 
			7.771,14.661 7.771,13.69 7.771,12.71 7.771,11.741 8.74,11.741 8.74,10.781 		"/>
		<rect x="0.02" y="11.741" fill="#9C8F57" width="0.97" height="0.97"/>
	</g>
	<rect x="1.95" y="32.111" fill="#C7B570" width="0.97" height="0.969"/>
</g>
<g>
	<polygon fill="#8C8C8C" points="8.755,11.68 8.755,12.65 8.755,13.62 8.755,14.6 8.755,15.56 9.735,15.56 9.735,14.6 9.735,13.62 
		9.735,12.65 9.735,11.68 	"/>
	<path fill="#8C8C8C" d="M6.815,15.56V14.6h0.97v-0.98v-0.97v-0.97h0.97V10.7V9.73V8.75h-0.97V7.79V6.81h-0.97h-0.97v0.98v0.96v0.98
		v0.97v0.98v0.97v0.97v0.98v0.96v0.98h0.97h0.97v0.97h-0.97v0.971h-0.97V17.51h-0.98h-0.97h-0.97h-0.98v0.971h-0.96v0.979v0.97v0.98
		h0.96v0.96v0.979v0.98v0.96v0.98v0.97v0.97v0.98v0.97v0.979v0.96h0.98v-0.96V30.16v-0.97v-0.98v-0.97v-0.97v-0.98v-0.96v-0.98
		V22.37v-0.96v-0.98h0.97h0.97h0.98h0.97v0.98v0.96v0.979v0.98v0.96v0.98v0.97v0.97v0.98v0.97v0.979v0.96h0.97v-0.96V30.16v-0.97
		v-0.98v-0.97v-0.97v-0.98v-0.96v-0.98V22.37v-0.96h0.97v-0.98v-0.97V18.48V17.51v-0.97v-0.98h-0.97H6.815z M6.815,9.73h0.97v0.97
		h-0.97V9.73z"/>
	<path fill="#8C8C8C" d="M1.945,12.65v0.97v0.98v0.96v0.98h0.98h0.97h0.97v-0.98V14.6v-0.98v-0.97v-0.97V10.7V9.73V8.75V7.79V6.81
		h-0.97h-0.97h-0.98v0.98h-0.96v0.96v0.98v0.97v0.98h0.96V12.65z M3.895,15.56h-0.97V14.6h0.97V15.56z"/>
	<polygon fill="#8C8C8C" points="0.985,16.54 0.985,15.56 0.985,14.6 0.985,13.62 0.985,12.65 0.985,11.68 0.005,11.68 0.005,12.65 
		0.005,13.62 0.005,14.6 0.005,15.56 0.005,16.54 0.005,17.51 0.005,18.48 0.985,18.48 0.985,17.51 	"/>
</g>
<g>
	<rect x="1.945" y="32.1" fill="#4D4D4D" width="0.98" height="0.98"/>
	<rect x="6.815" y="32.1" fill="#4D4D4D" width="0.97" height="0.98"/>
	<polygon fill="#4D4D4D" points="6.815,16.54 5.845,16.54 4.865,16.54 3.895,16.54 2.925,16.54 1.945,16.54 1.945,17.51 
		2.925,17.51 3.895,17.51 4.865,17.51 5.845,17.51 5.845,18.48 6.815,18.48 6.815,17.51 7.785,17.51 7.785,16.54 	"/>
</g>
<g>
	<polygon fill="#B3B3B3" points="8.755,0 8.755,0.97 7.785,0.97 6.815,0.97 6.815,0 5.845,0 4.865,0 4.865,0.97 3.895,0.97 
		3.895,1.95 4.865,1.95 5.845,1.95 6.815,1.95 7.785,1.95 8.755,1.95 9.735,1.95 9.735,0.97 9.735,0 	"/>
	<polygon fill="#B3B3B3" points="2.925,0.97 1.945,0.97 1.945,1.95 1.945,2.92 2.925,2.92 3.895,2.92 3.895,1.95 2.925,1.95 	"/>
	<rect x="6.815" y="14.6" fill="#B3B3B3" width="0.97" height="0.96"/>
	<rect x="2.925" y="14.6" fill="#B3B3B3" width="0.97" height="0.96"/>
	<rect x="6.815" y="9.73" fill="#B3B3B3" width="0.97" height="0.97"/>
	<polygon fill="#B3B3B3" points="4.865,7.79 4.865,8.75 4.865,9.73 4.865,10.7 4.865,11.68 4.865,12.65 4.865,13.62 4.865,14.6 
		4.865,15.56 4.865,16.54 5.845,16.54 5.845,15.56 5.845,14.6 5.845,13.62 5.845,12.65 5.845,11.68 5.845,10.7 5.845,9.73 
		5.845,8.75 5.845,7.79 5.845,6.81 4.865,6.81 	"/>
</g>
<g>
	<rect y="22.405" fill="#4D4D4D" width="0.98" height="0.98"/>
	<polygon fill="#4D4D4D" points="2.92,21.436 1.96,21.436 1.96,22.405 1.96,23.386 1.96,24.346 1.96,25.325 1.96,26.306 
		2.92,26.306 2.92,25.325 2.92,24.346 2.92,23.386 3.9,23.386 3.9,22.405 3.9,21.436 3.9,20.456 2.92,20.456 	"/>
</g>
<g>
	<rect x="6.79" y="22.405" fill="#4D4D4D" width="0.98" height="0.98"/>
	<polygon fill="#4D4D4D" points="9.71,21.436 8.75,21.436 8.75,22.405 8.75,23.386 8.75,24.346 8.75,25.325 8.75,26.306 
		9.71,26.306 9.71,25.325 9.71,24.346 9.71,23.386 10.69,23.386 10.69,22.405 10.69,21.436 10.69,20.456 9.71,20.456 	"/>
</g>
</svg>
