<?xml version="1.0" encoding="utf-8"?>
<!-- Generator: Adobe Illustrator 16.0.0, SVG Export Plug-In . SVG Version: 6.00 Build 0)  -->
<!DOCTYPE svg PUBLIC "-//W3C//DTD SVG 1.1//EN" "http://www.w3.org/Graphics/SVG/1.1/DTD/svg11.dtd">
<svg version="1.1" id="Layer_2" xmlns="http://www.w3.org/2000/svg" xmlns:xlink="http://www.w3.org/1999/xlink" x="0px" y="0px"
	 width="15.58px" height="23.35px" viewBox="0 0 15.58 23.35" enable-background="new 0 0 15.58 23.35" xml:space="preserve">
<g>
	<g>
		<polygon fill="#0A3542" points="14.6,9.73 13.62,9.73 12.66,9.73 11.68,9.73 11.68,10.7 11.68,11.68 10.71,11.68 10.71,10.7 
			9.73,10.7 9.73,11.68 9.73,12.64 9.73,13.62 9.73,14.6 10.71,14.6 10.71,13.62 10.71,12.64 11.68,12.64 11.68,13.62 11.68,14.6 
			10.71,14.6 10.71,15.56 11.68,15.56 11.68,16.541 11.68,17.51 12.66,17.51 13.62,17.51 14.6,17.51 15.58,17.51 15.58,16.541 
			15.58,15.56 15.58,14.6 15.58,13.62 15.58,12.64 15.58,11.68 15.58,10.7 15.58,9.73 		"/>
		<polygon fill="#0A3542" points="7.79,15.56 6.81,15.56 6.81,16.541 6.81,17.51 7.79,17.51 8.76,17.51 8.76,16.541 7.79,16.541 		
			"/>
	</g>
	<polygon fill="#9C8F57" points="6.81,5.83 5.85,5.83 5.85,6.81 5.85,7.78 6.81,7.78 7.79,7.78 7.79,6.81 7.79,5.83 	"/>
	<g>
		<polygon fill="#6D5217" points="8.76,3.89 7.79,3.89 6.81,3.89 6.81,4.87 7.79,4.87 7.79,5.83 7.79,6.81 8.76,6.81 9.73,6.81 
			9.73,5.83 9.73,4.87 9.73,3.89 		"/>
		<polygon fill="#6D5217" points="3.9,3.89 3.9,4.87 3.9,5.83 3.9,6.81 3.9,7.78 4.87,7.78 4.87,6.81 4.87,5.83 4.87,4.87 
			5.85,4.87 5.85,3.89 4.87,3.89 		"/>
	</g>
	<g>
		<polygon fill="#C7B570" points="10.71,16.541 10.71,17.51 11.68,17.51 11.68,16.541 11.68,15.56 10.71,15.56 		"/>
		<rect x="10.71" y="13.62" fill="#C7B570" width="0.97" height="0.98"/>
		<polygon fill="#C7B570" points="7.79,1.95 6.81,1.95 6.81,2.92 6.81,3.89 7.79,3.89 8.76,3.89 9.73,3.89 9.73,2.92 9.73,1.95 
			8.76,1.95 		"/>
		<polygon fill="#C7B570" points="5.85,4.87 4.87,4.87 4.87,5.83 5.85,5.83 6.81,5.83 7.79,5.83 7.79,4.87 6.81,4.87 6.81,3.89 
			5.85,3.89 		"/>
		<polygon fill="#C7B570" points="1.95,14.6 1.95,15.56 1.95,16.541 1.95,17.51 1.95,18.48 2.93,18.48 2.93,17.51 2.93,16.541 
			2.93,15.56 2.93,14.6 2.93,13.62 1.95,13.62 		"/>
	</g>
	<g>
		<rect x="10.71" y="12.64" fill="#B3B3B3" width="0.97" height="0.979"/>
		<polygon fill="#B3B3B3" points="9.73,3.89 10.71,3.89 10.71,2.92 10.71,1.95 10.71,0.97 9.73,0.97 8.76,0.97 7.79,0.97 7.79,1.95 
			8.76,1.95 9.73,1.95 9.73,2.92 		"/>
		<rect x="8.76" y="22.37" fill="#B3B3B3" width="0.971" height="0.98"/>
		<polygon fill="#B3B3B3" points="7.79,12.64 7.79,13.62 8.76,13.62 9.73,13.62 9.73,12.64 8.76,12.64 		"/>
		<rect x="3.9" y="22.37" fill="#B3B3B3" width="0.97" height="0.98"/>
		<polygon fill="#B3B3B3" points="3.9,12.64 3.9,13.62 4.87,13.62 5.85,13.62 5.85,12.64 4.87,12.64 		"/>
		<polygon fill="#B3B3B3" points="0.98,12.64 0.98,13.62 1.95,13.62 1.95,12.64 1.95,11.68 0.98,11.68 		"/>
	</g>
	<g>
		<polygon fill="#BFBFBF" points="10.71,7.78 9.73,7.78 9.73,8.75 9.73,9.73 8.76,9.73 8.76,10.7 7.79,10.7 7.79,11.68 7.79,12.64 
			8.76,12.64 9.73,12.64 9.73,11.68 9.73,10.7 10.71,10.7 10.71,11.68 11.68,11.68 11.68,10.7 11.68,9.73 11.68,8.75 11.68,7.78 		
			"/>
		<polygon fill="#BFBFBF" points="8.76,19.46 8.76,20.43 8.76,21.41 8.76,22.37 9.73,22.37 9.73,21.41 9.73,20.43 9.73,19.46 
			9.73,18.48 8.76,18.48 		"/>
		<polygon fill="#BFBFBF" points="9.73,13.62 8.76,13.62 7.79,13.62 6.81,13.62 5.85,13.62 4.87,13.62 3.9,13.62 3.9,14.6 
			2.93,14.6 2.93,15.56 2.93,16.541 3.9,16.541 3.9,17.51 4.87,17.51 4.87,16.541 5.85,16.541 5.85,15.56 6.81,15.56 7.79,15.56 
			7.79,16.541 8.76,16.541 8.76,17.51 9.73,17.51 10.71,17.51 10.71,16.541 10.71,15.56 10.71,14.6 9.73,14.6 		"/>
		<polygon fill="#BFBFBF" points="8.76,9.73 8.76,8.75 7.79,8.75 6.81,8.75 5.85,8.75 4.87,8.75 4.87,9.73 5.85,9.73 5.85,10.7 
			6.81,10.7 7.79,10.7 7.79,9.73 		"/>
		<rect x="7.79" y="6.81" fill="#BFBFBF" width="0.97" height="0.97"/>
		<polygon fill="#BFBFBF" points="4.87,6.81 4.87,7.78 5.85,7.78 5.85,6.81 5.85,5.83 4.87,5.83 		"/>
		<polygon fill="#BFBFBF" points="3.9,19.46 3.9,20.43 3.9,21.41 3.9,22.37 4.87,22.37 4.87,21.41 4.87,20.43 4.87,19.46 
			4.87,18.48 3.9,18.48 		"/>
		<polygon fill="#BFBFBF" points="4.87,9.73 3.9,9.73 3.9,8.75 3.9,7.78 2.93,7.78 1.95,7.78 1.95,8.75 1.95,9.73 1.95,10.7 
			2.93,10.7 3.9,10.7 3.9,11.68 3.9,12.64 4.87,12.64 5.85,12.64 5.85,11.68 5.85,10.7 4.87,10.7 		"/>
		<polygon fill="#BFBFBF" points="3.9,3.89 4.87,3.89 5.85,3.89 6.81,3.89 6.81,2.92 6.81,1.95 7.79,1.95 7.79,0.97 8.76,0.97 
			8.76,0 7.79,0 6.81,0 5.85,0 4.87,0 4.87,0.97 3.9,0.97 3.9,1.95 3.9,2.92 2.93,2.92 2.93,3.89 2.93,4.87 3.9,4.87 		"/>
		<rect x="0.98" y="10.7" fill="#BFBFBF" width="0.97" height="0.98"/>
	</g>
	<g>
		<polygon fill="#8C8C8C" points="11.68,6.81 11.68,5.83 10.71,5.83 10.71,4.87 9.73,4.87 9.73,5.83 9.73,6.81 8.76,6.81 8.76,7.78 
			7.79,7.78 6.81,7.78 5.85,7.78 4.87,7.78 3.9,7.78 3.9,8.75 3.9,9.73 4.87,9.73 4.87,8.75 5.85,8.75 6.81,8.75 7.79,8.75 
			8.76,8.75 8.76,9.73 9.73,9.73 9.73,8.75 9.73,7.78 10.71,7.78 11.68,7.78 12.66,7.78 12.66,6.81 		"/>
		<rect x="7.79" y="9.73" fill="#8C8C8C" width="0.97" height="0.97"/>
		<polygon fill="#8C8C8C" points="5.85,10.7 5.85,11.68 5.85,12.64 5.85,13.62 6.81,13.62 7.79,13.62 7.79,12.64 7.79,11.68 
			7.79,10.7 6.81,10.7 		"/>
		<rect x="4.87" y="9.73" fill="#8C8C8C" width="0.98" height="0.97"/>
		<polygon fill="#8C8C8C" points="3.9,5.83 3.9,4.87 2.93,4.87 2.93,5.83 1.95,5.83 1.95,6.81 0.98,6.81 0.98,7.78 1.95,7.78 
			2.93,7.78 3.9,7.78 3.9,6.81 		"/>
	</g>
	<g>
		<polygon fill="#4D4D4D" points="10.71,17.51 9.73,17.51 8.76,17.51 7.79,17.51 6.81,17.51 5.85,17.51 4.87,17.51 3.9,17.51 
			3.9,16.541 2.93,16.541 2.93,17.51 2.93,18.48 2.93,19.46 3.9,19.46 3.9,18.48 4.87,18.48 5.85,18.48 6.81,18.48 7.79,18.48 
			8.76,18.48 9.73,18.48 10.71,18.48 11.68,18.48 11.68,17.51 		"/>
		<polygon fill="#4D4D4D" points="0,17.51 0,18.48 0.98,18.48 1.95,18.48 1.95,17.51 0.98,17.51 		"/>
	</g>
</g>
</svg>
