<?xml version="1.0" encoding="utf-8"?>
<!-- Generator: Adobe Illustrator 16.0.0, SVG Export Plug-In . SVG Version: 6.00 Build 0)  -->
<!DOCTYPE svg PUBLIC "-//W3C//DTD SVG 1.1//EN" "http://www.w3.org/Graphics/SVG/1.1/DTD/svg11.dtd">
<svg version="1.1" id="Layer_2" xmlns="http://www.w3.org/2000/svg" xmlns:xlink="http://www.w3.org/1999/xlink" x="0px" y="0px"
	 width="17.52px" height="23.27px" viewBox="0 0 17.52 23.27" enable-background="new 0 0 17.52 23.27" xml:space="preserve">
<polygon fill="#6D5217" points="8.755,5.82 8.755,4.85 8.755,3.88 7.785,3.88 6.814,3.88 6.814,2.9 5.835,2.9 5.835,1.93 
	6.814,1.93 7.785,1.93 8.755,1.93 8.755,0.97 7.785,0.97 7.785,0 6.814,0 5.835,0 4.865,0 3.905,0 3.905,0.97 2.935,0.97 
	2.935,1.93 2.935,2.9 2.935,3.88 2.935,4.85 2.935,5.82 3.905,5.82 3.905,4.85 4.865,4.85 4.865,3.88 5.835,3.88 5.835,4.85 
	6.814,4.85 6.814,5.82 7.785,5.82 7.785,6.79 8.755,6.79 8.755,7.75 8.755,8.72 9.725,8.72 9.725,7.75 9.725,6.79 9.725,5.82 "/>
<polygon fill="#737144" points="8.755,13.57 7.785,13.57 6.814,13.57 5.835,13.57 4.865,13.57 3.905,13.57 2.935,13.57 1.965,13.57 
	1.965,14.54 1.965,15.51 1.965,16.48 1.965,17.45 1.965,18.42 1.965,19.39 1.965,20.36 1.965,21.33 1.965,22.3 2.935,22.3 
	2.935,21.33 2.935,20.36 2.935,19.39 2.935,18.42 2.935,17.45 2.935,16.48 2.935,15.51 3.905,15.51 4.865,15.51 5.835,15.51 
	6.814,15.51 7.785,15.51 8.755,15.51 8.755,16.48 8.755,17.45 8.755,18.42 8.755,19.39 8.755,20.36 8.755,21.33 8.755,22.3 
	9.725,22.3 9.725,21.33 9.725,20.36 9.725,19.39 9.725,18.42 9.725,17.45 9.725,16.48 9.725,15.51 9.725,14.54 9.725,13.57 "/>
<polygon fill="#C7B570" points="0.995,17.45 0.995,18.42 1.965,18.42 1.965,17.45 1.965,16.48 1.965,15.51 1.965,14.54 0.995,14.54 
	0.995,13.57 0.024,13.57 0.024,14.54 0.024,15.51 0.995,15.51 0.995,16.48 "/>
<rect x="8.755" y="22.3" fill="#C7B570" width="0.97" height="0.97"/>
<polygon fill="#C7B570" points="8.755,2.9 8.755,1.93 7.785,1.93 6.814,1.93 5.835,1.93 5.835,2.9 6.814,2.9 6.814,3.88 7.785,3.88 
	8.755,3.88 "/>
<polygon fill="#C7B570" points="5.835,3.88 4.865,3.88 4.865,4.85 3.905,4.85 3.905,5.82 4.865,5.82 5.835,5.82 6.814,5.82 
	6.814,4.85 5.835,4.85 "/>
<rect x="1.965" y="22.3" fill="#C7B570" width="0.97" height="0.97"/>
<polygon fill="#9C8F57" points="9.725,6.79 9.725,7.75 9.725,8.72 8.755,8.72 8.755,7.75 8.755,6.79 7.785,6.79 7.785,5.82 
	6.814,5.82 5.835,5.82 4.865,5.82 3.905,5.82 2.935,5.82 1.965,5.82 1.965,6.79 0.995,6.79 0.995,7.75 0.024,7.75 0.024,8.72 
	0.024,9.69 0.024,10.66 0.024,11.64 0.024,12.61 0.024,13.57 0.995,13.57 0.995,12.61 0.995,11.64 0.995,10.66 1.965,10.66 
	1.965,11.64 1.965,12.61 1.965,13.57 2.935,13.57 3.905,13.57 4.865,13.57 5.835,13.57 6.814,13.57 7.785,13.57 8.755,13.57 
	9.725,13.57 10.685,13.57 10.685,12.61 10.685,11.64 10.685,10.66 10.685,9.69 10.685,8.72 10.685,7.75 10.685,6.79 "/>
<rect x="14.6" y="10.62" fill="#C7B570" width="0.971" height="0.98"/>
<rect x="13.63" y="10.62" fill="#C7B570" width="0.97" height="0.98"/>
<g>
	<rect x="10.71" y="13.54" fill="#8C8C8C" width="0.97" height="0.98"/>
	<rect x="9.729" y="8.67" fill="#8C8C8C" width="0.98" height="0.979"/>
	<rect x="8.76" y="10.62" fill="#8C8C8C" width="0.97" height="0.98"/>
	<rect x="7.79" y="19.38" fill="#8C8C8C" width="0.97" height="0.97"/>
	<rect x="7.79" y="14.52" fill="#8C8C8C" width="0.97" height="0.96"/>
	<rect x="6.81" y="22.29" fill="#8C8C8C" width="0.98" height="0.98"/>
	<polygon fill="#8C8C8C" points="6.81,19.38 6.81,18.4 6.81,17.43 6.81,16.46 6.81,15.48 6.81,14.52 6.81,13.54 6.81,12.56 
		6.81,11.6 6.81,10.62 6.81,9.65 6.81,8.67 6.81,7.7 6.81,6.73 6.81,5.75 5.84,5.75 5.84,6.73 5.84,7.7 5.84,8.67 5.84,9.65 
		5.84,10.62 5.84,11.6 5.84,12.56 5.84,13.54 5.84,14.52 5.84,15.48 5.84,16.46 5.84,17.43 5.84,18.4 5.84,19.38 5.84,20.35 
		6.81,20.35 	"/>
	<polygon fill="#8C8C8C" points="4.87,21.33 4.87,22.29 5.84,22.29 5.84,21.33 5.84,20.35 4.87,20.35 	"/>
	<rect x="3.9" y="22.29" fill="#8C8C8C" width="0.97" height="0.98"/>
	<rect x="3.9" y="12.56" fill="#8C8C8C" width="0.97" height="0.979"/>
	<rect x="2.92" y="16.46" fill="#8C8C8C" width="0.98" height="0.97"/>
	<rect x="2.92" y="6.73" fill="#8C8C8C" width="0.98" height="0.97"/>
	<rect x="1.95" y="20.35" fill="#8C8C8C" width="0.97" height="0.979"/>
	<rect x="0.98" y="8.67" fill="#8C8C8C" width="0.97" height="0.979"/>
	<rect y="12.56" fill="#8C8C8C" width="0.98" height="0.979"/>
</g>
<g>
	<rect x="13.63" y="11.6" fill="#B3B3B3" width="0.97" height="0.96"/>
	<rect x="12.649" y="12.56" fill="#B3B3B3" width="0.98" height="0.979"/>
	<rect x="11.68" y="13.54" fill="#B3B3B3" width="0.97" height="0.98"/>
	<polygon fill="#B3B3B3" points="9.729,7.7 9.729,8.67 10.71,8.67 10.71,7.7 10.71,6.73 9.729,6.73 	"/>
	<path fill="#B3B3B3" d="M8.76,7.7V6.73H7.79V5.75H6.81v0.98V7.7V8.67V9.65v0.97v0.98v0.96v0.979v0.98v0.96v0.98v0.97v0.97v0.98
		v0.97H5.84v0.979v0.96H4.87v0.98h0.97h0.97v-0.98h0.98v0.98h0.97v-0.98h0.97v-0.96V20.35v-0.97V18.4v-0.97v-0.97v-0.98v-0.96v-0.98
		h0.98V12.56V11.6v-0.98V9.65h-0.98V8.67H8.76V7.7z M8.76,20.35H7.79v-0.97h0.97V20.35z M8.76,15.48H7.79v-0.96h0.97V15.48z
		 M9.729,11.6H8.76v-0.98h0.97V11.6z"/>
	<path fill="#B3B3B3" d="M4.87,20.35h0.97v-0.97V18.4v-0.97v-0.97v-0.98v-0.96v-0.98V12.56V11.6v-0.98V9.65V8.67V7.7V6.73V5.75H4.87
		H3.9H2.92H1.95v0.98H0.98V7.7H0V8.67V9.65v0.97v0.98v0.96h0.98V11.6v-0.98h0.97v0.98v0.96v0.979v0.98H0.98v-0.98H0v0.98v0.96h0.98
		v0.98v0.97h0.97v0.97v0.98v0.97h0.97v0.979H1.95V20.35H0.98v0.979v0.96H0v0.98h0.98h0.97v-0.98h0.97v0.98H3.9v-0.98h0.97v-0.96
		V20.35z M4.87,13.54H3.9V12.56h0.97V13.54z M3.9,6.73V7.7H2.92V6.73H3.9z M0.98,9.65V8.67h0.97V9.65H0.98z M2.92,16.46H3.9v0.97
		H2.92V16.46z"/>
</g>
<g>
	<polygon fill="#ED1C24" points="16.549,6.729 15.58,6.729 15.58,5.75 15.58,4.77 14.6,4.77 14.6,3.81 14.6,2.83 13.639,2.83 
		13.639,3.81 13.639,4.77 13.639,5.75 14.6,5.75 14.6,6.729 13.639,6.729 13.639,5.75 12.658,5.75 12.658,6.729 12.658,7.69 
		11.68,7.69 11.68,8.67 12.658,8.67 13.639,8.67 13.639,9.639 14.6,9.639 15.58,9.639 16.549,9.639 16.549,8.67 15.58,8.67 
		15.58,7.69 16.549,7.69 16.549,8.67 17.52,8.67 17.52,7.69 17.52,6.729 	"/>
	<g>
		<rect x="13.639" y="1.86" fill="#F7931E" width="0.961" height="0.97"/>
		<rect x="15.58" y="7.69" fill="#F7931E" width="0.969" height="0.98"/>
		<rect x="15.58" y="5.75" fill="#F7931E" width="0.969" height="0.979"/>
		<rect x="14.6" y="3.81" fill="#F7931E" width="0.98" height="0.96"/>
		<rect x="13.639" y="5.75" fill="#F7931E" width="0.961" height="0.979"/>
		<rect x="12.658" y="8.67" fill="#F7931E" width="0.98" height="0.969"/>
		<rect x="11.68" y="6.729" fill="#F7931E" width="0.979" height="0.961"/>
	</g>
</g>
</svg>
